<svg width="189" height="67" viewBox="0 0 189 67" fill="none" xmlns="http://www.w3.org/2000/svg">
<path d="M182.284 29.0313H181.299V31.5428H180.436V29.0313H179.451V28.308H182.298L182.284 29.0313Z" fill="white"/>
<path d="M182.661 28.308H183.943L184.509 30.4645H184.523L185.09 28.308H186.371V31.5428H185.562V29.0838H185.548L184.847 31.5428H184.186L183.484 29.0838H183.471V31.5428H182.661V28.308Z" fill="white"/>
<path d="M2.58398 9.22802C33.2492 -3.02733 94.728 7.42654 122.317 26.0068C85.3652 13.1597 14.3617 7.0978 2.65144 24.8891C2.65144 13.2255 2.58398 9.22802 2.58398 9.22802Z" fill="white"/>
<path d="M186.467 57.8682C155.869 70.1235 99.5166 58.1311 81.3711 45.2183C114.33 56.356 174.702 59.9984 186.399 42.2202C186.413 53.8707 186.467 57.8682 186.467 57.8682Z" fill="white"/>
<path d="M15.1972 31.7007C15.3861 31.7138 15.5615 31.727 15.7234 31.727C15.8853 31.727 16.0472 31.727 16.2225 31.727C16.7217 31.727 17.1939 31.6612 17.6391 31.5297C18.0843 31.3982 18.489 31.201 18.8263 30.938C19.1636 30.675 19.4334 30.3594 19.6358 29.9781C19.8382 29.5968 19.9326 29.1365 19.9326 28.6237C19.9326 27.6243 19.6088 26.8617 18.9477 26.3488C18.2867 25.836 17.4637 25.573 16.4654 25.573C15.8178 25.573 15.2782 25.6913 14.8195 25.9017C14.3608 26.1253 13.983 26.4277 13.6727 26.7959C13.3624 27.1641 13.1466 27.6112 12.9982 28.1109C12.8498 28.6105 12.7823 29.1365 12.7823 29.6888H10.4349C10.4753 28.7815 10.6237 27.9399 10.8936 27.1904C11.1634 26.4409 11.5411 25.7965 12.0403 25.2574C12.5395 24.7183 13.1601 24.2975 13.9021 23.9951C14.6441 23.6926 15.5075 23.5348 16.4789 23.5348C17.3288 23.5348 18.1113 23.64 18.8263 23.8373C19.5548 24.0477 20.1754 24.3501 20.7151 24.7577C21.2412 25.1654 21.6594 25.6913 21.9697 26.3357C22.2665 26.98 22.4284 27.7427 22.4284 28.6105C22.4284 29.4521 22.1721 30.2016 21.646 30.8723C21.1198 31.5429 20.4857 32.0426 19.7302 32.3845V32.437C20.9174 32.6869 21.8078 33.2392 22.388 34.0676C22.9681 34.9092 23.2514 35.8954 23.2514 37.0394C23.2514 37.9861 23.076 38.8277 22.7117 39.5509C22.3475 40.2742 21.8753 40.879 21.2682 41.3656C20.6611 41.8521 19.9461 42.2203 19.1366 42.4701C18.3137 42.72 17.4502 42.8515 16.5328 42.8515C15.548 42.8515 14.6441 42.7068 13.8346 42.4307C13.0252 42.1545 12.3371 41.7469 11.7705 41.2209C11.2039 40.695 10.7722 40.0506 10.4619 39.2748C10.1651 38.5121 10.0166 37.6311 10.0301 36.6449H12.3641C12.4046 37.881 12.7688 38.8803 13.4704 39.6693C14.1719 40.4451 15.1837 40.8396 16.5193 40.8396C17.086 40.8396 17.6256 40.7607 18.1383 40.5898C18.6509 40.4188 19.0961 40.1821 19.4874 39.8665C19.8786 39.5509 20.1754 39.1696 20.4048 38.7094C20.6341 38.2491 20.7555 37.7363 20.7555 37.1709C20.7555 36.5791 20.6476 36.0532 20.4318 35.6061C20.2159 35.1459 19.9191 34.7645 19.5548 34.4489C19.1906 34.1333 18.7454 33.9098 18.2327 33.752C17.7201 33.5942 17.1804 33.5285 16.6138 33.5285C16.1146 33.5285 15.6559 33.5548 15.2107 33.6074V31.7007H15.1972Z" fill="white"/>
<path d="M25.1934 23.4165H31.9389C34.9609 23.4165 37.2949 24.166 38.9273 25.665C40.5597 27.1641 41.3826 29.4521 41.3826 32.5291C41.3826 34.1333 41.1938 35.5666 40.8295 36.8027C40.4653 38.0519 39.8986 39.0907 39.1296 39.9454C38.3606 40.8001 37.3758 41.4445 36.1886 41.8916C35.0014 42.3386 33.5848 42.5622 31.9524 42.5622H25.2068V23.4165H25.1934ZM27.8106 40.4188H32.1548C32.4516 40.4188 32.8158 40.3925 33.261 40.3531C33.7062 40.3136 34.1649 40.1953 34.6641 40.0375C35.1633 39.8665 35.6489 39.6167 36.1346 39.3011C36.6203 38.9855 37.052 38.5384 37.4433 37.9861C37.8345 37.4339 38.1448 36.7369 38.3876 35.9085C38.6305 35.0801 38.7654 34.0676 38.7654 32.8973C38.7654 31.7533 38.644 30.7276 38.4281 29.8203C38.1988 28.913 37.821 28.1503 37.2948 27.5323C36.7687 26.9011 36.0941 26.4277 35.2712 26.0858C34.4482 25.7439 33.4229 25.573 32.2222 25.573H27.8106V40.4188Z" fill="white"/>
<path d="M57.5591 29.8597C57.4917 29.3732 57.3163 28.9393 57.06 28.5316C56.8036 28.124 56.4799 27.7821 56.1021 27.4665C55.7109 27.1641 55.2792 26.9274 54.7935 26.7564C54.3078 26.5855 53.7951 26.5066 53.269 26.5066C52.2976 26.5066 51.4747 26.6907 50.7866 27.0589C50.1121 27.4271 49.5589 27.9136 49.1407 28.5316C48.7225 29.1497 48.4122 29.8466 48.2233 30.6356C48.0344 31.4245 47.94 32.2398 47.94 33.0814C47.94 33.8835 48.0344 34.6725 48.2233 35.422C48.4122 36.1847 48.7225 36.8684 49.1407 37.4733C49.5589 38.0782 50.1121 38.5647 50.7866 38.9329C51.4612 39.3011 52.2841 39.4852 53.269 39.4852C54.5911 39.4852 55.6164 39.0907 56.3719 38.2886C57.1139 37.4996 57.5726 36.4608 57.7345 35.1853H61.9168C61.8088 36.3819 61.5255 37.4602 61.0668 38.4332C60.6081 39.3931 60.001 40.2216 59.2455 40.9053C58.49 41.5891 57.6131 42.1019 56.6013 42.4701C55.5894 42.8383 54.4832 43.0224 53.269 43.0224C51.7445 43.0224 50.3819 42.7594 49.1947 42.2466C48.0075 41.7338 46.9956 41.0237 46.1727 40.1295C45.3497 39.2353 44.7156 38.1834 44.2704 36.9605C43.8252 35.7507 43.6094 34.4489 43.6094 33.0682C43.6094 31.6612 43.8252 30.3331 44.2704 29.0971C44.7156 27.861 45.3497 26.7959 46.1727 25.8754C46.9956 24.955 48.0075 24.2449 49.1947 23.7321C50.3819 23.2192 51.7445 22.9562 53.269 22.9562C54.3483 22.9562 55.3736 23.114 56.3315 23.4165C57.2893 23.7189 58.1527 24.166 58.9217 24.7446C59.6772 25.3232 60.3113 26.0464 60.8105 26.9011C61.3097 27.7558 61.62 28.742 61.7414 29.8466H57.5591V29.8597Z" fill="white"/>
<path d="M62.6592 35.6455C62.6592 34.5409 62.8346 33.5284 63.1853 32.6211C63.5361 31.7138 64.0353 30.9511 64.6694 30.3199C65.3169 29.6887 66.0859 29.1891 66.9763 28.8472C67.8802 28.4921 68.8786 28.3212 69.9983 28.3212C71.1181 28.3212 72.1299 28.4921 73.0338 28.8472C73.9377 29.2022 74.7202 29.6887 75.3543 30.3199C76.0019 30.9511 76.4875 31.7269 76.8383 32.6211C77.1891 33.5284 77.3644 34.5278 77.3644 35.6455C77.3644 36.75 77.1891 37.7494 76.8383 38.6436C76.4875 39.5377 75.9884 40.3004 75.3543 40.9316C74.7067 41.5628 73.9377 42.0625 73.0338 42.4043C72.1299 42.7594 71.1181 42.9303 69.9983 42.9303C68.8786 42.9303 67.8667 42.7594 66.9763 42.4043C66.0724 42.0493 65.3034 41.5628 64.6694 40.9316C64.0218 40.3004 63.5361 39.5377 63.1853 38.6436C62.8346 37.7626 62.6592 36.7632 62.6592 35.6455ZM66.5716 35.6455C66.5716 36.1978 66.6256 36.7369 66.7335 37.2629C66.8414 37.7889 67.0303 38.2622 67.3001 38.683C67.5699 39.1038 67.9207 39.4325 68.3659 39.6824C68.8111 39.9322 69.3508 40.0637 70.0118 40.0637C70.6729 40.0637 71.226 39.9322 71.6712 39.6824C72.1164 39.4325 72.4807 39.0907 72.7505 38.683C73.0203 38.2622 73.2092 37.7889 73.3171 37.2629C73.4251 36.7369 73.479 36.1978 73.479 35.6455C73.479 35.0932 73.4251 34.5409 73.3171 34.0149C73.2092 33.4758 73.0203 33.0024 72.7505 32.5948C72.4807 32.1872 72.1299 31.8453 71.6712 31.5954C71.226 31.3324 70.6729 31.2009 70.0118 31.2009C69.3508 31.2009 68.7976 31.3324 68.3659 31.5954C67.9207 31.8584 67.5699 32.1872 67.3001 32.5948C67.0303 33.0024 66.8414 33.4758 66.7335 34.0149C66.6256 34.5541 66.5716 35.0932 66.5716 35.6455Z" fill="white"/>
<path d="M78.7949 28.7026H82.478V30.583H82.5319C83.0446 29.8729 83.6652 29.3075 84.3937 28.9261C85.1222 28.5317 85.9452 28.3344 86.8896 28.3344C87.7935 28.3344 88.6164 28.5054 89.3584 28.8604C90.1004 29.2154 90.6671 29.8072 91.0448 30.6487C91.463 30.0439 92.0432 29.5047 92.7717 29.0445C93.5002 28.5843 94.3501 28.3476 95.3485 28.3476C96.104 28.3476 96.792 28.4396 97.4396 28.6106C98.0871 28.7946 98.6268 29.0708 99.0855 29.4653C99.5442 29.8598 99.895 30.3726 100.165 31.0038C100.421 31.6349 100.556 32.3976 100.556 33.2918V42.5753H96.6436V34.7119C96.6436 34.2517 96.6301 33.8046 96.5896 33.397C96.5492 32.9893 96.4547 32.6343 96.2928 32.3187C96.1309 32.0163 95.8881 31.7796 95.5643 31.5955C95.2405 31.4114 94.8088 31.3325 94.2557 31.3325C93.7026 31.3325 93.2573 31.4377 92.9201 31.6349C92.5828 31.8453 92.313 32.1083 92.1241 32.4371C91.9352 32.7658 91.8003 33.1471 91.7329 33.5679C91.6654 33.9887 91.6384 34.4095 91.6384 34.8434V42.5753H87.726V34.7908C87.726 34.3963 87.7125 34.0019 87.699 33.5811C87.6855 33.1734 87.6046 32.7921 87.4697 32.4502C87.3348 32.1083 87.1054 31.8322 86.7816 31.6349C86.4578 31.4246 85.9857 31.3325 85.3651 31.3325C85.1627 31.3325 84.9199 31.372 84.6231 31.4508C84.3263 31.5297 84.0429 31.6875 83.7596 31.9111C83.4763 32.1346 83.2335 32.4502 83.0311 32.871C82.8287 33.2918 82.7343 33.8441 82.7343 34.5147V42.5622H78.8219V28.7026H78.7949Z" fill="white"/>
<path d="M102.579 28.7026H106.262V30.583H106.316C106.829 29.8729 107.449 29.3075 108.178 28.9261C108.906 28.5317 109.729 28.3344 110.674 28.3344C111.578 28.3344 112.401 28.5054 113.143 28.8604C113.885 29.2154 114.451 29.8072 114.829 30.6487C115.247 30.0439 115.827 29.5047 116.556 29.0445C117.284 28.5843 118.134 28.3476 119.133 28.3476C119.888 28.3476 120.576 28.4396 121.224 28.6106C121.871 28.7946 122.411 29.0708 122.87 29.4653C123.328 29.8598 123.679 30.3726 123.949 31.0038C124.205 31.6349 124.34 32.3976 124.34 33.2918V42.5753H120.428V34.7119C120.428 34.2517 120.414 33.8046 120.374 33.397C120.333 32.9893 120.239 32.6343 120.077 32.3187C119.915 32.0163 119.672 31.7796 119.349 31.5955C119.025 31.4114 118.593 31.3325 118.04 31.3325C117.487 31.3325 117.042 31.4377 116.704 31.6349C116.367 31.8453 116.097 32.1083 115.908 32.4371C115.719 32.7658 115.584 33.1471 115.517 33.5679C115.45 33.9887 115.423 34.4095 115.423 34.8434V42.5753H111.51V34.7908C111.51 34.3963 111.497 34.0019 111.483 33.5811C111.47 33.1734 111.389 32.7921 111.254 32.4502C111.119 32.1083 110.89 31.8322 110.566 31.6349C110.242 31.4246 109.77 31.3325 109.149 31.3325C108.947 31.3325 108.704 31.372 108.407 31.4508C108.11 31.5297 107.827 31.6875 107.544 31.9111C107.261 32.1346 107.018 32.4502 106.815 32.871C106.613 33.2918 106.518 33.8441 106.518 34.5147V42.5622H102.606V28.7026H102.579Z" fill="white"/>
<path d="M129.481 36.566C129.535 37.7889 129.859 38.6699 130.439 39.2353C131.032 39.8008 131.869 40.0769 132.975 40.0769C133.758 40.0769 134.446 39.8797 135.012 39.4983C135.579 39.117 135.93 38.7094 136.065 38.2754H139.505C138.952 39.9191 138.115 41.1157 136.968 41.8389C135.835 42.5753 134.459 42.9435 132.84 42.9435C131.72 42.9435 130.709 42.7594 129.818 42.4044C128.914 42.0493 128.159 41.5497 127.538 40.9053C126.918 40.261 126.432 39.4983 126.095 38.6042C125.757 37.71 125.582 36.7238 125.582 35.6587C125.582 34.6199 125.757 33.6599 126.108 32.7658C126.459 31.8716 126.958 31.0958 127.592 30.4515C128.24 29.794 128.995 29.2812 129.886 28.913C130.776 28.5316 131.761 28.3475 132.84 28.3475C134.054 28.3475 135.107 28.5711 136.011 29.0313C136.915 29.4915 137.643 30.0964 138.223 30.8722C138.803 31.6349 139.221 32.5159 139.478 33.5021C139.734 34.4884 139.829 35.514 139.748 36.5923H129.481V36.566ZM135.849 34.1465C135.66 33.1866 135.336 32.4502 134.877 31.9505C134.405 31.4508 133.704 31.201 132.746 31.201C132.125 31.201 131.599 31.3062 131.194 31.5034C130.776 31.7138 130.452 31.9637 130.209 32.2661C129.967 32.5685 129.791 32.8973 129.683 33.226C129.589 33.5679 129.521 33.8703 129.508 34.1333H135.849V34.1465Z" fill="white"/>
<path d="M140.961 28.7026H144.671V31.2799H144.725C144.914 30.846 145.156 30.4515 145.467 30.0833C145.777 29.7151 146.141 29.3995 146.546 29.1497C146.951 28.8867 147.383 28.6894 147.855 28.5448C148.327 28.4002 148.799 28.3344 149.271 28.3344C149.568 28.3344 149.851 28.3739 150.121 28.4659V32.0031C149.932 31.9637 149.716 31.9374 149.46 31.9111C149.204 31.8848 148.961 31.8716 148.718 31.8716C148.003 31.8716 147.396 31.99 146.897 32.2267C146.398 32.4634 146.006 32.779 145.696 33.1734C145.399 33.5811 145.183 34.0545 145.049 34.5936C144.914 35.1327 144.86 35.7113 144.86 36.3293V42.5753H140.947V28.7026H140.961Z" fill="white"/>
<path d="M160.199 33.5811C159.943 31.99 158.985 31.1879 157.312 31.1879C156.691 31.1879 156.165 31.3325 155.747 31.6086C155.329 31.8848 154.978 32.2398 154.708 32.6869C154.438 33.1208 154.249 33.6074 154.142 34.1465C154.034 34.6856 153.98 35.1985 153.98 35.6981C153.98 36.1978 154.034 36.7107 154.142 37.2235C154.249 37.7363 154.425 38.2097 154.681 38.6305C154.924 39.0513 155.261 39.3932 155.679 39.6693C156.098 39.9323 156.61 40.0769 157.217 40.0769C158.135 40.0769 158.85 39.8271 159.363 39.3143C159.875 38.8014 160.199 38.1177 160.32 37.2629H164.084C163.828 39.1039 163.1 40.5109 161.885 41.4839C160.671 42.457 159.12 42.9435 157.231 42.9435C156.152 42.9435 155.167 42.7726 154.29 42.4176C153.413 42.0625 152.657 41.576 152.037 40.9448C151.416 40.3136 150.931 39.5641 150.58 38.6962C150.229 37.8284 150.054 36.8816 150.054 35.8428C150.054 34.7645 150.216 33.7783 150.539 32.8579C150.863 31.9374 151.335 31.1353 151.956 30.4646C152.577 29.794 153.346 29.268 154.236 28.8998C155.14 28.5185 156.165 28.3344 157.312 28.3344C158.162 28.3344 158.971 28.4396 159.754 28.65C160.536 28.8604 161.224 29.1891 161.831 29.6231C162.439 30.057 162.938 30.6093 163.329 31.2668C163.72 31.9242 163.95 32.7001 164.003 33.5679H160.199V33.5811Z" fill="white"/>
<path d="M168.483 36.566C168.537 37.7889 168.861 38.6699 169.441 39.2353C170.034 39.8008 170.871 40.0769 171.977 40.0769C172.76 40.0769 173.448 39.8797 174.014 39.4983C174.581 39.117 174.932 38.7094 175.067 38.2754H178.507C177.954 39.9191 177.117 41.1157 175.97 41.8389C174.837 42.5753 173.461 42.9435 171.842 42.9435C170.722 42.9435 169.711 42.7594 168.82 42.4044C167.916 42.0493 167.161 41.5497 166.54 40.9053C165.92 40.261 165.434 39.4983 165.097 38.6042C164.759 37.71 164.584 36.7238 164.584 35.6587C164.584 34.6199 164.759 33.6599 165.11 32.7658C165.461 31.8716 165.96 31.0958 166.594 30.4515C167.242 29.794 167.997 29.2812 168.888 28.913C169.778 28.5316 170.763 28.3475 171.842 28.3475C173.056 28.3475 174.109 28.5711 175.013 29.0313C175.916 29.4915 176.645 30.0964 177.225 30.8722C177.805 31.6349 178.223 32.5159 178.48 33.5021C178.736 34.4884 178.831 35.514 178.75 36.5923H168.483V36.566ZM174.837 34.1465C174.648 33.1866 174.325 32.4502 173.866 31.9505C173.394 31.4508 172.692 31.201 171.734 31.201C171.114 31.201 170.588 31.3062 170.183 31.5034C169.765 31.7138 169.441 31.9637 169.198 32.2661C168.955 32.5685 168.78 32.8973 168.672 33.226C168.577 33.5679 168.51 33.8703 168.496 34.1333H174.837V34.1465Z" fill="white"/>
</svg>
