<svg width="279" height="71" viewBox="0 0 279 71" fill="none" xmlns="http://www.w3.org/2000/svg">
<path d="M92.4008 22.161C92.4008 21.7738 92.3406 21.4297 92.2201 21.1286C92.1083 20.8275 91.9061 20.5523 91.6136 20.3028C91.3212 20.0533 90.9082 19.8124 90.3748 19.5801C89.8501 19.3393 89.1791 19.0941 88.3618 18.8446C87.4671 18.5693 86.6413 18.2639 85.8842 17.9284C85.1358 17.5843 84.482 17.1886 83.9228 16.7412C83.3636 16.2853 82.9292 15.7648 82.6195 15.1798C82.3098 14.5863 82.1549 13.9023 82.1549 13.1281C82.1549 12.3624 82.3141 11.6656 82.6324 11.0376C82.9593 10.4096 83.4195 9.86766 84.0131 9.41171C84.6153 8.94716 85.325 8.59015 86.1423 8.34067C86.9596 8.08259 87.8629 7.95355 88.8522 7.95355C90.2458 7.95355 91.4459 8.21163 92.4524 8.72779C93.4675 9.24396 94.2461 9.93648 94.7881 10.8054C95.3386 11.6742 95.6139 12.6334 95.6139 13.683H92.4008C92.4008 13.0636 92.2675 12.5173 92.0008 12.0441C91.7427 11.5624 91.347 11.1839 90.8136 10.9086C90.2888 10.6333 89.6221 10.4957 88.8135 10.4957C88.0478 10.4957 87.4112 10.6118 86.9036 10.8441C86.3961 11.0763 86.0176 11.3903 85.7681 11.7861C85.5186 12.1818 85.3939 12.6291 85.3939 13.1281C85.3939 13.4808 85.4756 13.8034 85.639 14.0959C85.8025 14.3798 86.052 14.6465 86.3875 14.896C86.723 15.1368 87.1445 15.3648 87.6521 15.5799C88.1596 15.7949 88.7575 16.0014 89.4458 16.1993C90.4867 16.509 91.3943 16.8531 92.1685 17.2316C92.9428 17.6015 93.588 18.023 94.1041 18.4962C94.6203 18.9693 95.0074 19.507 95.2655 20.1092C95.5236 20.7028 95.6526 21.3781 95.6526 22.1352C95.6526 22.9266 95.4935 23.6406 95.1752 24.2772C94.8569 24.9052 94.4009 25.4429 93.8073 25.8902C93.2224 26.329 92.5169 26.6688 91.6911 26.9097C90.8738 27.1419 89.9619 27.2581 88.9554 27.2581C88.0521 27.2581 87.1617 27.1376 86.2842 26.8968C85.4154 26.6559 84.6239 26.2903 83.9099 25.7999C83.1959 25.301 82.6281 24.6816 82.2066 23.9417C81.785 23.1933 81.5743 22.3201 81.5743 21.3222H84.8132C84.8132 21.933 84.9164 22.4535 85.1229 22.8836C85.3379 23.3137 85.6347 23.6664 86.0133 23.9417C86.3918 24.2084 86.8305 24.4063 87.3295 24.5353C87.837 24.6644 88.379 24.7289 88.9554 24.7289C89.7124 24.7289 90.3447 24.6213 90.8523 24.4063C91.3685 24.1912 91.7556 23.8901 92.0137 23.503C92.2718 23.1159 92.4008 22.6685 92.4008 22.161ZM104.363 27.2581C103.331 27.2581 102.397 27.0903 101.563 26.7548C100.737 26.4107 100.031 25.9333 99.4464 25.3225C98.87 24.7117 98.427 23.9933 98.1173 23.1675C97.8076 22.3416 97.6528 21.4512 97.6528 20.4963V19.9802C97.6528 18.8876 97.8119 17.8983 98.1302 17.0122C98.4485 16.1261 98.8916 15.3691 99.4593 14.7411C100.027 14.1045 100.698 13.6184 101.472 13.2829C102.247 12.9474 103.085 12.7797 103.989 12.7797C104.987 12.7797 105.86 12.9474 106.608 13.2829C107.357 13.6184 107.976 14.0916 108.466 14.7024C108.965 15.3046 109.335 16.0229 109.576 16.8574C109.826 17.6918 109.95 18.6123 109.95 19.6189V20.948H99.1625V18.7156H106.879V18.4704C106.862 17.9112 106.75 17.3864 106.544 16.8961C106.346 16.4057 106.04 16.01 105.627 15.7089C105.215 15.4078 104.664 15.2573 103.976 15.2573C103.46 15.2573 102.999 15.3691 102.595 15.5928C102.199 15.8078 101.868 16.1218 101.601 16.5348C101.335 16.9477 101.128 17.4467 100.982 18.0316C100.844 18.608 100.776 19.2575 100.776 19.9802V20.4963C100.776 21.1071 100.857 21.6749 101.021 22.1997C101.193 22.7158 101.442 23.1675 101.769 23.5546C102.096 23.9417 102.492 24.2471 102.956 24.4708C103.421 24.6859 103.95 24.7934 104.544 24.7934C105.292 24.7934 105.959 24.6429 106.544 24.3418C107.129 24.0407 107.636 23.6148 108.066 23.0642L109.705 24.6515C109.404 25.0902 109.013 25.5117 108.531 25.9161C108.049 26.3118 107.46 26.6344 106.763 26.8839C106.075 27.1333 105.275 27.2581 104.363 27.2581ZM115.706 7.1793V27H112.583V7.1793H115.706ZM122.442 7.1793V27H119.319V7.1793H122.442ZM139.785 18.5091H134.997L134.971 16.1477H139.152C139.858 16.1477 140.456 16.0444 140.946 15.838C141.445 15.6229 141.824 15.3175 142.082 14.9218C142.34 14.5174 142.469 14.0314 142.469 13.4636C142.469 12.8356 142.348 12.3237 142.107 11.928C141.867 11.5323 141.497 11.2441 140.998 11.0634C140.507 10.8828 139.879 10.7924 139.114 10.7924H135.978V27H132.739V8.21163H139.114C140.146 8.21163 141.066 8.31056 141.875 8.50842C142.692 8.70629 143.385 9.01598 143.953 9.43752C144.529 9.85045 144.964 10.3752 145.256 11.0118C145.557 11.6484 145.708 12.4055 145.708 13.2829C145.708 14.0572 145.523 14.7669 145.153 15.4121C144.783 16.0487 144.237 16.5692 143.514 16.9735C142.791 17.3778 141.892 17.6187 140.817 17.6961L139.785 18.5091ZM139.643 27H133.978L135.436 24.4321H139.643C140.374 24.4321 140.985 24.3116 141.475 24.0708C141.965 23.8213 142.331 23.4815 142.572 23.0513C142.821 22.6126 142.946 22.1007 142.946 21.5158C142.946 20.905 142.839 20.3759 142.624 19.9286C142.408 19.4726 142.069 19.1242 141.604 18.8833C141.14 18.6338 140.533 18.5091 139.785 18.5091H136.146L136.172 16.1477H140.907L141.643 17.038C142.675 17.0724 143.523 17.3004 144.185 17.722C144.856 18.1435 145.355 18.6898 145.682 19.3608C146.009 20.0318 146.172 20.7544 146.172 21.5287C146.172 22.7244 145.91 23.7267 145.385 24.5353C144.869 25.344 144.125 25.9591 143.153 26.3806C142.181 26.7935 141.011 27 139.643 27ZM152.456 13.0378V27H149.334V13.0378H152.456ZM149.127 9.373C149.127 8.89985 149.282 8.50842 149.592 8.19872C149.91 7.88042 150.349 7.72127 150.908 7.72127C151.459 7.72127 151.893 7.88042 152.211 8.19872C152.53 8.50842 152.689 8.89985 152.689 9.373C152.689 9.83755 152.53 10.2247 152.211 10.5344C151.893 10.8441 151.459 10.9989 150.908 10.9989C150.349 10.9989 149.91 10.8441 149.592 10.5344C149.282 10.2247 149.127 9.83755 149.127 9.373ZM164.806 13.0378H167.632V26.6129C167.632 27.8689 167.365 28.9356 166.832 29.8131C166.298 30.6906 165.554 31.3573 164.599 31.8132C163.644 32.2778 162.539 32.5101 161.283 32.5101C160.75 32.5101 160.156 32.4326 159.502 32.2778C158.857 32.1229 158.229 31.8734 157.618 31.5293C157.016 31.1938 156.513 30.7508 156.108 30.2002L157.567 28.3678C158.065 28.9614 158.616 29.3959 159.218 29.6711C159.82 29.9464 160.453 30.0841 161.115 30.0841C161.829 30.0841 162.436 29.9507 162.935 29.6841C163.442 29.426 163.834 29.0431 164.109 28.5356C164.384 28.028 164.522 27.4086 164.522 26.6774V16.1993L164.806 13.0378ZM155.321 20.1737V19.9027C155.321 18.8446 155.45 17.8811 155.708 17.0122C155.966 16.1347 156.336 15.382 156.818 14.754C157.3 14.1174 157.885 13.6314 158.573 13.2958C159.261 12.9517 160.04 12.7797 160.909 12.7797C161.812 12.7797 162.582 12.9431 163.219 13.27C163.864 13.5969 164.401 14.0658 164.832 14.6766C165.262 15.2788 165.597 16.0014 165.838 16.8445C166.088 17.6789 166.272 18.608 166.393 19.6318V20.4963C166.281 21.4943 166.092 22.4061 165.825 23.232C165.558 24.0579 165.206 24.7719 164.767 25.3741C164.328 25.9763 163.786 26.4408 163.141 26.7677C162.504 27.0946 161.752 27.2581 160.883 27.2581C160.031 27.2581 159.261 27.0817 158.573 26.729C157.893 26.3763 157.308 25.8816 156.818 25.245C156.336 24.6084 155.966 23.86 155.708 22.9997C155.45 22.1309 155.321 21.1889 155.321 20.1737ZM158.431 19.9027V20.1737C158.431 20.8103 158.491 21.4039 158.612 21.9545C158.741 22.5051 158.934 22.9911 159.192 23.4127C159.459 23.8256 159.795 24.1525 160.199 24.3934C160.612 24.6256 161.098 24.7418 161.657 24.7418C162.388 24.7418 162.986 24.5869 163.451 24.2772C163.924 23.9675 164.285 23.5503 164.535 23.0255C164.793 22.4922 164.973 21.8986 165.077 21.2448V18.9091C165.025 18.4016 164.918 17.9284 164.754 17.4897C164.599 17.0509 164.388 16.6681 164.122 16.3412C163.855 16.0057 163.52 15.7476 163.115 15.567C162.711 15.3777 162.233 15.2831 161.683 15.2831C161.124 15.2831 160.638 15.4035 160.225 15.6444C159.812 15.8853 159.472 16.2165 159.205 16.638C158.947 17.0595 158.754 17.5499 158.625 18.1091C158.496 18.6683 158.431 19.2661 158.431 19.9027ZM184.859 8.21163V27H181.646V8.21163H184.859ZM190.756 8.21163V10.7924H175.8V8.21163H190.756ZM196.253 13.0378V27H193.13V13.0378H196.253ZM192.924 9.373C192.924 8.89985 193.079 8.50842 193.388 8.19872C193.707 7.88042 194.145 7.72127 194.705 7.72127C195.255 7.72127 195.69 7.88042 196.008 8.19872C196.326 8.50842 196.485 8.89985 196.485 9.373C196.485 9.83755 196.326 10.2247 196.008 10.5344C195.69 10.8441 195.255 10.9989 194.705 10.9989C194.145 10.9989 193.707 10.8441 193.388 10.5344C193.079 10.2247 192.924 9.83755 192.924 9.373ZM205.363 24.7805C205.871 24.7805 206.327 24.6816 206.731 24.4837C207.144 24.2772 207.475 23.9933 207.725 23.632C207.983 23.2707 208.125 22.8535 208.151 22.3803H211.08C211.063 23.2836 210.796 24.1052 210.28 24.845C209.764 25.5849 209.08 26.1741 208.228 26.6129C207.376 27.043 206.434 27.2581 205.402 27.2581C204.335 27.2581 203.406 27.0774 202.615 26.7161C201.823 26.3462 201.165 25.8386 200.64 25.1934C200.116 24.5482 199.72 23.8041 199.453 22.961C199.195 22.1179 199.066 21.2147 199.066 20.2512V19.7995C199.066 18.836 199.195 17.9327 199.453 17.0897C199.72 16.238 200.116 15.4895 200.64 14.8443C201.165 14.1991 201.823 13.6959 202.615 13.3346C203.406 12.9646 204.331 12.7797 205.389 12.7797C206.507 12.7797 207.488 13.0034 208.331 13.4507C209.174 13.8894 209.837 14.5045 210.318 15.296C210.809 16.0788 211.063 16.9907 211.08 18.0316H208.151C208.125 17.5155 207.996 17.0509 207.763 16.638C207.54 16.2165 207.221 15.881 206.809 15.6315C206.404 15.382 205.918 15.2573 205.35 15.2573C204.722 15.2573 204.202 15.3863 203.789 15.6444C203.376 15.8939 203.053 16.238 202.821 16.6767C202.589 17.1069 202.421 17.5929 202.318 18.1349C202.223 18.6683 202.176 19.2231 202.176 19.7995V20.2512C202.176 20.8275 202.223 21.3867 202.318 21.9287C202.413 22.4707 202.576 22.9567 202.808 23.3869C203.049 23.8084 203.376 24.1482 203.789 24.4063C204.202 24.6558 204.727 24.7805 205.363 24.7805ZM216.603 7.1793V27H213.48V7.1793H216.603ZM225.274 13.0378L219.196 19.7737L215.867 23.1804L215.054 20.5479L217.571 17.4381L221.519 13.0378H225.274ZM222.19 27L217.661 20.4447L219.622 18.2639L225.79 27H222.19ZM233.146 27.2581C232.113 27.2581 231.18 27.0903 230.346 26.7548C229.52 26.4107 228.814 25.9333 228.229 25.3225C227.653 24.7117 227.21 23.9933 226.9 23.1675C226.591 22.3416 226.436 21.4512 226.436 20.4963V19.9802C226.436 18.8876 226.595 17.8983 226.913 17.0122C227.231 16.1261 227.674 15.3691 228.242 14.7411C228.81 14.1045 229.481 13.6184 230.255 13.2829C231.03 12.9474 231.868 12.7797 232.772 12.7797C233.77 12.7797 234.643 12.9474 235.391 13.2829C236.14 13.6184 236.759 14.0916 237.249 14.7024C237.748 15.3046 238.118 16.0229 238.359 16.8574C238.609 17.6918 238.733 18.6123 238.733 19.6189V20.948H227.945V18.7156H235.662V18.4704C235.645 17.9112 235.533 17.3864 235.327 16.8961C235.129 16.4057 234.823 16.01 234.41 15.7089C233.997 15.4078 233.447 15.2573 232.759 15.2573C232.243 15.2573 231.782 15.3691 231.378 15.5928C230.982 15.8078 230.651 16.1218 230.384 16.5348C230.118 16.9477 229.911 17.4467 229.765 18.0316C229.627 18.608 229.558 19.2575 229.558 19.9802V20.4963C229.558 21.1071 229.64 21.6749 229.804 22.1997C229.976 22.7158 230.225 23.1675 230.552 23.5546C230.879 23.9417 231.275 24.2471 231.739 24.4708C232.204 24.6859 232.733 24.7934 233.326 24.7934C234.075 24.7934 234.742 24.6429 235.327 24.3418C235.912 24.0407 236.419 23.6148 236.849 23.0642L238.488 24.6515C238.187 25.0902 237.796 25.5117 237.314 25.9161C236.832 26.3118 236.243 26.6344 235.546 26.8839C234.858 27.1333 234.058 27.2581 233.146 27.2581ZM247.56 13.0378V15.3089H239.688V13.0378H247.56ZM241.959 9.61818H245.069V23.1417C245.069 23.5718 245.129 23.903 245.25 24.1353C245.379 24.359 245.555 24.5095 245.779 24.5869C246.003 24.6644 246.265 24.7031 246.566 24.7031C246.781 24.7031 246.988 24.6902 247.185 24.6644C247.383 24.6385 247.542 24.6127 247.663 24.5869L247.676 26.9613C247.418 27.0387 247.117 27.1075 246.773 27.1678C246.437 27.228 246.05 27.2581 245.611 27.2581C244.897 27.2581 244.265 27.1333 243.714 26.8839C243.164 26.6258 242.734 26.2085 242.424 25.6322C242.114 25.0558 241.959 24.2901 241.959 23.3352V9.61818ZM257.793 23.2191C257.793 22.9094 257.715 22.6298 257.56 22.3803C257.406 22.1222 257.109 21.89 256.67 21.6835C256.24 21.477 255.603 21.2878 254.76 21.1157C254.02 20.9523 253.341 20.7587 252.721 20.535C252.111 20.3028 251.586 20.0232 251.147 19.6963C250.708 19.3694 250.368 18.9823 250.128 18.5349C249.887 18.0876 249.766 17.5714 249.766 16.9864C249.766 16.4186 249.891 15.881 250.141 15.3734C250.39 14.8658 250.747 14.4185 251.212 14.0314C251.676 13.6443 252.24 13.3389 252.902 13.1152C253.573 12.8915 254.321 12.7797 255.147 12.7797C256.317 12.7797 257.32 12.9775 258.154 13.3733C258.997 13.7604 259.642 14.2895 260.09 14.9605C260.537 15.6229 260.761 16.3713 260.761 17.2058H257.651C257.651 16.8359 257.556 16.4918 257.367 16.1735C257.186 15.8466 256.911 15.5842 256.541 15.3863C256.171 15.1798 255.706 15.0766 255.147 15.0766C254.614 15.0766 254.171 15.1626 253.818 15.3347C253.474 15.4981 253.216 15.7132 253.044 15.9799C252.88 16.2466 252.799 16.5391 252.799 16.8574C252.799 17.0897 252.842 17.3004 252.928 17.4897C253.022 17.6703 253.177 17.8381 253.392 17.9929C253.607 18.1392 253.9 18.2768 254.27 18.4059C254.648 18.5349 255.122 18.6596 255.689 18.7801C256.756 19.0038 257.672 19.292 258.438 19.6447C259.212 19.9888 259.806 20.4361 260.219 20.9867C260.632 21.5287 260.838 22.2169 260.838 23.0513C260.838 23.6707 260.705 24.2385 260.438 24.7547C260.18 25.2622 259.801 25.7053 259.302 26.0838C258.803 26.4537 258.206 26.7419 257.509 26.9484C256.821 27.1548 256.046 27.2581 255.186 27.2581C253.921 27.2581 252.85 27.0344 251.973 26.5871C251.095 26.1311 250.429 25.5504 249.973 24.845C249.525 24.131 249.302 23.3912 249.302 22.6255H252.308C252.343 23.2019 252.502 23.6621 252.786 24.0062C253.078 24.3418 253.44 24.5869 253.87 24.7418C254.309 24.888 254.76 24.9612 255.225 24.9612C255.784 24.9612 256.253 24.888 256.631 24.7418C257.01 24.5869 257.298 24.3805 257.496 24.1224C257.694 23.8557 257.793 23.5546 257.793 23.2191Z" fill="#949494"/>
<path d="M85.9746 43.2116V62H82.7356V43.2116H85.9746ZM96.0914 48.0378V50.3089H88.2199V48.0378H96.0914ZM90.491 44.6182H93.6009V58.1417C93.6009 58.5718 93.6611 58.903 93.7815 59.1353C93.9106 59.359 94.0869 59.5095 94.3106 59.5869C94.5343 59.6644 94.7967 59.7031 95.0978 59.7031C95.3128 59.7031 95.5193 59.6902 95.7171 59.6644C95.915 59.6385 96.0742 59.6127 96.1946 59.5869L96.2075 61.9613C95.9494 62.0387 95.6483 62.1075 95.3042 62.1678C94.9687 62.228 94.5816 62.2581 94.1428 62.2581C93.4288 62.2581 92.7965 62.1333 92.2459 61.8839C91.6954 61.6258 91.2652 61.2085 90.9555 60.6322C90.6458 60.0558 90.491 59.2901 90.491 58.3352V44.6182ZM104.647 62.2581C103.614 62.2581 102.681 62.0903 101.847 61.7548C101.021 61.4107 100.315 60.9333 99.7303 60.3225C99.1539 59.7117 98.7109 58.9933 98.4012 58.1675C98.0915 57.3416 97.9367 56.4512 97.9367 55.4963V54.9802C97.9367 53.8876 98.0958 52.8983 98.4141 52.0122C98.7324 51.1261 99.1754 50.3691 99.7432 49.7411C100.311 49.1045 100.982 48.6184 101.756 48.2829C102.531 47.9474 103.369 47.7797 104.273 47.7797C105.27 47.7797 106.144 47.9474 106.892 48.2829C107.641 48.6184 108.26 49.0916 108.75 49.7024C109.249 50.3046 109.619 51.0229 109.86 51.8574C110.11 52.6918 110.234 53.6123 110.234 54.6189V55.948H99.4464V53.7156H107.163V53.4704C107.146 52.9112 107.034 52.3864 106.828 51.8961C106.63 51.4057 106.324 51.01 105.911 50.7089C105.498 50.4078 104.948 50.2573 104.26 50.2573C103.743 50.2573 103.283 50.3691 102.879 50.5928C102.483 50.8078 102.152 51.1218 101.885 51.5348C101.619 51.9477 101.412 52.4467 101.266 53.0316C101.128 53.608 101.059 54.2575 101.059 54.9802V55.4963C101.059 56.1071 101.141 56.6749 101.305 57.1997C101.477 57.7158 101.726 58.1675 102.053 58.5546C102.38 58.9417 102.776 59.2471 103.24 59.4708C103.705 59.6859 104.234 59.7934 104.827 59.7934C105.576 59.7934 106.243 59.6429 106.828 59.3418C107.413 59.0407 107.92 58.6148 108.35 58.0642L109.989 59.6515C109.688 60.0902 109.297 60.5117 108.815 60.9161C108.333 61.3118 107.744 61.6344 107.047 61.8839C106.359 62.1333 105.559 62.2581 104.647 62.2581ZM115.77 50.8767V62H112.66V48.0378H115.589L115.77 50.8767ZM115.267 54.5027L114.209 54.4898C114.209 53.5263 114.329 52.6359 114.57 51.8187C114.811 51.0014 115.164 50.2917 115.628 49.6895C116.093 49.0787 116.669 48.6098 117.357 48.2829C118.054 47.9474 118.859 47.7797 119.77 47.7797C120.407 47.7797 120.988 47.8743 121.512 48.0636C122.046 48.2442 122.506 48.5324 122.893 48.9281C123.289 49.3239 123.59 49.8314 123.796 50.4508C124.012 51.0702 124.119 51.8187 124.119 52.6961V62H121.009V52.9671C121.009 52.2875 120.906 51.7541 120.699 51.367C120.502 50.9799 120.213 50.7046 119.835 50.5412C119.465 50.3691 119.022 50.2831 118.506 50.2831C117.921 50.2831 117.422 50.3949 117.009 50.6186C116.605 50.8423 116.273 51.1477 116.015 51.5348C115.757 51.9219 115.568 52.3692 115.448 52.8768C115.327 53.3844 115.267 53.9263 115.267 54.5027ZM123.926 53.6769L122.467 53.9995C122.467 53.1564 122.583 52.3606 122.816 51.6122C123.057 50.8552 123.405 50.1927 123.861 49.625C124.326 49.0486 124.898 48.5969 125.577 48.27C126.257 47.9431 127.035 47.7797 127.913 47.7797C128.627 47.7797 129.264 47.8786 129.823 48.0765C130.39 48.2657 130.872 48.5668 131.268 48.9798C131.664 49.3927 131.965 49.9304 132.171 50.5928C132.378 51.2466 132.481 52.038 132.481 52.9671V62H129.358V52.9542C129.358 52.2488 129.255 51.7025 129.048 51.3154C128.851 50.9283 128.567 50.6616 128.197 50.5154C127.827 50.3605 127.384 50.2831 126.868 50.2831C126.386 50.2831 125.96 50.3734 125.59 50.5541C125.229 50.7261 124.923 50.9713 124.674 51.2896C124.424 51.5993 124.235 51.9563 124.106 52.3606C123.986 52.765 123.926 53.2037 123.926 53.6769ZM143.514 58.2191C143.514 57.9094 143.437 57.6298 143.282 57.3803C143.127 57.1222 142.83 56.89 142.391 56.6835C141.961 56.477 141.325 56.2878 140.481 56.1157C139.742 55.9523 139.062 55.7587 138.443 55.535C137.832 55.3028 137.307 55.0232 136.868 54.6963C136.43 54.3694 136.09 53.9823 135.849 53.5349C135.608 53.0876 135.488 52.5714 135.488 51.9864C135.488 51.4186 135.612 50.881 135.862 50.3734C136.111 49.8658 136.468 49.4185 136.933 49.0314C137.397 48.6443 137.961 48.3389 138.623 48.1152C139.294 47.8915 140.043 47.7797 140.869 47.7797C142.039 47.7797 143.041 47.9775 143.875 48.3733C144.718 48.7604 145.364 49.2895 145.811 49.9605C146.258 50.6229 146.482 51.3713 146.482 52.2058H143.372C143.372 51.8359 143.277 51.4918 143.088 51.1735C142.907 50.8466 142.632 50.5842 142.262 50.3863C141.892 50.1798 141.428 50.0766 140.869 50.0766C140.335 50.0766 139.892 50.1626 139.539 50.3347C139.195 50.4981 138.937 50.7132 138.765 50.9799C138.602 51.2466 138.52 51.5391 138.52 51.8574C138.52 52.0897 138.563 52.3004 138.649 52.4897C138.744 52.6703 138.899 52.8381 139.114 52.9929C139.329 53.1392 139.621 53.2768 139.991 53.4059C140.37 53.5349 140.843 53.6596 141.411 53.7801C142.477 54.0038 143.393 54.292 144.159 54.6447C144.933 54.9888 145.527 55.4361 145.94 55.9867C146.353 56.5287 146.559 57.2169 146.559 58.0513C146.559 58.6707 146.426 59.2385 146.159 59.7547C145.901 60.2622 145.523 60.7053 145.024 61.0838C144.525 61.4537 143.927 61.7419 143.23 61.9484C142.542 62.1548 141.768 62.2581 140.907 62.2581C139.643 62.2581 138.572 62.0344 137.694 61.5871C136.817 61.1311 136.15 60.5504 135.694 59.845C135.247 59.131 135.023 58.3912 135.023 57.6255H138.03C138.064 58.2019 138.223 58.6621 138.507 59.0062C138.8 59.3418 139.161 59.5869 139.591 59.7418C140.03 59.888 140.481 59.9612 140.946 59.9612C141.505 59.9612 141.974 59.888 142.353 59.7418C142.731 59.5869 143.019 59.3805 143.217 59.1224C143.415 58.8557 143.514 58.5546 143.514 58.2191ZM168.47 59.4321V62H158.496V59.4321H168.47ZM159.412 43.2116V62H156.173V43.2116H159.412ZM167.167 51.0573V53.5865H158.496V51.0573H167.167ZM168.406 43.2116V45.7924H158.496V43.2116H168.406ZM174.781 62H171.671V46.6957C171.671 45.6548 171.864 44.7816 172.251 44.0762C172.647 43.3622 173.211 42.8245 173.942 42.4632C174.673 42.0933 175.538 41.9083 176.536 41.9083C176.845 41.9083 177.151 41.9298 177.452 41.9728C177.753 42.0072 178.045 42.0632 178.329 42.1406L178.252 44.5408C178.08 44.4977 177.89 44.4676 177.684 44.4504C177.486 44.4332 177.271 44.4246 177.039 44.4246C176.566 44.4246 176.157 44.5149 175.813 44.6956C175.477 44.8677 175.219 45.1214 175.039 45.4569C174.867 45.7924 174.781 46.2054 174.781 46.6957V62ZM177.658 48.0378V50.3089H169.529V48.0378H177.658ZM184.123 62H181.013V46.6957C181.013 45.6548 181.207 44.7816 181.594 44.0762C181.99 43.3622 182.553 42.8245 183.284 42.4632C184.016 42.0933 184.88 41.9083 185.878 41.9083C186.188 41.9083 186.493 41.9298 186.794 41.9728C187.095 42.0072 187.388 42.0632 187.672 42.1406L187.594 44.5408C187.422 44.4977 187.233 44.4676 187.027 44.4504C186.829 44.4332 186.614 44.4246 186.381 44.4246C185.908 44.4246 185.5 44.5149 185.155 44.6956C184.82 44.8677 184.562 45.1214 184.381 45.4569C184.209 45.7924 184.123 46.2054 184.123 46.6957V62ZM187.001 48.0378V50.3089H178.871V48.0378H187.001ZM195.105 62.2581C194.072 62.2581 193.139 62.0903 192.304 61.7548C191.478 61.4107 190.773 60.9333 190.188 60.3225C189.612 59.7117 189.169 58.9933 188.859 58.1675C188.549 57.3416 188.394 56.4512 188.394 55.4963V54.9802C188.394 53.8876 188.554 52.8983 188.872 52.0122C189.19 51.1261 189.633 50.3691 190.201 49.7411C190.769 49.1045 191.44 48.6184 192.214 48.2829C192.988 47.9474 193.827 47.7797 194.73 47.7797C195.728 47.7797 196.601 47.9474 197.35 48.2829C198.098 48.6184 198.718 49.0916 199.208 49.7024C199.707 50.3046 200.077 51.0229 200.318 51.8574C200.567 52.6918 200.692 53.6123 200.692 54.6189V55.948H189.904V53.7156H197.621V53.4704C197.604 52.9112 197.492 52.3864 197.285 51.8961C197.087 51.4057 196.782 51.01 196.369 50.7089C195.956 50.4078 195.406 50.2573 194.717 50.2573C194.201 50.2573 193.741 50.3691 193.337 50.5928C192.941 50.8078 192.61 51.1218 192.343 51.5348C192.076 51.9477 191.87 52.4467 191.724 53.0316C191.586 53.608 191.517 54.2575 191.517 54.9802V55.4963C191.517 56.1071 191.599 56.6749 191.762 57.1997C191.934 57.7158 192.184 58.1675 192.511 58.5546C192.838 58.9417 193.233 59.2471 193.698 59.4708C194.163 59.6859 194.692 59.7934 195.285 59.7934C196.034 59.7934 196.7 59.6429 197.285 59.3418C197.87 59.0407 198.378 58.6148 198.808 58.0642L200.447 59.6515C200.146 60.0902 199.754 60.5117 199.273 60.9161C198.791 61.3118 198.202 61.6344 197.505 61.8839C196.816 62.1333 196.016 62.2581 195.105 62.2581ZM208.822 59.7805C209.329 59.7805 209.785 59.6816 210.189 59.4837C210.602 59.2772 210.934 58.9933 211.183 58.632C211.441 58.2707 211.583 57.8535 211.609 57.3803H214.538C214.521 58.2836 214.254 59.1052 213.738 59.845C213.222 60.5849 212.538 61.1741 211.686 61.6129C210.835 62.043 209.893 62.2581 208.86 62.2581C207.794 62.2581 206.864 62.0774 206.073 61.7161C205.282 61.3462 204.623 60.8386 204.099 60.1934C203.574 59.5482 203.178 58.8041 202.912 57.961C202.653 57.1179 202.524 56.2147 202.524 55.2512V54.7995C202.524 53.836 202.653 52.9327 202.912 52.0897C203.178 51.238 203.574 50.4895 204.099 49.8443C204.623 49.1991 205.282 48.6959 206.073 48.3346C206.864 47.9646 207.789 47.7797 208.847 47.7797C209.966 47.7797 210.946 48.0034 211.79 48.4507C212.633 48.8894 213.295 49.5045 213.777 50.296C214.267 51.0788 214.521 51.9907 214.538 53.0316H211.609C211.583 52.5155 211.454 52.0509 211.222 51.638C210.998 51.2165 210.68 50.881 210.267 50.6315C209.863 50.382 209.376 50.2573 208.809 50.2573C208.181 50.2573 207.66 50.3863 207.247 50.6444C206.834 50.8939 206.512 51.238 206.279 51.6767C206.047 52.1069 205.879 52.5929 205.776 53.1349C205.682 53.6683 205.634 54.2231 205.634 54.7995V55.2512C205.634 55.8275 205.682 56.3867 205.776 56.9287C205.871 57.4707 206.034 57.9567 206.267 58.3869C206.507 58.8084 206.834 59.1482 207.247 59.4063C207.66 59.6558 208.185 59.7805 208.822 59.7805ZM223.326 48.0378V50.3089H215.454V48.0378H223.326ZM217.725 44.6182H220.835V58.1417C220.835 58.5718 220.896 58.903 221.016 59.1353C221.145 59.359 221.321 59.5095 221.545 59.5869C221.769 59.6644 222.031 59.7031 222.332 59.7031C222.547 59.7031 222.754 59.6902 222.952 59.6644C223.149 59.6385 223.309 59.6127 223.429 59.5869L223.442 61.9613C223.184 62.0387 222.883 62.1075 222.539 62.1678C222.203 62.228 221.816 62.2581 221.377 62.2581C220.663 62.2581 220.031 62.1333 219.48 61.8839C218.93 61.6258 218.5 61.2085 218.19 60.6322C217.88 60.0558 217.725 59.2901 217.725 58.3352V44.6182ZM229.055 48.0378V62H225.932V48.0378H229.055ZM225.726 44.373C225.726 43.8998 225.881 43.5084 226.191 43.1987C226.509 42.8804 226.948 42.7213 227.507 42.7213C228.057 42.7213 228.492 42.8804 228.81 43.1987C229.128 43.5084 229.287 43.8998 229.287 44.373C229.287 44.8375 229.128 45.2247 228.81 45.5344C228.492 45.8441 228.057 45.9989 227.507 45.9989C226.948 45.9989 226.509 45.8441 226.191 45.5344C225.881 45.2247 225.726 44.8375 225.726 44.373ZM237.004 59.5353L240.424 48.0378H243.65L238.798 62H236.785L237.004 59.5353ZM234.385 48.0378L237.869 59.5869L238.036 62H236.023L231.146 48.0378H234.385ZM251.547 62.2581C250.515 62.2581 249.581 62.0903 248.747 61.7548C247.921 61.4107 247.216 60.9333 246.631 60.3225C246.054 59.7117 245.611 58.9933 245.301 58.1675C244.992 57.3416 244.837 56.4512 244.837 55.4963V54.9802C244.837 53.8876 244.996 52.8983 245.314 52.0122C245.633 51.1261 246.076 50.3691 246.644 49.7411C247.211 49.1045 247.882 48.6184 248.657 48.2829C249.431 47.9474 250.27 47.7797 251.173 47.7797C252.171 47.7797 253.044 47.9474 253.792 48.2829C254.541 48.6184 255.16 49.0916 255.651 49.7024C256.15 50.3046 256.519 51.0229 256.76 51.8574C257.01 52.6918 257.135 53.6123 257.135 54.6189V55.948H246.347V53.7156H254.063V53.4704C254.046 52.9112 253.934 52.3864 253.728 51.8961C253.53 51.4057 253.225 51.01 252.812 50.7089C252.399 50.4078 251.848 50.2573 251.16 50.2573C250.644 50.2573 250.184 50.3691 249.779 50.5928C249.383 50.8078 249.052 51.1218 248.786 51.5348C248.519 51.9477 248.312 52.4467 248.166 53.0316C248.029 53.608 247.96 54.2575 247.96 54.9802V55.4963C247.96 56.1071 248.041 56.6749 248.205 57.1997C248.377 57.7158 248.626 58.1675 248.953 58.5546C249.28 58.9417 249.676 59.2471 250.141 59.4708C250.605 59.6859 251.134 59.7934 251.728 59.7934C252.476 59.7934 253.143 59.6429 253.728 59.3418C254.313 59.0407 254.82 58.6148 255.251 58.0642L256.889 59.6515C256.588 60.0902 256.197 60.5117 255.715 60.9161C255.233 61.3118 254.644 61.6344 253.947 61.8839C253.259 62.1333 252.459 62.2581 251.547 62.2581ZM262.89 42.1793V62H259.767V42.1793H262.89ZM270.348 60.4773L274.142 48.0378H277.471L271.871 64.1292C271.742 64.4733 271.574 64.8475 271.368 65.2518C271.161 65.6562 270.89 66.039 270.555 66.4003C270.228 66.7702 269.819 67.067 269.329 67.2907C268.839 67.523 268.245 67.6391 267.548 67.6391C267.273 67.6391 267.006 67.6133 266.748 67.5617C266.499 67.5187 266.262 67.4713 266.038 67.4197L266.025 65.0454C266.111 65.054 266.215 65.0626 266.335 65.0712C266.464 65.0798 266.567 65.0841 266.645 65.0841C267.161 65.0841 267.591 65.0196 267.935 64.8905C268.279 64.7701 268.559 64.5722 268.774 64.2969C268.998 64.0216 269.187 63.6517 269.342 63.1872L270.348 60.4773ZM268.206 48.0378L271.523 58.4901L272.077 61.7677L269.923 62.3226L264.851 48.0378H268.206Z" fill="white"/>
<path d="M54.49 16.7222V13.0896H49.0411V9.45691H45.4084V13.0896H43.5921C41.5887 13.0896 39.9594 14.7206 39.9594 16.7222V20.3549C39.9594 22.3583 41.5887 23.9875 43.5921 23.9875H50.8574V27.6202H39.9594V31.2529H45.4084V34.8855H49.0411V31.2529H50.8574C52.8608 31.2529 54.49 29.6236 54.49 27.6202V23.9875C54.49 21.986 52.8608 20.3549 50.8574 20.3549H43.5921V16.7222H54.49ZM43.5921 42.1508V45.7835H48.2891L41.7757 52.2969L37.6127 48.132C37.2726 47.7918 36.8114 47.6004 36.3304 47.5998H36.3267C36.0885 47.5998 35.8526 47.6468 35.6326 47.7382C35.4125 47.8295 35.2127 47.9633 35.0444 48.132L25.4288 57.7459L27.9971 60.3141L36.3286 51.9845L40.4916 56.1493C40.8322 56.4898 41.2941 56.6811 41.7757 56.6811C42.2574 56.6811 42.7193 56.4898 43.0599 56.1493L50.8574 48.3518V53.0488H54.49V42.1508H43.5921ZM7.26547 60.3141H3.63281V51.2325C3.63281 44.2215 9.33609 38.5182 16.3471 38.5182H27.2451C30.8578 38.5182 34.3106 40.0621 36.7209 42.7557L34.0146 45.1787C33.1621 44.2268 32.1188 43.4653 30.9524 42.9436C29.786 42.4219 28.5228 42.1518 27.2451 42.1508H16.3471C11.3395 42.1508 7.26547 46.2249 7.26547 51.2325V60.3141ZM21.7961 34.8855C25.1682 34.8855 28.4021 33.546 30.7865 31.1616C33.1709 28.7772 34.5104 25.5433 34.5104 22.1712C34.5104 18.7992 33.1709 15.5652 30.7865 13.1808C28.4021 10.7964 25.1682 9.45691 21.7961 9.45691C18.4241 9.45691 15.1901 10.7964 12.8057 13.1808C10.4213 15.5652 9.0818 18.7992 9.0818 22.1712C9.0818 25.5433 10.4213 28.7772 12.8057 31.1616C15.1901 33.546 18.4241 34.8855 21.7961 34.8855ZM21.7961 13.0896C24.2047 13.0896 26.5147 14.0464 28.2178 15.7495C29.9209 17.4527 30.8778 19.7626 30.8778 22.1712C30.8778 24.5798 29.9209 26.8898 28.2178 28.5929C26.5147 30.2961 24.2047 31.2529 21.7961 31.2529C19.3875 31.2529 17.0776 30.2961 15.3744 28.5929C13.6713 26.8898 12.7145 24.5798 12.7145 22.1712C12.7145 19.7626 13.6713 17.4527 15.3744 15.7495C17.0776 14.0464 19.3875 13.0896 21.7961 13.0896Z" fill="#F8493B"/>
</svg>
