<svg width="180" height="71" viewBox="0 0 180 71" fill="none" xmlns="http://www.w3.org/2000/svg">
<path d="M94.0544 17.3993V24.574C93.7877 24.9267 93.3704 25.3139 92.8027 25.7354C92.2435 26.1483 91.4994 26.5053 90.5703 26.8064C89.6412 27.1075 88.4841 27.2581 87.0991 27.2581C85.9205 27.2581 84.8408 27.0602 83.8601 26.6645C82.8794 26.2602 82.032 25.6709 81.318 24.8966C80.6126 24.1224 80.0663 23.1804 79.6792 22.0706C79.2921 20.9523 79.0985 19.6791 79.0985 18.251V16.9477C79.0985 15.5283 79.2749 14.2637 79.6276 13.1539C79.9889 12.0355 80.5051 11.0892 81.1761 10.315C81.8471 9.54075 82.6557 8.95577 83.602 8.56004C84.5569 8.15571 85.6366 7.95355 86.841 7.95355C88.3809 7.95355 89.6541 8.21163 90.6606 8.72779C91.6757 9.23535 92.4586 9.94078 93.0091 10.8441C93.5597 11.7474 93.9081 12.7797 94.0544 13.941H90.88C90.7767 13.2872 90.5746 12.7023 90.2735 12.1861C89.981 11.6699 89.5594 11.2656 89.0089 10.9731C88.4669 10.672 87.7615 10.5215 86.8926 10.5215C86.1442 10.5215 85.486 10.6634 84.9183 10.9473C84.3505 11.2312 83.8773 11.6484 83.4988 12.199C83.1289 12.7496 82.8493 13.4206 82.66 14.212C82.4708 15.0035 82.3762 15.9068 82.3762 16.9219V18.251C82.3762 19.2833 82.4837 20.1995 82.6988 20.9996C82.9224 21.7996 83.2407 22.475 83.6537 23.0255C84.0752 23.5761 84.5871 23.9933 85.1892 24.2772C85.7914 24.5525 86.4711 24.6902 87.2281 24.6902C87.9679 24.6902 88.5744 24.6299 89.0476 24.5095C89.5207 24.3805 89.8949 24.2299 90.1702 24.0579C90.4541 23.8772 90.6735 23.7052 90.8283 23.5417V19.8124H86.9184V17.3993H94.0544ZM100.455 15.696V27H97.3449V13.0378H100.313L100.455 15.696ZM104.726 12.9474L104.7 15.838C104.511 15.8035 104.305 15.7777 104.081 15.7605C103.866 15.7433 103.651 15.7347 103.436 15.7347C102.902 15.7347 102.433 15.8121 102.029 15.967C101.625 16.1132 101.285 16.3283 101.01 16.6122C100.743 16.8875 100.537 17.223 100.39 17.6187C100.244 18.0144 100.158 18.4575 100.132 18.9478L99.4225 18.9995C99.4225 18.122 99.5085 17.309 99.6806 16.5606C99.8526 15.8121 100.111 15.154 100.455 14.5863C100.808 14.0185 101.246 13.5754 101.771 13.2571C102.304 12.9388 102.919 12.7797 103.616 12.7797C103.806 12.7797 104.008 12.7969 104.223 12.8313C104.446 12.8657 104.614 12.9044 104.726 12.9474ZM105.745 20.1737V19.8769C105.745 18.8704 105.892 17.937 106.184 17.0767C106.477 16.2079 106.898 15.4551 107.449 14.8185C108.008 14.1733 108.688 13.6744 109.488 13.3217C110.296 12.9603 111.208 12.7797 112.223 12.7797C113.247 12.7797 114.159 12.9603 114.959 13.3217C115.768 13.6744 116.452 14.1733 117.011 14.8185C117.57 15.4551 117.996 16.2079 118.288 17.0767C118.581 17.937 118.727 18.8704 118.727 19.8769V20.1737C118.727 21.1803 118.581 22.1136 118.288 22.9739C117.996 23.8342 117.57 24.5869 117.011 25.2321C116.452 25.8687 115.772 26.3677 114.972 26.729C114.172 27.0817 113.264 27.2581 112.249 27.2581C111.225 27.2581 110.309 27.0817 109.501 26.729C108.701 26.3677 108.021 25.8687 107.462 25.2321C106.903 24.5869 106.477 23.8342 106.184 22.9739C105.892 22.1136 105.745 21.1803 105.745 20.1737ZM108.855 19.8769V20.1737C108.855 20.8017 108.92 21.3953 109.049 21.9545C109.178 22.5137 109.38 23.004 109.655 23.4256C109.931 23.8471 110.283 24.1783 110.714 24.4192C111.144 24.6601 111.656 24.7805 112.249 24.7805C112.826 24.7805 113.324 24.6601 113.746 24.4192C114.176 24.1783 114.529 23.8471 114.804 23.4256C115.079 23.004 115.282 22.5137 115.411 21.9545C115.548 21.3953 115.617 20.8017 115.617 20.1737V19.8769C115.617 19.2575 115.548 18.6726 115.411 18.122C115.282 17.5628 115.075 17.0681 114.791 16.638C114.516 16.2079 114.163 15.8724 113.733 15.6315C113.312 15.382 112.808 15.2573 112.223 15.2573C111.638 15.2573 111.131 15.382 110.701 15.6315C110.279 15.8724 109.931 16.2079 109.655 16.638C109.38 17.0681 109.178 17.5628 109.049 18.122C108.92 18.6726 108.855 19.2575 108.855 19.8769ZM125.127 23.903L128.353 13.0378H130.341L129.799 16.2896L126.547 27H124.766L125.127 23.903ZM123.231 13.0378L125.747 23.9546L125.953 27H123.966L120.185 13.0378H123.231ZM133.36 23.8256L135.799 13.0378H138.832L135.064 27H133.076L133.36 23.8256ZM130.676 13.0378L133.864 23.774L134.264 27H132.483L129.192 16.2767L128.65 13.0378H130.676Z" fill="#949494"/>
<path d="M79.6276 43.2116H86.2732C87.7012 43.2116 88.9185 43.4267 89.9251 43.8568C90.9316 44.287 91.7015 44.9236 92.2349 45.7666C92.7769 46.6011 93.0478 47.6334 93.0478 48.8636C93.0478 49.8013 92.8758 50.6272 92.5317 51.3412C92.1876 52.0552 91.7015 52.6574 91.0735 53.1478C90.4455 53.6295 89.6971 54.0038 88.8282 54.2704L87.8475 54.7479H81.8729L81.8471 52.18H86.3248C87.0991 52.18 87.7443 52.0423 88.2604 51.767C88.7766 51.4918 89.1637 51.1175 89.4218 50.6444C89.6885 50.1626 89.8218 49.6207 89.8218 49.0185C89.8218 48.3647 89.6928 47.7969 89.4347 47.3151C89.1852 46.8248 88.7981 46.4506 88.2733 46.1925C87.7486 45.9258 87.0818 45.7924 86.2732 45.7924H82.8665V62H79.6276V43.2116ZM90.3509 62L85.9377 53.5607L89.3315 53.5478L93.8092 61.8322V62H90.3509ZM102.119 62.2581C101.087 62.2581 100.154 62.0903 99.3192 61.7548C98.4934 61.4107 97.788 60.9333 97.203 60.3225C96.6266 59.7117 96.1835 58.9933 95.8738 58.1675C95.5641 57.3416 95.4093 56.4512 95.4093 55.4963V54.9802C95.4093 53.8876 95.5684 52.8983 95.8867 52.0122C96.205 51.1261 96.6481 50.3691 97.2159 49.7411C97.7837 49.1045 98.4547 48.6184 99.2289 48.2829C100.003 47.9474 100.842 47.7797 101.745 47.7797C102.743 47.7797 103.616 47.9474 104.365 48.2829C105.113 48.6184 105.733 49.0916 106.223 49.7024C106.722 50.3046 107.092 51.0229 107.333 51.8574C107.582 52.6918 107.707 53.6123 107.707 54.6189V55.948H96.9191V53.7156H104.636V53.4704C104.619 52.9112 104.507 52.3864 104.3 51.8961C104.102 51.4057 103.797 51.01 103.384 50.7089C102.971 50.4078 102.421 50.2573 101.732 50.2573C101.216 50.2573 100.756 50.3691 100.352 50.5928C99.9558 50.8078 99.6246 51.1218 99.358 51.5348C99.0913 51.9477 98.8848 52.4467 98.7386 53.0316C98.6009 53.608 98.5321 54.2575 98.5321 54.9802V55.4963C98.5321 56.1071 98.6138 56.6749 98.7773 57.1997C98.9493 57.7158 99.1988 58.1675 99.5257 58.5546C99.8526 58.9417 100.248 59.2471 100.713 59.4708C101.177 59.6859 101.706 59.7934 102.3 59.7934C103.049 59.7934 103.715 59.6429 104.3 59.3418C104.885 59.0407 105.393 58.6148 105.823 58.0642L107.462 59.6515C107.161 60.0902 106.769 60.5117 106.287 60.9161C105.806 61.3118 105.216 61.6344 104.52 61.8839C103.831 62.1333 103.031 62.2581 102.119 62.2581ZM114.494 59.5353L117.914 48.0378H121.14L116.288 62H114.275L114.494 59.5353ZM111.875 48.0378L115.359 59.5869L115.527 62H113.514L108.636 48.0378H111.875ZM129.037 62.2581C128.005 62.2581 127.072 62.0903 126.237 61.7548C125.411 61.4107 124.706 60.9333 124.121 60.3225C123.545 59.7117 123.101 58.9933 122.792 58.1675C122.482 57.3416 122.327 56.4512 122.327 55.4963V54.9802C122.327 53.8876 122.486 52.8983 122.805 52.0122C123.123 51.1261 123.566 50.3691 124.134 49.7411C124.702 49.1045 125.373 48.6184 126.147 48.2829C126.921 47.9474 127.76 47.7797 128.663 47.7797C129.661 47.7797 130.534 47.9474 131.283 48.2829C132.031 48.6184 132.651 49.0916 133.141 49.7024C133.64 50.3046 134.01 51.0229 134.251 51.8574C134.5 52.6918 134.625 53.6123 134.625 54.6189V55.948H123.837V53.7156H131.554V53.4704C131.536 52.9112 131.425 52.3864 131.218 51.8961C131.02 51.4057 130.715 51.01 130.302 50.7089C129.889 50.4078 129.338 50.2573 128.65 50.2573C128.134 50.2573 127.674 50.3691 127.27 50.5928C126.874 50.8078 126.543 51.1218 126.276 51.5348C126.009 51.9477 125.803 52.4467 125.657 53.0316C125.519 53.608 125.45 54.2575 125.45 54.9802V55.4963C125.45 56.1071 125.532 56.6749 125.695 57.1997C125.867 57.7158 126.117 58.1675 126.444 58.5546C126.771 58.9417 127.166 59.2471 127.631 59.4708C128.095 59.6859 128.624 59.7934 129.218 59.7934C129.966 59.7934 130.633 59.6429 131.218 59.3418C131.803 59.0407 132.311 58.6148 132.741 58.0642L134.38 59.6515C134.079 60.0902 133.687 60.5117 133.205 60.9161C132.724 61.3118 132.134 61.6344 131.438 61.8839C130.749 62.1333 129.949 62.2581 129.037 62.2581ZM140.135 51.0186V62H137.025V48.0378H139.954L140.135 51.0186ZM139.58 54.5027L138.574 54.4898C138.582 53.5005 138.72 52.5929 138.986 51.767C139.262 50.9412 139.64 50.2315 140.122 49.6379C140.612 49.0443 141.197 48.5883 141.877 48.27C142.557 47.9431 143.314 47.7797 144.148 47.7797C144.819 47.7797 145.426 47.8743 145.968 48.0636C146.518 48.2442 146.987 48.541 147.374 48.954C147.77 49.3669 148.071 49.9046 148.277 50.567C148.484 51.2208 148.587 52.0251 148.587 52.98V62H145.464V52.9671C145.464 52.2961 145.365 51.767 145.168 51.3799C144.978 50.9842 144.699 50.7046 144.329 50.5412C143.967 50.3691 143.516 50.2831 142.974 50.2831C142.44 50.2831 141.963 50.3949 141.541 50.6186C141.12 50.8423 140.763 51.1477 140.47 51.5348C140.187 51.9219 139.967 52.3692 139.812 52.8768C139.657 53.3844 139.58 53.9263 139.58 54.5027ZM160.162 58.7095V48.0378H163.285V62H160.343L160.162 58.7095ZM160.601 55.806L161.646 55.7802C161.646 56.7179 161.543 57.5825 161.336 58.3739C161.13 59.1568 160.812 59.8407 160.381 60.4257C159.951 61.0021 159.401 61.4537 158.73 61.7806C158.059 62.0989 157.254 62.2581 156.317 62.2581C155.637 62.2581 155.013 62.1592 154.446 61.9613C153.878 61.7634 153.387 61.458 152.974 61.0451C152.57 60.6322 152.256 60.0945 152.032 59.4321C151.809 58.7697 151.697 57.9782 151.697 57.0577V48.0378H154.807V57.0835C154.807 57.5911 154.867 58.0169 154.988 58.361C155.108 58.6966 155.271 58.9675 155.478 59.174C155.684 59.3805 155.925 59.5267 156.201 59.6127C156.476 59.6988 156.768 59.7418 157.078 59.7418C157.964 59.7418 158.661 59.5697 159.168 59.2256C159.685 58.8729 160.05 58.3998 160.265 57.8062C160.489 57.2126 160.601 56.5459 160.601 55.806ZM172.627 62.2581C171.595 62.2581 170.662 62.0903 169.827 61.7548C169.001 61.4107 168.296 60.9333 167.711 60.3225C167.135 59.7117 166.692 58.9933 166.382 58.1675C166.072 57.3416 165.917 56.4512 165.917 55.4963V54.9802C165.917 53.8876 166.076 52.8983 166.395 52.0122C166.713 51.1261 167.156 50.3691 167.724 49.7411C168.292 49.1045 168.963 48.6184 169.737 48.2829C170.511 47.9474 171.35 47.7797 172.253 47.7797C173.251 47.7797 174.124 47.9474 174.873 48.2829C175.621 48.6184 176.241 49.0916 176.731 49.7024C177.23 50.3046 177.6 51.0229 177.841 51.8574C178.09 52.6918 178.215 53.6123 178.215 54.6189V55.948H167.427V53.7156H175.144V53.4704C175.127 52.9112 175.015 52.3864 174.808 51.8961C174.61 51.4057 174.305 51.01 173.892 50.7089C173.479 50.4078 172.929 50.2573 172.24 50.2573C171.724 50.2573 171.264 50.3691 170.86 50.5928C170.464 50.8078 170.133 51.1218 169.866 51.5348C169.599 51.9477 169.393 52.4467 169.247 53.0316C169.109 53.608 169.04 54.2575 169.04 54.9802V55.4963C169.04 56.1071 169.122 56.6749 169.285 57.1997C169.457 57.7158 169.707 58.1675 170.034 58.5546C170.361 58.9417 170.756 59.2471 171.221 59.4708C171.685 59.6859 172.215 59.7934 172.808 59.7934C173.557 59.7934 174.223 59.6429 174.808 59.3418C175.393 59.0407 175.901 58.6148 176.331 58.0642L177.97 59.6515C177.669 60.0902 177.277 60.5117 176.795 60.9161C176.314 61.3118 175.724 61.6344 175.028 61.8839C174.339 62.1333 173.539 62.2581 172.627 62.2581Z" fill="white"/>
<path d="M35.8937 33.5275L49.561 27.4869V58.0569H35.8937V33.5275ZM35.8937 33.5275L27.3507 38.0581L18.8076 25.9767V58.0489H35.8937V33.5275Z" stroke="#F8493B" stroke-width="2.17903" stroke-linecap="round" stroke-linejoin="round"/>
<path d="M52.9562 11.3252L31.2838 25.1758L21.3223 13.5287L3.49902 22.6854M5.14069 32.0174L18.808 25.9767V58.0529H5.14069V32.0174Z" stroke="#F8493B" stroke-width="2.17903" stroke-linecap="round" stroke-linejoin="round"/>
<path d="M42.1807 9.49628L52.9511 11.2894L51.158 22.0638" stroke="#F8493B" stroke-width="2.17903" stroke-linecap="round" stroke-linejoin="round"/>
</svg>
