<svg width="232" height="243" viewBox="0 0 232 243" fill="none" xmlns="http://www.w3.org/2000/svg">
<path d="M229.568 61.8247L125.806 2.39038L22.0908 61.8247V180.693L125.806 240.128V121.54L229.568 61.8247Z" fill="#FFA9A2"/>
<path d="M22.0908 180.319L125.853 239.753V121.166L22.0908 61.45V180.319Z" fill="#F8493B"/>
<path d="M231.646 60.6531L125.806 0L20.3433 60.4656L20.0127 60.6531V63.0436V181.865L123.728 241.3L125.806 242.472L127.884 241.3L230.56 182.475L231.599 181.865V62.9967L231.646 60.6531ZM125.806 4.781L174.546 32.717L74.9874 89.7609L26.2469 61.8249L125.806 4.781ZM123.728 236.566L24.1689 179.475V65.3872L123.728 122.431V236.566ZM168.029 94.6825L125.806 118.869L77.0654 90.9327L176.672 33.8888L225.412 61.8249L168.029 94.6825Z" fill="#1B1B1B"/>
<path d="M84.6223 121.4L65.4001 110.385C63.2748 109.166 61.1023 109.026 59.3548 110.057C57.3712 111.229 56.1904 113.619 56.1904 116.759C56.1904 121.962 59.3076 127.821 63.322 130.118L82.5443 141.133C83.725 141.789 84.9057 142.164 85.992 142.164C86.9366 142.164 87.7867 141.93 88.5896 141.461C90.5732 140.336 91.7539 137.899 91.7539 134.759C91.7539 129.556 88.6368 123.697 84.6223 121.4ZM86.5587 137.852C85.992 138.18 85.0946 137.805 84.6223 137.524L65.4001 126.509C62.6608 124.915 60.3466 120.462 60.3466 116.713C60.3466 114.885 60.9133 113.9 61.4329 113.619C62.0468 113.291 62.897 113.666 63.322 113.947L64.6444 114.697C65.1167 119.15 67.8088 123.837 71.1621 125.759L87.5978 135.18C87.5033 136.727 87.031 137.571 86.5587 137.852Z" fill="#1B1B1B"/>
<rect x="1" y="17.2568" width="79.639" height="80.1871" rx="7.78621" fill="#FFA59F"/>
<rect x="1" y="17.2568" width="79.639" height="80.1871" rx="7.78621" stroke="black" stroke-width="2"/>
<path d="M38.3174 34.575V26.2568L27.3174 37.3477L38.3174 48.4387V40.1205C47.4199 40.1205 54.8174 47.5791 54.8174 56.7568C54.8174 59.5573 54.1299 62.2191 52.8924 64.5205L56.9074 68.5687C59.1356 65.0387 60.3185 60.941 60.3174 56.7568C60.3174 44.5014 50.4724 34.575 38.3174 34.575ZM38.3174 73.3932C29.2149 73.3932 21.8174 65.9346 21.8174 56.7568C21.8174 53.9564 22.5049 51.2946 23.7424 48.9932L19.7274 44.945C17.4992 48.4749 16.3162 52.5726 16.3174 56.7568C16.3174 69.0123 26.1624 78.9387 38.3174 78.9387V87.2568L49.3174 76.1659L38.3174 65.075V73.3932Z" fill="#222222"/>
</svg>
