<svg width="227" height="270" viewBox="0 0 227 270" fill="none" xmlns="http://www.w3.org/2000/svg">
<path d="M55.2998 177.591L1.58887 146.615V84.5854L55.2998 115.6V177.591Z" fill="#F8493B"/>
<path d="M109.011 84.5855L55.2998 115.6L1.58887 84.5855L55.2998 53.5706L109.011 84.5855Z" fill="#F8493B"/>
<path d="M109.011 95.3077L65.1129 120.445L11.3623 89.4303L55.3004 64.2927L109.011 95.3077Z" fill="#FFA9A2"/>
<path d="M55.3 51.7438L1.58908 82.7587L0 83.7515V147.529L53.7109 178.544L55.3 179.457L56.889 178.544L110.6 147.529V85.4988V83.6721L55.3 51.7438ZM55.3 55.3973L105.872 84.5855L80.4869 99.2391L55.3 113.774L47.3546 109.207L4.72751 84.5855L55.3 55.3973ZM3.13843 145.702V87.3256L53.7109 116.514V174.89L3.13843 145.702Z" fill="#1B1B1B"/>
<path d="M225.252 96.3799L137.972 46.0253L50.7314 96.3799V197.089L137.972 247.444V146.973L225.252 96.3799Z" fill="#FFA9A2"/>
<path d="M50.7314 196.771L138.012 247.126V146.655L50.7314 96.0623V196.771Z" fill="#F8493B"/>
<path d="M227 95.3871L137.972 44L49.2615 95.2283L48.9834 95.3871V97.4124V198.082L136.224 248.436L137.972 249.429L139.72 248.436L226.086 198.598L226.96 198.082V97.3727L227 95.3871ZM137.972 48.0506L178.97 71.7189L95.2256 120.048L54.2274 96.3799L137.972 48.0506ZM136.224 244.426L52.4794 196.057V99.398L136.224 147.727V244.426ZM173.488 124.218L137.972 144.709L96.9736 121.041L180.758 72.7117L221.756 96.3799L173.488 124.218Z" fill="#1B1B1B"/>
<path d="M103.33 146.854L87.1608 137.521C85.3731 136.489 83.5457 136.37 82.0758 137.243C80.4072 138.236 79.4141 140.261 79.4141 142.922C79.4141 147.33 82.036 152.294 85.4128 154.24L101.582 163.572C102.575 164.128 103.568 164.446 104.482 164.446C105.276 164.446 105.991 164.247 106.667 163.85C108.335 162.897 109.328 160.832 109.328 158.171C109.328 153.763 106.707 148.799 103.33 146.854ZM104.959 160.792C104.482 161.07 103.727 160.753 103.33 160.514L87.1608 151.182C84.8567 149.832 82.91 146.059 82.91 142.882C82.91 141.334 83.3868 140.5 83.8238 140.261C84.3402 139.983 85.0553 140.301 85.4128 140.539L86.5252 141.175C86.9225 144.947 89.1869 148.919 92.0075 150.547L105.833 158.529C105.753 159.839 105.356 160.554 104.959 160.792Z" fill="#1B1B1B"/>
<path d="M65.1129 268.173L11.3623 237.158V175.168L65.1129 206.183V268.173Z" fill="#F8493B"/>
<path d="M118.824 175.168L65.1129 206.183L11.3623 175.168L65.1129 144.153L118.824 175.168Z" fill="#F8493B"/>
<path d="M118.824 185.89L74.9254 211.028L21.1748 180.013L65.1129 154.875L118.824 185.89Z" fill="#FFA9A2"/>
<path d="M65.1125 142.326L11.4016 173.341L9.8125 174.294V238.072L63.5234 269.087L65.1125 270L66.7015 269.087L120.412 238.072V176.081V174.255L65.1125 142.326ZM65.1125 145.98L115.685 175.168L90.2994 189.822L65.1125 204.356L57.1671 199.789L14.54 175.168L65.1125 145.98ZM12.9509 236.285V177.908L63.5234 207.096V265.473L12.9509 236.285Z" fill="#1B1B1B"/>
<path d="M52.1611 249.628L43.9774 244.902C42.6664 244.148 41.5938 242.122 41.5938 240.375V231.757C41.5938 230.01 42.6664 229.216 43.9774 229.97L52.1611 234.696C53.4721 235.451 54.5447 237.476 54.5447 239.223V247.841C54.5447 249.588 53.4721 250.382 52.1611 249.628Z" fill="#1B1B1B"/>
<path d="M149.3 125.847L95.5498 94.8318V32.8417L149.3 63.8566V125.847Z" fill="#F8493B"/>
<path d="M203.011 32.8417L149.3 63.8567L95.5498 32.8417L149.3 1.82678L203.011 32.8417Z" fill="#F8493B"/>
<path d="M203.011 43.5639L159.113 68.7015L105.362 37.6865L149.3 12.549L203.011 43.5639Z" fill="#FFA9A2"/>
<path d="M149.3 0L95.5891 31.0149L94 31.968V95.7452L147.711 126.76L149.3 127.674L150.889 126.76L204.6 95.7452V33.755V31.9283L149.3 0ZM149.3 3.65349L199.872 32.8417L174.487 47.4953L149.3 62.0299L141.355 57.463L98.7275 32.8417L149.3 3.65349ZM97.1384 93.9582V35.5818L147.711 64.77V123.146L97.1384 93.9582Z" fill="#1B1B1B"/>
<path d="M136.349 107.301L128.165 102.576C126.854 101.821 125.781 99.7958 125.781 98.0485V89.431C125.781 87.6837 126.854 86.8895 128.165 87.644L136.349 92.3697C137.66 93.1242 138.732 95.1495 138.732 96.8968V105.514C138.732 107.262 137.66 108.056 136.349 107.301Z" fill="#1B1B1B"/>
</svg>
