<svg width="200" height="54" viewBox="0 0 200 54" fill="none" xmlns="http://www.w3.org/2000/svg">
<g filter="url(#filter0_b_601_1521)">
<rect x="0.884766" width="199" height="54" rx="27" fill="url(#paint0_linear_601_1521)"/>
<rect x="1.38477" y="0.5" width="198" height="53" rx="26.5" stroke="#F8493B"/>
<path d="M61 29.3711H63.4414C63.3633 30.3021 63.1029 31.1322 62.6602 31.8613C62.2174 32.584 61.5957 33.1536 60.7949 33.5703C59.9941 33.987 59.0208 34.1953 57.875 34.1953C56.9961 34.1953 56.2051 34.0391 55.502 33.7266C54.7988 33.4076 54.1966 32.9583 53.6953 32.3789C53.194 31.793 52.8099 31.0866 52.543 30.2598C52.2826 29.4329 52.1523 28.5085 52.1523 27.4863V26.3047C52.1523 25.2826 52.2858 24.3581 52.5527 23.5312C52.8262 22.7044 53.2168 21.998 53.7246 21.4121C54.2324 20.8197 54.8411 20.3672 55.5508 20.0547C56.2669 19.7422 57.071 19.5859 57.9629 19.5859C59.0957 19.5859 60.0527 19.7943 60.834 20.2109C61.6152 20.6276 62.2207 21.2038 62.6504 21.9395C63.0866 22.6751 63.3535 23.5182 63.4512 24.4688H61.0098C60.9447 23.8568 60.8014 23.3327 60.5801 22.8965C60.3652 22.4603 60.0462 22.1283 59.623 21.9004C59.1999 21.666 58.6465 21.5488 57.9629 21.5488C57.403 21.5488 56.9147 21.653 56.498 21.8613C56.0814 22.0697 55.7331 22.3757 55.4531 22.7793C55.1732 23.1829 54.9616 23.681 54.8184 24.2734C54.6816 24.8594 54.6133 25.5299 54.6133 26.2852V27.4863C54.6133 28.2025 54.6751 28.8535 54.7988 29.4395C54.929 30.0189 55.1243 30.5169 55.3848 30.9336C55.6517 31.3503 55.9902 31.6725 56.4004 31.9004C56.8105 32.1283 57.3021 32.2422 57.875 32.2422C58.5716 32.2422 59.1348 32.1315 59.5645 31.9102C60.0007 31.6888 60.3294 31.3665 60.5508 30.9434C60.7786 30.5137 60.9284 29.9896 61 29.3711ZM64.9844 28.834V28.6094C64.9844 27.8477 65.0951 27.1413 65.3164 26.4902C65.5378 25.8327 65.8568 25.263 66.2734 24.7812C66.6966 24.293 67.2109 23.9154 67.8164 23.6484C68.4284 23.375 69.1185 23.2383 69.8867 23.2383C70.6615 23.2383 71.3516 23.375 71.957 23.6484C72.569 23.9154 73.0866 24.293 73.5098 24.7812C73.9329 25.263 74.2552 25.8327 74.4766 26.4902C74.6979 27.1413 74.8086 27.8477 74.8086 28.6094V28.834C74.8086 29.5957 74.6979 30.3021 74.4766 30.9531C74.2552 31.6042 73.9329 32.1738 73.5098 32.6621C73.0866 33.1439 72.5723 33.5215 71.9668 33.7949C71.3613 34.0618 70.6745 34.1953 69.9062 34.1953C69.1315 34.1953 68.4382 34.0618 67.8262 33.7949C67.2207 33.5215 66.7064 33.1439 66.2832 32.6621C65.86 32.1738 65.5378 31.6042 65.3164 30.9531C65.0951 30.3021 64.9844 29.5957 64.9844 28.834ZM67.3379 28.6094V28.834C67.3379 29.3092 67.3867 29.7585 67.4844 30.1816C67.582 30.6048 67.735 30.9759 67.9434 31.2949C68.1517 31.6139 68.4186 31.8646 68.7441 32.0469C69.0697 32.2292 69.457 32.3203 69.9062 32.3203C70.3424 32.3203 70.7201 32.2292 71.0391 32.0469C71.3646 31.8646 71.6315 31.6139 71.8398 31.2949C72.0482 30.9759 72.2012 30.6048 72.2988 30.1816C72.403 29.7585 72.4551 29.3092 72.4551 28.834V28.6094C72.4551 28.1406 72.403 27.6979 72.2988 27.2812C72.2012 26.8581 72.0449 26.4837 71.8301 26.1582C71.6217 25.8327 71.3548 25.5788 71.0293 25.3965C70.7103 25.2077 70.3294 25.1133 69.8867 25.1133C69.444 25.1133 69.0599 25.2077 68.7344 25.3965C68.4154 25.5788 68.1517 25.8327 67.9434 26.1582C67.735 26.4837 67.582 26.8581 67.4844 27.2812C67.3867 27.6979 67.3379 28.1406 67.3379 28.6094ZM79.1152 25.6895V34H76.7617V23.4336H78.9785L79.1152 25.6895ZM78.6953 28.3262L77.9336 28.3164C77.9401 27.5677 78.0443 26.8809 78.2461 26.2559C78.4544 25.6309 78.7409 25.0938 79.1055 24.6445C79.4766 24.1953 79.9193 23.8503 80.4336 23.6094C80.9479 23.362 81.5208 23.2383 82.1523 23.2383C82.6602 23.2383 83.1191 23.3099 83.5293 23.4531C83.946 23.5898 84.3008 23.8145 84.5938 24.127C84.8932 24.4395 85.1211 24.8464 85.2773 25.3477C85.4336 25.8424 85.5117 26.4512 85.5117 27.1738V34H83.1484V27.1641C83.1484 26.6562 83.0736 26.2559 82.9238 25.9629C82.7806 25.6634 82.569 25.4518 82.2891 25.3281C82.0156 25.1979 81.6738 25.1328 81.2637 25.1328C80.86 25.1328 80.4987 25.2174 80.1797 25.3867C79.8607 25.556 79.5905 25.7871 79.3691 26.0801C79.1543 26.373 78.9883 26.7116 78.8711 27.0957C78.7539 27.4798 78.6953 27.89 78.6953 28.3262ZM92.7578 23.4336V25.1523H86.8008V23.4336H92.7578ZM88.5195 20.8457H90.873V31.0801C90.873 31.4056 90.9186 31.6562 91.0098 31.832C91.1074 32.0013 91.2409 32.1152 91.4102 32.1738C91.5794 32.2324 91.778 32.2617 92.0059 32.2617C92.1686 32.2617 92.3249 32.252 92.4746 32.2324C92.6243 32.2129 92.7448 32.1934 92.8359 32.1738L92.8457 33.9707C92.6504 34.0293 92.4225 34.0814 92.1621 34.127C91.9082 34.1725 91.6152 34.1953 91.2832 34.1953C90.7428 34.1953 90.2643 34.1009 89.8477 33.9121C89.431 33.7168 89.1055 33.401 88.8711 32.9648C88.6367 32.5286 88.5195 31.9492 88.5195 31.2266V20.8457ZM100.531 31.8809V26.8418C100.531 26.4642 100.463 26.1387 100.326 25.8652C100.189 25.5918 99.9811 25.3802 99.7012 25.2305C99.4277 25.0807 99.0827 25.0059 98.666 25.0059C98.2819 25.0059 97.9499 25.071 97.6699 25.2012C97.39 25.3314 97.1719 25.5072 97.0156 25.7285C96.8594 25.9499 96.7812 26.2005 96.7812 26.4805H94.4375C94.4375 26.0638 94.5384 25.6602 94.7402 25.2695C94.9421 24.8789 95.235 24.5306 95.6191 24.2246C96.0033 23.9186 96.4622 23.6777 96.9961 23.502C97.5299 23.3262 98.1289 23.2383 98.793 23.2383C99.5872 23.2383 100.29 23.3717 100.902 23.6387C101.521 23.9056 102.006 24.3092 102.357 24.8496C102.715 25.3835 102.895 26.054 102.895 26.8613V31.5586C102.895 32.0404 102.927 32.4733 102.992 32.8574C103.064 33.235 103.165 33.5638 103.295 33.8438V34H100.883C100.772 33.7461 100.684 33.4238 100.619 33.0332C100.561 32.6361 100.531 32.252 100.531 31.8809ZM100.873 27.5742L100.893 29.0293H99.2031C98.7669 29.0293 98.3828 29.0716 98.0508 29.1562C97.7188 29.2344 97.4421 29.3516 97.2207 29.5078C96.9993 29.6641 96.8333 29.8529 96.7227 30.0742C96.612 30.2956 96.5566 30.5462 96.5566 30.8262C96.5566 31.1061 96.6217 31.3633 96.752 31.5977C96.8822 31.8255 97.071 32.0046 97.3184 32.1348C97.5723 32.265 97.8783 32.3301 98.2363 32.3301C98.7181 32.3301 99.138 32.2324 99.4961 32.0371C99.8607 31.8353 100.147 31.5911 100.355 31.3047C100.564 31.0117 100.674 30.735 100.688 30.4746L101.449 31.5195C101.371 31.7865 101.238 32.0729 101.049 32.3789C100.86 32.6849 100.613 32.9779 100.307 33.2578C100.007 33.5312 99.6458 33.7559 99.2227 33.9316C98.806 34.1074 98.3242 34.1953 97.7773 34.1953C97.0872 34.1953 96.472 34.0586 95.9316 33.7852C95.3913 33.5052 94.9681 33.1309 94.6621 32.6621C94.3561 32.1868 94.2031 31.6497 94.2031 31.0508C94.2031 30.4909 94.3073 29.9961 94.5156 29.5664C94.7305 29.1302 95.043 28.7656 95.4531 28.4727C95.8698 28.1797 96.3776 27.9583 96.9766 27.8086C97.5755 27.6523 98.2591 27.5742 99.0273 27.5742H100.873ZM109.672 32.3203C110.056 32.3203 110.401 32.2454 110.707 32.0957C111.02 31.9395 111.27 31.7246 111.459 31.4512C111.654 31.1777 111.762 30.862 111.781 30.5039H113.998C113.985 31.1875 113.783 31.8092 113.393 32.3691C113.002 32.929 112.484 33.375 111.84 33.707C111.195 34.0326 110.482 34.1953 109.701 34.1953C108.894 34.1953 108.191 34.0586 107.592 33.7852C106.993 33.5052 106.495 33.1211 106.098 32.6328C105.701 32.1445 105.401 31.5814 105.199 30.9434C105.004 30.3053 104.906 29.6217 104.906 28.8926V28.5508C104.906 27.8216 105.004 27.138 105.199 26.5C105.401 25.8555 105.701 25.2891 106.098 24.8008C106.495 24.3125 106.993 23.9316 107.592 23.6582C108.191 23.3783 108.891 23.2383 109.691 23.2383C110.538 23.2383 111.28 23.4076 111.918 23.7461C112.556 24.0781 113.057 24.5436 113.422 25.1426C113.793 25.735 113.985 26.4251 113.998 27.2129H111.781C111.762 26.8223 111.664 26.4707 111.488 26.1582C111.319 25.8392 111.078 25.5853 110.766 25.3965C110.46 25.2077 110.092 25.1133 109.662 25.1133C109.187 25.1133 108.793 25.2109 108.48 25.4062C108.168 25.5951 107.924 25.8555 107.748 26.1875C107.572 26.513 107.445 26.8809 107.367 27.291C107.296 27.6947 107.26 28.1146 107.26 28.5508V28.8926C107.26 29.3288 107.296 29.752 107.367 30.1621C107.439 30.5723 107.562 30.9401 107.738 31.2656C107.921 31.5846 108.168 31.8418 108.48 32.0371C108.793 32.2259 109.19 32.3203 109.672 32.3203ZM120.648 23.4336V25.1523H114.691V23.4336H120.648ZM116.41 20.8457H118.764V31.0801C118.764 31.4056 118.809 31.6562 118.9 31.832C118.998 32.0013 119.132 32.1152 119.301 32.1738C119.47 32.2324 119.669 32.2617 119.896 32.2617C120.059 32.2617 120.215 32.252 120.365 32.2324C120.515 32.2129 120.635 32.1934 120.727 32.1738L120.736 33.9707C120.541 34.0293 120.313 34.0814 120.053 34.127C119.799 34.1725 119.506 34.1953 119.174 34.1953C118.633 34.1953 118.155 34.1009 117.738 33.9121C117.322 33.7168 116.996 33.401 116.762 32.9648C116.527 32.5286 116.41 31.9492 116.41 31.2266V20.8457ZM135.658 19.7812H138.1V29.2832C138.1 30.3639 137.865 31.2689 137.396 31.998C136.928 32.7272 136.29 33.2773 135.482 33.6484C134.682 34.013 133.786 34.1953 132.797 34.1953C131.775 34.1953 130.863 34.013 130.062 33.6484C129.262 33.2773 128.63 32.7272 128.168 31.998C127.712 31.2689 127.484 30.3639 127.484 29.2832V19.7812H129.926V29.2832C129.926 29.9668 130.043 30.5299 130.277 30.9727C130.512 31.4089 130.844 31.7311 131.273 31.9395C131.703 32.1478 132.211 32.252 132.797 32.252C133.383 32.252 133.887 32.1478 134.311 31.9395C134.74 31.7311 135.072 31.4089 135.307 30.9727C135.541 30.5299 135.658 29.9668 135.658 29.2832V19.7812ZM146.459 31.1387C146.459 30.9043 146.4 30.6927 146.283 30.5039C146.166 30.3086 145.941 30.1328 145.609 29.9766C145.284 29.8203 144.802 29.6771 144.164 29.5469C143.604 29.4232 143.09 29.2767 142.621 29.1074C142.159 28.9316 141.762 28.7201 141.43 28.4727C141.098 28.2253 140.84 27.9323 140.658 27.5938C140.476 27.2552 140.385 26.8646 140.385 26.4219C140.385 25.9922 140.479 25.5853 140.668 25.2012C140.857 24.8171 141.127 24.4785 141.479 24.1855C141.83 23.8926 142.257 23.6615 142.758 23.4922C143.266 23.3229 143.832 23.2383 144.457 23.2383C145.342 23.2383 146.101 23.388 146.732 23.6875C147.37 23.9805 147.859 24.3809 148.197 24.8887C148.536 25.39 148.705 25.9564 148.705 26.5879H146.352C146.352 26.3079 146.28 26.0475 146.137 25.8066C146 25.5592 145.792 25.3607 145.512 25.2109C145.232 25.0547 144.88 24.9766 144.457 24.9766C144.053 24.9766 143.718 25.0417 143.451 25.1719C143.191 25.2956 142.995 25.4583 142.865 25.6602C142.742 25.862 142.68 26.0833 142.68 26.3242C142.68 26.5 142.712 26.6595 142.777 26.8027C142.849 26.9395 142.966 27.0664 143.129 27.1836C143.292 27.2943 143.513 27.3984 143.793 27.4961C144.079 27.5938 144.438 27.6882 144.867 27.7793C145.674 27.9486 146.368 28.1667 146.947 28.4336C147.533 28.694 147.982 29.0326 148.295 29.4492C148.607 29.8594 148.764 30.3802 148.764 31.0117C148.764 31.4805 148.663 31.9102 148.461 32.3008C148.266 32.6849 147.979 33.0202 147.602 33.3066C147.224 33.5866 146.771 33.8047 146.244 33.9609C145.723 34.1172 145.137 34.1953 144.486 34.1953C143.529 34.1953 142.719 34.026 142.055 33.6875C141.391 33.3424 140.886 32.903 140.541 32.3691C140.202 31.8288 140.033 31.2689 140.033 30.6895H142.309C142.335 31.1257 142.455 31.474 142.67 31.7344C142.891 31.9883 143.165 32.1738 143.49 32.291C143.822 32.4017 144.164 32.457 144.516 32.457C144.939 32.457 145.294 32.4017 145.58 32.291C145.867 32.1738 146.085 32.0176 146.234 31.8223C146.384 31.6204 146.459 31.3926 146.459 31.1387Z" fill="white"/>
</g>
<defs>
<filter id="filter0_b_601_1521" x="-99.1152" y="-100" width="399" height="254" filterUnits="userSpaceOnUse" color-interpolation-filters="sRGB">
<feFlood flood-opacity="0" result="BackgroundImageFix"/>
<feGaussianBlur in="BackgroundImageFix" stdDeviation="50"/>
<feComposite in2="SourceAlpha" operator="in" result="effect1_backgroundBlur_601_1521"/>
<feBlend mode="normal" in="SourceGraphic" in2="effect1_backgroundBlur_601_1521" result="shape"/>
</filter>
<linearGradient id="paint0_linear_601_1521" x1="5.934" y1="37.8527" x2="188.491" y2="0.434456" gradientUnits="userSpaceOnUse">
<stop stop-color="#FB1807"/>
<stop offset="1" stop-color="#FF4031"/>
</linearGradient>
</defs>
</svg>
