<svg width="192" height="59" viewBox="0 0 192 59" fill="none" xmlns="http://www.w3.org/2000/svg">
<rect width="191.306" height="58.3057" rx="29.1528" fill="#F4F4F4"/>
<path d="M40.044 27.3868C39.948 27.0148 39.816 26.6728 39.648 26.3608C39.48 26.0488 39.264 25.7788 39 25.5508C38.736 25.3228 38.424 25.1488 38.064 25.0288C37.716 24.8968 37.308 24.8308 36.84 24.8308C36.156 24.8308 35.562 24.9688 35.058 25.2448C34.566 25.5208 34.164 25.8928 33.852 26.3608C33.54 26.8168 33.306 27.3388 33.15 27.9268C33.006 28.5148 32.934 29.1148 32.934 29.7268C32.934 30.3388 33.006 30.9388 33.15 31.5268C33.306 32.1148 33.54 32.6428 33.852 33.1108C34.164 33.5668 34.566 33.9328 35.058 34.2088C35.562 34.4848 36.156 34.6228 36.84 34.6228C37.344 34.6228 37.788 34.5388 38.172 34.3708C38.556 34.1908 38.886 33.9508 39.162 33.6508C39.438 33.3388 39.654 32.9788 39.81 32.5708C39.966 32.1628 40.068 31.7248 40.116 31.2568H42.312C42.264 32.0248 42.096 32.7268 41.808 33.3628C41.532 33.9988 41.154 34.5508 40.674 35.0188C40.194 35.4748 39.63 35.8288 38.982 36.0808C38.334 36.3328 37.62 36.4588 36.84 36.4588C35.88 36.4588 35.016 36.2848 34.248 35.9368C33.492 35.5768 32.85 35.0908 32.322 34.4788C31.794 33.8668 31.386 33.1528 31.098 32.3368C30.822 31.5208 30.684 30.6508 30.684 29.7268C30.684 28.8148 30.822 27.9508 31.098 27.1348C31.386 26.3188 31.794 25.6048 32.322 24.9928C32.85 24.3808 33.492 23.8948 34.248 23.5348C35.016 23.1748 35.88 22.9948 36.84 22.9948C37.56 22.9948 38.238 23.0968 38.874 23.3008C39.51 23.4928 40.068 23.7808 40.548 24.1648C41.04 24.5368 41.436 24.9928 41.736 25.5328C42.036 26.0728 42.222 26.6908 42.294 27.3868H40.044ZM48.3362 36.4048C47.5922 36.4048 46.9262 36.2848 46.3382 36.0448C45.7622 35.7928 45.2702 35.4508 44.8622 35.0188C44.4662 34.5868 44.1602 34.0708 43.9442 33.4708C43.7402 32.8708 43.6382 32.2108 43.6382 31.4908C43.6382 30.7828 43.7402 30.1288 43.9442 29.5288C44.1602 28.9288 44.4662 28.4128 44.8622 27.9808C45.2702 27.5488 45.7622 27.2128 46.3382 26.9728C46.9262 26.7208 47.5922 26.5948 48.3362 26.5948C49.0802 26.5948 49.7402 26.7208 50.3162 26.9728C50.9042 27.2128 51.3962 27.5488 51.7922 27.9808C52.2002 28.4128 52.5062 28.9288 52.7102 29.5288C52.9262 30.1288 53.0342 30.7828 53.0342 31.4908C53.0342 32.2108 52.9262 32.8708 52.7102 33.4708C52.5062 34.0708 52.2002 34.5868 51.7922 35.0188C51.3962 35.4508 50.9042 35.7928 50.3162 36.0448C49.7402 36.2848 49.0802 36.4048 48.3362 36.4048ZM48.3362 34.7848C48.7922 34.7848 49.1882 34.6888 49.5242 34.4968C49.8602 34.3048 50.1362 34.0528 50.3522 33.7408C50.5682 33.4288 50.7242 33.0808 50.8202 32.6968C50.9282 32.3008 50.9822 31.8988 50.9822 31.4908C50.9822 31.0948 50.9282 30.6988 50.8202 30.3028C50.7242 29.9068 50.5682 29.5588 50.3522 29.2588C50.1362 28.9468 49.8602 28.6948 49.5242 28.5028C49.1882 28.3108 48.7922 28.2148 48.3362 28.2148C47.8802 28.2148 47.4842 28.3108 47.1482 28.5028C46.8122 28.6948 46.5362 28.9468 46.3202 29.2588C46.1042 29.5588 45.9422 29.9068 45.8342 30.3028C45.7382 30.6988 45.6902 31.0948 45.6902 31.4908C45.6902 31.8988 45.7382 32.3008 45.8342 32.6968C45.9422 33.0808 46.1042 33.4288 46.3202 33.7408C46.5362 34.0528 46.8122 34.3048 47.1482 34.4968C47.4842 34.6888 47.8802 34.7848 48.3362 34.7848ZM54.7402 26.8468H56.6842V28.2148L56.7202 28.2508C57.0322 27.7348 57.4402 27.3328 57.9442 27.0448C58.4482 26.7448 59.0062 26.5948 59.6182 26.5948C60.6382 26.5948 61.4422 26.8588 62.0302 27.3868C62.6182 27.9148 62.9122 28.7068 62.9122 29.7628V36.1528H60.8602V30.3028C60.8362 29.5708 60.6802 29.0428 60.3922 28.7188C60.1042 28.3828 59.6542 28.2148 59.0422 28.2148C58.6942 28.2148 58.3822 28.2808 58.1062 28.4128C57.8302 28.5328 57.5962 28.7068 57.4042 28.9348C57.2122 29.1508 57.0622 29.4088 56.9542 29.7088C56.8462 30.0088 56.7922 30.3268 56.7922 30.6628V36.1528H54.7402V26.8468ZM64.1401 26.8468H65.6881V24.0568H67.7401V26.8468H69.5941V28.3768H67.7401V33.3448C67.7401 33.5608 67.7461 33.7468 67.7581 33.9028C67.7821 34.0588 67.8241 34.1908 67.8841 34.2988C67.9561 34.4068 68.0581 34.4908 68.1901 34.5508C68.3221 34.5988 68.5021 34.6228 68.7301 34.6228C68.8741 34.6228 69.0181 34.6228 69.1621 34.6228C69.3061 34.6108 69.4501 34.5868 69.5941 34.5508V36.1348C69.3661 36.1588 69.1441 36.1828 68.9281 36.2068C68.7121 36.2308 68.4901 36.2428 68.2621 36.2428C67.7221 36.2428 67.2841 36.1948 66.9481 36.0988C66.6241 35.9908 66.3661 35.8408 66.1741 35.6488C65.9941 35.4448 65.8681 35.1928 65.7961 34.8928C65.7361 34.5928 65.7001 34.2508 65.6881 33.8668V28.3768H64.1401V26.8468ZM78.8642 34.0828C78.8642 34.3348 78.8942 34.5148 78.9542 34.6228C79.0262 34.7308 79.1582 34.7848 79.3502 34.7848C79.4102 34.7848 79.4822 34.7848 79.5662 34.7848C79.6502 34.7848 79.7462 34.7728 79.8542 34.7488V36.1708C79.7822 36.1948 79.6862 36.2188 79.5662 36.2428C79.4582 36.2788 79.3442 36.3088 79.2242 36.3328C79.1042 36.3568 78.9842 36.3748 78.8642 36.3868C78.7442 36.3988 78.6422 36.4048 78.5582 36.4048C78.1382 36.4048 77.7902 36.3208 77.5142 36.1528C77.2382 35.9848 77.0582 35.6908 76.9742 35.2708C76.5662 35.6668 76.0622 35.9548 75.4622 36.1348C74.8742 36.3148 74.3042 36.4048 73.7522 36.4048C73.3322 36.4048 72.9302 36.3448 72.5462 36.2248C72.1622 36.1168 71.8202 35.9548 71.5202 35.7388C71.2322 35.5108 70.9982 35.2288 70.8182 34.8928C70.6502 34.5448 70.5662 34.1428 70.5662 33.6868C70.5662 33.1108 70.6682 32.6428 70.8722 32.2828C71.0882 31.9228 71.3642 31.6408 71.7002 31.4368C72.0482 31.2328 72.4322 31.0888 72.8522 31.0048C73.2842 30.9088 73.7162 30.8368 74.1482 30.7888C74.5202 30.7168 74.8742 30.6688 75.2102 30.6448C75.5462 30.6088 75.8402 30.5548 76.0922 30.4828C76.3562 30.4108 76.5602 30.3028 76.7042 30.1588C76.8602 30.0028 76.9382 29.7748 76.9382 29.4748C76.9382 29.2108 76.8722 28.9948 76.7402 28.8268C76.6202 28.6588 76.4642 28.5328 76.2722 28.4488C76.0922 28.3528 75.8882 28.2928 75.6602 28.2688C75.4322 28.2328 75.2162 28.2148 75.0122 28.2148C74.4362 28.2148 73.9622 28.3348 73.5902 28.5748C73.2182 28.8148 73.0082 29.1868 72.9602 29.6908H70.9082C70.9442 29.0908 71.0882 28.5928 71.3402 28.1968C71.5922 27.8008 71.9102 27.4828 72.2942 27.2428C72.6902 27.0028 73.1342 26.8348 73.6262 26.7388C74.1182 26.6428 74.6222 26.5948 75.1382 26.5948C75.5942 26.5948 76.0442 26.6428 76.4882 26.7388C76.9322 26.8348 77.3282 26.9908 77.6762 27.2068C78.0362 27.4228 78.3242 27.7048 78.5402 28.0528C78.7562 28.3888 78.8642 28.8028 78.8642 29.2948V34.0828ZM76.8122 31.4908C76.5002 31.6948 76.1162 31.8208 75.6602 31.8688C75.2042 31.9048 74.7482 31.9648 74.2922 32.0488C74.0762 32.0848 73.8662 32.1388 73.6622 32.2108C73.4582 32.2708 73.2782 32.3608 73.1222 32.4808C72.9662 32.5888 72.8402 32.7388 72.7442 32.9308C72.6602 33.1108 72.6182 33.3328 72.6182 33.5968C72.6182 33.8248 72.6842 34.0168 72.8162 34.1728C72.9482 34.3288 73.1042 34.4548 73.2842 34.5508C73.4762 34.6348 73.6802 34.6948 73.8962 34.7308C74.1242 34.7668 74.3282 34.7848 74.5082 34.7848C74.7362 34.7848 74.9822 34.7548 75.2462 34.6948C75.5102 34.6348 75.7562 34.5328 75.9842 34.3888C76.2242 34.2448 76.4222 34.0648 76.5782 33.8488C76.7342 33.6208 76.8122 33.3448 76.8122 33.0208V31.4908ZM87.3542 29.9608C87.2702 29.3848 87.0362 28.9528 86.6522 28.6648C86.2802 28.3648 85.8062 28.2148 85.2302 28.2148C84.9662 28.2148 84.6842 28.2628 84.3842 28.3588C84.0842 28.4428 83.8082 28.6108 83.5562 28.8628C83.3042 29.1028 83.0942 29.4448 82.9262 29.8888C82.7582 30.3208 82.6742 30.8908 82.6742 31.5988C82.6742 31.9828 82.7162 32.3668 82.8002 32.7508C82.8962 33.1348 83.0402 33.4768 83.2322 33.7768C83.4362 34.0768 83.6942 34.3228 84.0062 34.5148C84.3182 34.6948 84.6962 34.7848 85.1402 34.7848C85.7402 34.7848 86.2322 34.5988 86.6162 34.2268C87.0122 33.8548 87.2582 33.3328 87.3542 32.6608H89.4062C89.2142 33.8728 88.7522 34.8028 88.0202 35.4508C87.3002 36.0868 86.3402 36.4048 85.1402 36.4048C84.4082 36.4048 83.7602 36.2848 83.1962 36.0448C82.6442 35.7928 82.1762 35.4568 81.7922 35.0368C81.4082 34.6048 81.1142 34.0948 80.9102 33.5068C80.7182 32.9188 80.6222 32.2828 80.6222 31.5988C80.6222 30.9028 80.7182 30.2488 80.9102 29.6368C81.1022 29.0248 81.3902 28.4968 81.7742 28.0528C82.1582 27.5968 82.6322 27.2428 83.1962 26.9908C83.7722 26.7268 84.4442 26.5948 85.2122 26.5948C85.7522 26.5948 86.2622 26.6668 86.7422 26.8108C87.2342 26.9428 87.6662 27.1468 88.0382 27.4228C88.4222 27.6988 88.7342 28.0468 88.9742 28.4668C89.2142 28.8868 89.3582 29.3848 89.4062 29.9608H87.3542ZM90.1381 26.8468H91.6861V24.0568H93.7381V26.8468H95.5921V28.3768H93.7381V33.3448C93.7381 33.5608 93.7441 33.7468 93.7561 33.9028C93.7801 34.0588 93.8221 34.1908 93.8821 34.2988C93.9541 34.4068 94.0561 34.4908 94.1881 34.5508C94.3201 34.5988 94.5001 34.6228 94.7281 34.6228C94.8721 34.6228 95.0161 34.6228 95.1601 34.6228C95.3041 34.6108 95.4481 34.5868 95.5921 34.5508V36.1348C95.3641 36.1588 95.1421 36.1828 94.9261 36.2068C94.7101 36.2308 94.4881 36.2428 94.2601 36.2428C93.7201 36.2428 93.2821 36.1948 92.9461 36.0988C92.6221 35.9908 92.3641 35.8408 92.1721 35.6488C91.9921 35.4448 91.8661 35.1928 91.7941 34.8928C91.7341 34.5928 91.6981 34.2508 91.6861 33.8668V28.3768H90.1381V26.8468ZM110.25 36.1528H108.234V34.8568H108.198C107.946 35.3248 107.568 35.7028 107.064 35.9908C106.572 36.2668 106.068 36.4048 105.552 36.4048C104.328 36.4048 103.44 36.1048 102.888 35.5048C102.348 34.8928 102.078 33.9748 102.078 32.7508V26.8468H104.13V32.5528C104.13 33.3688 104.286 33.9448 104.598 34.2808C104.91 34.6168 105.348 34.7848 105.912 34.7848C106.344 34.7848 106.704 34.7188 106.992 34.5868C107.28 34.4548 107.514 34.2808 107.694 34.0648C107.874 33.8368 108 33.5668 108.072 33.2548C108.156 32.9428 108.198 32.6068 108.198 32.2468V26.8468H110.25V36.1528ZM113.962 33.1648C114.022 33.7648 114.25 34.1848 114.646 34.4248C115.042 34.6648 115.516 34.7848 116.068 34.7848C116.26 34.7848 116.476 34.7728 116.716 34.7488C116.968 34.7128 117.202 34.6528 117.418 34.5688C117.634 34.4848 117.808 34.3648 117.94 34.2088C118.084 34.0408 118.15 33.8248 118.138 33.5608C118.126 33.2968 118.03 33.0808 117.85 32.9128C117.67 32.7448 117.436 32.6128 117.148 32.5168C116.872 32.4088 116.554 32.3188 116.194 32.2468C115.834 32.1748 115.468 32.0968 115.096 32.0128C114.712 31.9288 114.34 31.8268 113.98 31.7068C113.632 31.5868 113.314 31.4248 113.026 31.2208C112.75 31.0168 112.528 30.7588 112.36 30.4468C112.192 30.1228 112.108 29.7268 112.108 29.2588C112.108 28.7548 112.228 28.3348 112.468 27.9988C112.72 27.6508 113.032 27.3748 113.404 27.1708C113.788 26.9548 114.208 26.8048 114.664 26.7208C115.132 26.6368 115.576 26.5948 115.996 26.5948C116.476 26.5948 116.932 26.6488 117.364 26.7568C117.808 26.8528 118.204 27.0148 118.552 27.2428C118.912 27.4708 119.206 27.7708 119.434 28.1428C119.674 28.5028 119.824 28.9408 119.884 29.4568H117.742C117.646 28.9648 117.418 28.6348 117.058 28.4668C116.71 28.2988 116.308 28.2148 115.852 28.2148C115.708 28.2148 115.534 28.2268 115.33 28.2508C115.138 28.2748 114.952 28.3228 114.772 28.3948C114.604 28.4548 114.46 28.5508 114.34 28.6828C114.22 28.8028 114.16 28.9648 114.16 29.1688C114.16 29.4208 114.244 29.6248 114.412 29.7808C114.592 29.9368 114.82 30.0688 115.096 30.1768C115.384 30.2728 115.708 30.3568 116.068 30.4288C116.428 30.5008 116.8 30.5788 117.184 30.6628C117.556 30.7468 117.922 30.8488 118.282 30.9688C118.642 31.0888 118.96 31.2508 119.236 31.4548C119.524 31.6588 119.752 31.9168 119.92 32.2288C120.1 32.5408 120.19 32.9248 120.19 33.3808C120.19 33.9328 120.064 34.4008 119.812 34.7848C119.56 35.1688 119.23 35.4808 118.822 35.7208C118.426 35.9608 117.982 36.1348 117.49 36.2428C116.998 36.3508 116.512 36.4048 116.032 36.4048C115.444 36.4048 114.898 36.3388 114.394 36.2068C113.902 36.0748 113.47 35.8768 113.098 35.6128C112.738 35.3368 112.45 35.0008 112.234 34.6048C112.03 34.1968 111.922 33.7168 111.91 33.1648H113.962Z" fill="#090B0D"/>
<circle cx="162.153" cy="29.1528" r="21.1528" fill="#FF595D"/>
<path d="M171.5 36.3438L171.361 34.7607L171.029 30.9827L170.626 26.3935L170.279 22.4483C170.223 21.808 170.177 21.1667 170.11 20.5273L170.108 20.4988C170.072 20.0897 169.696 19.775 169.287 19.8109L167.704 19.95L163.926 20.282L159.337 20.6853L155.392 21.032C154.751 21.0883 154.11 21.1339 153.471 21.2008L153.442 21.2033C153.047 21.2381 152.701 21.6198 152.754 22.0238C152.808 22.4314 153.153 22.7505 153.575 22.7117L155.158 22.5726L158.936 22.2406L163.525 21.8373L167.47 21.4906C168.11 21.4343 168.752 21.3923 169.391 21.3218L169.42 21.3193L168.599 20.6314L168.738 22.2144L169.07 25.9925L169.474 30.5816L169.82 34.5268C169.877 35.1672 169.922 35.8085 169.989 36.4479L169.992 36.4763C170.026 36.8712 170.408 37.2177 170.812 37.1642C171.218 37.1124 171.537 36.7671 171.5 36.3438Z" fill="white"/>
<path d="M168.775 20.0523L154.932 36.5621C154.745 36.7847 154.555 37.0075 154.371 37.2317L154.346 37.2607C154.092 37.5645 154.115 38.0786 154.44 38.3279C154.767 38.5788 155.235 38.5592 155.507 38.2341L169.35 21.7243C169.536 21.5018 169.727 21.279 169.911 21.0548L169.936 21.0258C170.19 20.722 170.167 20.2078 169.842 19.9585C169.513 19.7096 169.047 19.7272 168.775 20.0523Z" fill="white"/>
</svg>
