<svg width="463" height="286" viewBox="0 0 463 286" fill="none" xmlns="http://www.w3.org/2000/svg">
<rect x="79" y="190" width="312" height="95" rx="10" stroke="#FF4233" stroke-width="2"/>
<path d="M197 231.5C197 234.682 195.736 237.735 193.485 239.985C191.235 242.235 188.183 243.5 185 243.5C181.817 243.5 178.765 242.235 176.515 239.985C174.264 237.735 173 234.682 173 231.5C173 228.317 174.264 225.265 176.515 223.014C178.765 220.764 181.817 219.5 185 219.5C188.183 219.5 191.235 220.764 193.485 223.014C195.736 225.265 197 228.317 197 231.5Z" fill="#FF4233"/>
<path fill-rule="evenodd" clip-rule="evenodd" d="M183.776 267.476C167.776 266.834 155 253.658 155 237.5C155 220.931 168.431 207.5 185 207.5C201.569 207.5 215 220.931 215 237.5C215 254.069 201.569 267.5 185 267.5C184.863 267.501 184.726 267.501 184.589 267.5C184.317 267.5 184.046 267.491 183.776 267.476ZM165.749 256.43C165.525 255.786 165.448 255.099 165.526 254.422C165.603 253.744 165.832 253.092 166.195 252.515C166.559 251.938 167.048 251.45 167.626 251.088C168.204 250.726 168.856 250.498 169.534 250.422C181.228 249.128 188.844 249.245 200.481 250.449C201.16 250.52 201.814 250.745 202.393 251.106C202.972 251.468 203.46 251.956 203.822 252.535C204.183 253.114 204.407 253.768 204.478 254.447C204.548 255.126 204.463 255.811 204.229 256.452C209.216 251.406 212.009 244.595 212 237.5C212 222.588 199.911 210.5 185 210.5C170.089 210.5 158 222.588 158 237.5C158 244.874 160.957 251.558 165.749 256.43Z" fill="#FF4233"/>
<path d="M261.997 241.828C261.997 241.396 261.929 241.016 261.794 240.686C261.667 240.347 261.438 240.042 261.108 239.771C260.787 239.501 260.338 239.243 259.763 238.997C259.196 238.752 258.476 238.502 257.604 238.248C256.69 237.977 255.865 237.677 255.129 237.347C254.393 237.008 253.762 236.623 253.237 236.191C252.713 235.76 252.311 235.265 252.031 234.706C251.752 234.147 251.612 233.508 251.612 232.789C251.612 232.07 251.76 231.405 252.057 230.796C252.353 230.187 252.776 229.658 253.326 229.209C253.885 228.752 254.549 228.396 255.319 228.143C256.09 227.889 256.949 227.762 257.896 227.762C259.285 227.762 260.461 228.028 261.426 228.562C262.399 229.086 263.14 229.776 263.647 230.631C264.155 231.477 264.409 232.383 264.409 233.348H261.972C261.972 232.654 261.824 232.04 261.527 231.507C261.231 230.965 260.783 230.542 260.182 230.237C259.581 229.924 258.819 229.768 257.896 229.768C257.025 229.768 256.305 229.899 255.738 230.161C255.171 230.424 254.748 230.779 254.469 231.228C254.198 231.676 254.062 232.188 254.062 232.764C254.062 233.153 254.143 233.508 254.304 233.83C254.473 234.143 254.731 234.435 255.078 234.706C255.434 234.977 255.882 235.227 256.424 235.455C256.974 235.684 257.63 235.904 258.392 236.115C259.441 236.411 260.347 236.742 261.108 237.105C261.87 237.469 262.496 237.88 262.987 238.337C263.487 238.785 263.855 239.298 264.092 239.873C264.337 240.44 264.46 241.083 264.46 241.803C264.46 242.556 264.308 243.237 264.003 243.847C263.698 244.456 263.262 244.977 262.695 245.408C262.128 245.84 261.447 246.174 260.651 246.411C259.864 246.64 258.984 246.754 258.011 246.754C257.156 246.754 256.314 246.635 255.484 246.398C254.663 246.161 253.914 245.806 253.237 245.332C252.569 244.858 252.031 244.274 251.625 243.58C251.227 242.878 251.028 242.065 251.028 241.143H253.466C253.466 241.777 253.589 242.323 253.834 242.78C254.079 243.229 254.414 243.601 254.837 243.897C255.269 244.194 255.755 244.414 256.297 244.558C256.847 244.693 257.418 244.761 258.011 244.761C258.866 244.761 259.589 244.642 260.182 244.405C260.774 244.168 261.223 243.83 261.527 243.39C261.84 242.95 261.997 242.429 261.997 241.828ZM272.928 246.754C271.971 246.754 271.104 246.593 270.325 246.271C269.555 245.941 268.891 245.48 268.332 244.888C267.782 244.295 267.359 243.593 267.062 242.78C266.766 241.968 266.618 241.079 266.618 240.114V239.581C266.618 238.464 266.783 237.469 267.113 236.598C267.443 235.717 267.892 234.973 268.459 234.363C269.026 233.754 269.669 233.293 270.389 232.979C271.108 232.666 271.853 232.51 272.623 232.51C273.605 232.51 274.451 232.679 275.162 233.018C275.882 233.356 276.47 233.83 276.927 234.439C277.384 235.04 277.722 235.751 277.942 236.572C278.162 237.385 278.272 238.273 278.272 239.238V240.292H268.015V238.375H275.924V238.197C275.89 237.588 275.763 236.995 275.543 236.42C275.331 235.844 274.993 235.37 274.527 234.998C274.062 234.626 273.427 234.439 272.623 234.439C272.09 234.439 271.599 234.554 271.15 234.782C270.702 235.002 270.317 235.332 269.995 235.772C269.674 236.213 269.424 236.75 269.246 237.385C269.068 238.02 268.979 238.752 268.979 239.581V240.114C268.979 240.766 269.068 241.38 269.246 241.955C269.432 242.522 269.699 243.021 270.046 243.453C270.401 243.885 270.829 244.223 271.328 244.469C271.836 244.714 272.411 244.837 273.055 244.837C273.884 244.837 274.587 244.668 275.162 244.329C275.738 243.991 276.241 243.538 276.673 242.971L278.095 244.101C277.799 244.549 277.422 244.977 276.965 245.383C276.508 245.789 275.945 246.119 275.276 246.373C274.616 246.627 273.833 246.754 272.928 246.754ZM283.566 227V246.5H281.205V227H283.566ZM289.889 227V246.5H287.527V227H289.889ZM299.359 246.754C298.403 246.754 297.535 246.593 296.757 246.271C295.987 245.941 295.322 245.48 294.764 244.888C294.214 244.295 293.79 243.593 293.494 242.78C293.198 241.968 293.05 241.079 293.05 240.114V239.581C293.05 238.464 293.215 237.469 293.545 236.598C293.875 235.717 294.324 234.973 294.891 234.363C295.458 233.754 296.101 233.293 296.82 232.979C297.54 232.666 298.285 232.51 299.055 232.51C300.036 232.51 300.883 232.679 301.594 233.018C302.313 233.356 302.901 233.83 303.358 234.439C303.815 235.04 304.154 235.751 304.374 236.572C304.594 237.385 304.704 238.273 304.704 239.238V240.292H294.446V238.375H302.355V238.197C302.322 237.588 302.195 236.995 301.975 236.42C301.763 235.844 301.424 235.37 300.959 234.998C300.493 234.626 299.859 234.439 299.055 234.439C298.521 234.439 298.031 234.554 297.582 234.782C297.133 235.002 296.748 235.332 296.427 235.772C296.105 236.213 295.855 236.75 295.678 237.385C295.5 238.02 295.411 238.752 295.411 239.581V240.114C295.411 240.766 295.5 241.38 295.678 241.955C295.864 242.522 296.131 243.021 296.478 243.453C296.833 243.885 297.26 244.223 297.76 244.469C298.268 244.714 298.843 244.837 299.486 244.837C300.316 244.837 301.018 244.668 301.594 244.329C302.169 243.991 302.673 243.538 303.104 242.971L304.526 244.101C304.23 244.549 303.854 244.977 303.396 245.383C302.939 245.789 302.377 246.119 301.708 246.373C301.048 246.627 300.265 246.754 299.359 246.754ZM309.795 234.922V246.5H307.446V232.764H309.731L309.795 234.922ZM314.086 232.688L314.073 234.871C313.879 234.829 313.692 234.803 313.515 234.795C313.345 234.778 313.151 234.77 312.931 234.77C312.389 234.77 311.911 234.854 311.496 235.023C311.081 235.193 310.73 235.43 310.442 235.734C310.155 236.039 309.926 236.403 309.757 236.826C309.596 237.241 309.49 237.698 309.439 238.197L308.779 238.578C308.779 237.749 308.86 236.97 309.021 236.242C309.19 235.514 309.448 234.871 309.795 234.312C310.142 233.745 310.582 233.305 311.115 232.992C311.657 232.671 312.3 232.51 313.045 232.51C313.214 232.51 313.409 232.531 313.629 232.573C313.849 232.607 314.001 232.645 314.086 232.688Z" fill="white"/>
<rect x="74" y="1" width="313" height="95" rx="10" stroke="#FF4233" stroke-width="2"/>
<path d="M158.734 48.8545H154.05L154.024 46.8867H158.277C158.98 46.8867 159.593 46.7682 160.118 46.5312C160.643 46.2943 161.049 45.9557 161.337 45.5156C161.633 45.0671 161.781 44.5339 161.781 43.916C161.781 43.2389 161.65 42.6888 161.388 42.2656C161.134 41.834 160.74 41.5208 160.207 41.3262C159.682 41.123 159.014 41.0215 158.201 41.0215H154.596V57.5H152.146V39.0156H158.201C159.149 39.0156 159.995 39.113 160.74 39.3076C161.485 39.4938 162.116 39.79 162.632 40.1963C163.157 40.5941 163.554 41.1019 163.825 41.7197C164.096 42.3376 164.231 43.0781 164.231 43.9414C164.231 44.7031 164.037 45.3929 163.647 46.0107C163.258 46.6201 162.716 47.1195 162.022 47.5088C161.337 47.8981 160.533 48.1478 159.61 48.2578L158.734 48.8545ZM158.62 57.5H153.085L154.469 55.5068H158.62C159.399 55.5068 160.059 55.3714 160.601 55.1006C161.151 54.8298 161.57 54.4489 161.857 53.958C162.145 53.4587 162.289 52.8704 162.289 52.1934C162.289 51.5078 162.166 50.9154 161.921 50.416C161.675 49.9167 161.29 49.5316 160.766 49.2607C160.241 48.9899 159.564 48.8545 158.734 48.8545H155.243L155.269 46.8867H160.042L160.562 47.5977C161.451 47.6738 162.204 47.9277 162.822 48.3594C163.44 48.7826 163.91 49.3242 164.231 49.9844C164.562 50.6445 164.727 51.3724 164.727 52.168C164.727 53.319 164.473 54.2923 163.965 55.0879C163.465 55.875 162.759 56.4759 161.845 56.8906C160.931 57.2969 159.856 57.5 158.62 57.5ZM176.394 54.3262V43.7637H178.755V57.5H176.508L176.394 54.3262ZM176.838 51.4316L177.815 51.4062C177.815 52.3203 177.718 53.1667 177.523 53.9453C177.337 54.7155 177.033 55.3841 176.609 55.9512C176.186 56.5182 175.632 56.9626 174.946 57.2842C174.261 57.5973 173.427 57.7539 172.445 57.7539C171.777 57.7539 171.163 57.6566 170.604 57.4619C170.054 57.2673 169.58 56.9668 169.183 56.5605C168.785 56.1543 168.476 55.6253 168.256 54.9736C168.044 54.3219 167.938 53.5391 167.938 52.625V43.7637H170.287V52.6504C170.287 53.2682 170.355 53.7803 170.49 54.1865C170.634 54.5843 170.825 54.9017 171.062 55.1387C171.307 55.3672 171.578 55.528 171.874 55.6211C172.179 55.7142 172.492 55.7607 172.813 55.7607C173.812 55.7607 174.604 55.5703 175.188 55.1895C175.771 54.8001 176.19 54.2796 176.444 53.6279C176.707 52.9678 176.838 52.2357 176.838 51.4316ZM186.194 56.0781L190.016 43.7637H192.529L187.02 59.6201C186.893 59.9587 186.723 60.3226 186.512 60.7119C186.309 61.1097 186.046 61.4863 185.725 61.8418C185.403 62.1973 185.014 62.485 184.557 62.7051C184.108 62.9336 183.571 63.0479 182.944 63.0479C182.758 63.0479 182.521 63.0225 182.233 62.9717C181.946 62.9209 181.743 62.8786 181.624 62.8447L181.611 60.9404C181.679 60.9489 181.785 60.9574 181.929 60.9658C182.081 60.9827 182.187 60.9912 182.246 60.9912C182.779 60.9912 183.232 60.9193 183.604 60.7754C183.977 60.64 184.29 60.4072 184.544 60.0771C184.806 59.7555 185.031 59.3112 185.217 58.7441L186.194 56.0781ZM183.389 43.7637L186.956 54.4277L187.565 56.9033L185.877 57.7666L180.824 43.7637H183.389ZM200.172 57.7539C199.215 57.7539 198.348 57.5931 197.569 57.2715C196.799 56.9414 196.135 56.4801 195.576 55.8877C195.026 55.2952 194.603 54.5928 194.307 53.7803C194.01 52.9678 193.862 52.0791 193.862 51.1143V50.5811C193.862 49.4639 194.027 48.4694 194.357 47.5977C194.688 46.7174 195.136 45.9727 195.703 45.3633C196.27 44.7539 196.913 44.2926 197.633 43.9795C198.352 43.6663 199.097 43.5098 199.867 43.5098C200.849 43.5098 201.695 43.679 202.406 44.0176C203.126 44.3561 203.714 44.8301 204.171 45.4395C204.628 46.0404 204.966 46.7513 205.187 47.5723C205.407 48.3848 205.517 49.2734 205.517 50.2383V51.292H195.259V49.375H203.168V49.1973C203.134 48.5879 203.007 47.9954 202.787 47.4199C202.576 46.8444 202.237 46.3704 201.771 45.998C201.306 45.6257 200.671 45.4395 199.867 45.4395C199.334 45.4395 198.843 45.5537 198.395 45.7822C197.946 46.0023 197.561 46.3324 197.239 46.7725C196.918 47.2126 196.668 47.75 196.49 48.3848C196.312 49.0195 196.224 49.7516 196.224 50.5811V51.1143C196.224 51.766 196.312 52.3796 196.49 52.9551C196.676 53.5221 196.943 54.0215 197.29 54.4531C197.646 54.8848 198.073 55.2233 198.572 55.4688C199.08 55.7142 199.656 55.8369 200.299 55.8369C201.128 55.8369 201.831 55.6676 202.406 55.3291C202.982 54.9906 203.485 54.5378 203.917 53.9707L205.339 55.1006C205.043 55.5492 204.666 55.9766 204.209 56.3828C203.752 56.7891 203.189 57.1191 202.521 57.373C201.86 57.627 201.077 57.7539 200.172 57.7539ZM210.607 45.9219V57.5H208.259V43.7637H210.544L210.607 45.9219ZM214.898 43.6875L214.886 45.8711C214.691 45.8288 214.505 45.8034 214.327 45.7949C214.158 45.778 213.963 45.7695 213.743 45.7695C213.201 45.7695 212.723 45.8542 212.309 46.0234C211.894 46.1927 211.543 46.4297 211.255 46.7344C210.967 47.0391 210.739 47.403 210.569 47.8262C210.409 48.2409 210.303 48.6979 210.252 49.1973L209.592 49.5781C209.592 48.7487 209.672 47.9701 209.833 47.2422C210.002 46.5143 210.26 45.8711 210.607 45.3125C210.954 44.7454 211.395 44.3053 211.928 43.9922C212.469 43.6706 213.113 43.5098 213.857 43.5098C214.027 43.5098 214.221 43.5309 214.441 43.5732C214.661 43.6071 214.814 43.6452 214.898 43.6875Z" fill="white"/>
<path d="M293 42.4995C293 45.6821 291.736 48.7344 289.485 50.9848C287.235 53.2352 284.183 54.4995 281 54.4995C277.817 54.4995 274.765 53.2352 272.515 50.9848C270.264 48.7344 269 45.6821 269 42.4995C269 39.3169 270.264 36.2647 272.515 34.0142C274.765 31.7638 277.817 30.4995 281 30.4995C284.183 30.4995 287.235 31.7638 289.485 34.0142C291.736 36.2647 293 39.3169 293 42.4995Z" fill="#FF4233"/>
<path fill-rule="evenodd" clip-rule="evenodd" d="M279.776 78.4756C263.776 77.8336 251 64.6576 251 48.4996C251 31.9306 264.431 18.4996 281 18.4996C297.569 18.4996 311 31.9306 311 48.4996C311 65.0686 297.569 78.4996 281 78.4996C280.863 78.5005 280.726 78.5005 280.589 78.4996C280.317 78.4996 280.046 78.4906 279.776 78.4756ZM261.749 67.4296C261.525 66.7855 261.448 66.0991 261.526 65.4214C261.603 64.7437 261.832 64.0921 262.195 63.515C262.559 62.9379 263.048 62.4501 263.626 62.0878C264.204 61.7255 264.856 61.498 265.534 61.4221C277.228 60.1276 284.844 60.2446 296.481 61.4491C297.16 61.5198 297.814 61.7445 298.393 62.106C298.972 62.4675 299.46 62.9563 299.822 63.5352C300.183 64.1141 300.407 64.7678 300.478 65.4466C300.548 66.1254 300.463 66.8113 300.229 67.4521C305.216 62.406 308.009 55.5945 308 48.4996C308 33.5881 295.911 21.4996 281 21.4996C266.089 21.4996 254 33.5881 254 48.4996C254 55.8736 256.957 62.5576 261.749 67.4296Z" fill="#FF4233"/>
<rect x="104.5" y="119.5" width="253" height="48" rx="5.5" stroke="white"/>
<path d="M127.456 148.267L131.79 135.79H133.901L128.456 150.5H126.951L127.456 148.267ZM123.404 135.79L127.698 148.267L128.234 150.5H126.728L121.293 135.79H123.404ZM137.629 139.569V150.5H135.75V139.569H137.629ZM135.609 136.669C135.609 136.366 135.7 136.11 135.882 135.901C136.07 135.693 136.346 135.588 136.71 135.588C137.067 135.588 137.34 135.693 137.528 135.901C137.724 136.11 137.821 136.366 137.821 136.669C137.821 136.959 137.724 137.208 137.528 137.417C137.34 137.619 137.067 137.72 136.71 137.72C136.346 137.72 136.07 137.619 135.882 137.417C135.7 137.208 135.609 136.959 135.609 136.669ZM146.995 147.6C146.995 147.331 146.934 147.082 146.813 146.853C146.698 146.617 146.459 146.405 146.096 146.216C145.739 146.021 145.2 145.853 144.479 145.711C143.873 145.583 143.324 145.432 142.832 145.257C142.347 145.081 141.933 144.869 141.59 144.62C141.253 144.371 140.994 144.078 140.812 143.741C140.63 143.404 140.539 143.01 140.539 142.559C140.539 142.128 140.633 141.721 140.822 141.337C141.017 140.953 141.29 140.613 141.64 140.316C141.997 140.02 142.425 139.788 142.923 139.619C143.422 139.451 143.977 139.367 144.59 139.367C145.466 139.367 146.213 139.522 146.833 139.831C147.453 140.141 147.928 140.555 148.258 141.074C148.588 141.586 148.753 142.155 148.753 142.781H146.884C146.884 142.478 146.793 142.185 146.611 141.902C146.436 141.613 146.176 141.374 145.833 141.185C145.496 140.997 145.082 140.902 144.59 140.902C144.072 140.902 143.651 140.983 143.327 141.145C143.011 141.3 142.778 141.498 142.63 141.741C142.489 141.983 142.418 142.239 142.418 142.509C142.418 142.711 142.452 142.893 142.519 143.054C142.593 143.209 142.721 143.354 142.903 143.489C143.085 143.617 143.341 143.738 143.671 143.852C144.001 143.967 144.422 144.081 144.934 144.196C145.83 144.398 146.567 144.64 147.146 144.923C147.725 145.206 148.157 145.553 148.439 145.964C148.722 146.375 148.864 146.873 148.864 147.459C148.864 147.937 148.763 148.375 148.561 148.772C148.365 149.17 148.079 149.513 147.702 149.803C147.331 150.086 146.887 150.308 146.368 150.47C145.856 150.625 145.281 150.702 144.641 150.702C143.678 150.702 142.863 150.53 142.196 150.187C141.529 149.843 141.024 149.399 140.68 148.853C140.337 148.308 140.165 147.732 140.165 147.126H142.044C142.071 147.638 142.219 148.045 142.489 148.348C142.758 148.644 143.088 148.857 143.479 148.985C143.87 149.106 144.257 149.166 144.641 149.166C145.153 149.166 145.58 149.099 145.924 148.964C146.274 148.83 146.54 148.644 146.722 148.409C146.904 148.173 146.995 147.904 146.995 147.6ZM155.693 149.166C156.138 149.166 156.549 149.075 156.926 148.894C157.303 148.712 157.613 148.463 157.855 148.146C158.098 147.823 158.236 147.456 158.27 147.045H160.048C160.014 147.691 159.795 148.294 159.391 148.853C158.994 149.406 158.472 149.853 157.825 150.197C157.178 150.534 156.468 150.702 155.693 150.702C154.872 150.702 154.154 150.557 153.541 150.268C152.935 149.978 152.43 149.581 152.026 149.075C151.629 148.57 151.329 147.991 151.127 147.338C150.931 146.678 150.834 145.981 150.834 145.247V144.822C150.834 144.088 150.931 143.394 151.127 142.741C151.329 142.081 151.629 141.498 152.026 140.993C152.43 140.488 152.935 140.091 153.541 139.801C154.154 139.511 154.872 139.367 155.693 139.367C156.549 139.367 157.296 139.542 157.936 139.892C158.576 140.235 159.078 140.707 159.441 141.306C159.812 141.899 160.014 142.573 160.048 143.327H158.27C158.236 142.876 158.108 142.468 157.886 142.105C157.67 141.741 157.374 141.451 156.997 141.236C156.626 141.013 156.192 140.902 155.693 140.902C155.121 140.902 154.639 141.017 154.249 141.246C153.865 141.468 153.558 141.771 153.329 142.155C153.107 142.532 152.945 142.953 152.844 143.418C152.75 143.876 152.703 144.344 152.703 144.822V145.247C152.703 145.725 152.75 146.196 152.844 146.661C152.939 147.126 153.097 147.547 153.319 147.924C153.548 148.301 153.855 148.604 154.238 148.833C154.629 149.055 155.114 149.166 155.693 149.166ZM161.654 145.156V144.923C161.654 144.135 161.768 143.404 161.997 142.731C162.226 142.051 162.556 141.461 162.988 140.963C163.419 140.458 163.941 140.067 164.554 139.791C165.166 139.508 165.853 139.367 166.614 139.367C167.382 139.367 168.073 139.508 168.686 139.791C169.305 140.067 169.831 140.458 170.262 140.963C170.699 141.461 171.033 142.051 171.262 142.731C171.491 143.404 171.605 144.135 171.605 144.923V145.156C171.605 145.944 171.491 146.674 171.262 147.348C171.033 148.021 170.699 148.611 170.262 149.116C169.831 149.614 169.309 150.005 168.696 150.288C168.09 150.564 167.403 150.702 166.635 150.702C165.867 150.702 165.177 150.564 164.564 150.288C163.951 150.005 163.425 149.614 162.988 149.116C162.556 148.611 162.226 148.021 161.997 147.348C161.768 146.674 161.654 145.944 161.654 145.156ZM163.523 144.923V145.156C163.523 145.701 163.587 146.216 163.715 146.701C163.843 147.18 164.035 147.604 164.291 147.974C164.554 148.345 164.88 148.638 165.271 148.853C165.661 149.062 166.116 149.166 166.635 149.166C167.147 149.166 167.594 149.062 167.978 148.853C168.369 148.638 168.692 148.345 168.948 147.974C169.204 147.604 169.396 147.18 169.524 146.701C169.659 146.216 169.726 145.701 169.726 145.156V144.923C169.726 144.384 169.659 143.876 169.524 143.398C169.396 142.913 169.201 142.485 168.938 142.115C168.682 141.737 168.359 141.441 167.968 141.226C167.584 141.01 167.133 140.902 166.614 140.902C166.103 140.902 165.651 141.01 165.261 141.226C164.877 141.441 164.554 141.737 164.291 142.115C164.035 142.485 163.843 142.913 163.715 143.398C163.587 143.876 163.523 144.384 163.523 144.923ZM175.808 141.741V150.5H173.929V139.569H175.707L175.808 141.741ZM175.424 144.62L174.555 144.59C174.562 143.842 174.66 143.152 174.848 142.519C175.037 141.879 175.316 141.323 175.687 140.852C176.057 140.38 176.519 140.017 177.071 139.761C177.623 139.498 178.263 139.367 178.991 139.367C179.502 139.367 179.974 139.441 180.405 139.589C180.836 139.73 181.21 139.956 181.526 140.266C181.843 140.576 182.089 140.973 182.264 141.458C182.439 141.943 182.527 142.529 182.527 143.216V150.5H180.657V143.307C180.657 142.734 180.56 142.276 180.365 141.933C180.176 141.589 179.907 141.34 179.556 141.185C179.206 141.024 178.795 140.943 178.324 140.943C177.771 140.943 177.31 141.04 176.94 141.236C176.569 141.431 176.273 141.7 176.051 142.044C175.828 142.387 175.667 142.781 175.566 143.226C175.471 143.664 175.424 144.128 175.424 144.62ZM182.506 143.59L181.254 143.974C181.26 143.374 181.358 142.798 181.547 142.246C181.742 141.694 182.021 141.202 182.385 140.771C182.756 140.34 183.21 140 183.749 139.751C184.288 139.495 184.904 139.367 185.598 139.367C186.184 139.367 186.702 139.444 187.154 139.599C187.612 139.754 187.996 139.993 188.305 140.316C188.622 140.633 188.861 141.04 189.023 141.539C189.184 142.037 189.265 142.63 189.265 143.317V150.5H187.386V143.297C187.386 142.684 187.288 142.209 187.093 141.872C186.904 141.529 186.635 141.29 186.285 141.155C185.941 141.013 185.53 140.943 185.052 140.943C184.641 140.943 184.278 141.013 183.961 141.155C183.645 141.296 183.379 141.492 183.163 141.741C182.947 141.983 182.782 142.263 182.668 142.579C182.56 142.896 182.506 143.233 182.506 143.59ZM193.953 141.741V150.5H192.074V139.569H193.852L193.953 141.741ZM193.569 144.62L192.7 144.59C192.707 143.842 192.805 143.152 192.993 142.519C193.182 141.879 193.461 141.323 193.832 140.852C194.202 140.38 194.663 140.017 195.216 139.761C195.768 139.498 196.408 139.367 197.135 139.367C197.647 139.367 198.119 139.441 198.55 139.589C198.981 139.73 199.355 139.956 199.671 140.266C199.988 140.576 200.233 140.973 200.409 141.458C200.584 141.943 200.671 142.529 200.671 143.216V150.5H198.802V143.307C198.802 142.734 198.705 142.276 198.509 141.933C198.321 141.589 198.051 141.34 197.701 141.185C197.351 141.024 196.94 140.943 196.468 140.943C195.916 140.943 195.455 141.04 195.084 141.236C194.714 141.431 194.418 141.7 194.195 142.044C193.973 142.387 193.811 142.781 193.71 143.226C193.616 143.664 193.569 144.128 193.569 144.62ZM200.651 143.59L199.398 143.974C199.405 143.374 199.503 142.798 199.691 142.246C199.887 141.694 200.166 141.202 200.53 140.771C200.9 140.34 201.355 140 201.894 139.751C202.433 139.495 203.049 139.367 203.743 139.367C204.329 139.367 204.847 139.444 205.298 139.599C205.756 139.754 206.14 139.993 206.45 140.316C206.767 140.633 207.006 141.04 207.167 141.539C207.329 142.037 207.41 142.63 207.41 143.317V150.5H205.531V143.297C205.531 142.684 205.433 142.209 205.238 141.872C205.049 141.529 204.78 141.29 204.43 141.155C204.086 141.013 203.675 140.943 203.197 140.943C202.786 140.943 202.422 141.013 202.106 141.155C201.789 141.296 201.523 141.492 201.308 141.741C201.092 141.983 200.927 142.263 200.813 142.579C200.705 142.896 200.651 143.233 200.651 143.59ZM214.775 150.702C214.014 150.702 213.323 150.574 212.704 150.318C212.091 150.055 211.562 149.688 211.118 149.217C210.68 148.745 210.343 148.186 210.107 147.54C209.872 146.893 209.754 146.186 209.754 145.418V144.994C209.754 144.105 209.885 143.313 210.148 142.62C210.41 141.919 210.767 141.327 211.219 140.842C211.67 140.357 212.182 139.99 212.754 139.74C213.327 139.491 213.92 139.367 214.532 139.367C215.314 139.367 215.987 139.501 216.553 139.771C217.126 140.04 217.594 140.417 217.957 140.902C218.321 141.38 218.59 141.946 218.766 142.6C218.941 143.246 219.028 143.953 219.028 144.721V145.56H210.865V144.034H217.159V143.893C217.132 143.408 217.031 142.936 216.856 142.478C216.688 142.02 216.418 141.643 216.048 141.347C215.677 141.05 215.172 140.902 214.532 140.902C214.108 140.902 213.717 140.993 213.36 141.175C213.004 141.35 212.697 141.613 212.441 141.963C212.185 142.313 211.987 142.741 211.845 143.246C211.704 143.751 211.633 144.334 211.633 144.994V145.418C211.633 145.937 211.704 146.425 211.845 146.883C211.993 147.334 212.205 147.732 212.482 148.075C212.764 148.419 213.105 148.688 213.502 148.884C213.906 149.079 214.364 149.177 214.876 149.177C215.536 149.177 216.095 149.042 216.553 148.772C217.011 148.503 217.412 148.143 217.755 147.691L218.887 148.591C218.651 148.948 218.351 149.288 217.988 149.611C217.624 149.934 217.176 150.197 216.644 150.399C216.119 150.601 215.496 150.702 214.775 150.702ZM223.079 141.286V150.5H221.21V139.569H223.029L223.079 141.286ZM226.494 139.508L226.484 141.246C226.329 141.212 226.181 141.192 226.04 141.185C225.905 141.172 225.75 141.165 225.575 141.165C225.144 141.165 224.763 141.232 224.433 141.367C224.103 141.502 223.824 141.69 223.595 141.933C223.366 142.175 223.184 142.465 223.049 142.802C222.921 143.132 222.837 143.495 222.797 143.893L222.271 144.196C222.271 143.536 222.335 142.916 222.463 142.337C222.598 141.758 222.803 141.246 223.079 140.801C223.356 140.35 223.706 140 224.13 139.751C224.561 139.495 225.073 139.367 225.666 139.367C225.801 139.367 225.955 139.383 226.131 139.417C226.306 139.444 226.427 139.474 226.494 139.508ZM232.394 149.166C232.839 149.166 233.25 149.075 233.627 148.894C234.004 148.712 234.314 148.463 234.556 148.146C234.799 147.823 234.937 147.456 234.971 147.045H236.749C236.715 147.691 236.496 148.294 236.092 148.853C235.695 149.406 235.173 149.853 234.526 150.197C233.879 150.534 233.169 150.702 232.394 150.702C231.573 150.702 230.855 150.557 230.242 150.268C229.636 149.978 229.131 149.581 228.727 149.075C228.33 148.57 228.03 147.991 227.828 147.338C227.632 146.678 227.535 145.981 227.535 145.247V144.822C227.535 144.088 227.632 143.394 227.828 142.741C228.03 142.081 228.33 141.498 228.727 140.993C229.131 140.488 229.636 140.091 230.242 139.801C230.855 139.511 231.573 139.367 232.394 139.367C233.25 139.367 233.997 139.542 234.637 139.892C235.277 140.235 235.779 140.707 236.142 141.306C236.513 141.899 236.715 142.573 236.749 143.327H234.971C234.937 142.876 234.809 142.468 234.587 142.105C234.371 141.741 234.075 141.451 233.698 141.236C233.327 141.013 232.893 140.902 232.394 140.902C231.822 140.902 231.34 141.017 230.95 141.246C230.566 141.468 230.259 141.771 230.03 142.155C229.808 142.532 229.646 142.953 229.545 143.418C229.451 143.876 229.404 144.344 229.404 144.822V145.247C229.404 145.725 229.451 146.196 229.545 146.661C229.64 147.126 229.798 147.547 230.02 147.924C230.249 148.301 230.556 148.604 230.939 148.833C231.33 149.055 231.815 149.166 232.394 149.166ZM243.386 150.702C242.625 150.702 241.935 150.574 241.315 150.318C240.702 150.055 240.174 149.688 239.729 149.217C239.291 148.745 238.954 148.186 238.719 147.54C238.483 146.893 238.365 146.186 238.365 145.418V144.994C238.365 144.105 238.496 143.313 238.759 142.62C239.022 141.919 239.379 141.327 239.83 140.842C240.281 140.357 240.793 139.99 241.366 139.74C241.938 139.491 242.531 139.367 243.144 139.367C243.925 139.367 244.599 139.501 245.164 139.771C245.737 140.04 246.205 140.417 246.569 140.902C246.932 141.38 247.202 141.946 247.377 142.6C247.552 143.246 247.64 143.953 247.64 144.721V145.56H239.476V144.034H245.771V143.893C245.744 143.408 245.643 142.936 245.467 142.478C245.299 142.02 245.03 141.643 244.659 141.347C244.289 141.05 243.784 140.902 243.144 140.902C242.719 140.902 242.329 140.993 241.972 141.175C241.615 141.35 241.308 141.613 241.052 141.963C240.797 142.313 240.598 142.741 240.456 143.246C240.315 143.751 240.244 144.334 240.244 144.994V145.418C240.244 145.937 240.315 146.425 240.456 146.883C240.605 147.334 240.817 147.732 241.093 148.075C241.376 148.419 241.716 148.688 242.113 148.884C242.517 149.079 242.975 149.177 243.487 149.177C244.147 149.177 244.706 149.042 245.164 148.772C245.622 148.503 246.023 148.143 246.367 147.691L247.498 148.591C247.262 148.948 246.963 149.288 246.599 149.611C246.235 149.934 245.787 150.197 245.255 150.399C244.73 150.601 244.107 150.702 243.386 150.702ZM257.48 142.226H258.813C259.467 142.226 260.005 142.118 260.43 141.902C260.861 141.68 261.181 141.38 261.39 141.003C261.605 140.619 261.713 140.188 261.713 139.71C261.713 139.144 261.619 138.67 261.43 138.286C261.241 137.902 260.959 137.612 260.581 137.417C260.204 137.221 259.726 137.124 259.147 137.124C258.621 137.124 258.157 137.228 257.753 137.437C257.355 137.639 257.042 137.929 256.813 138.306C256.591 138.683 256.48 139.128 256.48 139.639H254.611C254.611 138.892 254.799 138.212 255.176 137.599C255.553 136.986 256.082 136.497 256.762 136.134C257.449 135.77 258.244 135.588 259.147 135.588C260.036 135.588 260.814 135.746 261.48 136.063C262.147 136.373 262.666 136.838 263.036 137.457C263.407 138.07 263.592 138.835 263.592 139.751C263.592 140.121 263.504 140.518 263.329 140.943C263.161 141.36 262.895 141.751 262.531 142.115C262.174 142.478 261.709 142.778 261.137 143.014C260.564 143.243 259.877 143.357 259.076 143.357H257.48V142.226ZM257.48 143.761V142.64H259.076C260.012 142.64 260.787 142.751 261.4 142.973C262.013 143.196 262.494 143.492 262.844 143.862C263.201 144.233 263.451 144.64 263.592 145.085C263.74 145.523 263.814 145.96 263.814 146.398C263.814 147.085 263.696 147.695 263.461 148.227C263.232 148.759 262.905 149.21 262.481 149.581C262.063 149.951 261.571 150.231 261.006 150.419C260.44 150.608 259.824 150.702 259.157 150.702C258.517 150.702 257.914 150.611 257.348 150.429C256.789 150.247 256.294 149.985 255.863 149.641C255.432 149.291 255.095 148.863 254.853 148.358C254.611 147.846 254.489 147.264 254.489 146.61H256.358C256.358 147.122 256.469 147.57 256.692 147.954C256.921 148.338 257.244 148.638 257.662 148.853C258.086 149.062 258.584 149.166 259.157 149.166C259.729 149.166 260.221 149.069 260.632 148.873C261.049 148.671 261.369 148.368 261.592 147.964C261.821 147.56 261.935 147.052 261.935 146.439C261.935 145.826 261.807 145.324 261.551 144.933C261.295 144.536 260.932 144.243 260.46 144.054C259.995 143.859 259.446 143.761 258.813 143.761H257.48ZM270.856 150.5H267.785L267.805 148.914H270.856C271.907 148.914 272.782 148.695 273.483 148.257C274.183 147.813 274.709 147.193 275.059 146.398C275.416 145.597 275.594 144.661 275.594 143.59V142.69C275.594 141.849 275.493 141.101 275.291 140.448C275.089 139.788 274.793 139.232 274.402 138.781C274.011 138.323 273.533 137.976 272.967 137.74C272.408 137.504 271.765 137.386 271.038 137.386H267.724V135.79H271.038C272.001 135.79 272.88 135.952 273.675 136.275C274.469 136.592 275.153 137.053 275.726 137.659C276.305 138.259 276.749 138.986 277.059 139.841C277.369 140.69 277.524 141.647 277.524 142.711V143.59C277.524 144.654 277.369 145.614 277.059 146.469C276.749 147.318 276.301 148.042 275.715 148.641C275.136 149.241 274.436 149.702 273.614 150.025C272.799 150.342 271.88 150.5 270.856 150.5ZM268.825 135.79V150.5H266.875V135.79H268.825ZM293.426 146.782C293.426 146.439 293.372 146.136 293.264 145.873C293.163 145.603 292.981 145.361 292.719 145.145C292.463 144.93 292.106 144.725 291.648 144.529C291.196 144.334 290.624 144.135 289.93 143.933C289.203 143.718 288.546 143.479 287.96 143.216C287.374 142.946 286.872 142.64 286.455 142.296C286.037 141.953 285.717 141.559 285.495 141.114C285.273 140.67 285.162 140.161 285.162 139.589C285.162 139.016 285.28 138.488 285.515 138.003C285.751 137.518 286.088 137.097 286.526 136.74C286.97 136.376 287.499 136.093 288.112 135.891C288.725 135.689 289.408 135.588 290.163 135.588C291.267 135.588 292.203 135.8 292.971 136.225C293.746 136.642 294.335 137.191 294.739 137.871C295.143 138.545 295.345 139.266 295.345 140.033H293.406C293.406 139.481 293.288 138.993 293.052 138.569C292.816 138.137 292.459 137.801 291.981 137.558C291.503 137.309 290.897 137.184 290.163 137.184C289.469 137.184 288.896 137.289 288.445 137.498C287.994 137.706 287.657 137.989 287.435 138.346C287.219 138.703 287.111 139.111 287.111 139.569C287.111 139.879 287.175 140.161 287.303 140.417C287.438 140.667 287.644 140.899 287.92 141.114C288.203 141.33 288.56 141.529 288.991 141.71C289.428 141.892 289.95 142.067 290.557 142.236C291.392 142.472 292.112 142.734 292.719 143.024C293.325 143.313 293.823 143.64 294.214 144.004C294.611 144.361 294.904 144.768 295.093 145.226C295.288 145.678 295.386 146.189 295.386 146.762C295.386 147.361 295.265 147.904 295.022 148.388C294.78 148.873 294.433 149.288 293.981 149.631C293.53 149.975 292.988 150.241 292.355 150.429C291.729 150.611 291.028 150.702 290.253 150.702C289.573 150.702 288.903 150.608 288.243 150.419C287.59 150.231 286.994 149.948 286.455 149.571C285.923 149.193 285.495 148.729 285.172 148.176C284.855 147.617 284.697 146.971 284.697 146.237H286.637C286.637 146.742 286.734 147.176 286.93 147.54C287.125 147.897 287.391 148.193 287.728 148.429C288.071 148.665 288.459 148.84 288.89 148.954C289.327 149.062 289.782 149.116 290.253 149.116C290.934 149.116 291.51 149.022 291.981 148.833C292.453 148.644 292.81 148.375 293.052 148.025C293.301 147.675 293.426 147.26 293.426 146.782ZM299.457 141.67V154.703H297.578V139.569H299.296L299.457 141.67ZM306.822 144.943V145.156C306.822 145.95 306.728 146.688 306.539 147.368C306.351 148.042 306.075 148.628 305.711 149.126C305.354 149.624 304.913 150.012 304.387 150.288C303.862 150.564 303.259 150.702 302.579 150.702C301.885 150.702 301.272 150.588 300.74 150.359C300.208 150.13 299.757 149.796 299.386 149.358C299.016 148.921 298.72 148.395 298.497 147.782C298.282 147.169 298.134 146.479 298.053 145.711V144.58C298.134 143.771 298.285 143.047 298.508 142.408C298.73 141.768 299.023 141.222 299.386 140.771C299.757 140.313 300.205 139.966 300.73 139.73C301.256 139.488 301.862 139.367 302.549 139.367C303.236 139.367 303.845 139.501 304.377 139.771C304.909 140.033 305.357 140.411 305.721 140.902C306.085 141.394 306.357 141.983 306.539 142.67C306.728 143.351 306.822 144.108 306.822 144.943ZM304.943 145.156V144.943C304.943 144.398 304.886 143.886 304.771 143.408C304.657 142.923 304.478 142.499 304.236 142.135C304 141.764 303.697 141.475 303.327 141.266C302.956 141.05 302.515 140.943 302.003 140.943C301.532 140.943 301.121 141.024 300.771 141.185C300.427 141.347 300.134 141.566 299.892 141.842C299.649 142.111 299.45 142.421 299.296 142.771C299.147 143.115 299.036 143.472 298.962 143.842V146.459C299.097 146.93 299.285 147.375 299.528 147.792C299.77 148.203 300.094 148.537 300.498 148.793C300.902 149.042 301.41 149.166 302.023 149.166C302.528 149.166 302.963 149.062 303.327 148.853C303.697 148.638 304 148.345 304.236 147.974C304.478 147.604 304.657 147.18 304.771 146.701C304.886 146.216 304.943 145.701 304.943 145.156ZM315.652 148.631V143.004C315.652 142.573 315.565 142.199 315.389 141.882C315.221 141.559 314.965 141.31 314.622 141.135C314.278 140.96 313.854 140.872 313.349 140.872C312.877 140.872 312.463 140.953 312.106 141.114C311.756 141.276 311.48 141.488 311.278 141.751C311.082 142.014 310.985 142.296 310.985 142.6H309.116C309.116 142.209 309.217 141.822 309.419 141.438C309.621 141.054 309.91 140.707 310.287 140.397C310.671 140.081 311.129 139.831 311.661 139.65C312.2 139.461 312.8 139.367 313.46 139.367C314.255 139.367 314.955 139.501 315.561 139.771C316.174 140.04 316.652 140.448 316.996 140.993C317.346 141.532 317.521 142.209 317.521 143.024V148.116C317.521 148.479 317.551 148.867 317.612 149.278C317.679 149.688 317.777 150.042 317.905 150.338V150.5H315.955C315.861 150.284 315.787 149.998 315.733 149.641C315.679 149.278 315.652 148.941 315.652 148.631ZM315.975 143.873L315.996 145.186H314.106C313.574 145.186 313.099 145.23 312.682 145.317C312.264 145.398 311.914 145.523 311.631 145.691C311.348 145.859 311.133 146.072 310.985 146.328C310.836 146.577 310.762 146.87 310.762 147.206C310.762 147.55 310.84 147.863 310.995 148.146C311.15 148.429 311.382 148.655 311.692 148.823C312.008 148.985 312.396 149.065 312.854 149.065C313.426 149.065 313.931 148.944 314.369 148.702C314.807 148.459 315.154 148.163 315.41 147.813C315.672 147.462 315.814 147.122 315.834 146.792L316.632 147.691C316.585 147.974 316.457 148.287 316.248 148.631C316.039 148.974 315.76 149.304 315.41 149.621C315.066 149.931 314.655 150.19 314.177 150.399C313.706 150.601 313.174 150.702 312.581 150.702C311.84 150.702 311.19 150.557 310.631 150.268C310.079 149.978 309.648 149.591 309.338 149.106C309.035 148.614 308.883 148.065 308.883 147.459C308.883 146.873 308.998 146.358 309.227 145.913C309.456 145.462 309.786 145.088 310.217 144.792C310.648 144.489 311.166 144.26 311.773 144.105C312.379 143.95 313.056 143.873 313.803 143.873H315.975ZM324.836 149.166C325.28 149.166 325.691 149.075 326.068 148.894C326.445 148.712 326.755 148.463 326.998 148.146C327.24 147.823 327.378 147.456 327.412 147.045H329.19C329.156 147.691 328.937 148.294 328.533 148.853C328.136 149.406 327.614 149.853 326.967 150.197C326.321 150.534 325.61 150.702 324.836 150.702C324.014 150.702 323.297 150.557 322.684 150.268C322.078 149.978 321.572 149.581 321.168 149.075C320.771 148.57 320.471 147.991 320.269 147.338C320.074 146.678 319.976 145.981 319.976 145.247V144.822C319.976 144.088 320.074 143.394 320.269 142.741C320.471 142.081 320.771 141.498 321.168 140.993C321.572 140.488 322.078 140.091 322.684 139.801C323.297 139.511 324.014 139.367 324.836 139.367C325.691 139.367 326.439 139.542 327.078 139.892C327.718 140.235 328.22 140.707 328.584 141.306C328.954 141.899 329.156 142.573 329.19 143.327H327.412C327.378 142.876 327.25 142.468 327.028 142.105C326.812 141.741 326.516 141.451 326.139 141.236C325.768 141.013 325.334 140.902 324.836 140.902C324.263 140.902 323.782 141.017 323.391 141.246C323.007 141.468 322.701 141.771 322.472 142.155C322.249 142.532 322.088 142.953 321.987 143.418C321.892 143.876 321.845 144.344 321.845 144.822V145.247C321.845 145.725 321.892 146.196 321.987 146.661C322.081 147.126 322.239 147.547 322.461 147.924C322.69 148.301 322.997 148.604 323.381 148.833C323.771 149.055 324.256 149.166 324.836 149.166ZM335.828 150.702C335.066 150.702 334.376 150.574 333.756 150.318C333.144 150.055 332.615 149.688 332.17 149.217C331.733 148.745 331.396 148.186 331.16 147.54C330.924 146.893 330.806 146.186 330.806 145.418V144.994C330.806 144.105 330.938 143.313 331.2 142.62C331.463 141.919 331.82 141.327 332.271 140.842C332.723 140.357 333.234 139.99 333.807 139.74C334.379 139.491 334.972 139.367 335.585 139.367C336.366 139.367 337.04 139.501 337.606 139.771C338.178 140.04 338.646 140.417 339.01 140.902C339.374 141.38 339.643 141.946 339.818 142.6C339.993 143.246 340.081 143.953 340.081 144.721V145.56H331.918V144.034H338.212V143.893C338.185 143.408 338.084 142.936 337.909 142.478C337.74 142.02 337.471 141.643 337.101 141.347C336.73 141.05 336.225 140.902 335.585 140.902C335.161 140.902 334.77 140.993 334.413 141.175C334.056 141.35 333.75 141.613 333.494 141.963C333.238 142.313 333.039 142.741 332.898 143.246C332.756 143.751 332.686 144.334 332.686 144.994V145.418C332.686 145.937 332.756 146.425 332.898 146.883C333.046 147.334 333.258 147.732 333.534 148.075C333.817 148.419 334.157 148.688 334.555 148.884C334.959 149.079 335.417 149.177 335.929 149.177C336.589 149.177 337.148 149.042 337.606 148.772C338.064 148.503 338.464 148.143 338.808 147.691L339.939 148.591C339.704 148.948 339.404 149.288 339.04 149.611C338.677 149.934 338.229 150.197 337.697 150.399C337.171 150.601 336.548 150.702 335.828 150.702Z" fill="white"/>
<path d="M390 49H451C457.075 49 462 53.9249 462 60V228C462 234.075 457.075 239 451 239H390" stroke="#FF4233" stroke-width="2"/>
<path d="M73 49H12C5.92487 49 1 53.9249 1 60V228C1 234.075 5.92487 239 12 239H78" stroke="#FF4233" stroke-width="2"/>
</svg>
