<svg width="250" height="212" viewBox="0 0 250 212" fill="none" xmlns="http://www.w3.org/2000/svg">
<path fill-rule="evenodd" clip-rule="evenodd" d="M129.634 129.172V155.673L156.135 142.422V138.006L134.051 126.964L129.634 129.172ZM120.801 129.172L98.7174 140.214V144.631L120.801 155.673V129.172ZM160.551 7.71271L1.5498 87.2135L89.884 131.381L248.886 51.8798L160.551 7.71271ZM182.635 98.2553L164.968 107.089V115.922L182.635 124.756V98.2553ZM191.468 98.2553V124.756L217.969 111.505V107.089L195.885 96.0469L191.468 98.2553ZM58.967 32.0046L19.2166 51.8798L23.6334 54.0882L63.3837 34.213L58.967 32.0046ZM120.801 1.08765L81.0506 20.9628L85.4673 23.1712L125.218 3.296L120.801 1.08765Z" fill="white"/>
<path fill-rule="evenodd" clip-rule="evenodd" d="M10.3832 96.0468V171.131L19.2166 175.548V109.297L28.0501 113.714V118.13L58.967 133.589V168.923L63.3837 171.131V131.381L81.0506 140.214V206.465L89.884 210.881V149.047L120.801 164.506V199.84L125.218 202.048V104.88L120.801 102.672V155.672L89.884 140.214V131.381L1.5498 87.2134V91.6301L10.3832 96.0468ZM152.943 117.512L151.707 118.13V135.797L156.124 138.006V151.256L151.707 153.464L156.124 155.672V182.173L160.54 184.381V122.547L182.624 133.589V168.923L187.041 171.131V73.9633L182.624 71.7549V124.755L152.943 109.915V117.512ZM222.109 82.9292L217.969 85.0051V151.256L222.385 153.464V135.797L231.219 140.214V73.9633L222.385 78.38L222.109 82.9292ZM23.6334 54.0881L19.2166 51.8797V78.38L23.6334 76.1716V54.0881ZM85.4673 23.1711L81.0506 20.9628V47.463L85.4673 45.2547V23.1711Z" fill="#25090B"/>
<path fill-rule="evenodd" clip-rule="evenodd" d="M80.5531 19.9801C80.1777 20.1788 79.9458 20.5432 79.9458 20.9739V46.7895L64.4873 54.5188V34.224C64.4873 33.8265 64.2554 33.4069 63.8799 33.2302L59.4632 31.0219C59.1541 30.8673 58.7898 30.8673 58.4806 31.0219L18.7301 50.897C18.3547 51.0958 18.1229 51.4602 18.1229 51.8908V77.7065L1.06327 86.2307C0.687851 86.4295 0.456055 86.7939 0.456055 87.2245V91.6412C0.456055 92.0608 0.687851 92.4363 1.06327 92.624L9.28947 96.7315V171.131C9.28947 171.551 9.52127 171.926 9.89669 172.114L18.7301 176.53C19.0393 176.685 19.4147 176.685 19.7239 176.53L28.5573 172.114C28.9327 171.926 29.1647 171.551 29.1647 171.131V119.919L57.8733 134.273V168.923C57.8733 169.342 58.1052 169.718 58.4806 169.905L62.8973 172.114C63.2065 172.268 63.5818 172.268 63.891 172.114L68.3077 169.905C68.6831 169.718 68.9151 169.342 68.9151 168.923V135.378L79.9568 140.899V206.465C79.9568 206.884 80.1888 207.26 80.5642 207.447L89.3976 211.864C89.7068 212.019 90.0821 212.019 90.3913 211.864L99.2247 207.447C99.6001 207.26 99.832 206.884 99.832 206.465V155.253L119.707 165.19V199.84C119.707 200.259 119.939 200.635 120.315 200.822L124.731 203.031C125.04 203.185 125.416 203.185 125.725 203.031L130.142 200.822C130.517 200.635 130.749 200.259 130.749 199.84V165.19L151.728 154.701L155.041 156.357V182.173C155.041 182.592 155.273 182.968 155.648 183.155L160.065 185.364C160.374 185.518 160.749 185.518 161.059 185.364L165.475 183.155C165.851 182.968 166.083 182.592 166.083 182.173V126.544L181.541 134.273V168.923C181.541 169.342 181.773 169.718 182.149 169.905L186.565 172.114C186.874 172.268 187.25 172.268 187.559 172.114L191.976 169.905C192.351 169.718 192.583 169.342 192.583 168.923V134.273L216.875 122.128V151.256C216.875 151.675 217.107 152.051 217.482 152.238L221.899 154.447C222.208 154.601 222.583 154.601 222.893 154.447L227.309 152.238C227.685 152.051 227.917 151.675 227.917 151.256V139.794L230.732 141.197C231.041 141.351 231.417 141.351 231.726 141.197L240.559 136.78C240.935 136.592 241.167 136.217 241.167 135.797V61.3978L249.393 57.2903C249.768 57.1026 250 56.7271 250 56.3075V51.8908C249.989 51.4712 249.779 51.1179 249.415 50.9192C249.404 50.9192 249.393 50.9081 249.382 50.9081L161.048 6.741C160.738 6.58642 160.374 6.58642 160.065 6.741L126.332 23.6129V3.31808C126.332 2.92058 126.1 2.50096 125.725 2.32429L121.308 0.115939C120.999 -0.0386462 120.635 -0.0386462 120.326 0.115939L80.5531 19.9801ZM88.7792 136.482L11.4868 97.8356V170.446L18.1118 173.759C18.1118 164.705 18.1118 155.639 18.1118 146.585C18.1118 134.815 18.1118 123.044 18.1118 111.274C18.1118 110.423 17.8357 107.354 19.7128 108.303L81.5468 139.22C81.9222 139.408 82.1541 139.794 82.1541 140.203V205.769L88.7792 209.082V136.482ZM121.905 104.461V155.672V155.706V155.739V155.772V155.805V155.838L121.893 155.871L121.882 155.904L121.871 155.937L121.86 155.971L121.849 156.004L121.838 156.037L121.827 156.07L121.816 156.103L121.805 156.136L121.794 156.169L121.783 156.202L121.761 156.236L121.739 156.269L121.717 156.302L121.695 156.335L121.673 156.368L121.651 156.401L121.628 156.423L121.606 156.445L121.584 156.467L121.562 156.49L121.54 156.512L121.518 156.534L121.496 156.556L121.463 156.578L121.43 156.6L121.397 156.622L121.375 156.644L121.341 156.666L121.308 156.688L121.286 156.699L121.253 156.71L121.22 156.722L121.187 156.733L121.154 156.743L121.132 156.755L121.11 156.766L121.087 156.777L121.054 156.788L121.021 156.799L120.988 156.81H120.955H120.933H120.911H120.889H120.867H120.845H120.811H120.789H120.767H120.745H120.712H120.69H120.668H120.646H120.624C120.602 156.81 120.591 156.799 120.569 156.799L120.546 156.788L120.524 156.777L120.513 156.766C120.491 156.755 120.469 156.755 120.447 156.743L120.425 156.733L120.414 156.722C120.403 156.722 120.392 156.71 120.381 156.699L99.8983 146.453V152.813L121.375 163.545C121.75 163.733 121.982 164.108 121.982 164.528V199.177L124.19 200.281V105.587L121.905 104.461ZM159.447 150.836V182.592L157.238 181.488V151.94L159.281 150.914L159.447 150.836ZM29.1536 115.502L62.2789 132.065V169.342L60.0706 168.238V133.589C60.0706 133.169 59.8387 132.794 59.4632 132.606L29.1536 117.457V115.502ZM183.738 73.5437V124.756V124.789V124.822V124.855V124.888V124.921L183.727 124.954L183.716 124.987L183.705 125.02L183.694 125.054L183.683 125.087L183.672 125.12L183.661 125.153L183.65 125.186L183.639 125.219L183.628 125.252L183.617 125.285L183.595 125.319L183.573 125.352L183.551 125.385L183.529 125.418L183.507 125.451L183.485 125.473L183.462 125.495L183.44 125.517L183.418 125.54L183.396 125.562L183.374 125.584L183.352 125.606L183.319 125.628L183.286 125.65L183.253 125.672L183.22 125.694L183.186 125.716L183.153 125.738L183.12 125.76L183.087 125.771L183.054 125.782L183.021 125.793L182.988 125.805L182.955 125.816L182.932 125.827L182.91 125.838L182.877 125.849L182.844 125.86H182.822H182.8H182.778H182.745H182.712H182.69H182.656H182.645H182.623H182.59H182.568H182.546H182.524H182.502H182.48L182.447 125.849L182.413 125.838H182.391L182.358 125.827H182.347L182.314 125.816L182.292 125.805L182.259 125.793H182.248C182.226 125.782 182.215 125.771 182.192 125.771L166.127 117.733V124.093L183.186 132.617C183.562 132.805 183.794 133.191 183.794 133.6V168.249L186.002 169.353V74.659L183.738 73.5437ZM154.18 153.464L155.019 153.045V153.884L154.18 153.464ZM155.03 141.738L130.738 153.884V145.348V129.857L134.05 128.201L155.03 138.69V141.738ZM119.696 130.961L99.821 140.899V143.946L101.323 144.697L119.696 153.884V130.961ZM221.281 119.919V151.675L219.072 150.571V121.023L221.115 119.997L221.281 119.919ZM159.447 139.529V115.502L157.238 116.607V140.634L159.447 139.529ZM230.114 138.425V75.7521L227.906 76.8563V137.321L230.114 138.425ZM155.03 117.711V136.217L152.821 135.113V118.815L155.03 117.711ZM136.513 126.964L150.602 134.009V119.919L136.513 126.964ZM88.7792 132.065V134.009L2.65336 90.9456V89.0022L88.7792 132.065ZM125.703 26.3623L81.5357 48.4458L63.8689 57.2792L19.7018 79.3628L4.01147 87.2024L89.8723 130.133L119.685 115.226V102.661C119.685 101.457 121.882 100.883 122.677 100.486C126.873 98.3878 131.08 96.2899 135.276 94.1809C140.421 91.6082 145.567 89.0354 150.713 86.4627C153.738 84.95 156.73 83.3158 159.811 81.9135C160.264 81.7037 160.639 81.6705 161.125 81.8472C162.395 82.322 163.609 83.095 164.824 83.7023C165.398 83.9893 166.05 84.2432 166.05 84.9941V92.0387L181.508 84.3095V71.7439C181.508 71.3464 181.74 70.9269 182.115 70.7503L221.866 50.8751C222.175 50.7205 222.539 50.7205 222.848 50.8751L227.265 53.0834C227.64 53.2711 227.872 53.6575 227.872 54.0771V61.1217L231.936 59.0901L246.378 51.8687L160.518 8.9383L125.703 26.3623ZM216.864 110.821L192.572 122.967V114.431V98.9398L195.884 97.2836L216.864 107.773V110.821ZM166.072 107.773V115.237L167.529 115.966L181.53 122.967V100.044L166.072 107.773ZM219.072 85.6897V109.717L221.281 108.612V84.5855L219.072 85.6897ZM198.347 96.0469L216.853 105.3V86.7939L198.347 96.0469ZM138.953 94.8323L123.274 102.672L125.217 103.644L162.494 85.0051L160.551 84.0334L138.953 94.8323ZM22.5286 54.7727V75.4871L20.3202 76.5913V53.6685L22.5286 54.7727ZM200.787 63.9153L185.108 71.755L187.051 72.7267L224.328 54.0881L222.385 53.1165L200.787 63.9153ZM21.6783 51.8798L23.6217 52.8515L60.8987 34.2129L58.9554 33.2413L21.6783 51.8798ZM84.3625 44.5701L82.1541 45.6743V22.7516L84.3625 23.8558V44.5701ZM122.744 3.29598L85.4667 21.9345L83.5233 20.9628L120.8 2.32429L122.744 3.29598Z" fill="#F8493B"/>
</svg>
