<svg width="184" height="71" viewBox="0 0 184 71" fill="none" xmlns="http://www.w3.org/2000/svg">
<path d="M81.2236 8.21163V27H77.9846V8.21163H81.2236ZM88.024 16.0186V27H84.9141V13.0378H87.8434L88.024 16.0186ZM87.4692 19.5027L86.4626 19.4898C86.4712 18.5005 86.6089 17.5929 86.8756 16.767C87.1509 15.9412 87.5294 15.2315 88.0111 14.6379C88.5015 14.0443 89.0865 13.5883 89.7661 13.27C90.4457 12.9431 91.2027 12.7797 92.0372 12.7797C92.7082 12.7797 93.3147 12.8743 93.8567 13.0636C94.4073 13.2442 94.8761 13.541 95.2632 13.954C95.659 14.3669 95.9601 14.9046 96.1665 15.567C96.373 16.2208 96.4762 17.0251 96.4762 17.98V27H93.3534V17.9671C93.3534 17.2961 93.2545 16.767 93.0566 16.3799C92.8674 15.9842 92.5878 15.7046 92.2179 15.5412C91.8566 15.3691 91.4049 15.2831 90.8629 15.2831C90.3296 15.2831 89.8521 15.3949 89.4306 15.6186C89.009 15.8423 88.652 16.1477 88.3595 16.5348C88.0757 16.9219 87.8563 17.3692 87.7014 17.8768C87.5466 18.3844 87.4692 18.9263 87.4692 19.5027ZM105.354 24.7805C105.862 24.7805 106.318 24.6816 106.722 24.4837C107.135 24.2772 107.466 23.9933 107.716 23.632C107.974 23.2707 108.116 22.8535 108.142 22.3803H111.071C111.054 23.2836 110.787 24.1052 110.271 24.845C109.755 25.5849 109.071 26.1741 108.219 26.6129C107.367 27.043 106.425 27.2581 105.393 27.2581C104.326 27.2581 103.397 27.0774 102.606 26.7161C101.814 26.3462 101.156 25.8386 100.631 25.1934C100.107 24.5482 99.7108 23.8041 99.4442 22.961C99.1861 22.1179 99.057 21.2147 99.057 20.2512V19.7995C99.057 18.836 99.1861 17.9327 99.4442 17.0897C99.7108 16.238 100.107 15.4895 100.631 14.8443C101.156 14.1991 101.814 13.6959 102.606 13.3346C103.397 12.9646 104.322 12.7797 105.38 12.7797C106.498 12.7797 107.479 13.0034 108.322 13.4507C109.165 13.8894 109.828 14.5045 110.309 15.296C110.8 16.0788 111.054 16.9907 111.071 18.0316H108.142C108.116 17.5155 107.987 17.0509 107.754 16.638C107.531 16.2165 107.212 15.881 106.8 15.6315C106.395 15.382 105.909 15.2573 105.341 15.2573C104.713 15.2573 104.193 15.3863 103.78 15.6444C103.367 15.8939 103.044 16.238 102.812 16.6767C102.58 17.1069 102.412 17.5929 102.309 18.1349C102.214 18.6683 102.167 19.2231 102.167 19.7995V20.2512C102.167 20.8275 102.214 21.3867 102.309 21.9287C102.404 22.4707 102.567 22.9567 102.799 23.3869C103.04 23.8084 103.367 24.1482 103.78 24.4063C104.193 24.6558 104.718 24.7805 105.354 24.7805ZM116.581 15.696V27H113.471V13.0378H116.439L116.581 15.696ZM120.852 12.9474L120.826 15.838C120.637 15.8035 120.431 15.7777 120.207 15.7605C119.992 15.7433 119.777 15.7347 119.562 15.7347C119.028 15.7347 118.559 15.8121 118.155 15.967C117.751 16.1132 117.411 16.3283 117.136 16.6122C116.869 16.8875 116.663 17.223 116.516 17.6187C116.37 18.0144 116.284 18.4575 116.258 18.9478L115.548 18.9995C115.548 18.122 115.635 17.309 115.807 16.5606C115.979 15.8121 116.237 15.154 116.581 14.5863C116.934 14.0185 117.372 13.5754 117.897 13.2571C118.43 12.9388 119.045 12.7797 119.742 12.7797C119.932 12.7797 120.134 12.7969 120.349 12.8313C120.572 12.8657 120.74 12.9044 120.852 12.9474ZM128.698 27.2581C127.665 27.2581 126.732 27.0903 125.898 26.7548C125.072 26.4107 124.366 25.9333 123.781 25.3225C123.205 24.7117 122.762 23.9933 122.452 23.1675C122.142 22.3416 121.988 21.4512 121.988 20.4963V19.9802C121.988 18.8876 122.147 17.8983 122.465 17.0122C122.783 16.1261 123.226 15.3691 123.794 14.7411C124.362 14.1045 125.033 13.6184 125.807 13.2829C126.581 12.9474 127.42 12.7797 128.324 12.7797C129.321 12.7797 130.195 12.9474 130.943 13.2829C131.692 13.6184 132.311 14.0916 132.801 14.7024C133.3 15.3046 133.67 16.0229 133.911 16.8574C134.16 17.6918 134.285 18.6123 134.285 19.6189V20.948H123.497V18.7156H131.214V18.4704C131.197 17.9112 131.085 17.3864 130.879 16.8961C130.681 16.4057 130.375 16.01 129.962 15.7089C129.549 15.4078 128.999 15.2573 128.311 15.2573C127.794 15.2573 127.334 15.3691 126.93 15.5928C126.534 15.8078 126.203 16.1218 125.936 16.5348C125.67 16.9477 125.463 17.4467 125.317 18.0316C125.179 18.608 125.11 19.2575 125.11 19.9802V20.4963C125.11 21.1071 125.192 21.6749 125.356 22.1997C125.528 22.7158 125.777 23.1675 126.104 23.5546C126.431 23.9417 126.827 24.2471 127.291 24.4708C127.756 24.6859 128.285 24.7934 128.878 24.7934C129.627 24.7934 130.294 24.6429 130.879 24.3418C131.464 24.0407 131.971 23.6148 132.401 23.0642L134.04 24.6515C133.739 25.0902 133.348 25.5117 132.866 25.9161C132.384 26.3118 131.795 26.6344 131.098 26.8839C130.41 27.1333 129.61 27.2581 128.698 27.2581ZM144.583 24.1998V17.5413C144.583 17.0423 144.492 16.6122 144.312 16.2509C144.131 15.8896 143.856 15.61 143.486 15.4121C143.125 15.2143 142.669 15.1153 142.118 15.1153C141.61 15.1153 141.172 15.2014 140.802 15.3734C140.432 15.5455 140.144 15.7777 139.937 16.0702C139.731 16.3627 139.628 16.6939 139.628 17.0638H136.531C136.531 16.5133 136.664 15.9799 136.931 15.4637C137.197 14.9476 137.584 14.4873 138.092 14.083C138.6 13.6787 139.206 13.3604 139.911 13.1281C140.617 12.8958 141.408 12.7797 142.286 12.7797C143.335 12.7797 144.264 12.956 145.073 13.3087C145.89 13.6615 146.531 14.1948 146.996 14.9089C147.469 15.6143 147.706 16.5004 147.706 17.5671V23.774C147.706 24.4106 147.749 24.9827 147.835 25.4902C147.929 25.9892 148.063 26.4236 148.235 26.7935V27H145.047C144.901 26.6645 144.785 26.2387 144.699 25.7225C144.621 25.1977 144.583 24.6902 144.583 24.1998ZM145.034 18.5091L145.06 20.4318H142.828C142.251 20.4318 141.744 20.4877 141.305 20.5996C140.866 20.7028 140.501 20.8576 140.208 21.0641C139.916 21.2706 139.696 21.5201 139.55 21.8126C139.404 22.105 139.331 22.4362 139.331 22.8062C139.331 23.1761 139.417 23.5159 139.589 23.8256C139.761 24.1267 140.01 24.3633 140.337 24.5353C140.673 24.7074 141.077 24.7934 141.55 24.7934C142.187 24.7934 142.742 24.6644 143.215 24.4063C143.697 24.1396 144.075 23.817 144.35 23.4385C144.626 23.0513 144.772 22.6857 144.789 22.3416L145.796 23.7224C145.692 24.0751 145.516 24.4536 145.267 24.8579C145.017 25.2622 144.69 25.6494 144.286 26.0193C143.89 26.3806 143.413 26.6774 142.854 26.9097C142.303 27.1419 141.666 27.2581 140.944 27.2581C140.032 27.2581 139.219 27.0774 138.505 26.7161C137.791 26.3462 137.232 25.8515 136.827 25.2321C136.423 24.6041 136.221 23.8944 136.221 23.103C136.221 22.3631 136.358 21.7093 136.634 21.1415C136.918 20.5652 137.331 20.0834 137.873 19.6963C138.423 19.3092 139.094 19.0167 139.886 18.8188C140.677 18.6123 141.58 18.5091 142.595 18.5091H145.034ZM158.79 23.2191C158.79 22.9094 158.713 22.6298 158.558 22.3803C158.403 22.1222 158.106 21.89 157.667 21.6835C157.237 21.477 156.601 21.2878 155.758 21.1157C155.018 20.9523 154.338 20.7587 153.719 20.535C153.108 20.3028 152.583 20.0232 152.145 19.6963C151.706 19.3694 151.366 18.9823 151.125 18.5349C150.884 18.0876 150.764 17.5714 150.764 16.9864C150.764 16.4186 150.889 15.881 151.138 15.3734C151.387 14.8658 151.744 14.4185 152.209 14.0314C152.674 13.6443 153.237 13.3389 153.899 13.1152C154.57 12.8915 155.319 12.7797 156.145 12.7797C157.315 12.7797 158.317 12.9775 159.151 13.3733C159.995 13.7604 160.64 14.2895 161.087 14.9605C161.534 15.6229 161.758 16.3713 161.758 17.2058H158.648C158.648 16.8359 158.554 16.4918 158.364 16.1735C158.184 15.8466 157.908 15.5842 157.538 15.3863C157.169 15.1798 156.704 15.0766 156.145 15.0766C155.611 15.0766 155.168 15.1626 154.816 15.3347C154.472 15.4981 154.213 15.7132 154.041 15.9799C153.878 16.2466 153.796 16.5391 153.796 16.8574C153.796 17.0897 153.839 17.3004 153.925 17.4897C154.02 17.6703 154.175 17.8381 154.39 17.9929C154.605 18.1392 154.897 18.2768 155.267 18.4059C155.646 18.5349 156.119 18.6596 156.687 18.7801C157.753 19.0038 158.67 19.292 159.435 19.6447C160.21 19.9888 160.803 20.4361 161.216 20.9867C161.629 21.5287 161.835 22.2169 161.835 23.0513C161.835 23.6707 161.702 24.2385 161.435 24.7547C161.177 25.2622 160.799 25.7053 160.3 26.0838C159.801 26.4537 159.203 26.7419 158.506 26.9484C157.818 27.1548 157.044 27.2581 156.184 27.2581C154.919 27.2581 153.848 27.0344 152.97 26.5871C152.093 26.1311 151.426 25.5504 150.97 24.845C150.523 24.131 150.299 23.3912 150.299 22.6255H153.306C153.34 23.2019 153.499 23.6621 153.783 24.0062C154.076 24.3418 154.437 24.5869 154.867 24.7418C155.306 24.888 155.758 24.9612 156.222 24.9612C156.781 24.9612 157.25 24.888 157.629 24.7418C158.007 24.5869 158.295 24.3805 158.493 24.1224C158.691 23.8557 158.79 23.5546 158.79 23.2191ZM170.714 27.2581C169.681 27.2581 168.748 27.0903 167.913 26.7548C167.087 26.4107 166.382 25.9333 165.797 25.3225C165.221 24.7117 164.778 23.9933 164.468 23.1675C164.158 22.3416 164.003 21.4512 164.003 20.4963V19.9802C164.003 18.8876 164.163 17.8983 164.481 17.0122C164.799 16.1261 165.242 15.3691 165.81 14.7411C166.378 14.1045 167.049 13.6184 167.823 13.2829C168.597 12.9474 169.436 12.7797 170.339 12.7797C171.337 12.7797 172.21 12.9474 172.959 13.2829C173.707 13.6184 174.327 14.0916 174.817 14.7024C175.316 15.3046 175.686 16.0229 175.927 16.8574C176.176 17.6918 176.301 18.6123 176.301 19.6189V20.948H165.513V18.7156H173.23V18.4704C173.213 17.9112 173.101 17.3864 172.894 16.8961C172.696 16.4057 172.391 16.01 171.978 15.7089C171.565 15.4078 171.015 15.2573 170.326 15.2573C169.81 15.2573 169.35 15.3691 168.946 15.5928C168.55 15.8078 168.219 16.1218 167.952 16.5348C167.685 16.9477 167.479 17.4467 167.333 18.0316C167.195 18.608 167.126 19.2575 167.126 19.9802V20.4963C167.126 21.1071 167.208 21.6749 167.371 22.1997C167.543 22.7158 167.793 23.1675 168.12 23.5546C168.447 23.9417 168.842 24.2471 169.307 24.4708C169.772 24.6859 170.301 24.7934 170.894 24.7934C171.643 24.7934 172.309 24.6429 172.894 24.3418C173.479 24.0407 173.987 23.6148 174.417 23.0642L176.056 24.6515C175.755 25.0902 175.363 25.5117 174.882 25.9161C174.4 26.3118 173.811 26.6344 173.114 26.8839C172.425 27.1333 171.625 27.2581 170.714 27.2581Z" fill="#949494"/>
<path d="M84.9012 54.9931H80.0106V52.4252H84.9012C85.7529 52.4252 86.4411 52.2875 86.9659 52.0122C87.4907 51.7369 87.8735 51.3584 88.1144 50.8767C88.3638 50.3863 88.4886 49.8271 88.4886 49.1991C88.4886 48.6055 88.3638 48.0507 88.1144 47.5345C87.8735 47.0097 87.4907 46.5882 86.9659 46.2699C86.4411 45.9516 85.7529 45.7924 84.9012 45.7924H81.0042V62H77.7653V43.2116H84.9012C86.3551 43.2116 87.5896 43.4697 88.6047 43.9859C89.6284 44.4934 90.407 45.1989 90.9404 46.1021C91.4737 46.9968 91.7404 48.0206 91.7404 49.1733C91.7404 50.3863 91.4737 51.4272 90.9404 52.2961C90.407 53.165 89.6284 53.8317 88.6047 54.2963C87.5896 54.7608 86.3551 54.9931 84.9012 54.9931ZM97.4569 50.696V62H94.347V48.0378H97.315L97.4569 50.696ZM101.728 47.9474L101.702 50.838C101.513 50.8035 101.307 50.7777 101.083 50.7605C100.868 50.7433 100.653 50.7347 100.438 50.7347C99.9044 50.7347 99.4356 50.8121 99.0312 50.967C98.6269 51.1132 98.2871 51.3283 98.0118 51.6122C97.7451 51.8875 97.5387 52.223 97.3924 52.6187C97.2462 53.0144 97.1601 53.4575 97.1343 53.9478L96.4246 53.9995C96.4246 53.122 96.5106 52.309 96.6827 51.5606C96.8547 50.8121 97.1128 50.154 97.4569 49.5863C97.8096 49.0185 98.2484 48.5754 98.7732 48.2571C99.3065 47.9388 99.9216 47.7797 100.618 47.7797C100.808 47.7797 101.01 47.7969 101.225 47.8313C101.449 47.8657 101.616 47.9044 101.728 47.9474ZM102.748 55.1737V54.8769C102.748 53.8704 102.894 52.937 103.186 52.0767C103.479 51.2079 103.9 50.4551 104.451 49.8185C105.01 49.1733 105.69 48.6744 106.49 48.3217C107.298 47.9603 108.21 47.7797 109.225 47.7797C110.249 47.7797 111.161 47.9603 111.961 48.3217C112.77 48.6744 113.454 49.1733 114.013 49.8185C114.572 50.4551 114.998 51.2079 115.29 52.0767C115.583 52.937 115.729 53.8704 115.729 54.8769V55.1737C115.729 56.1803 115.583 57.1136 115.29 57.9739C114.998 58.8342 114.572 59.5869 114.013 60.2321C113.454 60.8687 112.774 61.3677 111.974 61.729C111.174 62.0817 110.266 62.2581 109.251 62.2581C108.228 62.2581 107.311 62.0817 106.503 61.729C105.703 61.3677 105.023 60.8687 104.464 60.2321C103.905 59.5869 103.479 58.8342 103.186 57.9739C102.894 57.1136 102.748 56.1803 102.748 55.1737ZM105.858 54.8769V55.1737C105.858 55.8017 105.922 56.3953 106.051 56.9545C106.18 57.5137 106.382 58.004 106.658 58.4256C106.933 58.8471 107.286 59.1783 107.716 59.4192C108.146 59.6601 108.658 59.7805 109.251 59.7805C109.828 59.7805 110.327 59.6601 110.748 59.4192C111.178 59.1783 111.531 58.8471 111.806 58.4256C112.082 58.004 112.284 57.5137 112.413 56.9545C112.55 56.3953 112.619 55.8017 112.619 55.1737V54.8769C112.619 54.2575 112.55 53.6726 112.413 53.122C112.284 52.5628 112.077 52.0681 111.793 51.638C111.518 51.2079 111.165 50.8724 110.735 50.6315C110.314 50.382 109.81 50.2573 109.225 50.2573C108.64 50.2573 108.133 50.382 107.703 50.6315C107.281 50.8724 106.933 51.2079 106.658 51.638C106.382 52.0681 106.18 52.5628 106.051 53.122C105.922 53.6726 105.858 54.2575 105.858 54.8769ZM122.336 62H119.213V47.1345C119.213 46.0075 119.437 45.0569 119.884 44.2827C120.34 43.5084 120.99 42.9191 121.833 42.5148C122.684 42.1105 123.695 41.9083 124.865 41.9083C125.553 41.9083 126.216 41.9814 126.852 42.1277C127.498 42.2739 128.164 42.4589 128.853 42.6826L128.375 45.2118C127.936 45.0655 127.45 44.9279 126.917 44.7988C126.384 44.6612 125.769 44.5924 125.072 44.5924C124.134 44.5924 123.441 44.8074 122.994 45.2376C122.555 45.6591 122.336 46.2914 122.336 47.1345V62ZM125.136 48.0378V50.3089H117.071V48.0378H125.136ZM130.324 48.0378V62H127.214V48.0378H130.324ZM140.195 48.0378V50.3089H132.324V48.0378H140.195ZM134.595 44.6182H137.705V58.1417C137.705 58.5718 137.765 58.903 137.885 59.1353C138.015 59.359 138.191 59.5095 138.415 59.5869C138.638 59.6644 138.901 59.7031 139.202 59.7031C139.417 59.7031 139.623 59.6902 139.821 59.6644C140.019 59.6385 140.178 59.6127 140.299 59.5869L140.311 61.9613C140.053 62.0387 139.752 62.1075 139.408 62.1678C139.073 62.228 138.686 62.2581 138.247 62.2581C137.533 62.2581 136.9 62.1333 136.35 61.8839C135.799 61.6258 135.369 61.2085 135.059 60.6322C134.75 60.0558 134.595 59.2901 134.595 58.3352V44.6182ZM150.428 58.2191C150.428 57.9094 150.351 57.6298 150.196 57.3803C150.041 57.1222 149.744 56.89 149.306 56.6835C148.875 56.477 148.239 56.2878 147.396 56.1157C146.656 55.9523 145.976 55.7587 145.357 55.535C144.746 55.3028 144.221 55.0232 143.783 54.6963C143.344 54.3694 143.004 53.9823 142.763 53.5349C142.522 53.0876 142.402 52.5714 142.402 51.9864C142.402 51.4186 142.527 50.881 142.776 50.3734C143.026 49.8658 143.383 49.4185 143.847 49.0314C144.312 48.6443 144.875 48.3389 145.538 48.1152C146.209 47.8915 146.957 47.7797 147.783 47.7797C148.953 47.7797 149.955 47.9775 150.79 48.3733C151.633 48.7604 152.278 49.2895 152.725 49.9605C153.173 50.6229 153.396 51.3713 153.396 52.2058H150.286C150.286 51.8359 150.192 51.4918 150.002 51.1735C149.822 50.8466 149.546 50.5842 149.177 50.3863C148.807 50.1798 148.342 50.0766 147.783 50.0766C147.25 50.0766 146.807 50.1626 146.454 50.3347C146.11 50.4981 145.852 50.7132 145.68 50.9799C145.516 51.2466 145.434 51.5391 145.434 51.8574C145.434 52.0897 145.477 52.3004 145.563 52.4897C145.658 52.6703 145.813 52.8381 146.028 52.9929C146.243 53.1392 146.536 53.2768 146.905 53.4059C147.284 53.5349 147.757 53.6596 148.325 53.7801C149.392 54.0038 150.308 54.292 151.073 54.6447C151.848 54.9888 152.441 55.4361 152.854 55.9867C153.267 56.5287 153.474 57.2169 153.474 58.0513C153.474 58.6707 153.34 59.2385 153.074 59.7547C152.816 60.2622 152.437 60.7053 151.938 61.0838C151.439 61.4537 150.841 61.7419 150.144 61.9484C149.456 62.1548 148.682 62.2581 147.822 62.2581C146.557 62.2581 145.486 62.0344 144.609 61.5871C143.731 61.1311 143.064 60.5504 142.608 59.845C142.161 59.131 141.937 58.3912 141.937 57.6255H144.944C144.978 58.2019 145.138 58.6621 145.421 59.0062C145.714 59.3418 146.075 59.5869 146.505 59.7418C146.944 59.888 147.396 59.9612 147.86 59.9612C148.42 59.9612 148.888 59.888 149.267 59.7418C149.645 59.5869 149.934 59.3805 150.131 59.1224C150.329 58.8557 150.428 58.5546 150.428 58.2191Z" fill="white"/>
<path d="M54.8522 45.2205C54.6834 46.2039 54.5947 47.2089 54.3342 48.1664C52.2837 55.6756 47.4872 60.3956 39.8747 61.8807C33.643 63.097 28.214 61.1892 23.678 56.7395C23.4218 56.4879 23.1729 56.4059 22.8323 56.4074C18.7985 56.416 14.7647 56.4275 10.7309 56.4074C7.86332 56.393 5.65826 54.0423 5.80707 51.1784C5.88148 49.7464 6.51968 48.5718 7.64582 47.597C6.48819 46.5734 5.8085 45.3139 5.79992 43.7569C5.7899 42.1927 6.42953 40.9145 7.64439 39.8477C6.47675 38.8126 5.79705 37.5359 5.79992 35.9602C5.80278 34.3988 6.4653 33.1322 7.64439 32.0898C6.7057 31.2632 6.09469 30.2855 5.87576 29.0721C5.34774 26.1506 7.57141 23.3658 10.5306 23.2766C11.4879 23.2479 12.448 23.2723 13.4883 23.2723C12.9603 22.3594 12.6498 21.4608 12.6484 20.4702C12.6484 19.4796 12.956 18.5796 13.4869 17.671C13.0562 17.671 12.7042 17.671 12.3522 17.671C9.83514 17.6696 7.31813 17.6954 4.80256 17.6595C2.3943 17.625 0.449666 15.835 0.0547286 13.3636C-0.298711 11.1438 1.09215 8.82617 3.29006 8.07999C3.86959 7.88303 4.50922 7.78239 5.12166 7.78095C13.7416 7.76226 22.3629 7.7637 30.9843 7.76945C34.9809 7.77232 37.3119 11.6843 35.4331 15.2154C35.393 15.2901 35.3558 15.3663 35.28 15.5159C35.5347 15.5159 35.7235 15.5159 35.911 15.5159C38.5697 15.5159 41.2298 15.4957 43.8884 15.523C46.6487 15.5532 48.8066 17.8378 48.7436 20.6097C48.6849 23.1731 46.5829 25.3225 44.0272 25.4045C43.0671 25.4361 42.1041 25.4088 41.1038 25.4088C41.2899 25.9853 41.5703 26.3045 42.1556 26.5115C49.1757 29.0002 53.3641 33.9287 54.6576 41.3128C54.7277 41.7168 54.7893 42.1222 54.8551 42.5262C54.8522 43.4262 54.8522 44.3234 54.8522 45.2205ZM52.7101 43.9265C52.7087 35.0257 45.4854 27.7767 36.6279 27.7868C27.789 27.7968 20.5929 35.0242 20.5786 43.9035C20.5643 52.8001 27.7762 60.0635 36.6336 60.0706C45.4882 60.0778 52.7116 52.8246 52.7101 43.9265ZM18.0301 15.5173C22.3844 15.5173 26.7402 15.523 31.0945 15.5144C32.7801 15.5115 34.0365 14.209 33.9621 12.5743C33.892 11.0489 32.6513 9.92314 31.0201 9.92314C24.2375 9.92027 17.4563 9.92171 10.6737 9.92171C8.76338 9.92171 6.85451 9.91308 4.94422 9.92458C3.67641 9.93321 2.60608 10.7513 2.26695 11.9331C1.74323 13.7575 3.07542 15.5087 5.01863 15.513C9.35578 15.5245 13.6929 15.5173 18.0301 15.5173ZM30.6724 23.2666C30.7797 23.2666 30.887 23.2666 30.9943 23.2666C35.2413 23.2666 39.4898 23.2723 43.7368 23.2637C45.421 23.2608 46.6773 21.9539 46.6015 20.3207C46.5314 18.7953 45.2908 17.6724 43.6566 17.6724C36.6966 17.6696 29.7351 17.671 22.7751 17.671C21.0436 17.671 19.3122 17.6624 17.5822 17.6739C16.3158 17.6825 15.2455 18.5034 14.9064 19.6852C14.3841 21.5111 15.7177 23.258 17.6623 23.2623C21.9981 23.2723 26.3352 23.2651 30.6724 23.2666ZM37.7784 25.7179C37.7812 25.6489 37.7841 25.5799 37.787 25.5094C37.4078 25.4792 37.03 25.4217 36.6508 25.4203C30.2431 25.4145 23.8354 25.416 17.4277 25.416C15.1968 25.416 12.966 25.4073 10.7338 25.4188C9.4631 25.426 8.39419 26.2412 8.0522 27.423C7.52562 29.2475 8.85639 31.0029 10.7996 31.0072C14.9407 31.0173 19.0818 31.0044 23.2229 31.0202C23.6136 31.0216 23.8797 30.898 24.1588 30.6363C27.2224 27.7638 30.8312 26.0845 35.0167 25.7265C35.931 25.6517 36.8583 25.7179 37.7784 25.7179ZM21.8936 33.2026C21.7562 33.1825 21.7047 33.1681 21.6546 33.1681C18 33.1667 14.3454 33.1624 10.6894 33.1739C10.3932 33.1753 10.0841 33.2386 9.80223 33.3349C8.54015 33.7662 7.75171 35.0932 7.96492 36.3843C8.18957 37.7386 9.30713 38.745 10.6722 38.7551C13.1506 38.7752 15.629 38.7623 18.1074 38.7623C19.1476 38.7623 19.1534 38.7651 19.4896 37.8048C20.0591 36.1773 20.8676 34.6734 21.8936 33.2026ZM18.8715 48.6696C16.1727 48.6696 13.3538 48.6365 10.5363 48.6854C9.41016 48.7055 8.59166 49.3525 8.1538 50.4035C7.37966 52.261 8.73046 54.2465 10.7767 54.2551C14.2381 54.2695 17.6995 54.2594 21.161 54.258C21.2783 54.258 21.3942 54.2479 21.42 54.2479C20.5843 52.4148 19.7486 50.5889 18.8715 48.6696ZM18.5424 40.9303C18.5266 40.9289 18.4579 40.9174 18.3878 40.9174C15.8193 40.916 13.2522 40.9117 10.6837 40.9232C10.3875 40.9246 10.0784 40.9879 9.79651 41.0856C8.53443 41.5198 7.74884 42.8483 7.96635 44.1393C8.1953 45.4951 9.30999 46.4957 10.6794 46.5058C13.2293 46.5245 15.7792 46.5116 18.3291 46.5101C18.4136 46.5101 18.498 46.4828 18.5424 46.4756C18.5424 44.6238 18.5424 42.8037 18.5424 40.9303Z" fill="#FF595D"/>
<path d="M37.7369 51.0763C37.6697 52.1359 37.3134 52.6104 36.628 52.6032C35.9583 52.596 35.6378 52.1561 35.5333 51.0706C34.6447 50.819 33.8334 50.3977 33.198 49.6818C32.5312 48.9313 32.1577 48.06 32.1492 47.0493C32.1434 46.4023 32.5928 45.9293 33.1895 45.915C33.7633 45.9006 34.2355 46.3233 34.277 46.9487C34.3471 48.0054 34.9323 48.638 35.8925 48.9126C36.8913 49.1987 37.8214 49.0075 38.5268 48.1966C39.5428 47.0306 38.8144 45.3054 37.186 45.0034C36.6451 44.9028 36.0814 44.91 35.5462 44.7921C33.6459 44.3708 32.2436 42.7779 32.152 40.9879C32.0562 39.0973 33.2109 37.4454 35.1141 36.7998C35.4489 36.6863 35.5963 36.5641 35.5863 36.1773C35.5677 35.493 36.0485 35.0113 36.6523 35.0185C37.2547 35.0257 37.7098 35.503 37.7055 36.1989C37.7026 36.5468 37.8142 36.6776 38.1405 36.7912C39.7689 37.3577 40.8006 38.4719 41.1025 40.2087C41.1325 40.3841 41.1454 40.5667 41.1368 40.7435C41.1097 41.3401 40.6918 41.7686 40.1295 41.7945C39.5313 41.8218 39.0505 41.4322 39.0133 40.8082C38.959 39.8809 38.4982 39.2526 37.6768 38.9032C36.7739 38.5193 35.891 38.6128 35.094 39.2008C34.4258 39.6925 34.151 40.466 34.3471 41.1863C34.5732 42.0144 35.3473 42.6427 36.266 42.752C36.814 42.8167 37.3749 42.8339 37.9058 42.9691C39.7589 43.4406 41.081 45.0566 41.1383 46.8538C41.1955 48.6524 40.0193 50.2856 38.2106 50.9196C38.0575 50.9714 37.9058 51.0188 37.7369 51.0763Z" fill="#FF595D"/>
<path d="M50.574 43.7441C50.5483 46.1451 50.0632 48.2527 49.0687 50.2397C48.6938 50.9887 48.1286 51.2461 47.5247 50.9413C46.9266 50.6393 46.7907 50.0355 47.1498 49.2807C49.4922 44.3565 48.5421 38.9177 44.6228 35.2615C43.8115 34.5039 42.8112 33.946 41.8725 33.3336C41.4561 33.0618 41.127 32.7772 41.1442 32.2423C41.1685 31.4415 41.9713 30.9815 42.744 31.3538C44.4711 32.1863 45.9593 33.3436 47.2013 34.8072C49.425 37.4325 50.5268 40.4833 50.574 43.7441Z" fill="#FF595D"/>
<path d="M22.7219 43.3328C22.7419 41.6406 23.247 39.484 24.3016 37.464C24.5792 36.9321 25.0099 36.7193 25.5279 36.83C25.9858 36.9278 26.3679 37.3519 26.3435 37.8278C26.3292 38.1024 26.2262 38.3871 26.1031 38.6372C25.2274 40.4229 24.7709 42.3106 24.8783 44.2961C25.1215 48.753 27.2021 52.1 31.0441 54.3399C31.1987 54.4291 31.3647 54.4981 31.5178 54.5887C32.1159 54.9438 32.3134 55.5433 32.0172 56.0911C31.7339 56.6144 31.1357 56.7941 30.5319 56.498C29.1582 55.8251 27.9319 54.9438 26.8444 53.8626C24.2043 51.2417 22.7032 47.6301 22.7219 43.3328Z" fill="#FF595D"/>
</svg>
