<svg width="327" height="383" viewBox="0 0 327 383" fill="none" xmlns="http://www.w3.org/2000/svg">
<path d="M1.57422 360.522L39.6712 381.587V266.27L1.57422 244.887V360.522Z" fill="#272727"/>
<path d="M87.5488 318.798L117.133 334.823V196.87L89.6032 180.329L80.9746 195.121V232.512L87.5488 236.621V318.798Z" fill="#272727"/>
<path d="M0.727539 243.77C10.8105 237.952 20.9382 232.09 31.0658 226.273C32.6296 225.38 34.119 224.666 33.8658 222.33C33.7765 221.467 34.7594 220.44 35.3552 219.562C59.6169 184.375 83.9083 149.202 108.185 114.029C110.925 110.071 113.651 106.099 116.391 102.141C116.942 101.338 117.538 100.579 118.283 99.582C120.681 101.1 122.959 102.602 125.298 103.986C129.885 106.709 133.966 110.027 137.853 113.687C157.959 132.627 178.155 151.463 198.336 170.329C199.036 170.984 199.766 171.594 200.644 172.368C201.315 171.416 201.895 170.657 202.402 169.853C213.81 152.073 225.204 134.294 236.657 116.543C237.715 114.892 238.191 113.255 238.161 111.306C238.057 105.414 238.087 99.5225 238.072 93.6157C238.072 92.6486 238.072 91.6666 238.072 90.5953C241.125 88.8248 244.089 87.0989 247.053 85.3879C251.476 82.8288 255.929 80.3292 260.308 77.6957C261.44 77.0113 262.557 76.059 263.257 74.958C271.434 62.341 279.536 49.6794 287.638 37.0326C287.995 36.4673 288.278 35.8573 288.681 35.1133C285.136 32.8072 281.681 30.5754 278.136 28.2692C278.136 24.1478 278.136 20.0563 278.136 15.6968C292.746 10.5191 307.432 5.32651 322.489 0C322.787 2.45496 323.085 4.62722 323.293 6.81436C324.47 19.1338 325.721 31.4383 326.734 43.7726C327.106 48.3552 326.927 52.9973 326.987 57.6097C326.987 57.8626 326.808 58.1155 326.555 58.7999C320.985 55.0803 315.549 51.4648 309.77 47.6113C305.57 54.0834 301.429 60.4812 297.051 67.2361C306.404 72.8006 315.832 77.9486 325.259 83.4834C325.259 84.4356 325.259 85.4176 325.259 86.3847C325.125 128.729 325.006 171.073 324.872 213.418C324.872 214.102 324.798 214.801 324.872 215.486C325.051 217.063 324.395 218 322.995 218.774C319.034 220.946 315.132 223.237 311.215 225.484C299.464 232.239 287.698 238.994 275.723 245.868C266.653 240.854 257.508 235.78 247.917 230.483C247.917 241.211 247.917 251.373 247.917 261.684C231.415 271.161 215.061 280.564 198.574 290.027C188.372 284.373 178.185 278.719 167.61 272.857C167.536 274.271 167.447 275.297 167.447 276.324C167.387 286.055 167.283 295.77 167.327 305.501C167.342 307.539 166.672 308.655 164.9 309.667C150.036 318.103 135.202 326.613 120.413 335.198C118.744 336.165 117.553 336.225 115.87 335.258C107.515 330.482 99.0551 325.869 90.6402 321.198C89.7168 320.692 88.7636 320.216 87.5126 319.576C87.4381 320.796 87.3488 321.733 87.3488 322.656C87.319 332.282 87.2594 341.909 87.2892 351.535C87.2892 353.157 86.9168 354.198 85.3679 355.076C69.9083 363.869 54.5084 372.752 39.0786 381.604C38.7509 381.798 38.3786 381.932 37.9616 382.14C25.5999 375.266 13.2382 368.407 0.742433 361.459C0.727539 322.284 0.727539 283.213 0.727539 243.77ZM90.1041 181.592C87.6764 185.089 85.5168 188.362 83.1785 191.516C82.0168 193.094 81.5254 194.7 81.5402 196.679C81.6296 207.481 81.57 218.283 81.6296 229.085C81.6594 233.905 80.8254 232.849 85.1296 235.155C87.2296 236.286 87.9296 237.625 87.8998 239.991C87.6913 264.838 87.6019 289.685 87.4828 314.532C87.4828 315.707 87.4828 316.883 87.4828 318.192C97.3573 323.682 107.202 329.128 117.479 334.841C117.479 333.086 117.479 331.925 117.479 330.764C117.523 287.557 117.568 244.35 117.613 201.128C117.613 200.637 117.553 200.146 117.627 199.655C117.866 197.87 117.106 196.798 115.513 195.935C110.94 193.465 106.442 190.832 101.915 188.258C98.0573 186.101 94.2296 183.928 90.1041 181.592ZM1.44243 245.332C1.44243 246.835 1.44243 247.713 1.44243 248.576C1.54669 285.102 1.68073 321.629 1.72541 358.171C1.72541 360.283 2.51477 361.28 4.25732 362.218C14.3403 367.723 24.3637 373.347 34.402 378.926C35.236 379.388 36.0999 379.789 37.3211 380.414C37.3956 379.149 37.4999 378.212 37.4999 377.275C37.5445 341.046 37.5445 304.801 37.6488 268.572C37.6488 266.385 36.8892 265.269 35.0424 264.228C24.8254 258.544 14.6828 252.742 4.52541 246.984C3.69137 246.507 2.84243 246.076 1.44243 245.332ZM295.666 26.7665C264.225 75.7466 233.008 124.399 201.702 173.186C205.485 176.697 209.059 180.03 212.872 183.556C213.632 182.44 214.242 181.578 214.808 180.685C231.191 155.243 247.559 129.8 263.927 104.358C278.434 81.8021 292.94 59.2463 307.461 36.7053C308.072 35.768 308.772 34.8753 309.561 33.7891C314.983 37.7766 320.091 41.526 325.706 45.6473C324.217 30.6349 323.07 16.3069 321.461 1.60688C307.581 6.51679 294.146 11.2779 280.161 16.2176C285.598 19.9372 290.512 23.27 295.666 26.7665ZM270.108 109.67C269.393 110.696 268.812 111.47 268.276 112.273C259.146 126.363 250.047 140.483 240.872 154.543C239.844 156.12 239.472 157.698 239.487 159.528C239.547 168.856 239.606 178.185 239.532 187.514C239.517 189.716 239.978 191.278 242.168 192.141C243.434 192.647 244.506 193.614 245.772 194.135C248.021 195.057 248.632 196.605 248.587 198.971C248.393 208.106 248.438 217.241 248.304 226.362C248.274 228.341 248.825 229.591 250.672 230.587C258.029 234.53 265.283 238.666 272.581 242.713C273.206 243.056 273.906 243.249 274.785 243.591C274.785 199.64 274.785 156.061 274.785 112.363C273.31 111.515 271.881 110.696 270.108 109.67ZM118.551 101.144C90.7147 141.465 63.1318 181.414 35.385 221.616C39.6296 223.669 43.5467 225.558 47.553 227.493C75.3594 187.886 102.987 148.547 130.779 108.97C126.593 106.292 122.736 103.822 118.551 101.144ZM167.834 207.972C167.834 229.501 167.834 250.495 167.834 271.459C173.702 275.357 195.417 287.126 197.636 287.557C197.695 286.962 197.785 286.397 197.8 285.816C197.874 266.266 197.934 246.731 198.068 227.18C198.083 225.291 197.249 224.398 195.744 223.55C187.255 218.804 178.825 213.968 170.366 209.177C169.681 208.82 168.981 208.523 167.834 207.972ZM118.253 196.292C134.234 187.053 150.125 178.007 166.106 168.693C165.51 168.217 165.302 168.008 165.049 167.86C153.893 161.462 142.723 155.109 131.598 148.666C130.198 147.848 129.274 148.279 128.113 148.949C120.055 153.636 111.953 158.248 103.91 162.979C102.779 163.649 101.751 164.661 100.962 165.747C98.3551 169.318 95.8828 172.978 93.3807 176.608C92.5019 177.888 91.653 179.167 90.6551 180.64C100.023 185.952 109.123 191.115 118.253 196.292ZM167.685 206.201C168.474 206.692 169.13 207.124 169.8 207.496C178.602 212.48 187.434 217.405 196.176 222.508C198.068 223.609 199.423 223.475 201.24 222.434C215.419 214.191 229.657 206.038 243.866 197.855C244.7 197.379 245.504 196.828 246.651 196.114C238.489 191.457 230.625 186.949 222.553 182.336C219.068 187.693 215.732 192.841 212.261 198.197C206.781 193.108 201.627 188.332 196.444 183.541C186.644 189.21 177.142 194.7 167.685 200.161C167.685 202.244 167.685 204.104 167.685 206.201ZM195.774 182.872C174 162.593 152.553 142.626 130.927 122.48C121.872 135.543 113.025 148.294 104.193 161.06C104.342 161.194 104.491 161.328 104.64 161.477C113.115 156.596 121.589 151.716 130.079 146.821C142.708 154.037 155.204 161.194 167.73 168.351C167.73 178.557 167.73 188.526 167.73 199.06C177.157 193.614 186.213 188.392 195.774 182.872ZM47.9105 242.193C43.636 240.125 39.719 238.116 35.6977 236.316C34.0445 235.572 33.6275 234.53 33.702 232.879C33.8062 230.692 33.7318 228.475 33.7318 225.752C22.8594 232.031 12.568 237.997 1.84456 244.186C14.2956 251.254 26.2254 258.023 38.036 264.719C47.0913 260.255 84.0722 238.607 85.6956 236.762C77.6083 232.135 69.5509 227.537 61.3445 222.851C56.8318 229.352 52.4679 235.631 47.9105 242.193ZM323.934 83.7215C314.476 78.3206 305.585 73.247 296.5 68.0544C287.727 81.6236 279.134 94.9101 270.436 108.345C272.461 109.491 274.144 110.443 275.842 111.41C291.763 102.245 307.551 93.1544 323.934 83.7215ZM62.0445 221.839C65.1871 224.353 78.4275 231.703 80.4232 232.06C80.4232 220.158 80.4232 208.27 80.4232 196.382C80.2296 196.307 80.0509 196.233 79.8573 196.158C73.9147 204.714 67.9722 213.284 62.0445 221.839ZM223.223 181.28C226.142 183.735 236.3 189.299 238.191 189.508C238.727 180.521 238.43 161.224 237.625 159.037C232.77 166.55 227.989 173.915 223.223 181.28ZM310.068 35.9763C310.068 39.071 310.142 41.7789 310.038 44.4868C309.978 46.0342 310.5 47.0013 311.81 47.8493C315.921 50.4977 319.957 53.2651 324.023 55.973C324.544 56.3301 325.155 56.5533 326.138 57.0591C326.138 54.3513 326.049 52.0302 326.168 49.724C326.242 48.1767 325.691 47.1947 324.44 46.302C320.225 43.2816 316.085 40.1571 311.915 37.0922C311.468 36.75 310.976 36.5119 310.068 35.9763ZM34.7743 222.702C34.7743 225.454 34.7445 227.686 34.7743 229.933C34.8935 235.914 33.8509 234.143 39.0637 236.822C41.6403 238.146 44.2764 239.321 47.1211 240.69C47.1211 236.494 47.1211 232.715 47.1211 228.713C43.2041 226.808 39.2722 224.889 34.7743 222.702ZM279.044 17.021C279.044 20.6812 279.015 23.7015 279.074 26.7218C279.089 27.2277 279.417 27.9121 279.819 28.1799C282.917 30.2332 286.059 32.212 289.336 34.3099C290.929 31.8252 292.389 29.5339 293.968 27.0938C289.053 23.7759 284.346 20.5919 279.044 17.021ZM260.323 79.5704C260.174 79.3918 260.01 79.2133 259.861 79.0199C253.249 82.8436 246.621 86.6674 239.502 90.7888C243.076 92.8122 246.159 94.5679 249.481 96.4575C253.174 90.7144 256.749 85.1349 260.323 79.5704ZM248.319 97.6775C245.072 95.1035 241.393 93.1693 239.293 92.9462C239.338 98.6893 239.1 104.403 239.472 110.116C239.71 110.175 239.934 110.235 240.172 110.309C242.853 106.143 245.534 101.992 248.319 97.6775Z" fill="#F8493B"/>
</svg>
