<svg width="589" height="476" viewBox="0 0 589 476" fill="none" xmlns="http://www.w3.org/2000/svg">
<path d="M493.517 171.934C439.164 155.431 392.292 132.105 339.213 67.368C286.111 2.63094 143.418 22.5337 101.928 119.639C60.4368 216.745 90.3158 306.366 140.091 322.964C189.865 339.561 211.224 355.804 238.72 419.503C260.763 470.593 383.347 495.194 421.321 445.922C490.779 355.804 492.715 391.006 525.898 323.79C559.057 256.574 549.357 188.886 493.517 171.934Z" fill="#262626"/>
<path d="M460.05 78.6769C423.115 36.9354 409.143 24.446 368.313 33.2523C327.483 42.0586 393.826 112.934 461.443 147.687C529.06 182.464 505.246 129.791 460.05 78.6769Z" fill="#262626"/>
<path d="M532.482 472.766H94.7998V476H532.482V472.766Z" fill="#262626"/>
<mask id="mask0_0_1" style="mask-type:luminance" maskUnits="userSpaceOnUse" x="82" y="29" width="463" height="444">
<path d="M493.518 171.934C439.165 155.431 392.293 132.105 339.214 67.368C286.112 2.63094 143.419 22.5337 101.928 119.639C60.4378 216.745 90.3168 306.366 140.091 322.964C189.866 339.561 211.225 355.804 238.721 419.503C260.764 470.593 383.348 495.194 421.322 445.922C490.78 355.804 492.716 391.006 525.899 323.79C559.058 256.574 549.358 188.886 493.518 171.934Z" fill="white"/>
</mask>
<g mask="url(#mask0_0_1)">
<path d="M149.088 159.091V141.691H177.905V58.5859H185.858V141.691H216.917V159.091H233.556V507.566H113.592V159.091H149.088Z" fill="#262626"/>
<path d="M113.576 472.548H130.215L130.215 159.086H113.576L113.576 472.548Z" fill="#262626"/>
<path d="M173.584 507.557H293.549L293.549 242.092H173.584L173.584 507.557Z" fill="#262626"/>
<path d="M173.574 507.557H190.213L190.213 242.092H173.574L173.574 507.557Z" fill="#262626"/>
<path d="M259.591 260.548H276.796V253.394H259.591V260.548Z" fill="#262626"/>
<path d="M230.604 260.548H247.81V253.394H230.604V260.548Z" fill="#262626"/>
<path d="M259.591 286.577H276.796V279.423H259.591V286.577Z" fill="#262626"/>
<path d="M230.604 286.577H247.81V279.423H230.604V286.577Z" fill="#262626"/>
<path d="M201.618 286.577H218.823V279.423H201.618V286.577Z" fill="#262626"/>
<path d="M259.591 312.609H276.796V305.455H259.591V312.609Z" fill="#262626"/>
<path d="M201.618 312.609H218.823V305.455H201.618V312.609Z" fill="#262626"/>
<path d="M230.604 325.623H247.81V318.469H230.604V325.623Z" fill="#262626"/>
<path d="M259.591 338.617H276.796V331.463H259.591V338.617Z" fill="#262626"/>
<path d="M230.604 351.631H247.81V344.478H230.604V351.631Z" fill="#262626"/>
<path d="M259.591 364.646H276.796V357.492H259.591V364.646Z" fill="#262626"/>
<path d="M201.618 364.646H218.823V357.492H201.618V364.646Z" fill="#262626"/>
<path d="M259.591 388.687H276.796V381.533H259.591V388.687Z" fill="#262626"/>
<path d="M230.604 388.687H247.81V381.533H230.604V388.687Z" fill="#262626"/>
<path d="M259.591 414.716H276.796V407.563H259.591V414.716Z" fill="#262626"/>
<path d="M230.604 414.716H247.81V407.563H230.604V414.716Z" fill="#262626"/>
<path d="M201.618 414.716H218.823V407.563H201.618V414.716Z" fill="#262626"/>
<path d="M259.591 440.746H276.796V433.592H259.591V440.746Z" fill="#262626"/>
<path d="M201.618 440.746H218.823V433.592H201.618V440.746Z" fill="#262626"/>
<path d="M230.604 453.763H247.81V446.609H230.604V453.763Z" fill="#262626"/>
<path d="M201.618 453.763H218.823V446.609H201.618V453.763Z" fill="#262626"/>
<path d="M259.591 466.779H276.796V459.626H259.591V466.779Z" fill="#262626"/>
<path d="M230.604 479.792H247.81V472.638H230.604V479.792Z" fill="#262626"/>
<path d="M460.621 507.555H580.585V242.091H460.621V507.555Z" fill="#262626"/>
<path d="M460.611 507.555H477.25L477.25 242.091H460.611L460.611 507.555Z" fill="#262626"/>
<path d="M290.206 507.551H451.165L451.165 115.824H290.206L290.206 507.551Z" fill="#262626"/>
<path d="M290.196 507.551H306.835L306.835 115.824H290.196L290.196 507.551Z" fill="#262626"/>
<path d="M409.067 145.035H434.202V134.6H409.067V145.035Z" fill="#262626"/>
<path d="M366.756 145.035H391.892V134.6H366.756V145.035Z" fill="#262626"/>
<path d="M409.067 183.03H434.202V172.595H409.067V183.03Z" fill="#262626"/>
<path d="M366.756 183.03H391.892V172.595H366.756V183.03Z" fill="#262626"/>
<path d="M324.421 183.03H349.557V172.595H324.421V183.03Z" fill="#262626"/>
<path d="M409.067 221.021H434.202V210.586H409.067V221.021Z" fill="#262626"/>
<path d="M324.421 221.021H349.557V210.586H324.421V221.021Z" fill="#262626"/>
<path d="M366.756 240.045H391.892V229.61H366.756V240.045Z" fill="#262626"/>
<path d="M409.067 259.04H434.202V248.605H409.067V259.04Z" fill="#262626"/>
<path d="M366.756 278.036H391.892V267.6H366.756V278.036Z" fill="#262626"/>
<path d="M409.067 297.036H434.202V286.6H409.067V297.036Z" fill="#262626"/>
<path d="M324.421 297.036H349.557V286.6H324.421V297.036Z" fill="#262626"/>
<path d="M409.067 332.162H434.202V321.727H409.067V332.162Z" fill="#262626"/>
<path d="M366.756 332.162H391.892V321.727H366.756V332.162Z" fill="#262626"/>
<path d="M409.067 370.158H434.202V359.722H409.067V370.158Z" fill="#262626"/>
<path d="M366.756 370.158H391.892V359.722H366.756V370.158Z" fill="#262626"/>
<path d="M324.421 370.158H349.557V359.722H324.421V370.158Z" fill="#262626"/>
<path d="M409.067 408.153H434.202V397.717H409.067V408.153Z" fill="#262626"/>
<path d="M324.421 408.153H349.557V397.717H324.421V408.153Z" fill="#262626"/>
<path d="M366.756 427.172H391.892V416.737H366.756V427.172Z" fill="#262626"/>
<path d="M324.421 427.172H349.557V416.737H324.421V427.172Z" fill="#262626"/>
<path d="M409.067 446.17H434.202V435.735H409.067V446.17Z" fill="#262626"/>
<path d="M366.756 465.167H391.892V454.732H366.756V465.167Z" fill="#262626"/>
<path d="M543.26 507.571H701.033V145.049H543.26V507.571Z" fill="#262626"/>
<path d="M543.264 507.571H559.572V145.049H543.264V507.571Z" fill="#262626"/>
<path d="M33.4324 507.568H135.035L135.035 260.283H33.4324L33.4324 507.568Z" fill="#262626"/>
<path d="M108.456 278.717H124.316V272.13H108.456V278.717Z" fill="#262626"/>
<path d="M81.7621 278.717H97.6221V272.13H81.7621V278.717Z" fill="#262626"/>
<path d="M108.456 302.708H124.316V296.121H108.456V302.708Z" fill="#262626"/>
<path d="M81.7621 302.708H97.6221V296.121H81.7621V302.708Z" fill="#262626"/>
<path d="M108.456 326.698H124.316V320.111H108.456V326.698Z" fill="#262626"/>
<path d="M81.7621 338.692H97.6221V332.105H81.7621V338.692Z" fill="#262626"/>
<path d="M108.456 350.686H124.316V344.099H108.456V350.686Z" fill="#262626"/>
<path d="M81.7621 362.682H97.6221V356.095H81.7621V362.682Z" fill="#262626"/>
<path d="M108.456 374.676H124.316V368.089H108.456V374.676Z" fill="#262626"/>
<path d="M108.456 396.841H124.316V390.254H108.456V396.841Z" fill="#262626"/>
<path d="M81.7621 396.841H97.6221V390.254H81.7621V396.841Z" fill="#262626"/>
<path d="M108.456 420.832H124.316V414.244H108.456V420.832Z" fill="#262626"/>
<path d="M81.7621 420.832H97.6221V414.244H81.7621V420.832Z" fill="#262626"/>
<path d="M108.456 444.822H124.316V438.235H108.456V444.822Z" fill="#262626"/>
<path d="M81.7621 456.816H97.6221V450.229H81.7621V456.816Z" fill="#262626"/>
<path d="M108.456 468.812H124.316V462.225H108.456V468.812Z" fill="#262626"/>
</g>
<path d="M439.567 127.69H432.77L436.687 71.5938H443.508L439.567 127.69Z" fill="#CD3226"/>
<path d="M369.306 472.718H365.907L416.909 287.219H420.308L369.306 472.718Z" fill="#FF8D85"/>
<path d="M430.858 287.219H427.601V472.718H430.858V287.219Z" fill="#FF8D85"/>
<path d="M492.882 472.718H489.483L438.481 287.219H441.88L492.882 472.718Z" fill="#FF8D85"/>
<path d="M393.119 390.345L421.795 287.219H414.998L386.322 390.345H393.119Z" fill="#CD3226"/>
<path d="M432.628 287.219H425.831V390.345H432.628V287.219Z" fill="#CD3226"/>
<path d="M472.489 390.345L443.483 287.219H436.662L465.668 390.345H472.489Z" fill="#CD3226"/>
<path d="M443.461 287.219H414.998V294.443H443.461V287.219Z" fill="#FF4233"/>
<path d="M451.934 84.5316H426.444L426.94 77.3071H452.453L451.934 84.5316Z" fill="#FF8D85"/>
<path d="M459.062 293.215H399.445V300.44H459.062V293.215Z" fill="#FF8D85"/>
<path d="M428.734 411.381L379.644 428.215V425.334L428.734 408.524V411.381Z" fill="#FF8D85"/>
<path d="M479.005 427.955L429.749 411.381V408.524L479.005 425.075V427.955Z" fill="#FF8D85"/>
<path d="M275.112 293.263H572.58C573.218 293.263 573.76 292.767 573.784 292.13L574.232 285.85C574.28 285.212 573.808 284.716 573.17 284.716H275.702C275.065 284.716 274.522 285.212 274.498 285.85L274.05 292.13C274.003 292.767 274.498 293.263 275.112 293.263Z" fill="#FF4233"/>
<path d="M290.148 92.299H585.657C586.837 92.299 587.852 91.3546 587.923 90.1741L588.23 85.8536C588.3 84.6731 587.427 83.7288 586.271 83.7288H290.738C289.558 83.7288 288.543 84.6731 288.472 85.8536L288.165 90.1741C288.094 91.3546 288.968 92.299 290.148 92.299Z" fill="#FF4233"/>
<path d="M277.943 293.664L292.364 87.6248H576.474L562.077 293.664H277.943Z" fill="white"/>
<path d="M576.05 88.0262L561.7 293.263H278.369L292.718 88.0262H576.05ZM576.899 87.2471H576.05H292.718H291.987L291.94 87.979L277.59 293.216L277.543 294.066H278.393H561.724H562.455L562.503 293.334L576.852 88.097L576.899 87.2471Z" fill="#FF4233"/>
<path d="M271.312 293.263H568.781C569.418 293.263 569.961 292.767 569.984 292.13L570.433 285.85C570.48 285.212 570.008 284.716 569.371 284.716H271.902C271.265 284.716 270.722 285.212 270.699 285.85L270.25 292.13C270.203 292.767 270.675 293.263 271.312 293.263Z" fill="#CD3226"/>
<path d="M286.346 92.2992H581.855C583.035 92.2992 584.05 91.3548 584.121 90.1744L584.428 85.8539C584.499 84.6734 583.625 83.729 582.469 83.729H286.936C285.756 83.729 284.741 84.6734 284.67 85.8539L284.363 90.1744C284.293 91.3548 285.166 92.2992 286.346 92.2992Z" fill="#CD3226"/>
<path d="M486.104 138.172L486.033 138.597L451.34 138.243L472.77 108.896L474.256 109.699C483.013 115.484 487.898 126.108 486.104 138.172Z" fill="#FF4233"/>
<path d="M399.558 146.648C399.464 147.215 399.417 147.781 399.346 148.348C399.133 150.473 399.133 152.574 399.346 154.581C399.676 157.981 400.549 161.215 401.895 164.143C402.367 165.182 402.886 166.15 403.476 167.117C403.547 167.236 403.641 167.377 403.712 167.495C407.842 174.035 414.616 178.615 422.947 179.512C427.408 179.985 431.491 179.914 435.22 179.371C435.479 179.347 435.715 179.3 435.975 179.253C452.543 176.514 461.747 164.591 465.358 153.4C465.429 153.164 465.5 152.905 465.571 152.669C466.019 151.228 466.349 149.812 466.609 148.442C466.703 147.947 466.798 147.451 466.869 146.955L437.013 146.601H436.282L434.346 146.577L434.157 121.008V120.3V120.064L434.11 118.128L434.063 114.138L431.845 114.563C417.212 116.641 404.255 128.398 400.431 142.587C399.936 144.382 399.723 145.704 399.558 146.648Z" fill="url(#paint0_linear_0_1)"/>
<path d="M438.903 142.352L438.714 107.197C438.714 107.197 438.714 107.197 438.737 107.197L440.956 106.772C443.93 106.371 447.045 106.276 450.373 106.772C454.668 107.41 458.562 108.921 461.89 111.14L438.903 142.352Z" fill="#FF4233"/>
<path d="M501.494 114.587L501.069 117.467H530.783L531.208 114.587H501.494Z" fill="#FF4233"/>
<path d="M500.268 123.299L499.843 126.179H553.512L553.936 123.299H500.268Z" fill="#FF4233"/>
<path d="M499.041 132.011L498.64 134.891H548.438L548.886 132.011H499.041Z" fill="#FF4233"/>
<path d="M533.875 117.467H543.056L543.481 114.587H534.323L533.875 117.467Z" fill="#FF4233"/>
<path d="M497.884 140.156L497.482 143.036H527.173L527.621 140.156H497.884Z" fill="#FF4233"/>
<path d="M496.657 148.868L496.256 151.748H549.901L550.35 148.868H496.657Z" fill="#FF4233"/>
<path d="M495.453 157.58L495.028 160.46H544.85L545.299 157.58H495.453Z" fill="#FF4233"/>
<path d="M530.288 143.036H539.445L539.894 140.156H530.737L530.288 143.036Z" fill="#FF4233"/>
<path d="M470.27 192.593L472.961 199.368L480.301 200.478L474.447 205.696L475.014 213.109L468.689 209.591L461.727 213.062L463.685 205.649L458.776 200.36L466.329 199.321L470.27 192.593Z" fill="url(#paint1_linear_0_1)"/>
<path d="M497.034 192.733L499.748 199.486L507.088 200.619L501.211 205.837L501.801 213.25L495.476 209.732L488.49 213.179L490.449 205.789L485.563 200.501L493.092 199.462L497.034 192.733Z" fill="url(#paint2_linear_0_1)"/>
<path d="M523.821 192.876L526.511 199.628L533.851 200.762L527.975 205.979L528.565 213.393L522.24 209.851L515.277 213.322L517.213 205.932L512.327 200.643L519.856 199.605L523.821 192.876Z" fill="url(#paint3_linear_0_1)"/>
<g opacity="0.5">
<path d="M397.791 208.222C397.201 208.056 396.611 207.915 396.068 207.797L396.918 204.728C397.272 204.798 397.956 204.964 398.877 205.2L397.791 208.222Z" fill="#FF8D85"/>
<path d="M424.058 274.848C423.256 274.848 422.477 274.801 421.674 274.683C421.037 274.588 420.423 274.494 419.833 274.352L420.825 271.307C421.273 271.401 421.745 271.495 422.288 271.566C422.925 271.661 423.586 271.684 424.247 271.684H424.719L424.577 274.824L424.058 274.848ZM429.746 270.929C430.997 270.598 432.366 270.15 433.782 269.583L434.726 272.511C433.168 273.125 431.681 273.597 430.265 273.974L429.746 270.929ZM414.665 272.086C413.343 271.094 412.281 269.843 411.526 268.355L414.358 266.821C414.901 267.907 415.656 268.78 416.6 269.512L414.665 272.086ZM438.762 267.387C439.989 266.774 441.287 266.113 442.703 265.357L444.025 268.119C442.538 268.922 441.192 269.607 439.942 270.221L438.762 267.387ZM447.565 262.642L451.483 260.399L452.875 263.114L448.934 265.357L447.565 262.642ZM410.086 262.854C409.968 261.485 409.968 260.021 410.11 258.392L413.272 258.227C413.154 259.714 413.131 261.084 413.225 262.311L410.086 262.854ZM456.344 257.59C457.642 256.858 458.988 256.102 460.309 255.37L461.655 258.133C460.333 258.864 459.035 259.596 457.737 260.328L456.344 257.59ZM465.289 252.726C466.634 252.041 468.003 251.357 469.396 250.696L470.552 253.529C469.254 254.143 467.909 254.804 466.564 255.512L465.289 252.726ZM410.936 252.702C411.219 251.333 411.526 249.893 411.927 248.264L414.995 248.783C414.618 250.318 414.287 251.711 414.028 253.033L410.936 252.702ZM474.541 248.405C476.028 247.792 477.42 247.249 478.813 246.753L479.639 249.728C478.293 250.223 476.925 250.743 475.556 251.333L474.541 248.405ZM484.146 245.029C485.61 244.604 487.097 244.25 488.583 243.92L488.985 247.012C487.616 247.319 486.2 247.674 484.784 248.075L484.146 245.029ZM507.866 246.115C506.473 245.926 505.081 245.785 503.688 245.714L504.113 242.574C505.623 242.645 507.134 242.81 508.597 242.999L507.866 246.115ZM494.083 242.952C495.617 242.763 497.127 242.621 498.614 242.55L498.472 245.69C497.08 245.761 495.664 245.879 494.224 246.068L494.083 242.952ZM413.367 242.952L414.547 238.655L417.591 239.221L416.388 243.518L413.367 242.952ZM415.892 233.413C416.27 231.832 416.553 230.439 416.742 229.211L419.857 229.4C419.668 230.722 419.361 232.209 418.96 233.886L415.892 233.413ZM417.025 224.206C416.907 222.954 416.577 221.727 416.081 220.57L418.937 219.059C419.597 220.523 419.999 222.081 420.164 223.686L417.025 224.206ZM413.485 216.674C412.659 215.777 411.667 214.904 410.535 214.054L412.517 211.48C413.792 212.425 414.924 213.44 415.892 214.479L413.485 216.674ZM406.334 211.48C405.154 210.866 403.879 210.3 402.581 209.804L403.926 206.876C405.39 207.443 406.711 208.057 407.962 208.694L406.334 211.48Z" fill="#FF8D85"/>
<path d="M514.852 247.601C514.191 247.412 513.601 247.247 513.082 247.129L514.073 244.083C514.711 244.249 515.348 244.414 515.985 244.603L514.852 247.601Z" fill="#FF8D85"/>
</g>
<path d="M399.608 206.215C399.773 204.373 398.404 202.862 396.54 202.862C394.699 202.862 393.047 204.373 392.882 206.215C392.716 208.08 394.085 209.567 395.95 209.567C397.838 209.567 399.466 208.056 399.608 206.215Z" fill="#FF4233"/>
<path d="M523.043 246.871C523.326 243.542 520.871 240.827 517.52 240.827C514.169 240.827 511.242 243.542 510.935 246.871C510.652 250.223 513.107 252.915 516.458 252.915C519.809 252.915 522.759 250.2 523.043 246.871Z" fill="white"/>
<path d="M516.315 254.732C511.973 254.732 508.763 251.214 509.141 246.87C509.518 242.526 513.365 239.008 517.684 239.008C522.027 239.008 525.236 242.526 524.859 246.87C524.481 251.214 520.634 254.732 516.315 254.732ZM517.354 242.621C515.017 242.621 512.964 244.533 512.752 246.847C512.539 249.184 514.286 251.073 516.622 251.073C518.959 251.073 521.012 249.184 521.224 246.847C521.437 244.533 519.69 242.621 517.354 242.621Z" fill="url(#paint4_linear_0_1)"/>
<path d="M453.325 263.798C453.49 261.933 452.121 260.446 450.257 260.446C448.416 260.446 446.764 261.957 446.598 263.798C446.433 265.663 447.802 267.151 449.667 267.151C451.508 267.151 453.16 265.663 453.325 263.798Z" fill="#FF4233"/>
<path d="M419.905 240.142C420.07 238.276 418.701 236.789 416.837 236.789C414.996 236.789 413.344 238.3 413.202 240.142C413.037 242.007 414.406 243.494 416.27 243.494C418.111 243.518 419.739 242.007 419.905 240.142Z" fill="#FF4233"/>
<path d="M489.623 245.218C489.788 243.353 488.419 241.865 486.555 241.865C484.714 241.865 483.062 243.376 482.896 245.218C482.731 247.083 484.1 248.57 485.964 248.57C487.829 248.57 489.457 247.083 489.623 245.218Z" fill="#FF4233"/>
<g clip-path="url(#clip0_0_1)">
<path d="M152.309 433.027C191.196 433.027 222.72 420.107 222.72 404.17C222.72 388.232 191.196 375.312 152.309 375.312C113.422 375.312 81.8975 388.232 81.8975 404.17C81.8975 420.107 113.422 433.027 152.309 433.027Z" fill="#FD2D1D"/>
<path d="M152.309 433.027C191.196 433.027 222.72 420.107 222.72 404.17C222.72 388.232 191.196 375.312 152.309 375.312C113.422 375.312 81.8975 388.232 81.8975 404.17C81.8975 420.107 113.422 433.027 152.309 433.027Z" fill="#FD2D1D"/>
<path opacity="0.9" d="M158.077 435.399C200.14 435.399 234.239 421.418 234.239 404.171C234.239 386.924 200.14 372.942 158.077 372.942C116.013 372.942 81.9141 386.924 81.9141 404.171C81.9141 421.418 116.013 435.399 158.077 435.399Z" fill="white"/>
<path d="M80.6018 389.254C81.039 372.37 94.8791 358.833 111.881 358.833C128.849 358.833 142.722 372.37 143.16 389.254C143.193 389.556 143.193 389.826 143.193 390.128C143.193 390.431 143.193 390.7 143.16 391.003C142.806 395.341 139.763 399.579 134.011 402.909C121.803 409.972 101.976 409.972 89.75 402.909C84.0324 399.579 80.9717 395.341 80.6186 391.003C80.585 390.7 80.585 390.431 80.585 390.128C80.585 389.826 80.585 389.556 80.6018 389.254Z" fill="#FD2D1D"/>
<path opacity="0.8" d="M80.6018 389.254C81.039 372.37 94.8791 358.833 111.881 358.833C128.849 358.833 142.722 372.37 143.16 389.254C143.193 389.556 143.193 389.826 143.193 390.128C143.193 390.431 143.193 390.7 143.16 391.003C142.806 395.341 139.763 399.579 134.011 402.909C121.803 409.972 101.976 409.972 89.75 402.909C84.0324 399.579 80.9717 395.341 80.6186 391.003C80.585 390.7 80.585 390.431 80.585 390.128C80.585 389.826 80.585 389.556 80.6018 389.254Z" fill="white"/>
<path opacity="0.3" d="M98.3096 361.96C102.413 359.976 107.021 358.833 111.881 358.833C128.849 358.833 142.722 372.37 143.16 389.254C143.193 389.556 143.193 389.826 143.193 390.128C143.193 390.431 143.193 390.7 143.16 391.003C142.806 395.341 139.763 399.579 134.011 402.909C129.555 405.482 124.073 407.113 118.321 407.803C126.444 406.407 131.691 397.343 129.202 387.337C126.276 375.733 114.538 358.95 98.3096 361.96Z" fill="white"/>
<path opacity="0.1" d="M80.602 391.003C80.5684 390.7 80.5684 390.431 80.5684 390.128C80.5684 389.826 80.5684 389.557 80.602 389.254C80.8374 380.24 84.9071 372.202 91.2133 366.652C87.8163 370.15 80.2488 383.318 88.4722 393.357C93.8703 399.966 119.516 409.383 140.621 397.275C139.09 399.31 136.887 401.227 133.978 402.909C121.769 409.972 101.942 409.972 89.7166 402.909C84.0158 399.579 80.9551 395.325 80.602 391.003Z" fill="#FD2D1D"/>
<path opacity="0.5" d="M112.201 365.879C110.805 369.074 113.496 373.328 118.204 375.397C122.93 377.465 127.891 376.557 129.286 373.379C130.682 370.184 127.991 365.929 123.283 363.861C118.557 361.792 113.596 362.7 112.201 365.879Z" fill="white"/>
<path opacity="0.5" d="M130.313 378.862C129.59 380.527 130.65 382.595 132.684 383.486C134.719 384.378 136.956 383.756 137.696 382.091C138.419 380.426 137.359 378.357 135.325 377.466C133.29 376.575 131.053 377.197 130.313 378.862Z" fill="white"/>
<path d="M211.369 388.767C210.999 374.422 199.244 362.92 184.815 362.92C170.404 362.92 158.632 374.422 158.262 388.767C158.245 389.019 158.245 389.255 158.245 389.507C158.245 389.759 158.245 389.995 158.262 390.247C158.565 393.93 161.154 397.529 166.031 400.354C176.39 406.34 193.241 406.34 203.616 400.354C208.476 397.529 211.066 393.93 211.369 390.247C211.386 389.995 211.386 389.759 211.386 389.507C211.402 389.255 211.402 389.036 211.369 388.767Z" fill="#FD2D1D"/>
<path opacity="0.8" d="M211.369 388.767C210.999 374.422 199.244 362.92 184.815 362.92C170.404 362.92 158.632 374.422 158.262 388.767C158.245 389.019 158.245 389.255 158.245 389.507C158.245 389.759 158.245 389.995 158.262 390.247C158.565 393.93 161.154 397.529 166.031 400.354C176.39 406.34 193.241 406.34 203.616 400.354C208.476 397.529 211.066 393.93 211.369 390.247C211.386 389.995 211.386 389.759 211.386 389.507C211.402 389.255 211.402 389.036 211.369 388.767Z" fill="white"/>
<path opacity="0.3" d="M196.335 365.594C192.837 363.912 188.935 362.937 184.815 362.937C170.404 362.937 158.632 374.44 158.262 388.784C158.245 389.036 158.245 389.272 158.245 389.524C158.245 389.776 158.245 390.012 158.262 390.264C158.565 393.947 161.154 397.546 166.031 400.371C169.815 402.557 174.473 403.936 179.367 404.525C172.472 403.331 168.016 395.645 170.134 387.136C172.59 377.282 182.545 363.038 196.335 365.594Z" fill="white"/>
<path opacity="0.1" d="M211.37 390.247C211.386 389.995 211.386 389.76 211.386 389.508C211.386 389.255 211.386 389.02 211.37 388.768C211.168 381.116 207.72 374.288 202.356 369.563C205.248 372.523 211.656 383.723 204.693 392.232C200.102 397.832 178.325 405.836 160.398 395.561C161.693 397.294 163.577 398.925 166.032 400.337C176.391 406.324 193.241 406.324 203.617 400.337C208.477 397.546 211.067 393.93 211.37 390.247Z" fill="#FD2D1D"/>
<path opacity="0.5" d="M184.546 368.924C185.74 371.631 183.453 375.247 179.451 377.012C175.448 378.778 171.227 378.005 170.033 375.297C168.84 372.59 171.127 368.974 175.129 367.208C179.148 365.443 183.352 366.216 184.546 368.924Z" fill="white"/>
<path opacity="0.5" d="M169.159 379.938C169.781 381.351 168.873 383.1 167.158 383.873C165.426 384.63 163.526 384.109 162.903 382.696C162.281 381.283 163.189 379.535 164.905 378.761C166.637 378.004 168.537 378.542 169.159 379.938Z" fill="white"/>
<path d="M237.317 391.827C237.065 382.342 229.296 374.741 219.761 374.741C210.226 374.741 202.44 382.342 202.204 391.827C202.187 391.995 202.188 392.146 202.188 392.315C202.188 392.483 202.187 392.634 202.204 392.802C202.406 395.241 204.121 397.629 207.35 399.495C214.211 403.464 225.344 403.464 232.205 399.495C235.417 397.629 237.132 395.241 237.334 392.802C237.351 392.634 237.351 392.483 237.351 392.315C237.334 392.163 237.334 391.995 237.317 391.827Z" fill="#FD2D1D"/>
<path opacity="0.9" d="M237.317 391.827C237.065 382.342 229.296 374.741 219.761 374.741C210.226 374.741 202.44 382.342 202.204 391.827C202.187 391.995 202.188 392.146 202.188 392.315C202.188 392.483 202.187 392.634 202.204 392.802C202.406 395.241 204.121 397.629 207.35 399.495C214.211 403.464 225.344 403.464 232.205 399.495C235.417 397.629 237.132 395.241 237.334 392.802C237.351 392.634 237.351 392.483 237.351 392.315C237.334 392.163 237.334 391.995 237.317 391.827Z" fill="white"/>
<path opacity="0.5" d="M227.379 376.506C225.075 375.396 222.485 374.757 219.761 374.757C210.226 374.757 202.44 382.358 202.204 391.843C202.187 392.011 202.188 392.163 202.188 392.331C202.188 392.499 202.187 392.65 202.204 392.818C202.406 395.257 204.121 397.645 207.35 399.511C209.856 400.958 212.933 401.866 216.162 402.269C211.605 401.479 208.662 396.4 210.058 390.784C211.655 384.242 218.247 374.825 227.379 376.506Z" fill="white"/>
<path opacity="0.1" d="M237.317 392.819C237.334 392.651 237.334 392.5 237.334 392.332C237.334 392.164 237.334 392.012 237.317 391.844C237.182 386.782 234.895 382.275 231.347 379.147C233.247 381.115 237.502 388.498 232.894 394.148C229.867 397.864 215.455 403.145 203.6 396.351C204.457 397.494 205.702 398.571 207.333 399.512C214.194 403.481 225.327 403.481 232.188 399.512C235.4 397.629 237.115 395.241 237.317 392.819Z" fill="#FD2D1D"/>
<path opacity="0.5" d="M219.575 378.71C220.365 380.493 218.852 382.898 216.194 384.058C213.537 385.218 210.763 384.714 209.972 382.931C209.182 381.149 210.695 378.744 213.352 377.583C215.993 376.406 218.784 376.911 219.575 378.71Z" fill="white"/>
<path opacity="0.5" d="M209.402 385.992C209.805 386.917 209.217 388.094 208.073 388.582C206.93 389.086 205.668 388.733 205.265 387.808C204.861 386.883 205.45 385.706 206.593 385.218C207.72 384.714 208.981 385.067 209.402 385.992Z" fill="white"/>
<path d="M274.735 399.478C274.398 386.597 263.837 376.254 250.872 376.254C237.923 376.254 227.345 386.58 227.009 399.478C226.992 399.714 226.992 399.915 226.992 400.151C226.992 400.386 226.992 400.588 227.009 400.823C227.278 404.136 229.616 407.365 233.988 409.904C243.304 415.286 258.439 415.286 267.773 409.904C272.145 407.365 274.466 404.12 274.735 400.823C274.751 400.588 274.751 400.386 274.751 400.151C274.751 399.915 274.751 399.697 274.735 399.478Z" fill="#FD2D1D"/>
<path opacity="0.7" d="M274.735 399.478C274.398 386.597 263.837 376.254 250.872 376.254C237.923 376.254 227.345 386.58 227.009 399.478C226.992 399.714 226.992 399.915 226.992 400.151C226.992 400.386 226.992 400.588 227.009 400.823C227.278 404.136 229.616 407.365 233.988 409.904C243.304 415.286 258.439 415.286 267.773 409.904C272.145 407.365 274.466 404.12 274.735 400.823C274.751 400.588 274.751 400.386 274.751 400.151C274.751 399.915 274.751 399.697 274.735 399.478Z" fill="white"/>
<path opacity="0.3" d="M261.231 378.642C258.086 377.129 254.588 376.254 250.872 376.254C237.923 376.254 227.345 386.58 227.009 399.478C226.992 399.714 226.992 399.915 226.992 400.151C226.992 400.386 226.992 400.588 227.009 400.823C227.278 404.136 229.616 407.365 233.988 409.904C237.385 411.872 241.572 413.116 245.961 413.638C239.773 412.561 235.754 405.65 237.671 398.015C239.874 389.153 248.837 376.355 261.231 378.642Z" fill="white"/>
<path opacity="0.1" d="M274.735 400.807C274.752 400.571 274.752 400.369 274.752 400.134C274.752 399.899 274.752 399.697 274.735 399.461C274.55 392.583 271.456 386.445 266.63 382.208C269.219 384.881 274.987 394.921 268.732 402.589C264.612 407.634 245.037 414.815 228.927 405.583C230.087 407.147 231.786 408.593 233.989 409.888C243.305 415.269 258.44 415.269 267.773 409.888C272.145 407.348 274.466 404.12 274.735 400.807Z" fill="#FD2D1D"/>
<path opacity="0.5" d="M250.619 381.636C251.695 384.075 249.627 387.32 246.028 388.901C242.429 390.482 238.645 389.792 237.569 387.354C236.493 384.916 238.561 381.67 242.16 380.089C245.776 378.508 249.559 379.198 250.619 381.636Z" fill="white"/>
<path opacity="0.5" d="M236.796 391.541C237.351 392.802 236.544 394.383 234.997 395.072C233.449 395.762 231.734 395.274 231.179 394.013C230.624 392.752 231.431 391.171 232.979 390.481C234.526 389.792 236.241 390.28 236.796 391.541Z" fill="white"/>
<path d="M168.267 347.633C168.267 352.998 165.61 357.723 161.557 360.599C158.177 363.003 156.327 367.039 156.327 371.193V443.219C156.327 445.422 154.578 447.305 152.375 447.305C152.342 447.305 152.325 447.305 152.291 447.305C150.088 447.305 148.339 445.422 148.339 443.219V370.991C148.339 366.905 146.456 362.987 143.109 360.599C138.939 357.639 136.265 352.728 136.399 347.196C136.635 338.939 143.429 332.044 151.686 331.724C160.783 331.355 168.267 338.619 168.267 347.633Z" fill="#FD2D1D"/>
<path opacity="0.25" d="M168.267 347.633C168.267 352.998 165.61 357.723 161.557 360.599C158.177 363.003 156.327 367.039 156.327 371.193V443.219C156.327 445.422 154.578 447.305 152.375 447.305C152.342 447.305 152.325 447.305 152.291 447.305C150.088 447.305 148.339 445.422 148.339 443.219V370.991C148.339 366.905 146.456 362.987 143.109 360.599C138.939 357.639 136.265 352.728 136.399 347.196C136.635 338.939 143.429 332.044 151.686 331.724C160.783 331.355 168.267 338.619 168.267 347.633Z" fill="white"/>
<path opacity="0.7" d="M166.787 367.308C170.121 367.308 172.824 364.605 172.824 361.271C172.824 357.937 170.121 355.234 166.787 355.234C163.453 355.234 160.75 357.937 160.75 361.271C160.75 364.605 163.453 367.308 166.787 367.308Z" fill="white"/>
<path opacity="0.7" d="M164.248 347.902C166.755 347.902 168.788 345.869 168.788 343.361C168.788 340.854 166.755 338.821 164.248 338.821C161.74 338.821 159.707 340.854 159.707 343.361C159.707 345.869 161.74 347.902 164.248 347.902Z" fill="white"/>
<path opacity="0.7" d="M150.996 336.113C150.996 334.869 152.005 333.86 153.25 333.86C154.494 333.86 155.503 334.869 155.503 336.113C155.503 337.358 154.494 338.367 153.25 338.367C152.005 338.367 150.996 337.358 150.996 336.113Z" fill="white"/>
<path opacity="0.7" d="M133.003 338.82C133.003 335.44 135.744 332.699 139.124 332.699C142.504 332.699 145.245 335.44 145.245 338.82C145.245 342.201 142.504 344.942 139.124 344.942C135.744 344.925 133.003 342.184 133.003 338.82Z" fill="white"/>
<path opacity="0.7" d="M131.994 349.869C131.994 351.45 133.272 352.728 134.853 352.728C136.434 352.728 137.712 351.45 137.712 349.869C137.712 348.288 136.434 347.01 134.853 347.01C133.272 346.994 131.994 348.288 131.994 349.869Z" fill="white"/>
<path opacity="0.7" d="M132.296 360.817C132.296 357.739 134.785 355.25 137.862 355.25C140.94 355.25 143.429 357.739 143.429 360.817C143.429 363.894 140.94 366.383 137.862 366.383C134.785 366.383 132.296 363.894 132.296 360.817Z" fill="white"/>
<path opacity="0.7" d="M144.639 368.956C144.639 366.837 146.354 365.122 148.473 365.122C150.592 365.122 152.307 366.837 152.307 368.956C152.307 371.075 150.592 372.79 148.473 372.79C146.354 372.79 144.639 371.075 144.639 368.956Z" fill="white"/>
<path opacity="0.7" d="M128.496 345.313C129.573 345.313 130.446 344.439 130.446 343.362C130.446 342.284 129.573 341.411 128.496 341.411C127.418 341.411 126.545 342.284 126.545 343.362C126.545 344.439 127.418 345.313 128.496 345.313Z" fill="white"/>
<path opacity="0.7" d="M171.647 337.845C173.068 337.845 174.22 336.693 174.22 335.272C174.22 333.851 173.068 332.699 171.647 332.699C170.226 332.699 169.074 333.851 169.074 335.272C169.074 336.693 170.226 337.845 171.647 337.845Z" fill="white"/>
<path opacity="0.7" d="M171.629 347.902C171.629 346.472 172.789 345.312 174.219 345.312C175.648 345.312 176.808 346.472 176.808 347.902C176.808 349.331 175.648 350.492 174.219 350.492C172.789 350.508 171.629 349.348 171.629 347.902Z" fill="white"/>
<path opacity="0.7" d="M144.79 350.004C144.79 348.574 145.95 347.414 147.38 347.414C148.809 347.414 149.97 348.574 149.97 350.004C149.97 351.433 148.809 352.594 147.38 352.594C145.95 352.594 144.79 351.433 144.79 350.004Z" fill="white"/>
<path d="M301.691 403.616C301.489 395.762 295.048 389.456 287.144 389.456C279.257 389.456 272.8 395.745 272.598 403.616C272.581 403.75 272.581 403.885 272.581 404.019C272.581 404.154 272.581 404.288 272.598 404.423C272.766 406.441 274.179 408.408 276.852 409.956C282.537 413.235 291.752 413.235 297.436 409.956C300.093 408.408 301.522 406.441 301.674 404.423C301.691 404.288 301.691 404.154 301.691 404.019C301.691 403.885 301.707 403.75 301.691 403.616Z" fill="#FD2D1D"/>
<path opacity="0.5" d="M301.691 403.616C301.489 395.762 295.048 389.456 287.144 389.456C279.257 389.456 272.8 395.745 272.598 403.616C272.581 403.75 272.581 403.885 272.581 404.019C272.581 404.154 272.581 404.288 272.598 404.423C272.766 406.441 274.179 408.408 276.852 409.956C282.537 413.235 291.752 413.235 297.436 409.956C300.093 408.408 301.522 406.441 301.674 404.423C301.691 404.288 301.691 404.154 301.691 404.019C301.691 403.885 301.707 403.75 301.691 403.616Z" fill="white"/>
<path opacity="0.5" d="M293.45 390.919C291.533 389.994 289.398 389.473 287.144 389.473C279.257 389.473 272.8 395.762 272.598 403.632C272.581 403.767 272.581 403.901 272.581 404.036C272.581 404.17 272.581 404.305 272.598 404.439C272.766 406.457 274.179 408.425 276.852 409.972C278.921 411.166 281.477 411.923 284.151 412.242C280.384 411.587 277.929 407.382 279.089 402.724C280.451 397.326 285.9 389.523 293.45 390.919Z" fill="white"/>
<path opacity="0.2" d="M301.69 404.423C301.707 404.289 301.707 404.154 301.707 404.019C301.707 403.885 301.707 403.75 301.69 403.616C301.589 399.429 299.689 395.678 296.746 393.105C298.327 394.737 301.842 400.858 298.024 405.533C295.519 408.61 283.579 412.983 273.758 407.349C274.464 408.291 275.49 409.182 276.852 409.973C282.536 413.252 291.752 413.252 297.436 409.973C300.109 408.409 301.522 406.441 301.69 404.423Z" fill="#FD2D1D"/>
<path opacity="0.5" d="M286.994 392.736C287.65 394.215 286.388 396.2 284.202 397.158C281.999 398.117 279.695 397.696 279.056 396.217C278.401 394.737 279.662 392.752 281.848 391.794C284.034 390.835 286.338 391.256 286.994 392.736Z" fill="white"/>
<path opacity="0.5" d="M278.568 398.773C278.904 399.547 278.417 400.505 277.475 400.926C276.533 401.346 275.491 401.06 275.154 400.287C274.818 399.513 275.306 398.555 276.247 398.134C277.189 397.714 278.232 398 278.568 398.773Z" fill="white"/>
<path d="M279.896 415.589C279.61 404.776 270.748 396.099 259.868 396.099C249.004 396.099 240.125 404.776 239.839 415.589C239.822 415.774 239.822 415.959 239.822 416.144C239.822 416.329 239.822 416.514 239.839 416.699C240.058 419.474 242.025 422.198 245.708 424.317C253.528 428.841 266.224 428.841 274.061 424.317C277.727 422.181 279.678 419.474 279.913 416.699C279.93 416.514 279.93 416.329 279.93 416.144C279.913 415.959 279.913 415.774 279.896 415.589Z" fill="#FD2D1D"/>
<path opacity="0.6" d="M279.896 415.589C279.61 404.776 270.748 396.099 259.868 396.099C249.004 396.099 240.125 404.776 239.839 415.589C239.822 415.774 239.822 415.959 239.822 416.144C239.822 416.329 239.822 416.514 239.839 416.699C240.058 419.474 242.025 422.198 245.708 424.317C253.528 428.841 266.224 428.841 274.061 424.317C277.727 422.181 279.678 419.474 279.913 416.699C279.93 416.514 279.93 416.329 279.93 416.144C279.913 415.959 279.913 415.774 279.896 415.589Z" fill="white"/>
<path opacity="0.5" d="M268.562 398.1C265.922 396.822 262.979 396.099 259.868 396.099C249.004 396.099 240.125 404.776 239.839 415.589C239.822 415.774 239.822 415.959 239.822 416.144C239.822 416.329 239.822 416.514 239.839 416.699C240.058 419.474 242.025 422.198 245.708 424.317C248.567 425.965 252.082 427.008 255.764 427.462C250.568 426.57 247.205 420.769 248.802 414.345C250.652 406.929 258.169 396.183 268.562 398.1Z" fill="white"/>
<path opacity="0.1" d="M279.896 416.699C279.913 416.514 279.913 416.329 279.913 416.144C279.913 415.959 279.913 415.774 279.896 415.589C279.745 409.821 277.138 404.675 273.102 401.11C275.271 403.346 280.115 411.788 274.851 418.212C271.387 422.433 254.957 428.47 241.453 420.718C242.428 422.03 243.841 423.257 245.708 424.334C253.527 428.857 266.224 428.857 274.061 424.334C277.71 422.198 279.677 419.474 279.896 416.699Z" fill="#FD2D1D"/>
<path opacity="0.3" d="M259.667 400.622C260.558 402.657 258.842 405.398 255.816 406.726C252.789 408.055 249.61 407.466 248.719 405.431C247.828 403.397 249.543 400.656 252.57 399.327C255.597 397.998 258.775 398.57 259.667 400.622Z" fill="white"/>
<path opacity="0.3" d="M248.063 408.929C248.534 409.989 247.845 411.317 246.55 411.889C245.238 412.461 243.809 412.057 243.338 410.998C242.867 409.938 243.556 408.61 244.851 408.038C246.146 407.466 247.592 407.87 248.063 408.929Z" fill="white"/>
<path d="M244.362 425.342C244.009 411.923 233.011 401.16 219.508 401.16C206.021 401.16 194.989 411.923 194.653 425.342C194.636 425.578 194.636 425.797 194.636 426.032C194.636 426.267 194.636 426.486 194.653 426.721C194.938 430.169 197.36 433.549 201.934 436.189C211.637 441.789 227.395 441.789 237.115 436.189C241.655 433.549 244.093 430.169 244.362 426.721C244.379 426.486 244.379 426.267 244.379 426.032C244.379 425.797 244.379 425.578 244.362 425.342Z" fill="#FD2D1D"/>
<path opacity="0.8" d="M244.362 425.342C244.009 411.923 233.011 401.16 219.508 401.16C206.021 401.16 194.989 411.923 194.653 425.342C194.636 425.578 194.636 425.797 194.636 426.032C194.636 426.267 194.636 426.486 194.653 426.721C194.938 430.169 197.36 433.549 201.934 436.189C211.637 441.789 227.395 441.789 237.115 436.189C241.655 433.549 244.093 430.169 244.362 426.721C244.379 426.486 244.379 426.267 244.379 426.032C244.379 425.797 244.379 425.578 244.362 425.342Z" fill="white"/>
<path opacity="0.3" d="M230.304 403.632C227.041 402.052 223.392 401.144 219.508 401.144C206.021 401.144 194.989 411.906 194.653 425.326C194.636 425.561 194.636 425.78 194.636 426.015C194.636 426.251 194.636 426.469 194.653 426.705C194.938 430.152 197.36 433.532 201.934 436.173C205.482 438.224 209.838 439.519 214.412 440.074C207.955 438.964 203.784 431.767 205.768 423.812C208.055 414.58 217.389 401.244 230.304 403.632Z" fill="white"/>
<path opacity="0.1" d="M244.363 426.722C244.38 426.487 244.38 426.268 244.38 426.033C244.38 425.797 244.38 425.579 244.363 425.343C244.178 418.179 240.932 411.789 235.921 407.366C238.629 410.141 244.632 420.618 238.107 428.589C233.819 433.836 213.42 441.336 196.654 431.7C197.865 433.314 199.631 434.845 201.935 436.173C211.638 441.773 227.395 441.773 237.115 436.173C241.656 433.55 244.077 430.17 244.363 426.722Z" fill="#FD2D1D"/>
<path opacity="0.3" d="M219.256 406.761C220.366 409.3 218.23 412.68 214.48 414.328C210.73 415.977 206.778 415.253 205.668 412.714C204.558 410.175 206.694 406.795 210.444 405.147C214.194 403.499 218.146 404.222 219.256 406.761Z" fill="white"/>
<path opacity="0.3" d="M204.844 417.069C205.416 418.397 204.575 420.028 202.961 420.752C201.346 421.458 199.564 420.97 198.975 419.642C198.403 418.313 199.244 416.682 200.859 415.959C202.49 415.269 204.272 415.757 204.844 417.069Z" fill="white"/>
<path d="M313.999 407.012C313.882 402.27 309.98 398.452 305.204 398.452C300.428 398.452 296.544 402.253 296.409 407.012C296.409 407.096 296.409 407.18 296.409 407.264C296.409 407.348 296.409 407.432 296.409 407.516C296.51 408.727 297.368 409.921 298.982 410.863C302.413 412.847 307.979 412.847 311.426 410.863C313.041 409.921 313.898 408.727 313.999 407.516C313.999 407.432 313.999 407.348 313.999 407.264C313.999 407.18 313.999 407.096 313.999 407.012Z" fill="#FD2D1D"/>
<path opacity="0.2" d="M313.999 407.012C313.882 402.27 309.98 398.452 305.204 398.452C300.428 398.452 296.544 402.253 296.409 407.012C296.409 407.096 296.409 407.18 296.409 407.264C296.409 407.348 296.409 407.432 296.409 407.516C296.51 408.727 297.368 409.921 298.982 410.863C302.413 412.847 307.979 412.847 311.426 410.863C313.041 409.921 313.898 408.727 313.999 407.516C313.999 407.432 313.999 407.348 313.999 407.264C313.999 407.18 313.999 407.096 313.999 407.012Z" fill="white"/>
<path opacity="0.5" d="M309.022 399.343C307.861 398.788 306.583 398.469 305.204 398.469C300.428 398.469 296.544 402.269 296.409 407.028C296.409 407.112 296.409 407.197 296.409 407.281C296.409 407.365 296.409 407.449 296.409 407.533C296.51 408.744 297.368 409.938 298.982 410.879C300.243 411.603 301.774 412.057 303.388 412.258C301.101 411.872 299.638 409.315 300.327 406.507C301.168 403.211 304.464 398.502 309.022 399.343Z" fill="white"/>
<path opacity="0.05" d="M313.999 407.516C313.999 407.432 313.999 407.348 313.999 407.264C313.999 407.18 313.999 407.096 313.999 407.012C313.932 404.473 312.788 402.219 311.022 400.655C311.981 401.631 314.1 405.347 311.796 408.155C310.282 410.005 303.068 412.662 297.132 409.249C297.569 409.82 298.174 410.358 298.998 410.829C302.429 412.814 307.995 412.814 311.443 410.829C313.04 409.921 313.898 408.727 313.999 407.516Z" fill="#455A64"/>
<path opacity="0.3" d="M305.12 400.453C305.506 401.344 304.75 402.555 303.438 403.127C302.109 403.715 300.714 403.463 300.327 402.555C299.94 401.664 300.697 400.453 302.008 399.881C303.337 399.292 304.733 399.562 305.12 400.453Z" fill="white"/>
<path opacity="0.3" d="M300.025 404.102C300.227 404.573 299.924 405.145 299.352 405.397C298.78 405.649 298.158 405.481 297.94 405.01C297.738 404.54 298.04 403.968 298.612 403.716C299.201 403.463 299.823 403.631 300.025 404.102Z" fill="white"/>
<path d="M12.328 396.199C12.5298 388.345 18.9706 382.039 26.8744 382.039C34.7614 382.039 41.219 388.329 41.4208 396.199C41.4376 396.333 41.4376 396.468 41.4376 396.602C41.4376 396.737 41.4376 396.871 41.4208 397.006C41.2526 399.024 39.84 400.991 37.1662 402.539C31.4822 405.818 22.2667 405.818 16.5826 402.539C13.9256 400.991 12.4962 399.024 12.3449 397.006C12.328 396.871 12.328 396.737 12.328 396.602C12.3112 396.468 12.3112 396.333 12.328 396.199Z" fill="#FD2D1D"/>
<path opacity="0.5" d="M12.328 396.199C12.5298 388.345 18.9706 382.039 26.8744 382.039C34.7614 382.039 41.219 388.329 41.4208 396.199C41.4376 396.333 41.4376 396.468 41.4376 396.602C41.4376 396.737 41.4376 396.871 41.4208 397.006C41.2526 399.024 39.84 400.991 37.1662 402.539C31.4822 405.818 22.2667 405.818 16.5826 402.539C13.9256 400.991 12.4962 399.024 12.3449 397.006C12.328 396.871 12.328 396.737 12.328 396.602C12.3112 396.468 12.3112 396.333 12.328 396.199Z" fill="white"/>
<path opacity="0.5" d="M20.5508 383.502C22.4679 382.577 24.6036 382.056 26.857 382.056C34.744 382.056 41.2016 388.345 41.4034 396.215C41.4202 396.35 41.4202 396.484 41.4202 396.619C41.4202 396.753 41.4202 396.888 41.4034 397.022C41.2352 399.04 39.8226 401.008 37.1488 402.555C35.0803 403.749 32.5242 404.506 29.8504 404.825C33.6173 404.17 36.0725 399.965 34.9122 395.307C33.5668 389.909 28.1014 382.106 20.5508 383.502Z" fill="white"/>
<path opacity="0.2" d="M12.3264 397.006C12.3096 396.871 12.3096 396.736 12.3096 396.602C12.3096 396.467 12.3096 396.333 12.3264 396.198C12.4273 392.011 14.3276 388.261 17.2705 385.688C15.6897 387.319 12.175 393.44 15.9924 398.115C18.4981 401.193 30.4379 405.565 40.2588 399.932C39.5525 400.873 38.5267 401.765 37.1645 402.555C31.4805 405.834 22.265 405.834 16.581 402.555C13.9071 400.991 12.4777 399.024 12.3264 397.006Z" fill="#FD2D1D"/>
<path opacity="0.3" d="M27.0076 385.319C26.3517 386.799 27.613 388.783 29.7991 389.742C32.0021 390.7 34.306 390.28 34.945 388.8C35.6009 387.32 34.3396 385.336 32.1535 384.377C29.9673 383.419 27.6634 383.839 27.0076 385.319Z" fill="white"/>
<path opacity="0.3" d="M35.4491 391.356C35.1128 392.129 35.6005 393.088 36.5422 393.508C37.4839 393.929 38.5266 393.643 38.8629 392.869C39.1992 392.096 38.7115 391.137 37.7698 390.717C36.8281 390.296 35.7854 390.582 35.4491 391.356Z" fill="white"/>
<path d="M43.5214 401.749C43.8073 390.347 53.1573 381.216 64.6263 381.216C76.0784 381.216 85.4284 390.347 85.7311 401.749C85.7479 401.951 85.7479 402.136 85.7479 402.337C85.7479 402.539 85.7479 402.724 85.7311 402.926C85.4957 405.852 83.4273 408.711 79.5594 410.964C71.3193 415.724 57.9501 415.724 49.6931 410.964C45.8421 408.728 43.7737 405.852 43.5382 402.926C43.5214 402.724 43.5214 402.539 43.5214 402.337C43.5046 402.136 43.5046 401.951 43.5214 401.749Z" fill="#FD2D1D"/>
<path opacity="0.7" d="M43.5214 401.749C43.8073 390.347 53.1573 381.216 64.6263 381.216C76.0784 381.216 85.4284 390.347 85.7311 401.749C85.7479 401.951 85.7479 402.136 85.7479 402.337C85.7479 402.539 85.7479 402.724 85.7311 402.926C85.4957 405.852 83.4273 408.711 79.5594 410.964C71.3193 415.724 57.9501 415.724 49.6931 410.964C45.8421 408.728 43.7737 405.852 43.5382 402.926C43.5214 402.724 43.5214 402.539 43.5214 402.337C43.5046 402.136 43.5046 401.951 43.5214 401.749Z" fill="white"/>
<path opacity="0.3" d="M55.4619 383.334C58.2367 381.989 61.3309 381.232 64.627 381.232C76.0791 381.232 85.4291 390.364 85.7318 401.766C85.7487 401.967 85.7487 402.152 85.7487 402.354C85.7487 402.556 85.7487 402.741 85.7318 402.943C85.4964 405.869 83.428 408.728 79.5601 410.981C76.55 412.713 72.8503 413.823 68.9657 414.277C74.4479 413.335 77.9794 407.214 76.2977 400.471C74.3302 392.617 66.4095 381.3 55.4619 383.334Z" fill="white"/>
<path opacity="0.1" d="M43.5217 402.927C43.5049 402.725 43.5049 402.54 43.5049 402.338C43.5049 402.137 43.5049 401.952 43.5217 401.75C43.673 395.662 46.431 390.247 50.6856 386.497C48.3985 388.851 43.2863 397.747 48.8358 404.508C52.485 408.964 69.7893 415.321 84.0161 407.148C82.9903 408.527 81.4936 409.822 79.5429 410.948C71.3028 415.708 57.9335 415.708 49.6766 410.948C45.8088 408.712 43.7571 405.853 43.5217 402.927Z" fill="#FD2D1D"/>
<path opacity="0.5" d="M64.8287 385.976C63.887 388.128 65.7032 391.004 68.8815 392.4C72.0598 393.795 75.4064 393.19 76.3649 391.037C77.3066 388.885 75.4904 386.009 72.3121 384.613C69.1169 383.218 65.7704 383.823 64.8287 385.976Z" fill="white"/>
<path opacity="0.5" d="M77.0536 394.736C76.5659 395.863 77.2722 397.259 78.6512 397.864C80.0301 398.469 81.5436 398.049 82.0313 396.922C82.519 395.796 81.8127 394.4 80.4337 393.794C79.0548 393.189 77.5413 393.609 77.0536 394.736Z" fill="white"/>
<path d="M24.9389 414.142C25.2248 403.329 34.0871 394.651 44.9675 394.651C55.831 394.651 64.7102 403.329 64.9961 414.142C65.0129 414.327 65.0129 414.512 65.0129 414.697C65.0129 414.882 65.0129 415.067 64.9961 415.252C64.7775 418.026 62.8099 420.751 59.1271 422.87C51.3074 427.393 38.6108 427.393 30.7743 422.87C27.1082 420.734 25.1575 418.026 24.9221 415.252C24.9053 415.067 24.9053 414.882 24.9053 414.697C24.9221 414.495 24.9221 414.327 24.9389 414.142Z" fill="#FD2D1D"/>
<path opacity="0.6" d="M24.9389 414.142C25.2248 403.329 34.0871 394.651 44.9675 394.651C55.831 394.651 64.7102 403.329 64.9961 414.142C65.0129 414.327 65.0129 414.512 65.0129 414.697C65.0129 414.882 65.0129 415.067 64.9961 415.252C64.7775 418.026 62.8099 420.751 59.1271 422.87C51.3074 427.393 38.6108 427.393 30.7743 422.87C27.1082 420.734 25.1575 418.026 24.9221 415.252C24.9053 415.067 24.9053 414.882 24.9053 414.697C24.9221 414.495 24.9221 414.327 24.9389 414.142Z" fill="white"/>
<path opacity="0.5" d="M36.2734 396.653C38.9136 395.374 41.8397 394.651 44.9676 394.651C55.8312 394.651 64.7104 403.329 64.9962 414.142C65.0131 414.327 65.013 414.512 65.013 414.697C65.013 414.882 65.0131 415.067 64.9962 415.252C64.7776 418.026 62.8101 420.751 59.1272 422.87C56.2684 424.518 52.7537 425.56 49.0709 426.014C54.2672 425.123 57.6306 419.321 56.033 412.897C54.1831 405.464 46.6661 394.735 36.2734 396.653Z" fill="white"/>
<path opacity="0.15" d="M24.9387 415.252C24.9219 415.067 24.9219 414.882 24.9219 414.697C24.9219 414.512 24.9219 414.327 24.9387 414.142C25.09 408.374 27.6966 403.228 31.7326 399.663C29.5633 401.899 24.7201 410.341 29.9837 416.765C33.4479 421.003 49.8777 427.023 63.3815 419.271C62.4061 420.582 60.9935 421.81 59.1269 422.886C51.3072 427.41 38.6106 427.41 30.7741 422.886C27.1249 420.751 25.1573 418.026 24.9387 415.252Z" fill="#FD2D1D"/>
<path opacity="0.3" d="M45.1691 399.158C44.2778 401.193 45.9931 403.934 49.0201 405.263C52.0471 406.591 55.2254 406.003 56.1167 403.968C57.008 401.933 55.2927 399.192 52.2657 397.863C49.2387 396.535 46.0604 397.123 45.1691 399.158Z" fill="white"/>
<path opacity="0.3" d="M56.7723 407.482C56.3015 408.542 56.991 409.87 58.2858 410.442C59.5975 411.014 61.0269 410.61 61.4978 409.551C61.9687 408.491 61.2792 407.163 59.9843 406.591C58.6726 406.019 57.2432 406.406 56.7723 407.482Z" fill="white"/>
<path d="M67.4358 422.921C67.7889 409.501 78.787 398.738 92.2907 398.738C105.778 398.738 116.809 409.501 117.146 422.921C117.163 423.156 117.163 423.375 117.163 423.61C117.163 423.845 117.163 424.064 117.146 424.3C116.86 427.747 114.438 431.127 109.864 433.767C100.161 439.367 84.4037 439.367 74.6837 433.767C70.1432 431.127 67.7048 427.747 67.4358 424.3C67.4189 424.064 67.4189 423.845 67.4189 423.61C67.4189 423.391 67.4189 423.173 67.4358 422.921Z" fill="#FD2D1D"/>
<path opacity="0.8" d="M67.4358 422.921C67.7889 409.501 78.787 398.738 92.2907 398.738C105.778 398.738 116.809 409.501 117.146 422.921C117.163 423.156 117.163 423.375 117.163 423.61C117.163 423.845 117.163 424.064 117.146 424.3C116.86 427.747 114.438 431.127 109.864 433.767C100.161 439.367 84.4037 439.367 74.6837 433.767C70.1432 431.127 67.7048 427.747 67.4358 424.3C67.4189 424.064 67.4189 423.845 67.4189 423.61C67.4189 423.391 67.4189 423.173 67.4358 422.921Z" fill="white"/>
<path opacity="0.3" d="M81.5107 401.227C84.7732 399.646 88.4224 398.738 92.307 398.738C105.794 398.738 116.826 409.501 117.162 422.921C117.179 423.156 117.179 423.375 117.179 423.61C117.179 423.845 117.179 424.064 117.162 424.3C116.876 427.747 114.455 431.127 109.88 433.767C106.332 435.819 101.977 437.114 97.4024 437.669C103.86 436.559 108.031 429.361 106.046 421.407C103.742 412.175 94.4091 398.839 81.5107 401.227Z" fill="white"/>
<path opacity="0.1" d="M67.4358 424.317C67.4189 424.081 67.4189 423.863 67.4189 423.627C67.4189 423.392 67.4189 423.173 67.4358 422.938C67.6207 415.774 70.8664 409.384 75.8777 404.961C73.1702 407.736 67.1667 418.212 73.6915 426.184C77.9798 431.43 98.3784 438.931 115.145 429.295C113.934 430.909 112.168 432.439 109.864 433.768C100.161 439.368 84.4037 439.368 74.6837 433.768C70.1432 431.128 67.7216 427.764 67.4358 424.317Z" fill="#FD2D1D"/>
<path opacity="0.3" d="M92.5424 404.355C91.4325 406.895 93.5682 410.275 97.3183 411.923C101.068 413.571 105.02 412.848 106.13 410.308C107.24 407.769 105.104 404.389 101.354 402.741C97.6042 401.093 93.6691 401.816 92.5424 404.355Z" fill="white"/>
<path opacity="0.3" d="M106.955 414.664C106.383 415.992 107.224 417.623 108.838 418.346C110.453 419.053 112.235 418.565 112.824 417.237C113.395 415.908 112.555 414.277 110.94 413.554C109.309 412.847 107.526 413.352 106.955 414.664Z" fill="white"/>
<path d="M200.689 439.384C200.369 427.125 190.33 417.304 178.003 417.304C165.693 417.304 155.62 427.125 155.318 439.384C155.301 439.603 155.301 439.804 155.301 440.023C155.301 440.242 155.301 440.443 155.318 440.662C155.57 443.807 157.79 446.884 161.96 449.306C170.823 454.418 185.201 454.418 194.08 449.306C198.234 446.901 200.437 443.807 200.706 440.662C200.722 440.443 200.722 440.242 200.722 440.023C200.706 439.804 200.706 439.603 200.689 439.384Z" fill="#FD2D1D"/>
<path opacity="0.9" d="M200.689 439.384C200.369 427.125 190.33 417.304 178.003 417.304C165.693 417.304 155.62 427.125 155.318 439.384C155.301 439.603 155.301 439.804 155.301 440.023C155.301 440.242 155.301 440.443 155.318 440.662C155.57 443.807 157.79 446.884 161.96 449.306C170.823 454.418 185.201 454.418 194.08 449.306C198.234 446.901 200.437 443.807 200.706 440.662C200.722 440.443 200.722 440.242 200.722 440.023C200.706 439.804 200.706 439.603 200.689 439.384Z" fill="white"/>
<path opacity="0.5" d="M187.858 419.574C184.881 418.128 181.535 417.304 178.003 417.304C165.693 417.304 155.62 427.125 155.318 439.384C155.301 439.603 155.301 439.804 155.301 440.023C155.301 440.242 155.301 440.443 155.318 440.662C155.57 443.807 157.79 446.884 161.96 449.306C165.189 451.172 169.175 452.35 173.345 452.854C167.459 451.845 163.642 445.27 165.458 438.005C167.543 429.563 176.069 417.388 187.858 419.574Z" fill="white"/>
<path opacity="0.1" d="M200.689 440.645C200.706 440.427 200.706 440.225 200.706 440.006C200.706 439.788 200.706 439.586 200.689 439.367C200.521 432.826 197.561 426.99 192.987 422.971C195.459 425.511 200.941 435.062 194.971 442.344C191.053 447.137 172.437 453.981 157.117 445.186C158.227 446.666 159.825 448.062 161.927 449.272C170.789 454.385 185.167 454.385 194.046 449.272C198.217 446.868 200.437 443.79 200.689 440.645Z" fill="#FD2D1D"/>
<path opacity="0.5" d="M177.768 422.416C178.777 424.736 176.826 427.831 173.413 429.327C169.982 430.824 166.383 430.168 165.374 427.864C164.365 425.543 166.316 422.449 169.73 420.953C173.16 419.456 176.759 420.112 177.768 422.416Z" fill="white"/>
<path opacity="0.5" d="M164.616 431.833C165.137 433.044 164.38 434.54 162.9 435.196C161.421 435.852 159.789 435.398 159.268 434.187C158.747 432.977 159.503 431.48 160.983 430.824C162.463 430.168 164.094 430.639 164.616 431.833Z" fill="white"/>
<path d="M105.911 441.857C106.213 430.203 115.765 420.853 127.486 420.853C139.191 420.853 148.776 430.203 149.062 441.857C149.079 442.058 149.079 442.243 149.079 442.462C149.079 442.664 149.079 442.849 149.062 443.067C148.81 446.061 146.708 448.987 142.739 451.291C134.314 456.167 120.625 456.167 112.183 451.291C108.231 449.004 106.129 446.061 105.894 443.067C105.877 442.866 105.877 442.681 105.877 442.462C105.877 442.243 105.877 442.058 105.911 441.857Z" fill="#FD2D1D"/>
<path opacity="0.9" d="M105.911 441.857C106.213 430.203 115.765 420.853 127.486 420.853C139.191 420.853 148.776 430.203 149.062 441.857C149.079 442.058 149.079 442.243 149.079 442.462C149.079 442.664 149.079 442.849 149.062 443.067C148.81 446.061 146.708 448.987 142.739 451.291C134.314 456.167 120.625 456.167 112.183 451.291C108.231 449.004 106.129 446.061 105.894 443.067C105.877 442.866 105.877 442.681 105.877 442.462C105.877 442.243 105.877 442.058 105.911 441.857Z" fill="white"/>
<path opacity="0.5" d="M118.12 423.005C120.962 421.643 124.124 420.853 127.487 420.853C139.191 420.853 148.777 430.203 149.063 441.857C149.08 442.058 149.08 442.243 149.08 442.462C149.08 442.664 149.08 442.849 149.063 443.067C148.81 446.061 146.708 448.987 142.74 451.291C139.662 453.073 135.878 454.2 131.91 454.671C137.51 453.712 141.142 447.456 139.41 440.545C137.426 432.506 129.32 420.937 118.12 423.005Z" fill="white"/>
<path opacity="0.1" d="M105.91 443.051C105.894 442.849 105.894 442.664 105.894 442.446C105.894 442.244 105.894 442.059 105.91 441.84C106.079 435.618 108.887 430.069 113.242 426.234C110.905 428.639 105.675 437.737 111.342 444.665C115.075 449.223 132.767 455.731 147.33 447.373C146.27 448.785 144.757 450.097 142.756 451.257C134.33 456.134 120.642 456.134 112.2 451.257C108.248 448.97 106.146 446.044 105.91 443.051Z" fill="#FD2D1D"/>
<path opacity="0.5" d="M127.706 425.712C126.747 427.915 128.597 430.858 131.86 432.288C135.122 433.717 138.536 433.095 139.511 430.892C140.47 428.689 138.62 425.746 135.357 424.316C132.095 422.887 128.681 423.509 127.706 425.712Z" fill="white"/>
<path opacity="0.5" d="M140.215 434.676C139.711 435.82 140.451 437.249 141.847 437.872C143.259 438.494 144.806 438.057 145.294 436.913C145.798 435.769 145.059 434.34 143.663 433.718C142.267 433.096 140.72 433.533 140.215 434.676Z" fill="white"/>
<path d="M161.911 449.391C161.794 444.648 157.892 440.831 153.116 440.831C148.34 440.831 144.456 444.632 144.321 449.391C144.321 449.475 144.321 449.559 144.321 449.643C144.321 449.727 144.321 449.811 144.321 449.895C144.422 451.106 145.28 452.3 146.894 453.242C150.325 455.226 155.891 455.226 159.339 453.242C160.953 452.3 161.811 451.106 161.911 449.895C161.911 449.811 161.911 449.727 161.911 449.643C161.911 449.559 161.911 449.475 161.911 449.391Z" fill="#FD2D1D"/>
<path opacity="0.9" d="M161.911 449.391C161.794 444.648 157.892 440.831 153.116 440.831C148.34 440.831 144.456 444.632 144.321 449.391C144.321 449.475 144.321 449.559 144.321 449.643C144.321 449.727 144.321 449.811 144.321 449.895C144.422 451.106 145.28 452.3 146.894 453.242C150.325 455.226 155.891 455.226 159.339 453.242C160.953 452.3 161.811 451.106 161.911 449.895C161.911 449.811 161.911 449.727 161.911 449.643C161.911 449.559 161.911 449.475 161.911 449.391Z" fill="white"/>
<path opacity="0.6" d="M156.934 441.722C155.773 441.167 154.495 440.848 153.116 440.848C148.34 440.848 144.456 444.648 144.321 449.407C144.321 449.491 144.321 449.576 144.321 449.66C144.321 449.744 144.321 449.828 144.321 449.912C144.422 451.123 145.28 452.317 146.894 453.258C148.155 453.981 149.686 454.436 151.3 454.637C149.013 454.251 147.55 451.694 148.24 448.886C149.08 445.59 152.376 440.881 156.934 441.722Z" fill="white"/>
<path opacity="0.1" d="M161.911 449.878C161.911 449.794 161.911 449.71 161.911 449.626C161.911 449.542 161.911 449.458 161.911 449.374C161.844 446.834 160.7 444.581 158.934 443.017C159.893 443.992 162.012 447.709 159.708 450.517C158.195 452.367 150.98 455.024 145.044 451.61C145.481 452.182 146.087 452.72 146.911 453.191C150.341 455.175 155.907 455.175 159.355 453.191C160.952 452.3 161.81 451.106 161.911 449.878Z" fill="#FD2D1D"/>
<path opacity="0.5" d="M153.032 442.833C153.418 443.724 152.662 444.935 151.35 445.506C150.021 446.095 148.626 445.843 148.239 444.935C147.852 444.043 148.609 442.833 149.921 442.261C151.249 441.672 152.645 441.924 153.032 442.833Z" fill="white"/>
<path opacity="0.5" d="M147.937 446.482C148.139 446.953 147.836 447.524 147.264 447.777C146.692 448.029 146.07 447.861 145.852 447.39C145.65 446.919 145.953 446.347 146.524 446.095C147.113 445.826 147.735 446.011 147.937 446.482Z" fill="white"/>
<path d="M0 399.596C0.117716 394.854 4.01917 391.037 8.79509 391.037C13.571 391.037 17.4557 394.837 17.5902 399.596C17.5902 399.68 17.5902 399.764 17.5902 399.849C17.5902 399.933 17.5902 400.017 17.5902 400.101C17.4893 401.312 16.6316 402.506 15.0172 403.447C11.5867 405.432 6.02035 405.432 2.57294 403.447C0.958548 402.506 0.1009 401.312 0.0168166 400.101C0.0168166 400.017 0.0168166 399.933 0.0168166 399.849C0 399.764 0 399.68 0 399.596Z" fill="#FD2D1D"/>
<path opacity="0.2" d="M0 399.596C0.117716 394.854 4.01917 391.037 8.79509 391.037C13.571 391.037 17.4557 394.837 17.5902 399.596C17.5902 399.68 17.5902 399.764 17.5902 399.849C17.5902 399.933 17.5902 400.017 17.5902 400.101C17.4893 401.312 16.6316 402.506 15.0172 403.447C11.5867 405.432 6.02035 405.432 2.57294 403.447C0.958548 402.506 0.1009 401.312 0.0168166 400.101C0.0168166 400.017 0.0168166 399.933 0.0168166 399.849C0 399.764 0 399.68 0 399.596Z" fill="white"/>
<path opacity="0.5" d="M4.97754 391.927C6.13789 391.372 7.41595 391.053 8.79491 391.053C13.5708 391.053 17.4555 394.853 17.59 399.612C17.59 399.696 17.59 399.781 17.59 399.865C17.59 399.949 17.59 400.033 17.59 400.117C17.4891 401.328 16.6315 402.522 15.0171 403.463C13.7558 404.187 12.2255 404.641 10.6111 404.842C12.8982 404.456 14.3612 401.899 13.6717 399.091C12.8477 395.795 9.55166 391.086 4.97754 391.927Z" fill="white"/>
<path opacity="0.05" d="M0 400.101C0 400.017 0 399.933 0 399.849C0 399.765 0 399.681 0 399.596C0.0672665 397.057 1.2108 394.804 2.97654 393.24C2.01799 394.215 -0.1009 397.932 2.20298 400.74C3.71647 402.59 10.9308 405.247 16.8671 401.833C16.4298 402.405 15.8244 402.943 15.0004 403.414C11.5698 405.398 6.00353 405.398 2.55613 403.414C0.958548 402.506 0.1009 401.312 0 400.101Z" fill="#455A64"/>
<path opacity="0.3" d="M8.87851 393.038C8.49173 393.929 9.24848 395.14 10.5602 395.712C11.8887 396.3 13.2845 396.048 13.6712 395.14C14.058 394.248 13.3013 393.038 11.9896 392.466C10.6779 391.894 9.28211 392.146 8.87851 393.038Z" fill="white"/>
<path opacity="0.3" d="M13.9747 396.687C13.7729 397.158 14.0756 397.729 14.6473 397.982C15.2191 398.234 15.8413 398.066 16.0599 397.595C16.2617 397.124 15.9759 396.552 15.3873 396.3C14.8155 396.048 14.1765 396.216 13.9747 396.687Z" fill="white"/>
<path d="M187.405 308.921H179.754H172.102C169.916 322.122 176.929 332.262 179.754 332.262C182.579 332.246 189.592 322.122 187.405 308.921Z" fill="#FD2D1D"/>
<path opacity="0.7" d="M187.405 308.921H179.754H172.102C169.916 322.122 176.929 332.262 179.754 332.262C182.579 332.246 189.592 322.122 187.405 308.921Z" fill="white"/>
<path d="M179.771 308.921H182.395C182.395 308.921 184.194 311.612 183.807 315.967C183.488 319.532 181.335 324.157 179.771 324.157C178.207 324.157 176.055 319.532 175.735 315.967C175.348 311.612 177.148 308.921 177.148 308.921H179.771Z" fill="white"/>
<path d="M187.357 285.16L171.533 290.743L170.305 296.007C170.137 298.008 171.095 300.06 173.164 301.607C173.887 302.145 174.694 302.582 175.569 302.919C178.427 304.028 181.858 304.012 184.7 302.902C185.541 302.565 186.331 302.145 187.054 301.607C189.123 300.076 190.081 298.025 189.913 296.007L187.357 285.16Z" fill="#FD2D1D"/>
<path opacity="0.2" d="M187.357 285.16L171.533 290.743L170.305 296.007C170.137 298.008 171.095 300.06 173.164 301.607C173.887 302.145 174.694 302.582 175.569 302.919C178.427 304.028 181.858 304.012 184.7 302.902C185.541 302.565 186.331 302.145 187.054 301.607C189.123 300.076 190.081 298.025 189.913 296.007L187.357 285.16Z" fill="white"/>
<path d="M190.267 297.604L190.788 299.824C190.855 301.926 189.813 304.045 187.66 305.659C186.887 306.248 186.012 306.719 185.07 307.072C181.976 308.283 178.26 308.283 175.166 307.089C174.224 306.719 173.332 306.248 172.525 305.659C170.356 304.045 169.313 301.926 169.397 299.807L167.951 305.979C167.951 308.064 169.128 310.132 171.499 311.73C172.424 312.352 173.484 312.857 174.594 313.227C178.058 314.404 182.178 314.404 185.625 313.21C186.719 312.84 187.744 312.335 188.669 311.73C191.04 310.149 192.218 308.064 192.218 305.979L190.267 297.604Z" fill="#FD2D1D"/>
<path opacity="0.2" d="M190.267 297.604L190.788 299.824C190.855 301.926 189.813 304.045 187.66 305.659C186.887 306.248 186.012 306.719 185.07 307.072C181.976 308.283 178.26 308.283 175.166 307.089C174.224 306.719 173.332 306.248 172.525 305.659C170.356 304.045 169.313 301.926 169.397 299.807L167.951 305.979C167.951 308.064 169.128 310.132 171.499 311.73C172.424 312.352 173.484 312.857 174.594 313.227C178.058 314.404 182.178 314.404 185.625 313.21C186.719 312.84 187.744 312.335 188.669 311.73C191.04 310.149 192.218 308.064 192.218 305.979L190.267 297.604Z" fill="white"/>
<path d="M190.266 297.571L190.148 297.05L189.912 296.007C190.081 298.025 189.122 300.06 187.054 301.607C186.347 302.129 185.557 302.566 184.699 302.902C181.857 304.029 178.427 304.029 175.568 302.919C174.71 302.583 173.886 302.145 173.163 301.607C171.095 300.077 170.136 298.025 170.304 296.007L169.413 299.808C169.329 301.91 170.371 304.046 172.541 305.66C173.331 306.249 174.222 306.736 175.181 307.089C178.275 308.283 181.992 308.283 185.086 307.073C186.011 306.703 186.885 306.232 187.676 305.66C189.828 304.062 190.871 301.927 190.804 299.825L190.266 297.571Z" fill="#455A64"/>
<path opacity="0.15" d="M188.682 290.843L187.354 285.159L171.529 290.742L170.302 296.006L169.932 297.57L169.41 299.806L168.401 304.111C177.398 301.539 184.663 296.779 188.682 290.843Z" fill="black"/>
<path d="M133.372 308.921H125.721H118.069C115.883 322.122 122.895 332.263 125.721 332.263C128.529 332.246 135.558 322.122 133.372 308.921Z" fill="#FD2D1D"/>
<path opacity="0.7" d="M133.372 308.921H125.721H118.069C115.883 322.122 122.895 332.263 125.721 332.263C128.529 332.246 135.558 322.122 133.372 308.921Z" fill="white"/>
<path d="M125.721 308.921H128.345C128.345 308.921 130.144 311.612 129.757 315.968C129.438 319.533 127.285 324.157 125.721 324.157C124.157 324.157 122.005 319.533 121.685 315.968C121.299 311.612 123.098 308.921 123.098 308.921H125.721Z" fill="white"/>
<path d="M133.306 285.16H118.844L116.254 296.007C116.086 298.008 117.045 300.06 119.113 301.607C119.836 302.145 120.643 302.582 121.518 302.919C124.377 304.028 127.807 304.012 130.649 302.902C131.49 302.565 132.28 302.145 133.004 301.607C135.072 300.076 136.031 298.025 135.862 296.007L133.306 285.16Z" fill="#FD2D1D"/>
<path opacity="0.2" d="M133.306 285.16H118.844L116.254 296.007C116.086 298.008 117.045 300.06 119.113 301.607C119.836 302.145 120.643 302.582 121.518 302.919C124.377 304.028 127.807 304.012 130.649 302.902C131.49 302.565 132.28 302.145 133.004 301.607C135.072 300.076 136.031 298.025 135.862 296.007L133.306 285.16Z" fill="white"/>
<path d="M136.098 297.049L136.216 297.571L136.737 299.841C136.805 301.943 135.762 304.062 133.609 305.676C132.836 306.265 131.961 306.736 131.02 307.089C127.925 308.3 124.209 308.3 121.115 307.106C120.173 306.736 119.282 306.265 118.475 305.676C116.305 304.062 115.263 301.943 115.347 299.824L113.9 305.996C113.9 308.081 115.078 310.149 117.449 311.747C118.374 312.369 119.433 312.874 120.543 313.244C124.007 314.421 128.127 314.421 131.575 313.227C132.668 312.857 133.694 312.352 134.618 311.747C136.99 310.166 138.167 308.081 138.167 305.996L136.098 297.049Z" fill="#FD2D1D"/>
<path opacity="0.2" d="M136.098 297.049L136.216 297.571L136.737 299.841C136.805 301.943 135.762 304.062 133.609 305.676C132.836 306.265 131.961 306.736 131.02 307.089C127.925 308.3 124.209 308.3 121.115 307.106C120.173 306.736 119.282 306.265 118.475 305.676C116.305 304.062 115.263 301.943 115.347 299.824L113.9 305.996C113.9 308.081 115.078 310.149 117.449 311.747C118.374 312.369 119.433 312.874 120.543 313.244C124.007 314.421 128.127 314.421 131.575 313.227C132.668 312.857 133.694 312.352 134.618 311.747C136.99 310.166 138.167 308.081 138.167 305.996L136.098 297.049Z" fill="white"/>
<path d="M136.216 297.571L136.098 297.05L135.863 296.007C136.031 298.025 135.072 300.06 133.004 301.607C132.297 302.129 131.507 302.566 130.649 302.902C127.807 304.029 124.377 304.029 121.518 302.919C120.66 302.583 119.836 302.145 119.113 301.607C117.045 300.077 116.103 298.025 116.254 296.007L115.363 299.808C115.279 301.91 116.322 304.046 118.491 305.66C119.281 306.249 120.173 306.736 121.131 307.089C124.225 308.283 127.942 308.283 131.036 307.073C131.961 306.703 132.836 306.232 133.626 305.66C135.778 304.062 136.821 301.927 136.754 299.825L136.216 297.571Z" fill="#455A64"/>
<path opacity="0.15" d="M118.843 285.159L117.498 290.793C121.5 296.746 128.748 301.522 137.745 304.095L136.097 297.049L135.862 296.006L133.322 285.159H118.843Z" fill="black"/>
<path d="M167.966 318.54L153.083 314.672L138.201 318.54C138.201 318.54 136.418 326.528 138.369 339.023C140.32 351.518 149.031 364.029 153.1 364.029C157.17 364.029 165.881 351.518 167.832 339.023C169.749 326.528 167.966 318.54 167.966 318.54Z" fill="#FD2D1D"/>
<path opacity="0.85" d="M167.966 318.54L153.083 314.672L138.201 318.54C138.201 318.54 136.418 326.528 138.369 339.023C140.32 351.518 149.031 364.029 153.1 364.029C157.17 364.029 165.881 351.518 167.832 339.023C169.749 326.528 167.966 318.54 167.966 318.54Z" fill="white"/>
<path d="M162.821 320.34H152.63H142.439C139.53 337.947 148.88 351.451 152.63 351.451C156.38 351.451 165.73 337.947 162.821 320.34Z" fill="#FD2D1D"/>
<path d="M152.629 320.34H156.127C156.127 320.34 158.532 323.922 158.028 329.74C157.607 334.483 154.748 340.654 152.646 340.654C150.544 340.654 147.685 334.483 147.265 329.74C146.744 323.922 149.165 320.34 149.165 320.34H152.629Z" fill="white"/>
<path d="M166.148 301.875L164.5 294.863H157.706H148.508H141.647L139.999 301.875C139.78 304.549 141.058 307.29 143.816 309.342C144.791 310.065 145.868 310.637 147.011 311.091C150.812 312.571 155.403 312.554 159.186 311.057C160.313 310.62 161.372 310.048 162.314 309.342C165.089 307.29 166.367 304.566 166.148 301.875Z" fill="#FD2D1D"/>
<path opacity="0.5" d="M166.148 301.875L164.5 294.863H157.706H148.508H141.647L139.999 301.875C139.78 304.549 141.058 307.29 143.816 309.342C144.791 310.065 145.868 310.637 147.011 311.091C150.812 312.571 155.403 312.554 159.186 311.057C160.313 310.62 161.372 310.048 162.314 309.342C165.089 307.29 166.367 304.566 166.148 301.875Z" fill="white"/>
<path d="M166.468 303.255L166.636 303.944L167.342 306.971C167.443 309.78 166.047 312.605 163.172 314.741C162.129 315.514 160.969 316.136 159.724 316.624C155.604 318.238 150.643 318.238 146.523 316.641C145.262 316.153 144.068 315.514 143.009 314.724C140.116 312.571 138.737 309.746 138.838 306.921L136.921 315.144C136.921 317.919 138.502 320.694 141.663 322.796C142.908 323.62 144.303 324.292 145.783 324.797C150.391 326.361 155.89 326.361 160.498 324.78C161.961 324.276 163.323 323.62 164.551 322.813C167.712 320.694 169.293 317.919 169.293 315.161L166.468 303.255Z" fill="#FD2D1D"/>
<path opacity="0.5" d="M166.468 303.255L166.636 303.944L167.342 306.971C167.443 309.78 166.047 312.605 163.172 314.741C162.129 315.514 160.969 316.136 159.724 316.624C155.604 318.238 150.643 318.238 146.523 316.641C145.262 316.153 144.068 315.514 143.009 314.724C140.116 312.571 138.737 309.746 138.838 306.921L136.921 315.144C136.921 317.919 138.502 320.694 141.663 322.796C142.908 323.62 144.303 324.292 145.783 324.797C150.391 326.361 155.89 326.361 160.498 324.78C161.961 324.276 163.323 323.62 164.551 322.813C167.712 320.694 169.293 317.919 169.293 315.161L166.468 303.255Z" fill="white"/>
<path d="M166.636 303.961L166.468 303.272L166.148 301.893C166.367 304.566 165.089 307.308 162.331 309.359C161.389 310.065 160.33 310.637 159.203 311.074C155.402 312.571 150.828 312.571 147.028 311.108C145.867 310.654 144.791 310.082 143.832 309.359C141.075 307.308 139.813 304.583 140.015 301.893L138.838 306.954C138.72 309.763 140.116 312.605 143.008 314.757C144.068 315.548 145.262 316.187 146.523 316.674C150.66 318.272 155.604 318.255 159.724 316.658C160.969 316.17 162.129 315.548 163.172 314.774C166.047 312.638 167.443 309.813 167.342 307.005L166.636 303.961Z" fill="#455A64"/>
<path opacity="0.15" d="M153.048 306.179C157.874 306.179 162.499 305.607 166.77 304.565L166.636 303.959L166.468 303.27L166.148 301.891L164.5 294.878H157.706H148.507H141.646L139.998 301.891L139.376 304.582C143.631 305.607 148.238 306.179 153.048 306.179Z" fill="black"/>
<path d="M138.973 238.594L94.5936 222.248C94.5432 220.18 94.5936 218.296 94.7786 216.547C94.8291 215.959 94.8963 215.404 94.9804 214.832C95.0645 214.294 95.1486 213.739 95.2663 213.235C95.384 212.696 95.5185 212.175 95.6531 211.671C95.7203 211.402 95.8044 211.149 95.8885 210.897C95.9558 210.712 96.0062 210.51 96.0735 210.325H96.0903C97.2843 206.962 99.2014 204.557 101.909 203.027L107.61 199.748L108.215 199.394C109.863 198.47 111.797 197.864 114.034 197.545C118.86 196.889 123.131 195.964 126.713 194.501C127.975 193.458 129.034 192.264 129.925 190.919C134.247 184.31 135.34 170.1 135.054 163.037L141.377 159.388L145.296 234.945L138.687 232.506V232.708L138.973 238.594Z" fill="#37474F"/>
<path d="M94.5936 222.249L138.973 238.594L138.67 232.725V232.524L136.316 187.152L135.054 163.054C135.34 170.117 134.247 184.327 129.925 190.936C129.034 192.281 127.975 193.475 126.713 194.518C122.341 198.184 115.816 200.101 107.727 201.211C106.87 201.312 106.063 201.48 105.306 201.682C104.061 202.018 102.935 202.472 101.909 203.044C99.2014 204.574 97.2843 206.979 96.0903 210.343H96.0735C96.0062 210.528 95.9558 210.729 95.8885 210.914C95.8044 211.167 95.7203 211.419 95.6531 211.688C95.5185 212.192 95.384 212.714 95.2663 213.252C95.1654 213.756 95.0645 214.311 94.9804 214.849C94.8963 215.404 94.8291 215.959 94.7786 216.565C94.5936 218.28 94.5432 220.18 94.5936 222.249Z" fill="#263238"/>
<path d="M138.317 225.898L96.0564 210.342C95.4173 212.125 94.9969 214.193 94.7783 216.548L138.67 232.708L138.317 225.898Z" fill="#FD2D1D"/>
<path opacity="0.3" d="M138.317 225.898L96.0564 210.342C95.4173 212.125 94.9969 214.193 94.7783 216.548L138.67 232.708L138.317 225.898Z" fill="black"/>
<path d="M173.531 224.031C179.098 242.075 184.765 260.069 190.802 277.962C191.861 281.09 190.499 285.126 187.523 287.682C178.072 295.855 165.594 300.076 153.066 299.908C140.504 299.824 128.076 295.401 118.625 287.194C115.649 284.605 114.286 280.653 115.346 277.592C121.484 259.985 127.134 242.227 132.617 224.401C146.255 224.284 159.893 224.149 173.531 224.031Z" fill="#455A64"/>
<path d="M153.082 285.833C165.611 286.236 179.737 281.494 189.137 273.002C189.81 275.003 190.146 275.995 190.802 277.963C191.861 281.091 190.499 285.127 187.523 287.683C178.072 295.856 165.543 300.026 153.066 299.908C140.537 299.791 128.076 295.401 118.625 287.195C115.649 284.605 114.286 280.653 115.346 277.593C116.019 275.676 116.338 274.7 117.011 272.75C126.916 281.511 140.1 285.412 153.082 285.833Z" fill="#263238"/>
<path d="M153.082 244.329C142 244.379 133.743 242.378 127.739 240.108C129.69 233.919 130.682 230.775 132.633 224.401C139.999 224.334 143.681 224.3 151.047 224.233C151.72 224.233 152.392 224.25 153.082 224.25C153.788 224.25 154.444 224.216 155.117 224.199C162.482 224.132 166.165 224.099 173.531 224.031C175.482 230.438 176.474 233.6 178.425 239.856C172.421 242.193 164.164 244.278 153.082 244.329Z" fill="#263238"/>
<g opacity="0.5">
<path d="M166.133 224.098C166.755 229.194 167.579 235.803 168.454 242.798C170.959 242.294 173.246 241.655 175.281 240.982C174.087 234.256 173.498 230.859 172.305 224.048C169.849 224.065 168.605 224.065 166.133 224.098Z" fill="#455A64"/>
</g>
<g opacity="0.5">
<path d="M118.625 287.195C128.126 295.418 140.537 299.807 153.082 299.908C153.94 299.908 154.798 299.891 155.622 299.874C156.462 299.841 157.27 299.79 158.077 299.74C158.497 299.706 158.918 299.672 159.321 299.622C159.943 299.555 160.582 299.488 161.188 299.42C161.591 299.37 161.995 299.303 162.382 299.235C162.785 299.168 163.172 299.101 163.559 299.033C164.215 298.916 164.871 298.798 165.51 298.647C165.627 298.613 165.745 298.596 165.863 298.563C166.62 298.394 167.36 298.193 168.066 298.008C168.957 297.755 169.832 297.503 170.672 297.217C171.177 297.049 171.648 296.864 172.135 296.696C172.775 296.477 173.397 296.225 174.002 295.973C175.179 295.485 176.34 294.964 177.399 294.443C177.668 294.308 177.937 294.157 178.206 294.022C178.526 293.854 178.845 293.686 179.131 293.534C179.568 293.299 180.006 293.03 180.426 292.778C180.897 292.492 181.351 292.223 181.788 291.954C182.225 291.685 182.646 291.399 183.066 291.13C183.47 290.861 183.857 290.575 184.227 290.322C183.335 285.547 182.898 283.142 182.007 278.282C179.669 279.678 176.878 281.09 173.565 282.335C173.884 284.672 174.288 286.522 174.204 286.875C170.891 299.033 141.916 301.186 118.625 287.195Z" fill="#455A64"/>
</g>
<path opacity="0.1" d="M168.453 242.782C170.118 255.966 171.8 269.15 173.549 282.317C176.878 281.073 179.653 279.66 181.991 278.265C179.737 265.837 177.484 253.41 175.281 240.965C173.246 241.638 170.959 242.277 168.453 242.782Z" fill="white"/>
<path d="M165.678 238.594L210.057 222.248C210.107 220.18 210.057 218.297 209.872 216.548C209.821 215.959 209.754 215.404 209.67 214.832C209.586 214.294 209.502 213.739 209.384 213.235C209.266 212.697 209.132 212.175 208.997 211.671C208.93 211.402 208.846 211.15 208.762 210.897C208.694 210.712 208.644 210.51 208.577 210.326H208.56C207.366 206.962 205.449 204.557 202.741 203.027L197.041 199.748L196.435 199.395C194.787 198.47 192.853 197.864 190.617 197.545C185.79 196.889 181.519 195.964 177.937 194.501C176.676 193.458 175.616 192.264 174.725 190.919C170.403 184.31 169.31 170.1 169.596 163.037L163.273 159.388L159.354 234.945L165.963 232.507V232.708L165.678 238.594Z" fill="#37474F"/>
<path d="M210.073 222.249L165.694 238.594L165.997 232.725V232.524L168.351 187.152L169.613 163.054C169.327 170.117 170.42 184.327 174.742 190.936C175.633 192.281 176.692 193.475 177.954 194.518C182.326 198.184 188.851 200.101 196.94 201.211C197.797 201.312 198.604 201.48 199.361 201.682C200.606 202.018 201.732 202.472 202.758 203.044C205.466 204.574 207.383 206.979 208.577 210.343H208.594C208.661 210.528 208.711 210.729 208.779 210.914C208.863 211.167 208.947 211.419 209.014 211.688C209.148 212.192 209.283 212.714 209.401 213.252C209.502 213.756 209.603 214.311 209.687 214.849C209.771 215.404 209.838 215.959 209.888 216.565C210.073 218.28 210.124 220.18 210.073 222.249Z" fill="#263238"/>
<path d="M166.351 225.898L208.611 210.342C209.25 212.125 209.671 214.193 209.889 216.548L165.998 232.708L166.351 225.898Z" fill="#FD2D1D"/>
<path opacity="0.3" d="M166.351 225.898L208.611 210.342C209.25 212.125 209.671 214.193 209.889 216.548L165.998 232.708L166.351 225.898Z" fill="black"/>
<path d="M197.159 87.5473C197.276 84.3186 197.041 81.0729 196.368 77.9114C190.314 49.5418 173.363 26.2507 163.593 11.1494C161.81 8.40831 157.959 2.13571 156.378 1.04263C155.437 0.369966 154.293 0 153.082 0C151.855 0 150.728 0.369966 149.803 1.02581C148.222 2.11889 144.422 8.42513 142.572 11.1326C133.558 24.4177 115.833 49.525 109.779 77.8946C109.107 81.0561 108.871 84.3017 108.989 87.5305L114.488 246.347C114.488 254.251 121.719 262.138 136.182 266.443C147.163 269.705 158.951 269.705 169.932 266.443C184.395 262.138 191.626 254.234 191.626 246.347L197.159 87.5473Z" fill="#FD2D1D"/>
<path opacity="0.5" d="M197.159 87.5473C197.276 84.3186 197.041 81.0729 196.368 77.9114C190.314 49.5418 173.363 26.2507 163.593 11.1494C161.81 8.40831 157.959 2.13571 156.378 1.04263C155.437 0.369966 154.293 0 153.082 0C151.855 0 150.728 0.369966 149.803 1.02581C148.222 2.11889 144.422 8.42513 142.572 11.1326C133.558 24.4177 115.833 49.525 109.779 77.8946C109.107 81.0561 108.871 84.3017 108.989 87.5305L114.488 246.347C114.488 254.251 121.719 262.138 136.182 266.443C147.163 269.705 158.951 269.705 169.932 266.443C184.395 262.138 191.626 254.234 191.626 246.347L197.159 87.5473Z" fill="white"/>
<path opacity="0.35" d="M196.369 77.8947C190.315 49.5251 173.364 26.2341 163.593 11.1327C163.206 10.5273 162.685 9.72014 162.147 8.86249C162.13 8.84567 162.13 8.82886 162.113 8.82886C170.135 29.2274 182.815 61.9189 183.639 107.694C184.126 134.701 182.192 207.13 180.527 261.986C182.36 260.91 183.975 259.75 185.354 258.539C185.387 258.505 185.421 258.488 185.438 258.455C186.396 257.614 187.22 256.74 187.96 255.831C188.045 255.714 188.145 255.613 188.229 255.495C188.431 255.243 188.616 254.991 188.801 254.738C188.919 254.587 189.02 254.419 189.121 254.267C189.356 253.898 189.592 253.528 189.793 253.158C189.911 252.939 190.046 252.704 190.163 252.485C190.264 252.3 190.348 252.098 190.432 251.913C190.55 251.644 190.651 251.392 190.752 251.123C190.802 250.971 190.87 250.82 190.92 250.652C191.055 250.248 191.172 249.828 191.273 249.424C191.307 249.307 191.324 249.172 191.357 249.054C191.425 248.718 191.492 248.398 191.526 248.062C191.542 247.928 191.559 247.81 191.576 247.675C191.626 247.238 191.643 246.801 191.643 246.364L197.142 87.5475C197.277 84.3019 197.041 81.0563 196.369 77.8947Z" fill="white"/>
<path d="M119.112 94.055C137.712 104.784 167.864 104.784 186.463 94.055C191.306 91.2466 194.871 88.001 197.192 84.5368C197.141 82.1488 196.889 79.7609 196.385 77.4233C196.116 76.1957 195.847 74.9681 195.527 73.7573C193.274 76.3975 190.247 78.8696 186.446 81.0726C167.847 91.8016 137.695 91.8016 119.096 81.0726C115.547 79.0209 112.688 76.717 110.485 74.2786C110.233 75.3213 109.981 76.3807 109.762 77.4402C109.207 80.0467 108.972 82.7206 108.955 85.3944C111.293 88.5223 114.656 91.482 119.112 94.055Z" fill="#455A64"/>
<path opacity="0.1" d="M197.158 84.5711C197.091 82.3345 196.839 80.0979 196.368 77.8949C196.082 76.5328 195.746 75.2042 195.409 73.8757C193.173 76.4655 190.179 78.8871 186.463 81.0564C185.05 81.8636 183.57 82.6036 182.04 83.293C182.511 87.329 182.881 91.4996 183.15 95.7878C184.293 95.2497 185.403 94.6779 186.463 94.0557C191.272 91.2641 194.821 88.0353 197.158 84.5711Z" fill="white"/>
<path opacity="0.15" d="M155.856 0.723115C155.032 0.269066 154.09 0 153.081 0C151.853 0 150.727 0.369966 149.802 1.02581C148.221 2.11889 144.42 8.42513 142.587 11.1326C133.574 24.4177 115.849 49.525 109.795 77.8946C109.122 81.0561 108.887 84.3017 109.005 87.5305L114.504 246.347C114.504 254.251 121.735 262.138 136.197 266.443C136.399 266.51 136.601 266.543 136.803 266.594C133.91 200.471 121.012 93.0632 134.129 50.1976C141.259 26.8898 151.113 -0.874464 155.856 0.723115Z" fill="black"/>
<path opacity="0.1" d="M162.113 8.82886C164.804 15.6564 167.999 23.8966 171.11 33.5157C172.926 32.4562 174.507 31.3463 175.97 30.3037C172.472 24.6029 169.042 19.4738 166.048 14.9165C165.191 13.6048 164.35 12.3435 163.576 11.1327C163.29 10.6955 162.937 10.1574 162.567 9.56879C162.433 9.33336 162.265 9.08111 162.113 8.82886Z" fill="white"/>
<path d="M134.129 256.639L89.7504 291.55L83.4778 287.901C83.1414 275.053 87.312 263.685 96.6116 251.711C100.563 246.599 104.196 241.84 107.458 237.333C112.789 230.001 117.128 223.359 120.323 217.103C125.671 206.542 126.999 199.983 126.915 192.702C126.932 192.45 126.915 192.197 126.898 191.979C126.898 191.727 126.898 191.491 126.881 191.272L130.211 192.904L134.129 256.639Z" fill="#455A64"/>
<path d="M84.9402 274.364C84.3011 276.886 83.8807 279.442 83.6621 282.049L89.9179 285.665L89.9515 285.463C90.187 282.94 90.5906 280.468 91.196 278.03V277.979L84.9402 274.364Z" fill="#FD2D1D"/>
<path opacity="0.6" d="M84.9402 274.364C84.3011 276.886 83.8807 279.442 83.6621 282.049L89.9179 285.665L89.9515 285.463C90.187 282.94 90.5906 280.468 91.196 278.03V277.979L84.9402 274.364Z" fill="white"/>
<path d="M130.211 192.921C130.48 199.664 129.387 207.837 125.065 219.474C121.097 230.136 113.277 241.958 102.867 255.361C93.5678 267.351 89.3973 278.702 89.7336 291.567L134.113 256.656L130.211 192.921Z" fill="#37474F"/>
<path d="M133.473 244.732L91.196 277.979C90.557 280.501 90.1366 283.057 89.918 285.664L133.826 251.123L133.473 244.732Z" fill="#FD2D1D"/>
<path d="M170.538 256.639L214.917 291.55L221.19 287.901C221.526 275.053 217.356 263.685 208.056 251.712C204.104 246.599 200.472 241.84 197.209 237.333C191.878 230.001 187.54 223.359 184.345 217.103C178.997 206.542 177.668 199.984 177.752 192.702C177.736 192.45 177.752 192.198 177.769 191.979C177.769 191.727 177.769 191.491 177.786 191.273L174.456 192.904L170.538 256.639Z" fill="#455A64"/>
<path d="M219.727 274.364C220.366 276.887 220.787 279.443 221.006 282.049L214.75 285.665L214.716 285.463C214.481 282.941 214.077 280.469 213.472 278.03V277.98L219.727 274.364Z" fill="#FD2D1D"/>
<path opacity="0.6" d="M219.727 274.364C220.366 276.887 220.787 279.443 221.006 282.049L214.75 285.665L214.716 285.463C214.481 282.941 214.077 280.469 213.472 278.03V277.98L219.727 274.364Z" fill="white"/>
<path d="M174.456 192.921C174.187 199.664 175.28 207.837 179.602 219.474C183.571 230.136 191.39 241.958 201.8 255.361C211.1 267.351 215.27 278.702 214.934 291.567L170.555 256.656L174.456 192.921Z" fill="#37474F"/>
<path d="M171.194 244.733L213.471 277.979C214.11 280.502 214.53 283.058 214.749 285.665L170.841 251.123L171.194 244.733Z" fill="#FD2D1D"/>
<path d="M117.297 102.934C118.626 103.708 119.702 105.574 119.702 107.105C119.702 108.635 118.626 109.257 117.297 108.501C115.969 107.727 114.893 105.86 114.893 104.33C114.893 102.8 115.969 102.178 117.297 102.934Z" fill="#37474F"/>
<path d="M117.196 112.823C118.457 113.546 119.483 115.328 119.483 116.775C119.483 118.238 118.457 118.826 117.196 118.086C115.935 117.363 114.909 115.581 114.909 114.134C114.926 112.688 115.935 112.083 117.196 112.823Z" fill="#37474F"/>
<path d="M117.314 122.694C118.508 123.383 119.466 125.048 119.466 126.427C119.466 127.806 118.508 128.361 117.314 127.671C116.12 126.982 115.161 125.317 115.161 123.938C115.161 122.576 116.12 122.004 117.314 122.694Z" fill="#37474F"/>
<path d="M117.583 132.582C118.709 133.238 119.617 134.802 119.617 136.096C119.617 137.391 118.709 137.913 117.583 137.274C116.456 136.618 115.548 135.054 115.548 133.759C115.565 132.464 116.473 131.926 117.583 132.582Z" fill="#37474F"/>
<path d="M117.952 142.471C119.012 143.076 119.869 144.556 119.869 145.784C119.869 146.994 119.012 147.499 117.952 146.893C116.893 146.288 116.035 144.808 116.035 143.581C116.052 142.353 116.91 141.865 117.952 142.471Z" fill="#37474F"/>
<path d="M118.373 152.341C119.366 152.913 120.156 154.292 120.156 155.436C120.156 156.579 119.349 157.033 118.373 156.462C117.381 155.89 116.591 154.511 116.591 153.367C116.591 152.241 117.398 151.786 118.373 152.341Z" fill="#37474F"/>
<path d="M118.778 162.23C119.703 162.752 120.443 164.046 120.443 165.106C120.443 166.165 119.703 166.586 118.778 166.064C117.853 165.543 117.113 164.248 117.113 163.189C117.13 162.129 117.87 161.692 118.778 162.23Z" fill="#37474F"/>
<path d="M188.869 102.934C187.54 103.708 186.464 105.574 186.464 107.105C186.464 108.635 187.54 109.257 188.869 108.501C190.197 107.727 191.273 105.86 191.273 104.33C191.273 102.8 190.197 102.178 188.869 102.934Z" fill="#455A64"/>
<path d="M188.953 112.823C187.692 113.546 186.666 115.328 186.666 116.775C186.666 118.238 187.692 118.826 188.953 118.086C190.214 117.363 191.24 115.581 191.24 114.134C191.24 112.688 190.214 112.083 188.953 112.823Z" fill="#455A64"/>
<path d="M188.834 122.694C187.64 123.383 186.682 125.048 186.682 126.427C186.682 127.806 187.64 128.361 188.834 127.671C190.028 126.982 190.987 125.317 190.987 123.938C190.987 122.576 190.028 122.004 188.834 122.694Z" fill="#455A64"/>
<path d="M188.565 132.582C187.438 133.238 186.53 134.802 186.53 136.096C186.53 137.391 187.438 137.913 188.565 137.274C189.692 136.618 190.6 135.054 190.6 133.759C190.6 132.464 189.692 131.926 188.565 132.582Z" fill="#455A64"/>
<path d="M188.194 142.471C187.135 143.076 186.277 144.556 186.277 145.784C186.277 146.994 187.135 147.499 188.194 146.893C189.254 146.288 190.112 144.808 190.112 143.581C190.095 142.353 189.254 141.865 188.194 142.471Z" fill="#455A64"/>
<path d="M187.774 152.341C186.782 152.913 185.991 154.292 185.991 155.436C185.991 156.579 186.798 157.033 187.774 156.462C188.766 155.89 189.556 154.511 189.556 153.367C189.556 152.241 188.766 151.786 187.774 152.341Z" fill="#455A64"/>
<path d="M187.371 162.23C186.446 162.752 185.706 164.046 185.706 165.106C185.706 166.165 186.446 166.586 187.371 166.064C188.296 165.543 189.036 164.248 189.036 163.189C189.036 162.129 188.296 161.692 187.371 162.23Z" fill="#455A64"/>
<path d="M152.909 221.088L152.909 227.446L149.593 227.48L149.593 222.028C149.593 221.094 149.462 220.314 149.2 219.687C148.938 219.06 148.556 218.588 148.055 218.269C147.554 217.938 146.944 217.773 146.227 217.773C145.429 217.773 144.78 217.927 144.278 218.234C143.777 218.531 143.412 218.998 143.185 219.636C142.945 220.274 142.826 221.083 142.826 222.062L142.826 225.925L164 225.925L164 230.625L139.117 230.625L139.117 222.062C139.117 220.65 139.254 219.391 139.527 218.286C139.789 217.169 140.2 216.223 140.758 215.449C141.316 214.674 142.017 214.087 142.86 213.688C143.703 213.278 144.706 213.073 145.868 213.073C146.893 213.073 147.839 213.312 148.705 213.791C149.559 214.258 150.254 214.982 150.79 215.961C151.325 216.93 151.633 218.16 151.712 219.653L152.909 221.088ZM164 221.293L164 228.83L160.309 226.865L160.309 221.293C160.309 220.359 160.155 219.59 159.847 218.986C159.54 218.371 159.118 217.915 158.583 217.619C158.036 217.312 157.409 217.158 156.703 217.158C155.928 217.158 155.256 217.294 154.686 217.568C154.116 217.83 153.678 218.251 153.37 218.833C153.062 219.402 152.909 220.154 152.909 221.088L152.909 225.976L149.593 225.942L149.593 219.721L150.875 218.645C150.886 217.209 151.171 216.041 151.729 215.141C152.288 214.23 153.006 213.557 153.883 213.125C154.76 212.692 155.706 212.475 156.72 212.475C158.315 212.475 159.653 212.823 160.736 213.518C161.818 214.201 162.633 215.204 163.18 216.525C163.727 217.836 164 219.425 164 221.293ZM139.117 208.408L139.117 199.367C139.117 197.476 139.402 195.852 139.972 194.497C140.541 193.141 141.384 192.098 142.501 191.369C143.618 190.64 144.99 190.275 146.62 190.275C147.907 190.275 149.024 190.503 149.969 190.959C150.915 191.415 151.707 192.058 152.345 192.89C152.983 193.71 153.484 194.679 153.849 195.795L154.601 197.265L154.601 205.246L150.892 205.28L150.892 199.316C150.892 198.347 150.721 197.544 150.379 196.906C150.038 196.268 149.565 195.79 148.961 195.471C148.357 195.14 147.668 194.975 146.893 194.975C146.061 194.975 145.344 195.135 144.74 195.454C144.125 195.773 143.652 196.257 143.321 196.906C142.991 197.556 142.826 198.376 142.826 199.367L142.826 203.708L164 203.708L164 208.408L139.117 208.408ZM164 194.36L152.857 200.119L152.84 195.146L163.761 189.318L164 189.318L164 194.36ZM142.894 176.262L164 183.354L164 188.327L139.117 179.03L139.117 175.852L142.894 176.262ZM164 170.332L142.894 177.458L139.117 177.885L139.117 174.689L164 165.341L164 170.332ZM154.754 170.656L158.463 170.656L158.463 184.003L154.754 184.003L154.754 170.656ZM139.117 142.783L164 142.783L164 147.5L146.739 158.078L164 158.078L164 162.778L139.117 162.778L139.117 158.078L156.395 147.465L139.117 147.465L139.117 142.783ZM164 130.563L164 135.93L160.309 135.896L160.309 130.563C160.309 129.117 159.99 127.903 159.352 126.923C158.702 125.944 157.774 125.203 156.566 124.702C155.347 124.2 153.889 123.95 152.191 123.95L150.909 123.95C149.599 123.95 148.443 124.092 147.44 124.377C146.437 124.662 145.594 125.083 144.911 125.642C144.227 126.188 143.709 126.866 143.355 127.675C143.002 128.484 142.826 129.413 142.826 130.461L142.826 136.032L139.117 136.032L139.117 130.461C139.117 128.798 139.396 127.282 139.955 125.915C140.513 124.536 141.316 123.346 142.364 122.343C143.401 121.329 144.643 120.555 146.09 120.019C147.537 119.472 149.155 119.199 150.943 119.199L152.191 119.199C153.968 119.199 155.586 119.472 157.044 120.019C158.491 120.555 159.733 121.329 160.77 122.343C161.807 123.346 162.604 124.542 163.163 125.932C163.721 127.322 164 128.866 164 130.563ZM139.117 133.298L164 133.298L164 137.998L139.117 137.998L139.117 133.298Z" fill="#FD2F20"/>
</g>
<defs>
<linearGradient id="paint0_linear_0_1" x1="400.904" y1="160.184" x2="465.39" y2="156.488" gradientUnits="userSpaceOnUse">
<stop stop-color="#FB1807"/>
<stop offset="1" stop-color="#FF4031"/>
</linearGradient>
<linearGradient id="paint1_linear_0_1" x1="459.323" y1="206.974" x2="479.828" y2="205.778" gradientUnits="userSpaceOnUse">
<stop stop-color="#FB1807"/>
<stop offset="1" stop-color="#FF4031"/>
</linearGradient>
<linearGradient id="paint2_linear_0_1" x1="486.11" y1="207.115" x2="506.615" y2="205.919" gradientUnits="userSpaceOnUse">
<stop stop-color="#FB1807"/>
<stop offset="1" stop-color="#FF4031"/>
</linearGradient>
<linearGradient id="paint3_linear_0_1" x1="512.873" y1="207.258" x2="533.379" y2="206.061" gradientUnits="userSpaceOnUse">
<stop stop-color="#FB1807"/>
<stop offset="1" stop-color="#FF4031"/>
</linearGradient>
<linearGradient id="paint4_linear_0_1" x1="509.511" y1="250.03" x2="524.547" y2="249.191" gradientUnits="userSpaceOnUse">
<stop stop-color="#FB1807"/>
<stop offset="1" stop-color="#FF4031"/>
</linearGradient>
<clipPath id="clip0_0_1">
<rect width="314" height="454.923" fill="white"/>
</clipPath>
</defs>
</svg>
