<svg width="196" height="225" viewBox="0 0 196 225" fill="none" xmlns="http://www.w3.org/2000/svg">
<g clip-path="url(#clip0_1081_4172)">
<path d="M195.512 169.497C195.412 169.95 195.087 170.378 194.512 170.705L164.891 187.766C163.341 188.671 160.642 188.546 158.842 187.514L116.847 163.257C115.972 162.754 115.497 162.125 115.397 161.495L115.272 161.47L115.297 163.408C115.147 164.238 115.647 165.119 116.797 165.773L158.942 189.779C160.742 190.81 163.441 190.911 164.991 189.98L194.537 172.794C195.012 172.517 195.312 172.165 195.462 171.787C195.537 171.762 195.537 171.51 195.537 171.51C195.562 171.359 195.562 171.183 195.537 171.032L195.512 169.497Z" fill="#FF4233"/>
<path d="M116.847 163.232L158.841 187.489C160.616 188.52 163.341 188.646 164.891 187.74L194.512 170.68C195.087 170.353 195.412 169.925 195.512 169.472C195.687 168.692 195.212 167.811 194.062 167.157L152.067 142.9C150.293 141.868 147.568 141.743 146.018 142.649L116.397 159.709C115.597 160.162 115.272 160.816 115.397 161.47C115.497 162.099 115.997 162.729 116.847 163.232ZM151.192 144.334L191.687 167.711L159.766 186.105L119.272 162.729L151.192 144.334ZM129.92 152.99L135.095 149.971C135.42 149.795 135.969 149.795 136.319 150.021C136.669 150.223 136.719 150.55 136.394 150.726L131.22 153.745C130.895 153.922 130.17 153.972 129.82 153.771C129.47 153.569 129.595 153.192 129.92 152.99Z" fill="#FFA9A2"/>
<path d="M119.271 162.729L159.766 186.105L191.687 167.711L151.192 144.334L119.271 162.729ZM159.316 149.266L167.315 153.922L183.238 163.03L191.287 167.711L159.741 185.878L143.818 176.769L127.695 167.409L119.646 162.729L151.192 144.561L159.316 149.266Z" fill="#FF4233"/>
<path d="M130.946 153.594L136.12 150.575C136.295 150.474 136.245 150.298 136.045 150.172C135.845 150.046 135.545 150.046 135.37 150.122L130.196 153.142C130.021 153.242 130.071 153.418 130.271 153.544C130.471 153.67 130.771 153.695 130.946 153.594Z" fill="#FF4233"/>
<path d="M131.22 153.745L136.394 150.726C136.719 150.55 136.694 150.223 136.32 150.021C135.97 149.82 135.42 149.795 135.095 149.971L129.92 152.99C129.595 153.167 129.47 153.544 129.82 153.771C130.17 153.972 130.895 153.947 131.22 153.745ZM130.195 153.167L135.37 150.147C135.545 150.046 135.845 150.072 136.045 150.197C136.245 150.323 136.27 150.499 136.12 150.6L130.945 153.62C130.77 153.72 130.47 153.695 130.27 153.569C130.07 153.443 130.045 153.267 130.195 153.167Z" fill="#217FD5"/>
<path d="M119.646 162.729L127.72 167.409L143.818 176.769L159.741 185.878L191.287 167.711L183.213 163.03L167.315 153.922L159.316 149.266L151.192 144.561L119.646 162.729Z" fill="#FF4233"/>
<path d="M127.346 207.594C127.271 207.997 126.971 208.424 126.371 208.752L103.499 222.038C102.299 222.742 100.5 222.818 99.4497 222.214L88.3261 215.747C87.8511 215.47 87.6512 215.093 87.6512 214.715L87.6262 215.973C87.6012 216.074 87.6012 216.2 87.6262 216.3C87.6262 216.3 87.6262 216.451 87.6762 216.477C87.7761 216.728 87.9761 216.955 88.3011 217.156L99.3747 223.698C100.4 224.302 102.224 224.252 103.424 223.547L126.396 210.437C127.171 209.984 127.496 209.406 127.396 208.852L127.421 207.569L127.346 207.594Z" fill="#FF4233"/>
<path d="M112.098 201.354L90.7754 213.759L102.924 220.805L124.246 208.424L112.098 201.354Z" fill="#FF4233"/>
<path d="M88.3257 215.747L99.4493 222.214C100.474 222.818 102.299 222.742 103.499 222.038L126.371 208.752C126.946 208.424 127.271 207.997 127.346 207.594C127.421 207.166 127.221 206.713 126.671 206.411L120.072 202.587L115.547 199.944C114.522 199.341 112.698 199.416 111.498 200.121L88.6257 213.407C87.9757 213.784 87.6758 214.262 87.6758 214.715C87.6758 215.093 87.8758 215.47 88.3257 215.747ZM118.222 202.712C118.422 202.612 118.697 202.587 118.847 202.687L122.321 204.7C122.496 204.801 122.471 204.952 122.271 205.078C122.071 205.178 121.796 205.204 121.646 205.103L118.172 203.09C117.997 202.989 118.022 202.838 118.222 202.712ZM112.098 201.052L124.771 208.424L102.924 221.132L90.2505 213.759L112.098 201.052Z" fill="#FFA9A2"/>
<path d="M102.924 221.106L124.772 208.399L112.098 201.026L90.251 213.734L102.924 221.106ZM90.7759 213.759L112.098 201.354L124.247 208.424L102.924 220.83L90.7759 213.759ZM90.6509 213.658L91.0759 214.086L90.4759 213.734L90.6509 213.658Z" fill="#FF4233"/>
<path d="M121.622 205.103C121.796 205.204 122.071 205.178 122.246 205.078C122.446 204.977 122.446 204.801 122.296 204.7L118.822 202.687C118.647 202.587 118.372 202.612 118.197 202.712C117.997 202.813 117.997 202.989 118.147 203.09L121.622 205.103Z" fill="#FFA9A2"/>
<path d="M121.622 205.103C121.796 205.204 122.071 205.178 122.246 205.078C122.446 204.977 122.446 204.801 122.296 204.7L118.822 202.687C118.647 202.587 118.372 202.612 118.197 202.712C117.997 202.813 117.997 202.989 118.147 203.09L121.622 205.103Z" fill="#FF4233"/>
<path d="M164.816 13.9656L147.643 3.97594L147.518 4.05143C144.244 1.73644 139.469 1.8371 134.145 4.90697C132.845 5.66186 131.595 6.56772 130.371 7.57423L121.597 2.46617L121.472 2.54166C116.647 -0.930821 109.598 -0.805006 101.749 3.74948C88.2759 11.5751 77.1773 29.7176 75.5775 45.7212C75.5026 45.7715 75.4526 45.7967 75.3776 45.8218C67.0786 50.6279 60.3545 62.3035 60.3545 71.8906C60.3545 77.4264 62.6042 81.0499 66.1038 82.1822L65.8538 82.3332L82.7516 92.1467L102.299 81.1002L88.3009 72.9726L134.12 46.3502C141.469 42.0726 147.793 33.2907 150.568 24.3579L164.816 13.9656Z" fill="#FFA9A2"/>
<path d="M151.768 15.1735C149.218 16.6581 146.819 18.6711 144.619 21.0364C141.369 10.3673 131.296 7.09617 119.372 14.016C105.899 21.8416 94.8004 39.9841 93.2006 55.9877C93.1256 56.038 93.0756 56.0631 93.0006 56.0883C84.7017 60.8944 77.9775 72.57 77.9775 82.1571C77.9775 91.7441 84.7017 95.594 93.0006 90.7628L151.768 56.6167C161.667 50.8544 169.716 36.9142 169.716 25.4651C169.716 14.016 161.692 9.41116 151.768 15.1735Z" fill="#FFA9A2"/>
<path d="M86.2516 90.2847C82.6771 90.2847 80.5273 87.2399 80.5273 82.157C80.5273 73.5513 86.8265 62.6306 94.2756 58.3026L95.4004 57.6484L95.7254 56.2393C97.2502 40.8144 107.949 23.603 120.622 16.2554C124.347 14.0914 127.996 12.9591 131.171 12.9591C136.52 12.9591 140.42 16.1045 142.169 21.8164L143.469 26.069L146.494 22.7726C148.594 20.508 150.793 18.6962 153.043 17.3878C155.443 15.9787 157.792 15.2489 159.817 15.2489C164.417 15.2489 167.166 19.0737 167.166 25.4651C167.166 36.0838 159.692 49.0427 150.493 54.4024L91.7259 88.5484C89.7762 89.6807 87.8764 90.2847 86.2516 90.2847Z" fill="#F8493B"/>
<mask id="mask0_1081_4172" style="mask-type:luminance" maskUnits="userSpaceOnUse" x="80" y="12" width="88" height="79">
<path d="M86.2516 90.2847C82.6771 90.2847 80.5273 87.2399 80.5273 82.157C80.5273 73.5513 86.8265 62.6306 94.2756 58.3026L95.4004 57.6484L95.7254 56.2393C97.2502 40.8144 107.949 23.603 120.622 16.2554C124.347 14.0914 127.996 12.9591 131.171 12.9591C136.52 12.9591 140.42 16.1045 142.169 21.8164L143.469 26.069L146.494 22.7726C148.594 20.508 150.793 18.6962 153.043 17.3878C155.443 15.9787 157.792 15.2489 159.817 15.2489C164.417 15.2489 167.166 19.0737 167.166 25.4651C167.166 36.0838 159.692 49.0427 150.493 54.4024L91.7259 88.5484C89.7762 89.6807 87.8764 90.2847 86.2516 90.2847Z" fill="white"/>
</mask>
<g mask="url(#mask0_1081_4172)">
<path d="M86.2516 90.2847C82.6771 90.2847 80.5273 87.2399 80.5273 82.157C80.5273 73.5513 86.8265 62.6306 94.2756 58.3026L95.4004 57.6484L95.7254 56.2393C97.2502 40.8144 107.949 23.603 120.622 16.2554C124.347 14.0914 127.996 12.9591 131.171 12.9591C136.52 12.9591 140.42 16.1045 142.169 21.8164L143.469 26.069L146.494 22.7726C148.594 20.508 150.793 18.6962 153.043 17.3878C155.443 15.9787 157.792 15.2489 159.817 15.2489C164.417 15.2489 167.166 19.0737 167.166 25.4651C167.166 36.0838 159.692 49.0427 150.493 54.4024L91.7259 88.5484C89.7762 89.6807 87.8764 90.2847 86.2516 90.2847Z" fill="#F8493B"/>
</g>
<path d="M105.899 197.126H104.524V141.416L121.572 131.527V84.0442H122.922V132.307L105.899 142.196V197.126Z" fill="black"/>
<path d="M105.225 199.089C106.357 199.089 107.274 198.165 107.274 197.026C107.274 195.886 106.357 194.962 105.225 194.962C104.093 194.962 103.175 195.886 103.175 197.026C103.175 198.165 104.093 199.089 105.225 199.089Z" fill="black"/>
<path d="M124.297 84.1449C124.297 83.0126 123.372 82.0815 122.247 82.0815C121.122 82.0815 120.197 83.0126 120.197 84.1449C120.197 85.2772 121.122 86.2083 122.247 86.2083C123.372 86.2083 124.297 85.2772 124.297 84.1449Z" fill="black"/>
<path d="M158.043 156.01H156.668V73.2745L147.569 69.0471L148.144 67.7889L158.043 72.3937V156.01Z" fill="black"/>
<path d="M159.392 155.909C159.392 157.042 158.468 157.973 157.343 157.973C156.218 157.973 155.293 157.042 155.293 155.909C155.293 154.777 156.218 153.846 157.343 153.846C158.493 153.846 159.392 154.777 159.392 155.909Z" fill="black"/>
<path d="M148.794 66.6063C147.769 66.1283 146.544 66.5812 146.069 67.6129C145.594 68.6445 146.044 69.8775 147.069 70.3556C148.094 70.8337 149.319 70.3808 149.794 69.3491C150.269 68.2923 149.819 67.0593 148.794 66.6063Z" fill="black"/>
<path d="M51.6311 109.811H50.2812V29.9943L70.6036 41.7957L69.9287 43.0035L51.6311 32.3596V109.811Z" fill="black"/>
<path d="M50.956 111.749C52.088 111.749 53.0057 110.825 53.0057 109.685C53.0057 108.546 52.088 107.622 50.956 107.622C49.8239 107.622 48.9062 108.546 48.9062 109.685C48.9062 110.825 49.8239 111.749 50.956 111.749Z" fill="black"/>
<path d="M69.1537 44.1359C70.1286 44.7146 71.3784 44.3623 71.9533 43.381C72.5283 42.3996 72.1783 41.1415 71.2034 40.5627C70.2285 39.984 68.9787 40.3363 68.4038 41.3176C67.8289 42.299 68.1788 43.5571 69.1537 44.1359Z" fill="black"/>
<path d="M2.76222 148.511L55.9054 117.058C56.6303 116.63 57.2802 116.555 57.6802 116.781L59.08 117.536L58.1301 118.241L58.3551 149.015C58.3551 150.097 57.3802 151.556 56.1554 152.286L3.03718 183.74C2.9372 183.815 2.81221 183.865 2.71222 183.916L2.76222 184.872C2.41226 184.671 1.38739 184.067 1.38739 184.067C1.03744 183.941 0.812468 183.614 0.812468 183.11L0.5625 151.783C0.5625 150.701 1.53737 149.241 2.76222 148.511Z" fill="#FFA9A2"/>
<path d="M3.8871 188.118L3.8621 185.753L5.63687 186.684L57.9302 155.733C59.155 155.004 61.0298 154.903 62.1046 155.532L92.5757 172.92L94.0755 171.737L94.1005 174.58C94.0255 175.008 93.7006 175.461 93.1006 175.813L39.9575 207.267C38.7326 207.997 36.8579 208.097 35.783 207.468L4.51202 189.603C4.13706 189.401 3.91209 189.124 3.81211 188.822C3.76211 188.596 3.78711 188.344 3.8871 188.118Z" fill="#FF4233"/>
<path d="M39.9077 204.549L93.0509 173.096C94.2758 172.366 94.4008 171.284 93.3259 170.68L62.0549 152.84C60.98 152.236 59.1053 152.311 57.8804 153.041L4.76224 184.494C3.5374 185.224 3.41242 186.306 4.48728 186.91L35.7583 204.751C36.8081 205.38 38.6829 205.279 39.9077 204.549Z" fill="#FFA9A2"/>
<path d="M75.8026 166.05L27.6088 194.56C26.8839 194.987 25.759 195.038 25.1341 194.685L9.21116 185.602C8.56124 185.224 8.63623 184.595 9.38613 184.167L57.53 155.633C58.2549 155.205 59.3797 155.154 60.0046 155.507L75.9276 164.591C76.6025 164.993 76.5275 165.622 75.8026 166.05Z" fill="#FF4233"/>
<path d="M45.2573 186.457L60.9553 177.172C61.8552 176.644 63.23 176.568 64.0049 177.021L71.504 181.299L62.6051 186.558L53.1313 192.169L45.0574 187.564C44.8324 187.438 44.7074 187.287 44.6074 187.137C44.7324 186.885 44.9324 186.658 45.2573 186.457Z" fill="#FFA9A2"/>
<path d="M72.9288 183.312L65.0798 187.967L63.2051 186.885L72.1039 181.626L73.1538 182.23C73.3788 182.356 73.5038 182.507 73.6037 182.658C73.4788 182.884 73.2538 183.11 72.9288 183.312Z" fill="#FFA9A2"/>
<path d="M63.2052 186.885L62.6303 187.237L64.5051 188.319L57.231 192.622C56.3311 193.15 54.9563 193.226 54.1814 192.773L53.7314 192.521L63.2052 186.885Z" fill="#FFA9A2"/>
<path d="M45.2571 185.778L60.9551 176.493C61.855 175.964 63.2298 175.889 64.0047 176.342L72.0787 180.946L71.5038 181.299L64.0047 177.021C63.2298 176.568 61.855 176.644 60.9551 177.172L45.2571 186.457C44.9322 186.658 44.7072 186.885 44.6072 187.111C44.3822 186.684 44.6072 186.155 45.2571 185.778Z" fill="#FF4233"/>
<path d="M73.5788 182.657C73.5038 182.507 73.3538 182.356 73.1289 182.23L72.079 181.626L63.1802 186.885L53.7064 192.496L53.1064 192.169L62.5802 186.558L71.5041 181.299L72.079 180.946L73.1289 181.55C73.6538 181.827 73.7788 182.255 73.5788 182.657Z" fill="#FF4233"/>
<path d="M65.0796 187.967L64.5046 188.294L62.6299 187.237L63.2048 186.885L65.0796 187.967Z" fill="#FF4233"/>
<path d="M9.88596 182.96L55.5051 155.985L54.1553 155.205L8.53613 182.205L9.88596 182.96Z" fill="black"/>
<path d="M14.3362 180.343L51.0564 158.602L49.7066 157.847L12.9863 179.562L14.3362 180.343Z" fill="#FF4233"/>
<path d="M4.66206 184.62L57.8052 153.167C59.0301 152.437 60.03 150.977 60.005 149.895L59.755 118.568C59.755 117.486 58.7551 117.209 57.5053 117.939L4.41209 149.392C3.18725 150.122 2.18738 151.581 2.21237 152.663L2.46234 183.991C2.43734 185.073 3.43722 185.35 4.66206 184.62Z" fill="#FFA9A2"/>
<path d="M3.43687 184.117C3.53686 184.117 3.81182 184.092 4.21177 183.84L57.3549 152.386C58.3798 151.783 59.1297 150.575 59.1297 149.921L58.8798 118.593C58.8798 118.517 58.8798 118.492 58.8548 118.467C58.6798 118.467 58.4048 118.492 57.9799 118.744L4.86169 150.197C3.83682 150.801 3.08691 152.009 3.08691 152.663L3.33688 183.991C3.33688 184.067 3.33688 184.092 3.36188 184.117C3.36188 184.117 3.38688 184.117 3.43687 184.117Z" fill="#1B1B1B"/>
<path d="M3.91211 154.727L4.11208 181.047C4.11208 181.374 4.18707 181.626 4.31206 181.827C4.63702 181.852 5.03697 181.752 5.46191 181.5L55.4555 151.934C56.6303 151.229 57.5802 149.694 57.5802 148.511L57.3802 122.191C57.3802 121.864 57.3053 121.612 57.1803 121.411C56.8553 121.386 56.4554 121.486 56.0054 121.738L6.01184 151.304C4.86199 152.009 3.91211 153.544 3.91211 154.727Z" fill="#FF4233"/>
<path d="M4.4374 182.054C3.98746 181.701 3.91247 181.399 3.91247 181.047L3.6875 154.727C3.6875 153.469 4.68737 151.833 5.91221 151.103L55.9058 121.537C56.3557 121.26 56.8057 121.134 57.2056 121.159C57.5306 121.512 57.6056 121.814 57.6056 122.166L57.8056 148.486C57.8056 149.744 56.8057 151.38 55.5558 152.11L5.56226 181.676C5.18731 181.928 4.78736 182.054 4.4374 182.054ZM57.0557 121.612C56.7807 121.612 56.4557 121.738 56.1308 121.914L6.13719 151.481C5.01233 152.135 4.11245 153.594 4.13744 154.702L4.33742 181.047C4.33742 181.274 4.38741 181.45 4.4624 181.601C4.73737 181.601 5.03733 181.475 5.36229 181.299L55.3559 151.732C56.4557 151.078 57.3806 149.619 57.3806 148.511L57.1806 122.191C57.1806 121.965 57.1306 121.763 57.0557 121.612Z" fill="#FF4233"/>
<path d="M29.9092 135.628C29.9092 136.257 30.4091 136.458 31.034 136.106C31.659 135.754 32.1339 134.949 32.1339 134.32C32.1339 133.691 31.634 133.489 31.009 133.841C30.4091 134.194 29.9092 134.999 29.9092 135.628Z" fill="#FF4233"/>
<path d="M30.2842 135.402C30.2842 135.653 30.4342 135.804 30.6341 135.829C30.7591 135.855 30.8841 135.829 31.0341 135.729C31.434 135.477 31.759 134.949 31.759 134.546C31.759 134.118 31.409 133.992 31.0091 134.244C30.5591 134.521 30.2842 134.999 30.2842 135.402Z" fill="#E7F1FA"/>
<path d="M30.2842 135.402C30.2842 135.653 30.4342 135.804 30.6341 135.829C31.0591 135.527 31.309 135.049 31.309 134.697C31.309 134.521 31.2341 134.395 31.1341 134.345C31.0841 134.32 31.0341 134.294 30.9841 134.294C30.5591 134.521 30.2842 134.999 30.2842 135.402Z" fill="#FAFCFF"/>
<path d="M30.5088 135.402C30.5088 135.578 30.5838 135.704 30.6838 135.754C31.0337 135.502 31.2837 135.024 31.2837 134.672C31.2837 134.496 31.2087 134.37 31.1087 134.32C30.7588 134.571 30.5088 135.024 30.5088 135.402Z" fill="black"/>
<path d="M88.8258 177.499L91.7504 175.763L91.7254 174.832L88.8008 176.568L88.8258 177.499Z" fill="#FF4233"/>
<path d="M31.1338 204.046L33.4585 205.38V204.6L31.1338 203.266V204.046Z" fill="#FF4233"/>
<path d="M26.8096 201.58L29.1593 202.914L29.1343 202.108L26.8096 200.775V201.58Z" fill="#FF4233"/>
<path d="M14.5862 184.142L11.7615 185.803L10.2617 184.947V184.243L14.5862 183.412V184.142Z" fill="#FF4233"/>
<path d="M18.1106 182.054L15.2859 183.739L13.7861 182.884V182.154L18.0856 181.349L18.1106 182.054Z" fill="#FF4233"/>
<path d="M60.2053 157.142L57.3807 158.803L55.9059 157.973L55.8809 157.243L60.2053 156.413V157.142Z" fill="#FF4233"/>
<path d="M17.5855 185.853L14.7608 187.514L12.2861 186.105V185.375L17.5855 185.123V185.853Z" fill="#FF4233"/>
<path d="M21.0855 183.765L18.2608 185.425L15.8111 184.016L15.7861 183.261L21.0855 183.035V183.765Z" fill="#FF4233"/>
<path d="M56.1812 163.005L53.3565 164.666L50.9068 163.257L50.8818 162.552L56.1812 162.276V163.005Z" fill="#FF4233"/>
<path d="M52.6812 165.069L49.8565 166.754L47.3818 165.345V164.616L52.6812 164.364V165.069Z" fill="#FF4233"/>
<path d="M49.1571 167.157L46.3325 168.818L43.8828 167.409V166.704L49.1571 166.427V167.157Z" fill="#FF4233"/>
<path d="M45.6567 169.221L42.8321 170.906L40.3574 169.497V168.768L45.6567 168.516V169.221Z" fill="#FF4233"/>
<path d="M42.1577 171.309L39.3331 172.97L36.8584 171.561V170.856L42.1327 170.579L42.1577 171.309Z" fill="#FF4233"/>
<path d="M38.6333 173.398L35.8087 175.058L33.359 173.649L33.334 172.919L38.6333 172.668V173.398Z" fill="#FF4233"/>
<path d="M35.1333 175.461L32.3087 177.122L29.834 175.713V175.008L35.1333 174.731V175.461Z" fill="#FF4233"/>
<path d="M31.6343 177.549L28.8096 179.21L26.335 177.801V177.071L31.6093 176.82L31.6343 177.549Z" fill="#FF4233"/>
<path d="M28.1099 179.613L25.2852 181.274L22.8105 179.864V179.16L28.1099 178.883V179.613Z" fill="#FF4233"/>
<path d="M24.6099 181.701L21.7852 183.362L19.3105 181.953V181.223L24.6099 180.972V181.701Z" fill="#FF4233"/>
<path d="M63.0551 158.048L63.2051 158.853L56.8809 162.603L54.4062 161.194V160.464L63.0551 158.048Z" fill="#FF4233"/>
<path d="M22.1602 185.753L22.1852 186.482L17.6358 189.15L15.1611 187.74V187.036L22.1602 185.753Z" fill="#FF4233"/>
<path d="M66.0796 159.784L60.7803 160.036V160.766L63.23 162.15C63.255 162.175 66.0796 160.489 66.0796 160.489V159.784Z" fill="#FF4233"/>
<path d="M25.8351 187.665L20.5108 190.81L18.0611 189.401L18.0361 188.671L25.8101 186.935L25.8351 187.665Z" fill="#FF4233"/>
<path d="M59.4556 167.031L54.1562 167.308L54.1812 168.013L56.6309 169.422L59.4556 167.761V167.031Z" fill="#FF4233"/>
<path d="M55.731 169.296L50.4316 169.548V170.277L52.9063 171.686L55.731 170.001V169.296Z" fill="#FF4233"/>
<path d="M51.981 171.536L46.6816 171.787L46.7066 172.517L49.1563 173.926L51.981 172.265V171.536Z" fill="#FF4233"/>
<path d="M48.2573 173.775L42.958 174.052V174.756L45.4327 176.165L48.2573 174.505V173.775Z" fill="#FF4233"/>
<path d="M44.5073 176.04L39.208 176.291L39.233 177.021L41.6827 178.43L44.5073 176.744V176.04Z" fill="#FF4233"/>
<path d="M40.7827 178.279L35.4834 178.531V179.261L37.9581 180.67L40.7827 179.009V178.279Z" fill="#FF4233"/>
<path d="M37.0337 180.519L31.7344 180.795L31.7594 181.5L34.2091 182.909L37.0337 181.248V180.519Z" fill="#FF4233"/>
<path d="M33.3091 182.783L28.0098 183.035V183.765L30.4845 185.174L33.3091 183.488V182.783Z" fill="#FF4233"/>
<path d="M29.5591 185.023L24.2598 185.199L24.2848 186.004L26.7345 187.413L29.5591 185.753V185.023Z" fill="#FF4233"/>
<path d="M63.23 164.817L57.9307 165.069V165.798L60.4053 167.208L63.23 165.522V164.817Z" fill="#FF4233"/>
<path d="M68.9539 161.42V162.15L63.8546 165.169L61.3799 163.76V163.03L68.9539 161.42Z" fill="#FF4233"/>
<path d="M29.7344 188.697L23.4102 192.446L20.9355 191.037V190.307L29.7344 187.967V188.697Z" fill="#FF4233"/>
<path d="M33.2339 186.633L30.4093 188.294L27.9596 186.885L27.9346 186.155L33.2339 185.904V186.633Z" fill="#FF4233"/>
<path d="M64.8296 167.208L59.5303 167.484V168.189L62.005 169.598L64.8296 167.937V167.208Z" fill="#FF4233"/>
<path d="M61.3052 169.296L56.0059 169.548L56.0309 170.277L58.4805 171.686L61.3052 170.001V169.296Z" fill="#FF4233"/>
<path d="M57.7802 171.359L52.5059 171.636V172.341L54.9805 173.75L57.8052 172.089L57.7802 171.359Z" fill="#FF4233"/>
<path d="M54.2808 173.448L48.9814 173.7V174.429L51.4561 175.838L54.2808 174.152V173.448Z" fill="#FF4233"/>
<path d="M50.7567 175.511L45.4824 175.788V176.493L47.9571 177.902L50.7817 176.241L50.7567 175.511Z" fill="#FF4233"/>
<path d="M47.2573 177.6L42.058 177.927L41.958 178.581L44.4327 179.99L47.2573 178.304V177.6Z" fill="#FF4233"/>
<path d="M43.7329 179.663L38.4336 179.94L38.4586 180.644L40.9083 182.054L43.7329 180.393V179.663Z" fill="#FF4233"/>
<path d="M40.2329 181.752L34.9336 182.003V182.733L37.4083 184.142L40.2329 182.481V181.752Z" fill="#FF4233"/>
<path d="M36.7079 183.815L31.5086 184.041L31.4336 184.796L33.8833 186.205L36.7079 184.545V183.815Z" fill="#FF4233"/>
<path d="M71.8536 163.785L65.7544 167.384L63.3047 165.974V165.245L71.8286 163.056L71.8536 163.785Z" fill="#FF4233"/>
<path d="M23.8096 192.672L26.2843 194.081L29.1089 192.421L29.0839 191.691L23.8096 191.968V192.672Z" fill="#FF4233"/>
<path d="M27.3096 190.609L29.7843 192.018L32.6089 190.332V189.628L27.3096 189.879V190.609Z" fill="#FF4233"/>
<path d="M30.834 188.52L33.3087 189.93L36.1083 188.269V187.539L30.834 187.816V188.52Z" fill="#FF4233"/>
<path d="M34.3336 186.482L36.7833 187.891L39.6079 186.231L39.6579 185.526L34.3086 185.778L34.3336 186.482Z" fill="#FF4233"/>
<path d="M64.1796 170.932L64.2046 171.661L40.3077 185.778L37.858 184.369L37.833 183.664L64.1796 170.932Z" fill="#FF4233"/>
<path d="M67.7042 169.573L64.8795 171.259L63.5797 170.504L63.5547 169.774L67.7042 168.868V169.573Z" fill="#FF4233"/>
<path d="M71.2036 167.509L68.379 169.17L65.9293 167.761L65.9043 167.031L71.2036 166.78V167.509Z" fill="#FF4233"/>
<path d="M74.7286 165.421L71.9039 167.107L70.5791 166.352V165.622L74.7286 164.716V165.421Z" fill="#FF4233"/>
<path d="M62.3804 161.974L57.0811 162.225V162.955L59.5307 164.339C59.5557 164.364 62.3804 162.678 62.3804 162.678V161.974Z" fill="#FF4233"/>
<path d="M58.6802 164.163L53.3809 164.414V165.144L55.8305 166.528C55.8555 166.553 58.6802 164.867 58.6802 164.867V164.163Z" fill="#FF4233"/>
<path d="M54.981 166.352L49.6816 166.604V167.333L52.1563 168.717C52.1813 168.742 55.006 167.056 55.006 167.056L54.981 166.352Z" fill="#FF4233"/>
<path d="M51.3062 168.541L46.0068 168.793V169.522L48.4565 170.906C48.4815 170.932 51.3062 169.246 51.3062 169.246V168.541Z" fill="#FF4233"/>
<path d="M47.6069 170.73L42.3076 170.982V171.712L44.7573 173.096C44.7823 173.121 47.6069 171.435 47.6069 171.435V170.73Z" fill="#FF4233"/>
<path d="M43.9077 172.919L38.6084 173.07V173.901L41.0581 175.285C41.0831 175.31 43.9077 173.624 43.9077 173.624V172.919Z" fill="#FF4233"/>
<path d="M40.2075 175.109L34.9082 175.36V176.09L37.3579 177.474C37.3829 177.499 40.2075 175.813 40.2075 175.813V175.109Z" fill="#FF4233"/>
<path d="M36.5083 177.298L31.209 177.549V178.279L33.6587 179.663C33.6837 179.688 36.5083 178.002 36.5083 178.002V177.298Z" fill="#FF4233"/>
<path d="M32.8091 179.487L27.5098 179.739V180.468L29.9595 181.852C29.9844 181.877 32.8091 180.191 32.8091 180.191V179.487Z" fill="#FF4233"/>
<path d="M29.1343 181.676L23.835 181.928V182.657L26.2846 184.041C26.3096 184.067 29.1343 182.381 29.1343 182.381V181.676Z" fill="#FF4233"/>
<path d="M25.4351 183.84L20.1357 184.092V184.821L22.5854 186.205C22.6104 186.231 25.4351 184.545 25.4351 184.545V183.84Z" fill="#FF4233"/>
<path d="M56.7053 159.231L53.8807 160.892L52.3809 160.036V159.306L56.7053 158.501V159.231Z" fill="#FF4233"/>
<path d="M53.1809 161.294L50.3563 162.98L48.8564 162.125V161.395L53.1809 160.564V161.294Z" fill="#FF4233"/>
<path d="M49.6819 163.383L46.8572 165.043L45.3574 164.188V163.458L49.6569 162.653L49.6819 163.383Z" fill="#FF4233"/>
<path d="M46.1567 165.446L43.332 167.132L41.8322 166.276L41.7822 165.522L46.1567 164.716V165.446Z" fill="#FF4233"/>
<path d="M42.633 167.535L39.8084 169.195L38.3336 168.34L38.3086 167.61L42.633 166.805V167.535Z" fill="#FF4233"/>
<path d="M39.133 169.598L36.3084 171.284L34.8086 170.428V169.699L39.133 168.868V169.598Z" fill="#FF4233"/>
<path d="M35.6086 171.687L32.784 173.347L31.3092 172.492L31.2842 171.762L35.6086 170.957V171.687Z" fill="#FF4233"/>
<path d="M32.1086 173.75L29.284 175.436L27.7842 174.58V173.851L32.1086 173.02V173.75Z" fill="#FF4233"/>
<path d="M28.5842 175.838L25.7596 177.499L24.2598 176.644V175.914L28.5842 175.109V175.838Z" fill="#FF4233"/>
<path d="M25.0852 177.902L22.2606 179.588L20.7607 178.732V178.002L25.0602 177.197L25.0852 177.902Z" fill="#FF4233"/>
<path d="M21.56 179.99L18.7353 181.651L17.2355 180.795L17.1855 180.116L21.56 179.26V179.99Z" fill="#FF4233"/>
<path d="M14.5862 183.412L11.7615 185.073L10.2617 184.243L13.0864 182.557L14.5862 183.412Z" fill="url(#paint0_linear_1081_4172)"/>
<path d="M18.0856 181.349L15.2609 183.01L13.7861 182.154L16.6108 180.494L18.0856 181.349Z" fill="url(#paint1_linear_1081_4172)"/>
<path d="M60.2053 156.413L57.3807 158.099L55.8809 157.243L58.7055 155.557L60.2053 156.413Z" fill="url(#paint2_linear_1081_4172)"/>
<path d="M17.5855 185.123L14.7608 186.784L12.2861 185.375L15.1108 183.714L17.5855 185.123Z" fill="url(#paint3_linear_1081_4172)"/>
<path d="M21.0855 183.035L18.2608 184.721L15.7861 183.312L18.6108 181.626L21.0855 183.035Z" fill="url(#paint4_linear_1081_4172)"/>
<path d="M56.1812 162.276L53.3565 163.961L50.8818 162.552L53.7065 160.866L56.1812 162.276Z" fill="url(#paint5_linear_1081_4172)"/>
<path d="M52.6812 164.364L49.8565 166.025L47.3818 164.616L50.2065 162.955L52.6812 164.364Z" fill="url(#paint6_linear_1081_4172)"/>
<path d="M49.1571 166.427L46.3325 168.113L43.8828 166.704L46.7074 165.018L49.1571 166.427Z" fill="url(#paint7_linear_1081_4172)"/>
<path d="M45.6567 168.516L42.8321 170.177L40.3574 168.768L43.1821 167.107L45.6567 168.516Z" fill="url(#paint8_linear_1081_4172)"/>
<path d="M42.1327 170.579L39.3081 172.265L36.8584 170.856L39.683 169.17L42.1327 170.579Z" fill="url(#paint9_linear_1081_4172)"/>
<path d="M38.6333 172.668L35.8087 174.329L33.334 172.92L36.1586 171.259L38.6333 172.668Z" fill="url(#paint10_linear_1081_4172)"/>
<path d="M35.1333 174.731L32.3087 176.417L29.834 175.008L32.6586 173.322L35.1333 174.731Z" fill="url(#paint11_linear_1081_4172)"/>
<path d="M31.6093 176.82L28.7846 178.481L26.335 177.071L29.1596 175.411L31.6093 176.82Z" fill="url(#paint12_linear_1081_4172)"/>
<path d="M28.1099 178.883L25.2852 180.569L22.8105 179.16L25.6352 177.474L28.1099 178.883Z" fill="url(#paint13_linear_1081_4172)"/>
<path d="M24.6099 180.972L21.7852 182.632L19.3105 181.223L22.1352 179.562L24.6099 180.972Z" fill="url(#paint14_linear_1081_4172)"/>
<path d="M60.7304 156.715L63.2051 158.124L56.8559 161.873L54.4062 160.464L60.7304 156.715Z" fill="url(#paint15_linear_1081_4172)"/>
<path d="M19.7105 184.344L22.1602 185.753L17.6358 188.445L15.1611 187.036L19.7105 184.344Z" fill="url(#paint16_linear_1081_4172)"/>
<path d="M63.6049 158.375L60.7803 160.036L63.23 161.42C63.255 161.445 66.0796 159.759 66.0796 159.759L63.6049 158.375Z" fill="url(#paint17_linear_1081_4172)"/>
<path d="M25.8101 186.935L20.5108 190.081L18.0361 188.671L23.3605 185.526L25.8101 186.935Z" fill="url(#paint18_linear_1081_4172)"/>
<path d="M56.9809 165.622L54.1562 167.308L56.6309 168.717L59.4556 167.031L56.9809 165.622Z" fill="url(#paint19_linear_1081_4172)"/>
<path d="M53.2563 167.887L50.4316 169.548L52.9063 170.957L55.731 169.296L53.2563 167.887Z" fill="url(#paint20_linear_1081_4172)"/>
<path d="M49.5063 170.126L46.6816 171.787L49.1563 173.196L51.981 171.536L49.5063 170.126Z" fill="url(#paint21_linear_1081_4172)"/>
<path d="M45.7826 172.366L42.958 174.052L45.4327 175.461L48.2573 173.775L45.7826 172.366Z" fill="url(#paint22_linear_1081_4172)"/>
<path d="M42.0326 174.631L39.208 176.291L41.6827 177.7L44.5073 176.04L42.0326 174.631Z" fill="url(#paint23_linear_1081_4172)"/>
<path d="M38.308 176.87L35.4834 178.531L37.9581 179.94L40.7827 178.279L38.308 176.87Z" fill="url(#paint24_linear_1081_4172)"/>
<path d="M34.559 179.11L31.7344 180.796L34.2091 182.205L37.0337 180.519L34.559 179.11Z" fill="url(#paint25_linear_1081_4172)"/>
<path d="M30.8344 181.374L28.0098 183.035L30.4845 184.444L33.3091 182.783L30.8344 181.374Z" fill="url(#paint26_linear_1081_4172)"/>
<path d="M27.0844 183.614L24.2598 185.275L26.7345 186.684L29.5591 185.023L27.0844 183.614Z" fill="url(#paint27_linear_1081_4172)"/>
<path d="M60.7553 163.408L57.9307 165.069L60.4053 166.478L63.23 164.817L60.7553 163.408Z" fill="url(#paint28_linear_1081_4172)"/>
<path d="M66.4792 160.011L68.9539 161.42L63.8546 164.44L61.3799 163.031L66.4792 160.011Z" fill="url(#paint29_linear_1081_4172)"/>
<path d="M29.7344 187.967L23.3852 191.716L20.9355 190.307L27.2597 186.558L29.7344 187.967Z" fill="url(#paint30_linear_1081_4172)"/>
<path d="M33.2339 185.904L30.4093 187.564L27.9346 186.155L30.7592 184.494L33.2339 185.904Z" fill="url(#paint31_linear_1081_4172)"/>
<path d="M62.3549 165.798L59.5303 167.484L62.005 168.894L64.8296 167.208L62.3549 165.798Z" fill="url(#paint32_linear_1081_4172)"/>
<path d="M58.8305 167.887L56.0059 169.548L58.4805 170.957L61.3052 169.296L58.8305 167.887Z" fill="url(#paint33_linear_1081_4172)"/>
<path d="M55.3305 169.95L52.5059 171.636L54.9555 173.045L57.7802 171.359L55.3305 169.95Z" fill="url(#paint34_linear_1081_4172)"/>
<path d="M51.8061 172.039L48.9814 173.7L51.4561 175.109L54.2808 173.448L51.8061 172.039Z" fill="url(#paint35_linear_1081_4172)"/>
<path d="M48.3071 174.102L45.4824 175.788L47.9321 177.197L50.7567 175.511L48.3071 174.102Z" fill="url(#paint36_linear_1081_4172)"/>
<path d="M44.7826 176.191L41.958 177.851L44.4327 179.261L47.2573 177.6L44.7826 176.191Z" fill="url(#paint37_linear_1081_4172)"/>
<path d="M41.2582 178.254L38.4336 179.94L40.9083 181.349L43.7329 179.663L41.2582 178.254Z" fill="url(#paint38_linear_1081_4172)"/>
<path d="M37.7582 180.343L34.9336 182.003L37.4083 183.412L40.2329 181.752L37.7582 180.343Z" fill="url(#paint39_linear_1081_4172)"/>
<path d="M34.2338 182.406L31.4092 184.092L33.8839 185.501L36.7085 183.815L34.2338 182.406Z" fill="url(#paint40_linear_1081_4172)"/>
<path d="M71.8286 163.056L65.7544 166.654L63.3047 165.245L69.3789 161.647L71.8286 163.056Z" fill="url(#paint41_linear_1081_4172)"/>
<path d="M23.8096 191.968L26.2843 193.377L29.1089 191.716L26.6342 190.307C26.5842 190.307 23.8096 191.968 23.8096 191.968Z" fill="url(#paint42_linear_1081_4172)"/>
<path d="M27.3096 189.879L29.7843 191.288L32.6089 189.628L30.1342 188.219C30.1092 188.244 27.3096 189.879 27.3096 189.879Z" fill="url(#paint43_linear_1081_4172)"/>
<path d="M30.834 187.816L33.3087 189.225L36.1333 187.564L33.6586 186.155C33.6086 186.155 30.834 187.816 30.834 187.816Z" fill="url(#paint44_linear_1081_4172)"/>
<path d="M34.3086 185.778L36.7833 187.187L39.6079 185.526L37.1332 184.117C37.1082 184.117 34.3086 185.778 34.3086 185.778Z" fill="url(#paint45_linear_1081_4172)"/>
<path d="M61.7299 169.523L64.1796 170.932L40.3077 185.073L37.833 183.664L61.7299 169.523Z" fill="url(#paint46_linear_1081_4172)"/>
<path d="M67.7042 168.868L64.8795 170.529L63.5547 169.774L66.3793 168.113L67.7042 168.868Z" fill="url(#paint47_linear_1081_4172)"/>
<path d="M71.2036 166.78L68.379 168.44L65.9043 167.031L68.7289 165.371L71.2036 166.78Z" fill="url(#paint48_linear_1081_4172)"/>
<path d="M74.7286 164.716L71.9039 166.377L70.5791 165.622L73.4037 163.962L74.7286 164.716Z" fill="url(#paint49_linear_1081_4172)"/>
<path d="M59.9057 160.565L57.0811 162.225L59.5307 163.609C59.5557 163.634 62.3804 161.949 62.3804 161.949L59.9057 160.565Z" fill="url(#paint50_linear_1081_4172)"/>
<path d="M56.2309 162.754L53.4062 164.414L55.8559 165.798C55.8809 165.824 58.7056 164.138 58.7056 164.138L56.2309 162.754Z" fill="url(#paint51_linear_1081_4172)"/>
<path d="M52.5317 164.943L49.707 166.604L52.1567 167.988C52.1817 168.013 55.0064 166.327 55.0064 166.327L52.5317 164.943Z" fill="url(#paint52_linear_1081_4172)"/>
<path d="M48.8315 167.132L46.0068 168.793L48.4565 170.177C48.4815 170.202 51.3062 168.516 51.3062 168.516L48.8315 167.132Z" fill="url(#paint53_linear_1081_4172)"/>
<path d="M45.1323 169.321L42.3076 170.982L44.7573 172.366C44.7823 172.391 47.6069 170.705 47.6069 170.705L45.1323 169.321Z" fill="url(#paint54_linear_1081_4172)"/>
<path d="M41.433 171.51L38.6084 173.171L41.0581 174.555C41.0831 174.58 43.9077 172.894 43.9077 172.894L41.433 171.51Z" fill="url(#paint55_linear_1081_4172)"/>
<path d="M37.7328 173.7L34.9082 175.36L37.3579 176.744C37.3829 176.769 40.2075 175.084 40.2075 175.084L37.7328 173.7Z" fill="url(#paint56_linear_1081_4172)"/>
<path d="M34.059 175.889L31.2344 177.55L33.6841 178.934C33.7091 178.959 36.5337 177.273 36.5337 177.273L34.059 175.889Z" fill="url(#paint57_linear_1081_4172)"/>
<path d="M30.3588 178.078L27.5342 179.739L29.9839 181.123C30.0089 181.148 32.8335 179.462 32.8335 179.462L30.3588 178.078Z" fill="url(#paint58_linear_1081_4172)"/>
<path d="M26.6596 180.267L23.835 181.928L26.2846 183.312C26.3096 183.337 29.1343 181.651 29.1343 181.651L26.6596 180.267Z" fill="url(#paint59_linear_1081_4172)"/>
<path d="M22.9604 182.456L20.1357 184.117L22.5854 185.501C22.6104 185.526 25.4351 183.84 25.4351 183.84L22.9604 182.456Z" fill="url(#paint60_linear_1081_4172)"/>
<path d="M56.7053 158.501L53.8807 160.162L52.3809 159.306L55.2055 157.646L56.7053 158.501Z" fill="url(#paint61_linear_1081_4172)"/>
<path d="M53.1809 160.565L50.3563 162.25L48.8564 161.395L51.6811 159.709L53.1809 160.565Z" fill="url(#paint62_linear_1081_4172)"/>
<path d="M49.6569 162.653L46.8322 164.314L45.3574 163.458L48.1821 161.797L49.6569 162.653Z" fill="url(#paint63_linear_1081_4172)"/>
<path d="M46.1575 164.716L43.3328 166.402L41.833 165.547L44.6576 163.886L46.1575 164.716Z" fill="url(#paint64_linear_1081_4172)"/>
<path d="M42.633 166.805L39.8084 168.466L38.3086 167.61L41.1332 165.949L42.633 166.805Z" fill="url(#paint65_linear_1081_4172)"/>
<path d="M39.133 168.868L36.3084 170.554L34.8086 169.699L37.6332 168.038L39.133 168.868Z" fill="#212121" fill-opacity="0.9"/>
<path d="M35.6086 170.957L32.784 172.618L31.2842 171.762L34.1088 170.101L35.6086 170.957Z" fill="url(#paint66_linear_1081_4172)"/>
<path d="M32.1086 173.02L29.284 174.706L27.7842 173.851L30.6088 172.19L32.1086 173.02Z" fill="url(#paint67_linear_1081_4172)"/>
<path d="M28.5842 175.109L25.7596 176.769L24.2598 175.914L27.0844 174.253L28.5842 175.109Z" fill="url(#paint68_linear_1081_4172)"/>
<path d="M25.0602 177.197L22.2356 178.858L20.7607 178.002L23.5854 176.342L25.0602 177.197Z" fill="url(#paint69_linear_1081_4172)"/>
<path d="M21.5598 179.261L18.7352 180.921L17.2354 180.091L20.06 178.405L21.5598 179.261Z" fill="url(#paint70_linear_1081_4172)"/>
</g>
<defs>
<linearGradient id="paint0_linear_1081_4172" x1="12.4369" y1="185.079" x2="12.4174" y2="182.565" gradientUnits="userSpaceOnUse">
<stop stop-color="#02498A"/>
<stop offset="1" stop-color="#023386"/>
</linearGradient>
<linearGradient id="paint1_linear_1081_4172" x1="15.946" y1="183.003" x2="15.9264" y2="180.489" gradientUnits="userSpaceOnUse">
<stop stop-color="#02498A"/>
<stop offset="1" stop-color="#023386"/>
</linearGradient>
<linearGradient id="paint2_linear_1081_4172" x1="58.0583" y1="158.089" x2="58.0388" y2="155.574" gradientUnits="userSpaceOnUse">
<stop stop-color="#02498A"/>
<stop offset="1" stop-color="#023386"/>
</linearGradient>
<linearGradient id="paint3_linear_1081_4172" x1="14.9442" y1="186.791" x2="14.9202" y2="183.714" gradientUnits="userSpaceOnUse">
<stop stop-color="#02498A"/>
<stop offset="1" stop-color="#023386"/>
</linearGradient>
<linearGradient id="paint4_linear_1081_4172" x1="18.4538" y1="184.714" x2="18.4299" y2="181.637" gradientUnits="userSpaceOnUse">
<stop stop-color="#02498A"/>
<stop offset="1" stop-color="#023386"/>
</linearGradient>
<linearGradient id="paint5_linear_1081_4172" x1="53.5475" y1="163.953" x2="53.5235" y2="160.875" gradientUnits="userSpaceOnUse">
<stop stop-color="#02498A"/>
<stop offset="1" stop-color="#023386"/>
</linearGradient>
<linearGradient id="paint6_linear_1081_4172" x1="50.0374" y1="166.029" x2="50.0135" y2="162.952" gradientUnits="userSpaceOnUse">
<stop stop-color="#02498A"/>
<stop offset="1" stop-color="#023386"/>
</linearGradient>
<linearGradient id="paint7_linear_1081_4172" x1="46.5288" y1="168.105" x2="46.5048" y2="165.028" gradientUnits="userSpaceOnUse">
<stop stop-color="#02498A"/>
<stop offset="1" stop-color="#023386"/>
</linearGradient>
<linearGradient id="paint8_linear_1081_4172" x1="43.0188" y1="170.181" x2="42.9948" y2="167.104" gradientUnits="userSpaceOnUse">
<stop stop-color="#02498A"/>
<stop offset="1" stop-color="#023386"/>
</linearGradient>
<linearGradient id="paint9_linear_1081_4172" x1="39.5097" y1="172.257" x2="39.4857" y2="169.18" gradientUnits="userSpaceOnUse">
<stop stop-color="#02498A"/>
<stop offset="1" stop-color="#023386"/>
</linearGradient>
<linearGradient id="paint10_linear_1081_4172" x1="36.0007" y1="174.334" x2="35.9767" y2="171.256" gradientUnits="userSpaceOnUse">
<stop stop-color="#02498A"/>
<stop offset="1" stop-color="#023386"/>
</linearGradient>
<linearGradient id="paint11_linear_1081_4172" x1="32.4906" y1="176.41" x2="32.4666" y2="173.333" gradientUnits="userSpaceOnUse">
<stop stop-color="#02498A"/>
<stop offset="1" stop-color="#023386"/>
</linearGradient>
<linearGradient id="paint12_linear_1081_4172" x1="28.982" y1="178.486" x2="28.958" y2="175.409" gradientUnits="userSpaceOnUse">
<stop stop-color="#02498A"/>
<stop offset="1" stop-color="#023386"/>
</linearGradient>
<linearGradient id="paint13_linear_1081_4172" x1="25.4729" y1="180.562" x2="25.449" y2="177.485" gradientUnits="userSpaceOnUse">
<stop stop-color="#02498A"/>
<stop offset="1" stop-color="#023386"/>
</linearGradient>
<linearGradient id="paint14_linear_1081_4172" x1="21.9629" y1="182.638" x2="21.9389" y2="179.562" gradientUnits="userSpaceOnUse">
<stop stop-color="#02498A"/>
<stop offset="1" stop-color="#023386"/>
</linearGradient>
<linearGradient id="paint15_linear_1081_4172" x1="58.819" y1="161.863" x2="58.7791" y2="156.737" gradientUnits="userSpaceOnUse">
<stop stop-color="#02498A"/>
<stop offset="1" stop-color="#023386"/>
</linearGradient>
<linearGradient id="paint16_linear_1081_4172" x1="18.6834" y1="188.428" x2="18.6516" y2="184.352" gradientUnits="userSpaceOnUse">
<stop stop-color="#02498A"/>
<stop offset="1" stop-color="#023386"/>
</linearGradient>
<linearGradient id="paint17_linear_1081_4172" x1="63.4453" y1="161.428" x2="63.4214" y2="158.367" gradientUnits="userSpaceOnUse">
<stop stop-color="#02498A"/>
<stop offset="1" stop-color="#023386"/>
</linearGradient>
<linearGradient id="paint18_linear_1081_4172" x1="21.9502" y1="190.068" x2="21.915" y2="185.542" gradientUnits="userSpaceOnUse">
<stop stop-color="#02498A"/>
<stop offset="1" stop-color="#023386"/>
</linearGradient>
<linearGradient id="paint19_linear_1081_4172" x1="56.8241" y1="168.708" x2="56.8001" y2="165.631" gradientUnits="userSpaceOnUse">
<stop stop-color="#02498A"/>
<stop offset="1" stop-color="#023386"/>
</linearGradient>
<linearGradient id="paint20_linear_1081_4172" x1="53.0867" y1="170.956" x2="53.0627" y2="167.879" gradientUnits="userSpaceOnUse">
<stop stop-color="#02498A"/>
<stop offset="1" stop-color="#023386"/>
</linearGradient>
<linearGradient id="paint21_linear_1081_4172" x1="49.3489" y1="173.204" x2="49.3249" y2="170.127" gradientUnits="userSpaceOnUse">
<stop stop-color="#02498A"/>
<stop offset="1" stop-color="#023386"/>
</linearGradient>
<linearGradient id="paint22_linear_1081_4172" x1="45.6124" y1="175.452" x2="45.5885" y2="172.375" gradientUnits="userSpaceOnUse">
<stop stop-color="#02498A"/>
<stop offset="1" stop-color="#023386"/>
</linearGradient>
<linearGradient id="paint23_linear_1081_4172" x1="41.8746" y1="177.699" x2="41.8507" y2="174.622" gradientUnits="userSpaceOnUse">
<stop stop-color="#02498A"/>
<stop offset="1" stop-color="#023386"/>
</linearGradient>
<linearGradient id="paint24_linear_1081_4172" x1="38.1372" y1="179.947" x2="38.1133" y2="176.87" gradientUnits="userSpaceOnUse">
<stop stop-color="#02498A"/>
<stop offset="1" stop-color="#023386"/>
</linearGradient>
<linearGradient id="paint25_linear_1081_4172" x1="34.4004" y1="182.194" x2="34.3764" y2="179.117" gradientUnits="userSpaceOnUse">
<stop stop-color="#02498A"/>
<stop offset="1" stop-color="#023386"/>
</linearGradient>
<linearGradient id="paint26_linear_1081_4172" x1="30.663" y1="184.442" x2="30.639" y2="181.365" gradientUnits="userSpaceOnUse">
<stop stop-color="#02498A"/>
<stop offset="1" stop-color="#023386"/>
</linearGradient>
<linearGradient id="paint27_linear_1081_4172" x1="26.9252" y1="186.689" x2="26.9012" y2="183.612" gradientUnits="userSpaceOnUse">
<stop stop-color="#02498A"/>
<stop offset="1" stop-color="#023386"/>
</linearGradient>
<linearGradient id="paint28_linear_1081_4172" x1="60.59" y1="166.48" x2="60.566" y2="163.403" gradientUnits="userSpaceOnUse">
<stop stop-color="#02498A"/>
<stop offset="1" stop-color="#023386"/>
</linearGradient>
<linearGradient id="paint29_linear_1081_4172" x1="65.1858" y1="164.432" x2="65.1514" y2="160.019" gradientUnits="userSpaceOnUse">
<stop stop-color="#02498A"/>
<stop offset="1" stop-color="#023386"/>
</linearGradient>
<linearGradient id="paint30_linear_1081_4172" x1="25.3455" y1="191.708" x2="25.3056" y2="186.582" gradientUnits="userSpaceOnUse">
<stop stop-color="#02498A"/>
<stop offset="1" stop-color="#023386"/>
</linearGradient>
<linearGradient id="paint31_linear_1081_4172" x1="30.6013" y1="187.569" x2="30.5773" y2="184.492" gradientUnits="userSpaceOnUse">
<stop stop-color="#02498A"/>
<stop offset="1" stop-color="#023386"/>
</linearGradient>
<linearGradient id="paint32_linear_1081_4172" x1="62.1853" y1="168.884" x2="62.1613" y2="165.807" gradientUnits="userSpaceOnUse">
<stop stop-color="#02498A"/>
<stop offset="1" stop-color="#023386"/>
</linearGradient>
<linearGradient id="paint33_linear_1081_4172" x1="58.6715" y1="170.96" x2="58.6475" y2="167.883" gradientUnits="userSpaceOnUse">
<stop stop-color="#02498A"/>
<stop offset="1" stop-color="#023386"/>
</linearGradient>
<linearGradient id="paint34_linear_1081_4172" x1="55.1576" y1="173.036" x2="55.1336" y2="169.959" gradientUnits="userSpaceOnUse">
<stop stop-color="#02498A"/>
<stop offset="1" stop-color="#023386"/>
</linearGradient>
<linearGradient id="paint35_linear_1081_4172" x1="51.6438" y1="175.113" x2="51.6198" y2="172.035" gradientUnits="userSpaceOnUse">
<stop stop-color="#02498A"/>
<stop offset="1" stop-color="#023386"/>
</linearGradient>
<linearGradient id="paint36_linear_1081_4172" x1="48.1303" y1="177.189" x2="48.1064" y2="174.112" gradientUnits="userSpaceOnUse">
<stop stop-color="#02498A"/>
<stop offset="1" stop-color="#023386"/>
</linearGradient>
<linearGradient id="paint37_linear_1081_4172" x1="44.6165" y1="179.265" x2="44.5926" y2="176.188" gradientUnits="userSpaceOnUse">
<stop stop-color="#02498A"/>
<stop offset="1" stop-color="#023386"/>
</linearGradient>
<linearGradient id="paint38_linear_1081_4172" x1="41.1027" y1="181.341" x2="41.0788" y2="178.264" gradientUnits="userSpaceOnUse">
<stop stop-color="#02498A"/>
<stop offset="1" stop-color="#023386"/>
</linearGradient>
<linearGradient id="paint39_linear_1081_4172" x1="37.5888" y1="183.417" x2="37.5648" y2="180.34" gradientUnits="userSpaceOnUse">
<stop stop-color="#02498A"/>
<stop offset="1" stop-color="#023386"/>
</linearGradient>
<linearGradient id="paint40_linear_1081_4172" x1="34.075" y1="185.493" x2="34.051" y2="182.416" gradientUnits="userSpaceOnUse">
<stop stop-color="#02498A"/>
<stop offset="1" stop-color="#023386"/>
</linearGradient>
<linearGradient id="paint41_linear_1081_4172" x1="67.5852" y1="166.643" x2="67.5464" y2="161.667" gradientUnits="userSpaceOnUse">
<stop stop-color="#02498A"/>
<stop offset="1" stop-color="#023386"/>
</linearGradient>
<linearGradient id="paint42_linear_1081_4172" x1="26.4614" y1="193.366" x2="26.4374" y2="190.289" gradientUnits="userSpaceOnUse">
<stop stop-color="#02498A"/>
<stop offset="1" stop-color="#023386"/>
</linearGradient>
<linearGradient id="paint43_linear_1081_4172" x1="29.9714" y1="191.29" x2="29.9475" y2="188.212" gradientUnits="userSpaceOnUse">
<stop stop-color="#02498A"/>
<stop offset="1" stop-color="#023386"/>
</linearGradient>
<linearGradient id="paint44_linear_1081_4172" x1="33.4805" y1="189.213" x2="33.4565" y2="186.136" gradientUnits="userSpaceOnUse">
<stop stop-color="#02498A"/>
<stop offset="1" stop-color="#023386"/>
</linearGradient>
<linearGradient id="paint45_linear_1081_4172" x1="36.977" y1="187.177" x2="36.9531" y2="184.099" gradientUnits="userSpaceOnUse">
<stop stop-color="#02498A"/>
<stop offset="1" stop-color="#023386"/>
</linearGradient>
<linearGradient id="paint46_linear_1081_4172" x1="51.0751" y1="184.979" x2="50.9554" y2="169.609" gradientUnits="userSpaceOnUse">
<stop stop-color="#02498A"/>
<stop offset="1" stop-color="#023386"/>
</linearGradient>
<linearGradient id="paint47_linear_1081_4172" x1="65.6418" y1="170.523" x2="65.623" y2="168.117" gradientUnits="userSpaceOnUse">
<stop stop-color="#02498A"/>
<stop offset="1" stop-color="#023386"/>
</linearGradient>
<linearGradient id="paint48_linear_1081_4172" x1="68.5737" y1="168.451" x2="68.5498" y2="165.374" gradientUnits="userSpaceOnUse">
<stop stop-color="#02498A"/>
<stop offset="1" stop-color="#023386"/>
</linearGradient>
<linearGradient id="paint49_linear_1081_4172" x1="72.6609" y1="166.37" x2="72.6421" y2="163.964" gradientUnits="userSpaceOnUse">
<stop stop-color="#02498A"/>
<stop offset="1" stop-color="#023386"/>
</linearGradient>
<linearGradient id="paint50_linear_1081_4172" x1="59.7498" y1="163.617" x2="59.726" y2="160.556" gradientUnits="userSpaceOnUse">
<stop stop-color="#02498A"/>
<stop offset="1" stop-color="#023386"/>
</linearGradient>
<linearGradient id="paint51_linear_1081_4172" x1="56.0538" y1="165.806" x2="56.0299" y2="162.745" gradientUnits="userSpaceOnUse">
<stop stop-color="#02498A"/>
<stop offset="1" stop-color="#023386"/>
</linearGradient>
<linearGradient id="paint52_linear_1081_4172" x1="52.3587" y1="167.995" x2="52.3349" y2="164.934" gradientUnits="userSpaceOnUse">
<stop stop-color="#02498A"/>
<stop offset="1" stop-color="#023386"/>
</linearGradient>
<linearGradient id="paint53_linear_1081_4172" x1="48.6623" y1="170.184" x2="48.6384" y2="167.122" gradientUnits="userSpaceOnUse">
<stop stop-color="#02498A"/>
<stop offset="1" stop-color="#023386"/>
</linearGradient>
<linearGradient id="paint54_linear_1081_4172" x1="44.9668" y1="172.373" x2="44.943" y2="169.312" gradientUnits="userSpaceOnUse">
<stop stop-color="#02498A"/>
<stop offset="1" stop-color="#023386"/>
</linearGradient>
<linearGradient id="paint55_linear_1081_4172" x1="41.2718" y1="174.562" x2="41.2479" y2="171.501" gradientUnits="userSpaceOnUse">
<stop stop-color="#02498A"/>
<stop offset="1" stop-color="#023386"/>
</linearGradient>
<linearGradient id="paint56_linear_1081_4172" x1="37.5753" y1="176.751" x2="37.5515" y2="173.69" gradientUnits="userSpaceOnUse">
<stop stop-color="#02498A"/>
<stop offset="1" stop-color="#023386"/>
</linearGradient>
<linearGradient id="paint57_linear_1081_4172" x1="33.8807" y1="178.94" x2="33.8568" y2="175.878" gradientUnits="userSpaceOnUse">
<stop stop-color="#02498A"/>
<stop offset="1" stop-color="#023386"/>
</linearGradient>
<linearGradient id="paint58_linear_1081_4172" x1="30.1838" y1="181.129" x2="30.16" y2="178.068" gradientUnits="userSpaceOnUse">
<stop stop-color="#02498A"/>
<stop offset="1" stop-color="#023386"/>
</linearGradient>
<linearGradient id="paint59_linear_1081_4172" x1="26.4888" y1="183.318" x2="26.4649" y2="180.257" gradientUnits="userSpaceOnUse">
<stop stop-color="#02498A"/>
<stop offset="1" stop-color="#023386"/>
</linearGradient>
<linearGradient id="paint60_linear_1081_4172" x1="22.7937" y1="185.507" x2="22.7699" y2="182.446" gradientUnits="userSpaceOnUse">
<stop stop-color="#02498A"/>
<stop offset="1" stop-color="#023386"/>
</linearGradient>
<linearGradient id="paint61_linear_1081_4172" x1="54.544" y1="160.165" x2="54.5244" y2="157.65" gradientUnits="userSpaceOnUse">
<stop stop-color="#02498A"/>
<stop offset="1" stop-color="#023386"/>
</linearGradient>
<linearGradient id="paint62_linear_1081_4172" x1="51.0302" y1="162.241" x2="51.0106" y2="159.727" gradientUnits="userSpaceOnUse">
<stop stop-color="#02498A"/>
<stop offset="1" stop-color="#023386"/>
</linearGradient>
<linearGradient id="paint63_linear_1081_4172" x1="47.5167" y1="164.317" x2="47.4972" y2="161.803" gradientUnits="userSpaceOnUse">
<stop stop-color="#02498A"/>
<stop offset="1" stop-color="#023386"/>
</linearGradient>
<linearGradient id="paint64_linear_1081_4172" x1="44.0029" y1="166.393" x2="43.9834" y2="163.879" gradientUnits="userSpaceOnUse">
<stop stop-color="#02498A"/>
<stop offset="1" stop-color="#023386"/>
</linearGradient>
<linearGradient id="paint65_linear_1081_4172" x1="40.4896" y1="168.47" x2="40.47" y2="165.955" gradientUnits="userSpaceOnUse">
<stop stop-color="#02498A"/>
<stop offset="1" stop-color="#023386"/>
</linearGradient>
<linearGradient id="paint66_linear_1081_4172" x1="33.4614" y1="172.622" x2="33.4418" y2="170.108" gradientUnits="userSpaceOnUse">
<stop stop-color="#02498A"/>
<stop offset="1" stop-color="#023386"/>
</linearGradient>
<linearGradient id="paint67_linear_1081_4172" x1="29.947" y1="174.698" x2="29.9274" y2="172.184" gradientUnits="userSpaceOnUse">
<stop stop-color="#02498A"/>
<stop offset="1" stop-color="#023386"/>
</linearGradient>
<linearGradient id="paint68_linear_1081_4172" x1="26.4332" y1="176.775" x2="26.4136" y2="174.26" gradientUnits="userSpaceOnUse">
<stop stop-color="#02498A"/>
<stop offset="1" stop-color="#023386"/>
</linearGradient>
<linearGradient id="paint69_linear_1081_4172" x1="22.9198" y1="178.851" x2="22.9002" y2="176.337" gradientUnits="userSpaceOnUse">
<stop stop-color="#02498A"/>
<stop offset="1" stop-color="#023386"/>
</linearGradient>
<linearGradient id="paint70_linear_1081_4172" x1="19.4055" y1="180.927" x2="19.3859" y2="178.413" gradientUnits="userSpaceOnUse">
<stop stop-color="#02498A"/>
<stop offset="1" stop-color="#023386"/>
</linearGradient>
<clipPath id="clip0_1081_4172">
<rect width="195" height="224" fill="white" transform="translate(0.5625 0.125977)"/>
</clipPath>
</defs>
</svg>
