<svg width="355" height="219" viewBox="0 0 355 219" fill="none" xmlns="http://www.w3.org/2000/svg">
<rect x="60.6218" y="145.42" width="238.488" height="72.6166" rx="7.64386" fill="#18181B"/>
<rect x="60.6218" y="145.42" width="238.488" height="72.6166" rx="7.64386" stroke="white" stroke-width="1.52877"/>
<path d="M150.819 177.141C150.819 179.574 149.852 181.907 148.132 183.627C146.412 185.348 144.079 186.314 141.646 186.314C139.214 186.314 136.88 185.348 135.16 183.627C133.44 181.907 132.474 179.574 132.474 177.141C132.474 174.709 133.44 172.376 135.16 170.655C136.88 168.935 139.214 167.969 141.646 167.969C144.079 167.969 146.412 168.935 148.132 170.655C149.852 172.376 150.819 174.709 150.819 177.141Z" fill="#FF595D"/>
<path fill-rule="evenodd" clip-rule="evenodd" d="M140.711 204.641C128.48 204.15 118.715 194.079 118.715 181.728C118.715 169.063 128.981 158.796 141.646 158.796C154.312 158.796 164.578 169.063 164.578 181.728C164.578 194.393 154.312 204.659 141.646 204.659C141.542 204.66 141.437 204.66 141.332 204.659C141.125 204.659 140.917 204.652 140.711 204.641ZM126.931 196.198C126.76 195.705 126.701 195.18 126.76 194.662C126.82 194.144 126.995 193.646 127.272 193.205C127.55 192.764 127.924 192.391 128.366 192.114C128.807 191.837 129.306 191.663 129.824 191.605C138.763 190.616 144.585 190.705 153.48 191.626C153.999 191.68 154.499 191.852 154.941 192.128C155.384 192.405 155.757 192.778 156.033 193.221C156.31 193.663 156.481 194.163 156.535 194.682C156.589 195.201 156.524 195.725 156.344 196.215C160.157 192.358 162.292 187.151 162.285 181.728C162.285 170.33 153.045 161.089 141.646 161.089C130.248 161.089 121.008 170.33 121.008 181.728C121.008 187.364 123.268 192.473 126.931 196.198Z" fill="#FF595D"/>
<path d="M200.502 184.657C200.502 184.327 200.451 184.036 200.347 183.784C200.25 183.525 200.075 183.292 199.823 183.085C199.577 182.878 199.234 182.681 198.794 182.493C198.361 182.305 197.811 182.114 197.145 181.92C196.446 181.713 195.815 181.484 195.252 181.231C194.69 180.973 194.208 180.678 193.807 180.348C193.405 180.018 193.098 179.64 192.885 179.213C192.671 178.786 192.564 178.297 192.564 177.748C192.564 177.198 192.678 176.69 192.904 176.224C193.131 175.758 193.454 175.354 193.875 175.011C194.301 174.662 194.809 174.39 195.398 174.196C195.987 174.002 196.643 173.905 197.368 173.905C198.429 173.905 199.328 174.109 200.066 174.516C200.81 174.917 201.376 175.444 201.764 176.098C202.152 176.745 202.346 177.437 202.346 178.175H200.483C200.483 177.644 200.37 177.175 200.143 176.767C199.917 176.353 199.574 176.03 199.115 175.797C198.655 175.558 198.073 175.438 197.368 175.438C196.702 175.438 196.152 175.538 195.718 175.739C195.285 175.939 194.961 176.211 194.748 176.554C194.541 176.897 194.437 177.288 194.437 177.728C194.437 178.026 194.499 178.297 194.622 178.543C194.751 178.783 194.948 179.006 195.214 179.213C195.485 179.42 195.828 179.611 196.242 179.785C196.663 179.96 197.164 180.128 197.746 180.29C198.549 180.516 199.241 180.769 199.823 181.047C200.405 181.325 200.884 181.639 201.259 181.988C201.641 182.331 201.922 182.723 202.104 183.162C202.291 183.596 202.385 184.088 202.385 184.638C202.385 185.213 202.269 185.734 202.036 186.2C201.803 186.666 201.47 187.064 201.036 187.393C200.603 187.723 200.082 187.979 199.474 188.16C198.872 188.335 198.199 188.422 197.455 188.422C196.802 188.422 196.158 188.332 195.524 188.15C194.897 187.969 194.324 187.698 193.807 187.335C193.295 186.973 192.885 186.527 192.574 185.996C192.27 185.459 192.118 184.838 192.118 184.133H193.981C193.981 184.618 194.075 185.035 194.263 185.385C194.45 185.728 194.706 186.012 195.029 186.239C195.359 186.465 195.731 186.633 196.145 186.743C196.566 186.847 197.002 186.899 197.455 186.899C198.109 186.899 198.662 186.808 199.115 186.627C199.568 186.446 199.91 186.187 200.143 185.851C200.383 185.514 200.502 185.116 200.502 184.657ZM208.858 188.422C208.127 188.422 207.464 188.299 206.868 188.053C206.28 187.801 205.772 187.448 205.345 186.996C204.924 186.543 204.601 186.006 204.374 185.385C204.148 184.764 204.035 184.084 204.035 183.347V182.939C204.035 182.085 204.161 181.325 204.413 180.659C204.665 179.986 205.008 179.417 205.442 178.951C205.875 178.485 206.367 178.133 206.917 177.893C207.467 177.654 208.036 177.534 208.625 177.534C209.375 177.534 210.022 177.663 210.566 177.922C211.115 178.181 211.565 178.543 211.914 179.009C212.264 179.468 212.523 180.012 212.691 180.639C212.859 181.26 212.943 181.94 212.943 182.677V183.483H205.102V182.017H211.148V181.882C211.122 181.416 211.025 180.963 210.857 180.523C210.695 180.083 210.436 179.721 210.08 179.436C209.725 179.151 209.239 179.009 208.625 179.009C208.217 179.009 207.842 179.096 207.499 179.271C207.156 179.439 206.862 179.692 206.616 180.028C206.37 180.364 206.179 180.775 206.043 181.26C205.908 181.746 205.84 182.305 205.84 182.939V183.347C205.84 183.845 205.908 184.314 206.043 184.754C206.186 185.187 206.39 185.569 206.655 185.899C206.927 186.229 207.253 186.488 207.635 186.675C208.023 186.863 208.463 186.957 208.955 186.957C209.589 186.957 210.126 186.827 210.566 186.569C211.006 186.31 211.39 185.964 211.72 185.53L212.807 186.394C212.581 186.737 212.293 187.064 211.944 187.374C211.594 187.685 211.164 187.937 210.653 188.131C210.148 188.325 209.55 188.422 208.858 188.422ZM216.99 173.323V188.228H215.185V173.323H216.99ZM221.822 173.323V188.228H220.017V173.323H221.822ZM229.062 188.422C228.331 188.422 227.667 188.299 227.072 188.053C226.484 187.801 225.976 187.448 225.549 186.996C225.128 186.543 224.805 186.006 224.578 185.385C224.352 184.764 224.239 184.084 224.239 183.347V182.939C224.239 182.085 224.365 181.325 224.617 180.659C224.869 179.986 225.212 179.417 225.646 178.951C226.079 178.485 226.571 178.133 227.121 177.893C227.671 177.654 228.24 177.534 228.829 177.534C229.579 177.534 230.226 177.663 230.77 177.922C231.319 178.181 231.769 178.543 232.118 179.009C232.468 179.468 232.727 180.012 232.895 180.639C233.063 181.26 233.147 181.94 233.147 182.677V183.483H225.306V182.017H231.352V181.882C231.326 181.416 231.229 180.963 231.061 180.523C230.899 180.083 230.64 179.721 230.284 179.436C229.929 179.151 229.443 179.009 228.829 179.009C228.421 179.009 228.046 179.096 227.703 179.271C227.36 179.439 227.066 179.692 226.82 180.028C226.574 180.364 226.383 180.775 226.247 181.26C226.112 181.746 226.044 182.305 226.044 182.939V183.347C226.044 183.845 226.112 184.314 226.247 184.754C226.39 185.187 226.594 185.569 226.859 185.899C227.131 186.229 227.457 186.488 227.839 186.675C228.227 186.863 228.667 186.957 229.159 186.957C229.793 186.957 230.33 186.827 230.77 186.569C231.209 186.31 231.594 185.964 231.924 185.53L233.011 186.394C232.785 186.737 232.497 187.064 232.148 187.374C231.798 187.685 231.368 187.937 230.857 188.131C230.352 188.325 229.754 188.422 229.062 188.422ZM237.038 179.378V188.228H235.243V177.728H236.99L237.038 179.378ZM240.318 177.67L240.309 179.339C240.16 179.307 240.018 179.287 239.882 179.281C239.752 179.268 239.604 179.261 239.435 179.261C239.021 179.261 238.656 179.326 238.339 179.456C238.022 179.585 237.753 179.766 237.533 179.999C237.313 180.232 237.139 180.51 237.009 180.833C236.886 181.15 236.806 181.5 236.767 181.882L236.262 182.173C236.262 181.539 236.324 180.943 236.446 180.387C236.576 179.831 236.773 179.339 237.038 178.912C237.304 178.479 237.64 178.142 238.048 177.903C238.462 177.657 238.953 177.534 239.523 177.534C239.652 177.534 239.801 177.55 239.969 177.583C240.137 177.608 240.254 177.638 240.318 177.67Z" fill="white"/>
<rect x="56.8005" y="0.950665" width="239.253" height="72.6166" rx="7.64386" fill="#18181B"/>
<rect x="56.8005" y="0.950665" width="239.253" height="72.6166" rx="7.64386" stroke="white" stroke-width="1.52877"/>
<path d="M121.57 37.1505H117.989L117.97 35.6464H121.221C121.758 35.6464 122.227 35.5558 122.628 35.3747C123.029 35.1935 123.339 34.9348 123.559 34.5983C123.786 34.2555 123.899 33.8479 123.899 33.3756C123.899 32.8581 123.799 32.4376 123.598 32.1141C123.404 31.7842 123.103 31.5448 122.696 31.396C122.295 31.2407 121.783 31.1631 121.162 31.1631H118.406V43.759H116.534V29.6298H121.162C121.887 29.6298 122.534 29.7042 123.103 29.853C123.673 29.9954 124.155 30.2218 124.549 30.5323C124.95 30.8364 125.254 31.2246 125.461 31.6968C125.668 32.1691 125.772 32.7352 125.772 33.395C125.772 33.9773 125.623 34.5045 125.325 34.9768C125.028 35.4426 124.614 35.8243 124.083 36.1219C123.559 36.4195 122.945 36.6103 122.24 36.6944L121.57 37.1505ZM121.483 43.759H117.252L118.309 42.2355H121.483C122.078 42.2355 122.582 42.132 122.996 41.925C123.417 41.7179 123.737 41.4268 123.957 41.0516C124.177 40.6699 124.287 40.2203 124.287 39.7027C124.287 39.1787 124.193 38.7258 124.006 38.3441C123.818 37.9624 123.524 37.6681 123.123 37.4611C122.722 37.254 122.204 37.1505 121.57 37.1505H118.901L118.921 35.6464H122.57L122.967 36.1898C123.647 36.248 124.222 36.4421 124.695 36.7721C125.167 37.0955 125.526 37.5096 125.772 38.0142C126.024 38.5188 126.15 39.0752 126.15 39.6833C126.15 40.5631 125.956 41.3071 125.568 41.9153C125.186 42.5169 124.646 42.9762 123.947 43.2932C123.249 43.6038 122.427 43.759 121.483 43.759ZM135.068 41.333V33.2592H136.873V43.759H135.156L135.068 41.333ZM135.408 39.1205L136.155 39.1011C136.155 39.7998 136.081 40.4467 135.932 41.0419C135.79 41.6306 135.557 42.1417 135.233 42.5751C134.91 43.0086 134.486 43.3482 133.962 43.5941C133.438 43.8334 132.801 43.9531 132.05 43.9531C131.539 43.9531 131.07 43.8787 130.643 43.7299C130.223 43.5811 129.861 43.3515 129.556 43.0409C129.252 42.7304 129.016 42.3261 128.848 41.8279C128.686 41.3298 128.605 40.7313 128.605 40.0327V33.2592H130.401V40.0521C130.401 40.5243 130.452 40.9157 130.556 41.2263C130.666 41.5303 130.812 41.7729 130.993 41.9541C131.18 42.1287 131.387 42.2517 131.614 42.3228C131.847 42.394 132.086 42.4296 132.332 42.4296C133.095 42.4296 133.7 42.284 134.147 41.9929C134.593 41.6953 134.913 41.2974 135.107 40.7993C135.308 40.2947 135.408 39.7351 135.408 39.1205ZM142.56 42.6722L145.481 33.2592H147.402L143.191 45.3796C143.094 45.6384 142.964 45.9166 142.803 46.2142C142.647 46.5182 142.447 46.8061 142.201 47.0778C141.955 47.3496 141.658 47.5695 141.308 47.7377C140.965 47.9124 140.554 47.9997 140.076 47.9997C139.933 47.9997 139.752 47.9803 139.532 47.9415C139.312 47.9027 139.157 47.8703 139.067 47.8445L139.057 46.3888C139.109 46.3953 139.189 46.4018 139.299 46.4083C139.416 46.4212 139.497 46.4277 139.542 46.4277C139.95 46.4277 140.296 46.3727 140.58 46.2627C140.865 46.1592 141.104 45.9813 141.298 45.729C141.499 45.4831 141.67 45.1435 141.813 44.71L142.56 42.6722ZM140.415 33.2592L143.142 41.4106L143.608 43.3029L142.317 43.9628L138.455 33.2592H140.415ZM153.244 43.9531C152.513 43.9531 151.85 43.8302 151.255 43.5844C150.666 43.3321 150.158 42.9795 149.731 42.5266C149.311 42.0738 148.987 41.5368 148.761 40.9157C148.534 40.2947 148.421 39.6154 148.421 38.8779V38.4703C148.421 37.6163 148.547 36.8562 148.8 36.1898C149.052 35.517 149.395 34.9477 149.828 34.4819C150.262 34.0161 150.753 33.6635 151.303 33.4241C151.853 33.1848 152.423 33.0651 153.011 33.0651C153.762 33.0651 154.409 33.1945 154.952 33.4533C155.502 33.712 155.952 34.0743 156.301 34.5401C156.65 34.9995 156.909 35.5429 157.077 36.1704C157.246 36.7915 157.33 37.4708 157.33 38.2083V39.0137H149.489V37.5484H155.534V37.4125C155.509 36.9467 155.411 36.4939 155.243 36.054C155.082 35.614 154.823 35.2518 154.467 34.9671C154.111 34.6825 153.626 34.5401 153.011 34.5401C152.604 34.5401 152.229 34.6275 151.886 34.8021C151.543 34.9703 151.248 35.2226 151.003 35.5591C150.757 35.8955 150.566 36.3063 150.43 36.7915C150.294 37.2767 150.226 37.8363 150.226 38.4703V38.8779C150.226 39.376 150.294 39.845 150.43 40.285C150.572 40.7184 150.776 41.1001 151.041 41.43C151.313 41.76 151.64 42.0188 152.022 42.2064C152.41 42.394 152.85 42.4878 153.341 42.4878C153.975 42.4878 154.512 42.3584 154.952 42.0996C155.392 41.8409 155.777 41.4947 156.107 41.0613L157.194 41.925C156.967 42.2678 156.679 42.5945 156.33 42.9051C155.981 43.2156 155.551 43.4679 155.039 43.662C154.535 43.8561 153.936 43.9531 153.244 43.9531ZM161.221 34.9089V43.759H159.426V33.2592H161.172L161.221 34.9089ZM164.501 33.201L164.491 34.8701C164.342 34.8377 164.2 34.8183 164.064 34.8118C163.935 34.7989 163.786 34.7924 163.618 34.7924C163.204 34.7924 162.838 34.8571 162.521 34.9865C162.204 35.1159 161.936 35.297 161.716 35.5299C161.496 35.7628 161.321 36.041 161.192 36.3645C161.069 36.6815 160.988 37.0308 160.949 37.4125L160.445 37.7037C160.445 37.0697 160.506 36.4745 160.629 35.9181C160.758 35.3617 160.956 34.8701 161.221 34.4431C161.486 34.0096 161.823 33.6732 162.23 33.4339C162.644 33.188 163.136 33.0651 163.705 33.0651C163.835 33.0651 163.983 33.0813 164.152 33.1136C164.32 33.1395 164.436 33.1686 164.501 33.201Z" fill="white"/>
<path d="M223.752 32.6723C223.752 35.105 222.785 37.4381 221.065 39.1583C219.345 40.8785 217.012 41.8449 214.579 41.8449C212.146 41.8449 209.813 40.8785 208.093 39.1583C206.373 37.4381 205.406 35.105 205.406 32.6723C205.406 30.2395 206.373 27.9064 208.093 26.1862C209.813 24.466 212.146 23.4996 214.579 23.4996C217.012 23.4996 219.345 24.466 221.065 26.1862C222.785 27.9064 223.752 30.2395 223.752 32.6723Z" fill="#FF595D"/>
<path fill-rule="evenodd" clip-rule="evenodd" d="M213.643 60.1719C201.413 59.6812 191.647 49.6097 191.647 37.2587C191.647 24.5936 201.914 14.3271 214.579 14.3271C227.244 14.3271 237.511 24.5936 237.511 37.2587C237.511 49.9238 227.244 60.1903 214.579 60.1903C214.474 60.191 214.37 60.191 214.265 60.1903C214.057 60.1903 213.85 60.1834 213.643 60.1719ZM199.864 51.7285C199.692 51.2362 199.634 50.7115 199.693 50.1935C199.752 49.6755 199.927 49.1774 200.205 48.7363C200.483 48.2951 200.857 47.9223 201.298 47.6453C201.74 47.3684 202.239 47.1945 202.757 47.1365C211.695 46.147 217.518 46.2364 226.413 47.1571C226.932 47.2112 227.431 47.3829 227.874 47.6592C228.316 47.9355 228.69 48.3092 228.966 48.7517C229.242 49.1942 229.414 49.6939 229.468 50.2128C229.522 50.7316 229.456 51.2559 229.277 51.7457C233.089 47.8885 235.224 42.682 235.217 37.2587C235.217 25.8606 225.977 16.6203 214.579 16.6203C203.181 16.6203 193.941 25.8606 193.941 37.2587C193.941 42.8953 196.201 48.0045 199.864 51.7285Z" fill="#FF595D"/>
<rect x="80.1136" y="91.5304" width="193.39" height="36.6905" rx="4.20412" stroke="white" stroke-width="0.764386"/>
<path d="M97.2433 113.669L100.556 104.132H102.17L98.0078 115.376H96.8571L97.2433 113.669ZM94.1465 104.132L97.4286 113.669L97.8379 115.376H96.6872L92.5325 104.132H94.1465ZM105.02 107.02V115.376H103.583V107.02H105.02ZM103.475 104.804C103.475 104.572 103.545 104.376 103.684 104.217C103.828 104.057 104.039 103.977 104.317 103.977C104.59 103.977 104.798 104.057 104.943 104.217C105.092 104.376 105.167 104.572 105.167 104.804C105.167 105.025 105.092 105.216 104.943 105.375C104.798 105.53 104.59 105.607 104.317 105.607C104.039 105.607 103.828 105.53 103.684 105.375C103.545 105.216 103.475 105.025 103.475 104.804ZM112.179 113.159C112.179 112.953 112.132 112.763 112.04 112.588C111.952 112.408 111.769 112.246 111.491 112.101C111.218 111.952 110.807 111.823 110.256 111.715C109.792 111.617 109.373 111.502 108.997 111.368C108.626 111.234 108.31 111.072 108.047 110.881C107.79 110.691 107.591 110.467 107.452 110.209C107.313 109.952 107.244 109.651 107.244 109.306C107.244 108.976 107.316 108.665 107.46 108.371C107.609 108.078 107.818 107.818 108.086 107.591C108.359 107.365 108.685 107.187 109.066 107.059C109.447 106.93 109.872 106.866 110.341 106.866C111.01 106.866 111.581 106.984 112.055 107.221C112.529 107.458 112.892 107.774 113.144 108.171C113.396 108.562 113.522 108.997 113.522 109.476H112.094C112.094 109.244 112.024 109.02 111.885 108.804C111.751 108.583 111.553 108.4 111.29 108.256C111.033 108.111 110.716 108.039 110.341 108.039C109.944 108.039 109.622 108.101 109.375 108.225C109.133 108.343 108.956 108.495 108.842 108.68C108.734 108.866 108.68 109.061 108.68 109.267C108.68 109.422 108.706 109.561 108.758 109.684C108.814 109.803 108.912 109.913 109.051 110.016C109.19 110.114 109.386 110.207 109.638 110.294C109.89 110.382 110.212 110.469 110.603 110.557C111.288 110.711 111.852 110.897 112.294 111.113C112.737 111.329 113.067 111.594 113.283 111.908C113.499 112.222 113.607 112.603 113.607 113.051C113.607 113.417 113.53 113.751 113.376 114.055C113.226 114.359 113.007 114.622 112.719 114.843C112.436 115.059 112.096 115.229 111.7 115.353C111.309 115.471 110.868 115.53 110.379 115.53C109.643 115.53 109.02 115.399 108.51 115.136C108.001 114.874 107.615 114.534 107.352 114.117C107.089 113.7 106.958 113.26 106.958 112.796H108.395C108.415 113.188 108.528 113.499 108.734 113.731C108.94 113.957 109.193 114.12 109.491 114.217C109.79 114.31 110.086 114.356 110.379 114.356C110.771 114.356 111.097 114.305 111.36 114.202C111.628 114.099 111.831 113.957 111.97 113.777C112.109 113.597 112.179 113.391 112.179 113.159ZM118.828 114.356C119.167 114.356 119.481 114.287 119.77 114.148C120.058 114.009 120.295 113.818 120.48 113.576C120.666 113.329 120.771 113.049 120.797 112.735H122.156C122.13 113.229 121.963 113.69 121.654 114.117C121.35 114.539 120.951 114.881 120.457 115.144C119.963 115.401 119.42 115.53 118.828 115.53C118.2 115.53 117.651 115.419 117.183 115.198C116.719 114.977 116.333 114.673 116.024 114.287C115.721 113.901 115.492 113.458 115.337 112.959C115.188 112.454 115.113 111.921 115.113 111.36V111.036C115.113 110.475 115.188 109.944 115.337 109.445C115.492 108.94 115.721 108.495 116.024 108.109C116.333 107.723 116.719 107.419 117.183 107.198C117.651 106.976 118.2 106.866 118.828 106.866C119.481 106.866 120.053 106.999 120.542 107.267C121.031 107.53 121.415 107.89 121.693 108.348C121.976 108.801 122.13 109.316 122.156 109.893H120.797C120.771 109.548 120.673 109.236 120.503 108.958C120.339 108.68 120.112 108.459 119.824 108.294C119.541 108.124 119.209 108.039 118.828 108.039C118.39 108.039 118.022 108.127 117.723 108.302C117.43 108.472 117.196 108.703 117.021 108.997C116.851 109.285 116.727 109.607 116.65 109.962C116.578 110.312 116.542 110.67 116.542 111.036V111.36C116.542 111.726 116.578 112.086 116.65 112.441C116.722 112.796 116.843 113.118 117.013 113.406C117.188 113.695 117.422 113.926 117.716 114.102C118.014 114.271 118.385 114.356 118.828 114.356ZM123.384 111.291V111.113C123.384 110.511 123.471 109.952 123.646 109.437C123.822 108.917 124.074 108.467 124.403 108.086C124.733 107.7 125.132 107.401 125.6 107.19C126.069 106.974 126.594 106.866 127.176 106.866C127.763 106.866 128.29 106.974 128.759 107.19C129.232 107.401 129.634 107.7 129.963 108.086C130.298 108.467 130.553 108.917 130.728 109.437C130.903 109.952 130.991 110.511 130.991 111.113V111.291C130.991 111.893 130.903 112.451 130.728 112.966C130.553 113.481 130.298 113.932 129.963 114.318C129.634 114.699 129.235 114.997 128.766 115.214C128.303 115.425 127.778 115.53 127.191 115.53C126.604 115.53 126.076 115.425 125.608 115.214C125.139 114.997 124.738 114.699 124.403 114.318C124.074 113.932 123.822 113.481 123.646 112.966C123.471 112.451 123.384 111.893 123.384 111.291ZM124.813 111.113V111.291C124.813 111.708 124.861 112.101 124.959 112.472C125.057 112.838 125.204 113.162 125.399 113.445C125.6 113.728 125.85 113.952 126.149 114.117C126.447 114.277 126.795 114.356 127.191 114.356C127.582 114.356 127.925 114.277 128.218 114.117C128.517 113.952 128.764 113.728 128.96 113.445C129.155 113.162 129.302 112.838 129.4 112.472C129.503 112.101 129.554 111.708 129.554 111.291V111.113C129.554 110.701 129.503 110.312 129.4 109.947C129.302 109.576 129.153 109.249 128.952 108.966C128.756 108.678 128.509 108.451 128.21 108.286C127.917 108.122 127.572 108.039 127.176 108.039C126.784 108.039 126.439 108.122 126.141 108.286C125.847 108.451 125.6 108.678 125.399 108.966C125.204 109.249 125.057 109.576 124.959 109.947C124.861 110.312 124.813 110.701 124.813 111.113ZM134.203 108.68V115.376H132.767V107.02H134.126L134.203 108.68ZM133.91 110.881L133.246 110.858C133.251 110.287 133.325 109.759 133.469 109.275C133.614 108.786 133.827 108.361 134.11 108.001C134.394 107.64 134.746 107.362 135.168 107.167C135.591 106.966 136.08 106.866 136.636 106.866C137.027 106.866 137.387 106.922 137.717 107.035C138.046 107.144 138.332 107.316 138.574 107.553C138.816 107.79 139.004 108.093 139.138 108.464C139.272 108.835 139.339 109.283 139.339 109.808V115.376H137.91V109.877C137.91 109.44 137.835 109.09 137.686 108.827C137.542 108.564 137.336 108.374 137.068 108.256C136.8 108.132 136.486 108.07 136.126 108.07C135.704 108.07 135.351 108.145 135.068 108.294C134.785 108.444 134.558 108.649 134.388 108.912C134.219 109.175 134.095 109.476 134.018 109.816C133.946 110.15 133.91 110.505 133.91 110.881ZM139.323 110.094L138.366 110.387C138.371 109.929 138.445 109.489 138.59 109.066C138.739 108.644 138.952 108.268 139.23 107.939C139.514 107.609 139.861 107.349 140.273 107.159C140.685 106.963 141.156 106.866 141.686 106.866C142.134 106.866 142.531 106.925 142.875 107.043C143.226 107.162 143.519 107.344 143.756 107.591C143.998 107.833 144.181 108.145 144.304 108.526C144.428 108.907 144.489 109.36 144.489 109.885V115.376H143.053V109.87C143.053 109.401 142.978 109.038 142.829 108.781C142.685 108.518 142.479 108.335 142.211 108.232C141.949 108.124 141.635 108.07 141.269 108.07C140.955 108.07 140.677 108.124 140.435 108.232C140.193 108.341 139.99 108.49 139.825 108.68C139.66 108.866 139.534 109.079 139.447 109.321C139.364 109.563 139.323 109.821 139.323 110.094ZM148.073 108.68V115.376H146.636V107.02H147.996L148.073 108.68ZM147.779 110.881L147.115 110.858C147.12 110.287 147.195 109.759 147.339 109.275C147.483 108.786 147.697 108.361 147.98 108.001C148.263 107.64 148.616 107.362 149.038 107.167C149.46 106.966 149.949 106.866 150.505 106.866C150.897 106.866 151.257 106.922 151.586 107.035C151.916 107.144 152.202 107.316 152.444 107.553C152.686 107.79 152.874 108.093 153.007 108.464C153.141 108.835 153.208 109.283 153.208 109.808V115.376H151.78V109.877C151.78 109.44 151.705 109.09 151.556 108.827C151.411 108.564 151.205 108.374 150.938 108.256C150.67 108.132 150.356 108.07 149.996 108.07C149.573 108.07 149.221 108.145 148.938 108.294C148.654 108.444 148.428 108.649 148.258 108.912C148.088 109.175 147.965 109.476 147.887 109.816C147.815 110.15 147.779 110.505 147.779 110.881ZM153.193 110.094L152.235 110.387C152.24 109.929 152.315 109.489 152.459 109.066C152.608 108.644 152.822 108.268 153.1 107.939C153.383 107.609 153.731 107.349 154.143 107.159C154.554 106.963 155.026 106.866 155.556 106.866C156.004 106.866 156.4 106.925 156.745 107.043C157.095 107.162 157.389 107.344 157.625 107.591C157.867 107.833 158.05 108.145 158.174 108.526C158.297 108.907 158.359 109.36 158.359 109.885V115.376H156.923V109.87C156.923 109.401 156.848 109.038 156.699 108.781C156.555 108.518 156.349 108.335 156.081 108.232C155.818 108.124 155.504 108.07 155.139 108.07C154.825 108.07 154.547 108.124 154.305 108.232C154.063 108.341 153.859 108.49 153.695 108.68C153.53 108.866 153.404 109.079 153.316 109.321C153.234 109.563 153.193 109.821 153.193 110.094ZM163.989 115.53C163.407 115.53 162.879 115.432 162.406 115.237C161.937 115.036 161.533 114.755 161.193 114.395C160.859 114.035 160.601 113.607 160.421 113.113C160.241 112.619 160.151 112.078 160.151 111.491V111.167C160.151 110.487 160.251 109.882 160.452 109.352C160.653 108.817 160.926 108.364 161.27 107.993C161.615 107.622 162.007 107.342 162.444 107.151C162.882 106.961 163.335 106.866 163.803 106.866C164.401 106.866 164.915 106.969 165.348 107.174C165.786 107.38 166.143 107.669 166.421 108.039C166.699 108.405 166.905 108.837 167.039 109.337C167.173 109.831 167.24 110.372 167.24 110.958V111.599H161V110.433H165.811V110.325C165.791 109.955 165.713 109.594 165.58 109.244C165.451 108.894 165.245 108.606 164.962 108.379C164.679 108.153 164.293 108.039 163.803 108.039C163.479 108.039 163.181 108.109 162.908 108.248C162.635 108.382 162.401 108.583 162.205 108.85C162.009 109.118 161.857 109.445 161.749 109.831C161.641 110.217 161.587 110.662 161.587 111.167V111.491C161.587 111.888 161.641 112.261 161.749 112.611C161.863 112.956 162.025 113.26 162.236 113.522C162.452 113.785 162.712 113.991 163.016 114.14C163.325 114.289 163.675 114.364 164.066 114.364C164.571 114.364 164.998 114.261 165.348 114.055C165.698 113.849 166.004 113.574 166.267 113.229L167.132 113.916C166.952 114.189 166.723 114.449 166.445 114.696C166.167 114.943 165.824 115.144 165.417 115.299C165.016 115.453 164.54 115.53 163.989 115.53ZM170.337 108.333V115.376H168.908V107.02H170.298L170.337 108.333ZM172.947 106.974L172.939 108.302C172.821 108.276 172.707 108.261 172.599 108.256C172.496 108.245 172.378 108.24 172.244 108.24C171.915 108.24 171.624 108.292 171.372 108.395C171.119 108.498 170.906 108.642 170.731 108.827C170.555 109.012 170.416 109.234 170.314 109.491C170.216 109.743 170.151 110.021 170.12 110.325L169.719 110.557C169.719 110.052 169.768 109.579 169.866 109.136C169.969 108.693 170.126 108.302 170.337 107.962C170.548 107.617 170.815 107.349 171.14 107.159C171.469 106.963 171.861 106.866 172.314 106.866C172.417 106.866 172.535 106.878 172.669 106.904C172.803 106.925 172.895 106.948 172.947 106.974ZM177.457 114.356C177.797 114.356 178.111 114.287 178.399 114.148C178.687 114.009 178.924 113.818 179.109 113.576C179.295 113.329 179.4 113.049 179.426 112.735H180.785C180.759 113.229 180.592 113.69 180.283 114.117C179.98 114.539 179.581 114.881 179.086 115.144C178.592 115.401 178.049 115.53 177.457 115.53C176.829 115.53 176.28 115.419 175.812 115.198C175.349 114.977 174.962 114.673 174.654 114.287C174.35 113.901 174.121 113.458 173.966 112.959C173.817 112.454 173.742 111.921 173.742 111.36V111.036C173.742 110.475 173.817 109.944 173.966 109.445C174.121 108.94 174.35 108.495 174.654 108.109C174.962 107.723 175.349 107.419 175.812 107.198C176.28 106.976 176.829 106.866 177.457 106.866C178.111 106.866 178.682 106.999 179.171 107.267C179.66 107.53 180.044 107.89 180.322 108.348C180.605 108.801 180.759 109.316 180.785 109.893H179.426C179.4 109.548 179.303 109.236 179.133 108.958C178.968 108.68 178.741 108.459 178.453 108.294C178.17 108.124 177.838 108.039 177.457 108.039C177.019 108.039 176.651 108.127 176.353 108.302C176.059 108.472 175.825 108.703 175.65 108.997C175.48 109.285 175.356 109.607 175.279 109.962C175.207 110.312 175.171 110.67 175.171 111.036V111.36C175.171 111.726 175.207 112.086 175.279 112.441C175.351 112.796 175.472 113.118 175.642 113.406C175.817 113.695 176.051 113.926 176.345 114.102C176.643 114.271 177.014 114.356 177.457 114.356ZM185.859 115.53C185.277 115.53 184.749 115.432 184.276 115.237C183.807 115.036 183.403 114.755 183.063 114.395C182.729 114.035 182.471 113.607 182.291 113.113C182.111 112.619 182.021 112.078 182.021 111.491V111.167C182.021 110.487 182.121 109.882 182.322 109.352C182.523 108.817 182.796 108.364 183.141 107.993C183.486 107.622 183.877 107.342 184.314 107.151C184.752 106.961 185.205 106.866 185.674 106.866C186.271 106.866 186.786 106.969 187.218 107.174C187.656 107.38 188.013 107.669 188.291 108.039C188.569 108.405 188.775 108.837 188.909 109.337C189.043 109.831 189.11 110.372 189.11 110.958V111.599H182.87V110.433H187.681V110.325C187.661 109.955 187.584 109.594 187.45 109.244C187.321 108.894 187.115 108.606 186.832 108.379C186.549 108.153 186.163 108.039 185.674 108.039C185.349 108.039 185.051 108.109 184.778 108.248C184.505 108.382 184.271 108.583 184.075 108.85C183.879 109.118 183.727 109.445 183.619 109.831C183.511 110.217 183.457 110.662 183.457 111.167V111.491C183.457 111.888 183.511 112.261 183.619 112.611C183.733 112.956 183.895 113.26 184.106 113.522C184.322 113.785 184.582 113.991 184.886 114.14C185.195 114.289 185.545 114.364 185.936 114.364C186.441 114.364 186.868 114.261 187.218 114.055C187.568 113.849 187.874 113.574 188.137 113.229L189.002 113.916C188.822 114.189 188.593 114.449 188.315 114.696C188.037 114.943 187.694 115.144 187.288 115.299C186.886 115.453 186.41 115.53 185.859 115.53ZM196.632 109.051H197.651C198.151 109.051 198.562 108.969 198.887 108.804C199.216 108.634 199.461 108.405 199.62 108.117C199.785 107.823 199.868 107.494 199.868 107.128C199.868 106.696 199.795 106.333 199.651 106.039C199.507 105.746 199.291 105.524 199.003 105.375C198.714 105.226 198.349 105.151 197.906 105.151C197.504 105.151 197.149 105.231 196.84 105.391C196.537 105.545 196.297 105.766 196.122 106.055C195.952 106.343 195.867 106.683 195.867 107.074H194.439C194.439 106.503 194.583 105.983 194.871 105.514C195.159 105.046 195.563 104.672 196.083 104.394C196.609 104.116 197.216 103.977 197.906 103.977C198.586 103.977 199.18 104.098 199.69 104.34C200.2 104.577 200.596 104.932 200.879 105.406C201.162 105.874 201.304 106.459 201.304 107.159C201.304 107.442 201.237 107.746 201.103 108.07C200.974 108.389 200.771 108.688 200.493 108.966C200.22 109.244 199.865 109.473 199.427 109.653C198.99 109.828 198.465 109.916 197.852 109.916H196.632V109.051ZM196.632 110.225V109.368H197.852C198.568 109.368 199.16 109.453 199.628 109.622C200.097 109.792 200.465 110.019 200.732 110.302C201.005 110.585 201.196 110.897 201.304 111.236C201.417 111.571 201.474 111.906 201.474 112.24C201.474 112.766 201.384 113.231 201.203 113.638C201.028 114.045 200.779 114.39 200.454 114.673C200.135 114.956 199.759 115.17 199.327 115.314C198.894 115.458 198.423 115.53 197.914 115.53C197.425 115.53 196.964 115.461 196.531 115.322C196.104 115.183 195.726 114.982 195.396 114.719C195.067 114.452 194.809 114.125 194.624 113.739C194.439 113.347 194.346 112.902 194.346 112.403H195.775C195.775 112.794 195.86 113.136 196.029 113.43C196.204 113.723 196.452 113.952 196.771 114.117C197.095 114.277 197.476 114.356 197.914 114.356C198.351 114.356 198.727 114.282 199.041 114.132C199.36 113.978 199.605 113.746 199.775 113.437C199.95 113.128 200.037 112.74 200.037 112.271C200.037 111.803 199.94 111.419 199.744 111.121C199.548 110.817 199.27 110.593 198.91 110.449C198.555 110.299 198.135 110.225 197.651 110.225H196.632ZM206.856 115.376H204.509L204.524 114.163H206.856C207.66 114.163 208.329 113.996 208.864 113.661C209.4 113.322 209.801 112.848 210.069 112.24C210.342 111.628 210.478 110.912 210.478 110.094V109.406C210.478 108.763 210.401 108.191 210.247 107.692C210.092 107.187 209.866 106.763 209.567 106.418C209.268 106.068 208.903 105.802 208.47 105.622C208.043 105.442 207.551 105.352 206.995 105.352H204.462V104.132H206.995C207.732 104.132 208.403 104.255 209.011 104.502C209.618 104.744 210.141 105.097 210.579 105.56C211.021 106.019 211.361 106.575 211.598 107.229C211.835 107.877 211.953 108.608 211.953 109.422V110.094C211.953 110.907 211.835 111.641 211.598 112.294C211.361 112.943 211.019 113.497 210.571 113.955C210.128 114.413 209.593 114.766 208.965 115.013C208.342 115.255 207.639 115.376 206.856 115.376ZM205.304 104.132V115.376H203.814V104.132H205.304ZM224.108 112.534C224.108 112.271 224.067 112.04 223.985 111.839C223.908 111.633 223.769 111.448 223.568 111.283C223.372 111.118 223.099 110.961 222.749 110.812C222.404 110.662 221.967 110.511 221.436 110.356C220.88 110.191 220.378 110.009 219.931 109.808C219.483 109.602 219.099 109.368 218.78 109.105C218.461 108.843 218.216 108.541 218.046 108.202C217.876 107.862 217.791 107.473 217.791 107.035C217.791 106.598 217.882 106.194 218.062 105.823C218.242 105.452 218.499 105.131 218.834 104.858C219.174 104.58 219.578 104.363 220.046 104.209C220.515 104.055 221.037 103.977 221.614 103.977C222.458 103.977 223.174 104.14 223.761 104.464C224.353 104.783 224.803 105.203 225.112 105.723C225.421 106.237 225.576 106.788 225.576 107.375H224.093C224.093 106.953 224.003 106.58 223.823 106.255C223.642 105.926 223.37 105.669 223.004 105.483C222.639 105.293 222.175 105.197 221.614 105.197C221.084 105.197 220.646 105.277 220.301 105.437C219.956 105.596 219.699 105.813 219.529 106.086C219.364 106.358 219.282 106.67 219.282 107.02C219.282 107.257 219.331 107.473 219.429 107.669C219.532 107.859 219.689 108.037 219.9 108.202C220.116 108.366 220.389 108.518 220.718 108.657C221.053 108.796 221.452 108.93 221.915 109.059C222.554 109.239 223.104 109.44 223.568 109.661C224.031 109.882 224.412 110.132 224.711 110.41C225.015 110.683 225.238 110.995 225.383 111.345C225.532 111.69 225.607 112.081 225.607 112.518C225.607 112.977 225.514 113.391 225.329 113.762C225.143 114.132 224.878 114.449 224.533 114.712C224.188 114.974 223.774 115.178 223.29 115.322C222.811 115.461 222.276 115.53 221.684 115.53C221.164 115.53 220.651 115.458 220.147 115.314C219.647 115.17 219.192 114.954 218.78 114.665C218.373 114.377 218.046 114.022 217.799 113.6C217.557 113.172 217.436 112.678 217.436 112.117H218.919C218.919 112.503 218.994 112.835 219.143 113.113C219.292 113.386 219.496 113.612 219.753 113.793C220.015 113.973 220.312 114.107 220.641 114.194C220.976 114.277 221.323 114.318 221.684 114.318C222.204 114.318 222.644 114.246 223.004 114.102C223.364 113.957 223.637 113.751 223.823 113.484C224.013 113.216 224.108 112.899 224.108 112.534ZM228.719 108.626V118.588H227.282V107.02H228.595L228.719 108.626ZM234.348 111.128V111.291C234.348 111.898 234.276 112.462 234.132 112.982C233.988 113.497 233.777 113.944 233.499 114.325C233.226 114.706 232.889 115.002 232.487 115.214C232.086 115.425 231.625 115.53 231.105 115.53C230.575 115.53 230.106 115.443 229.7 115.268C229.293 115.093 228.948 114.838 228.665 114.503C228.382 114.168 228.155 113.767 227.985 113.298C227.82 112.83 227.707 112.302 227.645 111.715V110.85C227.707 110.233 227.823 109.679 227.993 109.19C228.163 108.701 228.387 108.284 228.665 107.939C228.948 107.589 229.29 107.324 229.692 107.144C230.093 106.958 230.557 106.866 231.082 106.866C231.607 106.866 232.073 106.969 232.48 107.174C232.886 107.375 233.229 107.664 233.507 108.039C233.785 108.415 233.993 108.866 234.132 109.391C234.276 109.911 234.348 110.49 234.348 111.128ZM232.912 111.291V111.128C232.912 110.711 232.868 110.32 232.781 109.955C232.693 109.584 232.557 109.26 232.371 108.982C232.191 108.698 231.96 108.477 231.676 108.317C231.393 108.153 231.056 108.07 230.665 108.07C230.304 108.07 229.99 108.132 229.723 108.256C229.46 108.379 229.236 108.546 229.051 108.758C228.865 108.963 228.714 109.2 228.595 109.468C228.482 109.731 228.397 110.003 228.34 110.287V112.287C228.443 112.647 228.587 112.987 228.773 113.306C228.958 113.62 229.205 113.875 229.514 114.071C229.823 114.261 230.212 114.356 230.68 114.356C231.066 114.356 231.398 114.277 231.676 114.117C231.96 113.952 232.191 113.728 232.371 113.445C232.557 113.162 232.693 112.838 232.781 112.472C232.868 112.101 232.912 111.708 232.912 111.291ZM241.098 113.947V109.646C241.098 109.316 241.031 109.03 240.897 108.788C240.768 108.541 240.573 108.351 240.31 108.217C240.048 108.083 239.723 108.016 239.337 108.016C238.977 108.016 238.66 108.078 238.387 108.202C238.12 108.325 237.909 108.487 237.754 108.688C237.605 108.889 237.53 109.105 237.53 109.337H236.101C236.101 109.038 236.179 108.742 236.333 108.449C236.488 108.155 236.709 107.89 236.997 107.653C237.291 107.411 237.641 107.221 238.048 107.082C238.459 106.938 238.918 106.866 239.422 106.866C240.03 106.866 240.565 106.969 241.028 107.174C241.497 107.38 241.862 107.692 242.125 108.109C242.393 108.521 242.527 109.038 242.527 109.661V113.553C242.527 113.831 242.55 114.127 242.596 114.441C242.648 114.755 242.722 115.026 242.82 115.252V115.376H241.33C241.258 115.211 241.201 114.992 241.16 114.719C241.119 114.441 241.098 114.184 241.098 113.947ZM241.345 110.31L241.36 111.314H239.916C239.51 111.314 239.147 111.347 238.828 111.414C238.508 111.476 238.241 111.571 238.024 111.7C237.808 111.829 237.643 111.991 237.53 112.186C237.417 112.377 237.36 112.601 237.36 112.858C237.36 113.121 237.419 113.36 237.538 113.576C237.656 113.793 237.834 113.965 238.071 114.094C238.313 114.217 238.609 114.279 238.959 114.279C239.396 114.279 239.783 114.186 240.117 114.001C240.452 113.816 240.717 113.589 240.913 113.322C241.113 113.054 241.221 112.794 241.237 112.542L241.847 113.229C241.811 113.445 241.713 113.685 241.554 113.947C241.394 114.21 241.18 114.462 240.913 114.704C240.65 114.941 240.336 115.139 239.97 115.299C239.61 115.453 239.203 115.53 238.75 115.53C238.184 115.53 237.687 115.419 237.26 115.198C236.838 114.977 236.508 114.681 236.271 114.31C236.04 113.934 235.924 113.515 235.924 113.051C235.924 112.603 236.011 112.21 236.186 111.87C236.361 111.525 236.614 111.239 236.943 111.013C237.273 110.781 237.669 110.606 238.132 110.487C238.596 110.369 239.113 110.31 239.685 110.31H241.345ZM248.118 114.356C248.457 114.356 248.772 114.287 249.06 114.148C249.348 114.009 249.585 113.818 249.77 113.576C249.956 113.329 250.061 113.049 250.087 112.735H251.446C251.42 113.229 251.253 113.69 250.944 114.117C250.64 114.539 250.241 114.881 249.747 115.144C249.253 115.401 248.71 115.53 248.118 115.53C247.49 115.53 246.941 115.419 246.473 115.198C246.009 114.977 245.623 114.673 245.314 114.287C245.011 113.901 244.782 113.458 244.627 112.959C244.478 112.454 244.403 111.921 244.403 111.36V111.036C244.403 110.475 244.478 109.944 244.627 109.445C244.782 108.94 245.011 108.495 245.314 108.109C245.623 107.723 246.009 107.419 246.473 107.198C246.941 106.976 247.49 106.866 248.118 106.866C248.772 106.866 249.343 106.999 249.832 107.267C250.321 107.53 250.705 107.89 250.983 108.348C251.266 108.801 251.42 109.316 251.446 109.893H250.087C250.061 109.548 249.963 109.236 249.793 108.958C249.629 108.68 249.402 108.459 249.114 108.294C248.831 108.124 248.499 108.039 248.118 108.039C247.68 108.039 247.312 108.127 247.013 108.302C246.72 108.472 246.486 108.703 246.311 108.997C246.141 109.285 246.017 109.607 245.94 109.962C245.868 110.312 245.832 110.67 245.832 111.036V111.36C245.832 111.726 245.868 112.086 245.94 112.441C246.012 112.796 246.133 113.118 246.303 113.406C246.478 113.695 246.712 113.926 247.006 114.102C247.304 114.271 247.675 114.356 248.118 114.356ZM256.52 115.53C255.938 115.53 255.41 115.432 254.937 115.237C254.468 115.036 254.064 114.755 253.724 114.395C253.39 114.035 253.132 113.607 252.952 113.113C252.772 112.619 252.682 112.078 252.682 111.491V111.167C252.682 110.487 252.782 109.882 252.983 109.352C253.184 108.817 253.456 108.364 253.801 107.993C254.146 107.622 254.538 107.342 254.975 107.151C255.413 106.961 255.866 106.866 256.334 106.866C256.932 106.866 257.446 106.969 257.879 107.174C258.316 107.38 258.674 107.669 258.952 108.039C259.23 108.405 259.436 108.837 259.57 109.337C259.704 109.831 259.771 110.372 259.771 110.958V111.599H253.531V110.433H258.342V110.325C258.322 109.955 258.244 109.594 258.111 109.244C257.982 108.894 257.776 108.606 257.493 108.379C257.21 108.153 256.823 108.039 256.334 108.039C256.01 108.039 255.711 108.109 255.439 108.248C255.166 108.382 254.931 108.583 254.736 108.85C254.54 109.118 254.388 109.445 254.28 109.831C254.172 110.217 254.118 110.662 254.118 111.167V111.491C254.118 111.888 254.172 112.261 254.28 112.611C254.393 112.956 254.556 113.26 254.767 113.522C254.983 113.785 255.243 113.991 255.547 114.14C255.856 114.289 256.206 114.364 256.597 114.364C257.101 114.364 257.529 114.261 257.879 114.055C258.229 113.849 258.535 113.574 258.798 113.229L259.663 113.916C259.483 114.189 259.253 114.449 258.975 114.696C258.697 114.943 258.355 115.144 257.948 115.299C257.547 115.453 257.071 115.53 256.52 115.53Z" fill="white"/>
<path d="M298.346 37.6412H344.973C349.617 37.6412 353.381 41.4057 353.381 46.0495V174.466C353.381 179.11 349.617 182.875 344.973 182.875H298.346" stroke="#FF595D" stroke-width="1.52877"/>
<path d="M56.0355 37.6412H9.40797C4.76422 37.6412 0.999718 41.4057 0.999718 46.0495V174.466C0.999718 179.11 4.76422 182.875 9.40796 182.875H59.8574" stroke="#FF595D" stroke-width="1.52877"/>
</svg>
