<svg width="164" height="48" viewBox="0 0 164 48" fill="none" xmlns="http://www.w3.org/2000/svg">
<g filter="url(#filter0_b_514_442)">
<rect x="0.291992" y="0.758301" width="163.004" height="46.4007" rx="23.2004" fill="url(#paint0_linear_514_442)"/>
<rect x="0.291992" y="0.758301" width="163.004" height="46.4007" rx="23.2004" fill="black" fill-opacity="0.2"/>
<rect x="0.715338" y="1.18165" width="162.158" height="45.5541" rx="22.777" stroke="#FF4233" stroke-width="0.846691"/>
<path d="M56.6826 17.4196V29.4585H54.6238V17.4196H56.6826ZM60.4613 17.4196V19.0733H50.8781V17.4196H60.4613ZM63.256 22.2153V29.4585H61.2633V20.512H63.1651L63.256 22.2153ZM65.9929 20.4541L65.9764 22.3063C65.8551 22.2842 65.7228 22.2677 65.5795 22.2567C65.4417 22.2456 65.3039 22.2401 65.1661 22.2401C64.8243 22.2401 64.5239 22.2897 64.2648 22.389C64.0057 22.4827 63.788 22.6205 63.6116 22.8024C63.4407 22.9788 63.3084 23.1938 63.2147 23.4473C63.121 23.7009 63.0659 23.9848 63.0493 24.299L62.5946 24.332C62.5946 23.7698 62.6497 23.2489 62.7599 22.7693C62.8702 22.2897 63.0355 21.868 63.256 21.5042C63.482 21.1404 63.7632 20.8565 64.0994 20.6526C64.4412 20.4486 64.8353 20.3466 65.2818 20.3466C65.4031 20.3466 65.5326 20.3577 65.6704 20.3797C65.8137 20.4018 65.9212 20.4266 65.9929 20.4541ZM69.9866 28.4828L72.4175 20.512H74.5508L70.9622 30.8228C70.8796 31.0433 70.7721 31.2831 70.6398 31.5422C70.5075 31.8012 70.3338 32.0465 70.1189 32.278C69.9094 32.5151 69.6476 32.7052 69.3334 32.8486C69.0192 32.9974 68.6388 33.0718 68.1923 33.0718C68.0159 33.0718 67.845 33.0553 67.6797 33.0222C67.5198 32.9946 67.3682 32.9643 67.2249 32.9313L67.2166 31.4099C67.2718 31.4154 67.3379 31.4209 67.4151 31.4264C67.4978 31.4319 67.5639 31.4347 67.6135 31.4347C67.9443 31.4347 68.2199 31.3933 68.4404 31.3106C68.6609 31.2335 68.84 31.1067 68.9778 30.9303C69.1211 30.7539 69.2424 30.5169 69.3416 30.2192L69.9866 28.4828ZM68.614 20.512L70.739 27.2095L71.0945 29.3097L69.7137 29.6652L66.4642 20.512H68.614ZM89.6573 17.4196V29.4585H87.5819L82.1826 20.8345V29.4585H80.1072V17.4196H82.1826L87.5984 26.0602V17.4196H89.6573ZM91.5507 25.0845V24.8943C91.5507 24.2494 91.6444 23.6513 91.8319 23.1C92.0193 22.5433 92.2894 22.061 92.6422 21.6531C93.0005 21.2396 93.436 20.9199 93.9486 20.6939C94.4668 20.4624 95.0511 20.3466 95.7015 20.3466C96.3575 20.3466 96.9418 20.4624 97.4544 20.6939C97.9726 20.9199 98.4108 21.2396 98.7691 21.6531C99.1274 22.061 99.4003 22.5433 99.5877 23.1C99.7751 23.6513 99.8688 24.2494 99.8688 24.8943V25.0845C99.8688 25.7294 99.7751 26.3275 99.5877 26.8787C99.4003 27.43 99.1274 27.9123 98.7691 28.3257C98.4108 28.7336 97.9753 29.0533 97.4627 29.2849C96.9501 29.5109 96.3685 29.6239 95.718 29.6239C95.0621 29.6239 94.475 29.5109 93.9569 29.2849C93.4442 29.0533 93.0087 28.7336 92.6504 28.3257C92.2921 27.9123 92.0193 27.43 91.8319 26.8787C91.6444 26.3275 91.5507 25.7294 91.5507 25.0845ZM93.5434 24.8943V25.0845C93.5434 25.4869 93.5848 25.8672 93.6675 26.2255C93.7502 26.5838 93.8797 26.898 94.0561 27.1681C94.2325 27.4382 94.4585 27.6505 94.7341 27.8048C95.0097 27.9591 95.3377 28.0363 95.718 28.0363C96.0874 28.0363 96.4071 27.9591 96.6772 27.8048C96.9528 27.6505 97.1788 27.4382 97.3552 27.1681C97.5316 26.898 97.6611 26.5838 97.7438 26.2255C97.832 25.8672 97.8761 25.4869 97.8761 25.0845V24.8943C97.8761 24.4974 97.832 24.1226 97.7438 23.7698C97.6611 23.4115 97.5288 23.0945 97.3469 22.8189C97.1705 22.5433 96.9445 22.3283 96.6689 22.174C96.3988 22.0141 96.0763 21.9342 95.7015 21.9342C95.3267 21.9342 95.0014 22.0141 94.7258 22.174C94.4557 22.3283 94.2325 22.5433 94.0561 22.8189C93.8797 23.0945 93.7502 23.4115 93.6675 23.7698C93.5848 24.1226 93.5434 24.4974 93.5434 24.8943ZM103.97 27.4741L106.037 20.512H107.31L106.963 22.5957L104.88 29.4585H103.738L103.97 27.4741ZM102.755 20.512L104.367 27.5071L104.499 29.4585H103.226L100.803 20.512H102.755ZM109.245 27.4245L110.808 20.512H112.751L110.337 29.4585H109.063L109.245 27.4245ZM107.525 20.512L109.568 27.3914L109.824 29.4585H108.683L106.575 22.5874L106.227 20.512H107.525Z" fill="white"/>
</g>
<defs>
<filter id="filter0_b_514_442" x="-84.3771" y="-83.9108" width="332.343" height="215.739" filterUnits="userSpaceOnUse" color-interpolation-filters="sRGB">
<feFlood flood-opacity="0" result="BackgroundImageFix"/>
<feGaussianBlur in="BackgroundImageFix" stdDeviation="42.3346"/>
<feComposite in2="SourceAlpha" operator="in" result="effect1_backgroundBlur_514_442"/>
<feBlend mode="normal" in="SourceGraphic" in2="effect1_backgroundBlur_514_442" result="shape"/>
</filter>
<linearGradient id="paint0_linear_514_442" x1="4.42791" y1="33.2841" x2="154.516" y2="3.95853" gradientUnits="userSpaceOnUse">
<stop stop-color="#FB1807"/>
<stop offset="1" stop-color="#FF4031"/>
</linearGradient>
</defs>
</svg>
