<svg width="207" height="51" viewBox="0 0 207 51" fill="none" xmlns="http://www.w3.org/2000/svg">
<path d="M32.9936 28.7664C32.9936 28.4677 32.9472 28.2022 32.8543 27.9699C32.768 27.7376 32.612 27.5252 32.3863 27.3327C32.1606 27.1402 31.842 26.9544 31.4305 26.7751C31.0256 26.5893 30.5079 26.4001 29.8773 26.2076C29.187 25.9952 28.5498 25.7596 27.9657 25.5007C27.3883 25.2352 26.8838 24.9299 26.4524 24.5848C26.0209 24.233 25.6857 23.8314 25.4468 23.3801C25.2078 22.9221 25.0884 22.3944 25.0884 21.797C25.0884 21.2063 25.2112 20.6686 25.4568 20.1841C25.709 19.6996 26.0641 19.2814 26.5221 18.9296C26.9867 18.5712 27.5343 18.2957 28.1649 18.1032C28.7954 17.9041 29.4924 17.8046 30.2557 17.8046C31.331 17.8046 32.2569 18.0037 33.0335 18.4019C33.8167 18.8002 34.4174 19.3345 34.8356 20.0049C35.2604 20.6753 35.4728 21.4154 35.4728 22.2251H32.9936C32.9936 21.7472 32.8908 21.3258 32.685 20.9607C32.4859 20.589 32.1806 20.2969 31.769 20.0845C31.3641 19.8721 30.8497 19.7659 30.2258 19.7659C29.6351 19.7659 29.1439 19.8555 28.7523 20.0348C28.3607 20.214 28.0686 20.4562 27.8761 20.7616C27.6836 21.0669 27.5874 21.412 27.5874 21.797C27.5874 22.0692 27.6505 22.3181 27.7766 22.5437C27.9027 22.7628 28.0952 22.9685 28.354 23.161C28.6129 23.3469 28.9381 23.5228 29.3297 23.6887C29.7214 23.8546 30.1827 24.0139 30.7137 24.1666C31.5168 24.4056 32.2171 24.6711 32.8144 24.9631C33.4118 25.2485 33.9096 25.5738 34.3079 25.9388C34.7061 26.3039 35.0048 26.7187 35.2039 27.1834C35.4031 27.6413 35.5026 28.1624 35.5026 28.7465C35.5026 29.3571 35.3798 29.9081 35.1342 30.3992C34.8887 30.8838 34.5369 31.2986 34.0789 31.6438C33.6275 31.9823 33.0833 32.2445 32.4461 32.4303C31.8155 32.6095 31.1119 32.6991 30.3353 32.6991C29.6384 32.6991 28.9514 32.6062 28.2744 32.4203C27.604 32.2345 26.9933 31.9524 26.4424 31.5741C25.8915 31.1891 25.4534 30.7112 25.1282 30.1404C24.803 29.5629 24.6403 28.8892 24.6403 28.1192H27.1394C27.1394 28.5905 27.219 28.9921 27.3783 29.324C27.5443 29.6558 27.7732 29.928 28.0653 30.1404C28.3573 30.3461 28.6959 30.4988 29.0808 30.5984C29.4724 30.6979 29.8906 30.7477 30.3353 30.7477C30.9194 30.7477 31.4073 30.6647 31.7989 30.4988C32.1971 30.3329 32.4958 30.1005 32.695 29.8019C32.8941 29.5032 32.9936 29.158 32.9936 28.7664ZM42.2231 32.6991C41.4266 32.6991 40.7064 32.5697 40.0626 32.3108C39.4254 32.0453 38.8811 31.6769 38.4298 31.2057C37.9851 30.7344 37.6432 30.1802 37.4043 29.543C37.1653 28.9058 37.0458 28.2188 37.0458 27.482V27.0838C37.0458 26.2408 37.1686 25.4775 37.4142 24.7939C37.6598 24.1102 38.0016 23.5261 38.4397 23.0415C38.8778 22.5504 39.3955 22.1754 39.9929 21.9165C40.5903 21.6576 41.2374 21.5282 41.9344 21.5282C42.7043 21.5282 43.378 21.6576 43.9555 21.9165C44.533 22.1754 45.0109 22.5404 45.3892 23.0117C45.7742 23.4763 46.0596 24.0305 46.2454 24.6744C46.4379 25.3182 46.5342 26.0284 46.5342 26.805V27.8305H38.2107V26.1081H44.1646V25.9189C44.1513 25.4875 44.065 25.0826 43.9057 24.7042C43.7531 24.3259 43.5174 24.0206 43.1988 23.7883C42.8802 23.556 42.4554 23.4398 41.9244 23.4398C41.5262 23.4398 41.1711 23.5261 40.8591 23.6987C40.5538 23.8646 40.2982 24.1069 40.0925 24.4255C39.8867 24.7441 39.7274 25.129 39.6146 25.5804C39.5084 26.0251 39.4553 26.5262 39.4553 27.0838V27.482C39.4553 27.9533 39.5183 28.3914 39.6444 28.7963C39.7772 29.1945 39.9697 29.543 40.2219 29.8417C40.4741 30.1404 40.7794 30.376 41.1379 30.5486C41.4963 30.7145 41.9045 30.7975 42.3625 30.7975C42.94 30.7975 43.4544 30.6813 43.9057 30.449C44.3571 30.2167 44.7487 29.8881 45.0806 29.4633L46.345 30.688C46.1127 31.0265 45.8107 31.3517 45.439 31.6637C45.0673 31.969 44.6126 32.2179 44.075 32.4104C43.544 32.6029 42.9267 32.6991 42.2231 32.6991ZM50.9747 17.2072V32.5H48.5652V17.2072H50.9747ZM58.3523 32.6991C57.5558 32.6991 56.8356 32.5697 56.1917 32.3108C55.5545 32.0453 55.0103 31.6769 54.5589 31.2057C54.1142 30.7344 53.7724 30.1802 53.5334 29.543C53.2945 28.9058 53.175 28.2188 53.175 27.482V27.0838C53.175 26.2408 53.2978 25.4775 53.5434 24.7939C53.789 24.1102 54.1308 23.5261 54.5689 23.0415C55.007 22.5504 55.5247 22.1754 56.1221 21.9165C56.7194 21.6576 57.3666 21.5282 58.0635 21.5282C58.8335 21.5282 59.5072 21.6576 60.0846 21.9165C60.6621 22.1754 61.14 22.5404 61.5183 23.0117C61.9033 23.4763 62.1887 24.0305 62.3746 24.6744C62.5671 25.3182 62.6633 26.0284 62.6633 26.805V27.8305H54.3399V26.1081H60.2937V25.9189C60.2805 25.4875 60.1942 25.0826 60.0349 24.7042C59.8822 24.3259 59.6466 24.0206 59.328 23.7883C59.0094 23.556 58.5846 23.4398 58.0536 23.4398C57.6553 23.4398 57.3002 23.5261 56.9882 23.6987C56.6829 23.8646 56.4274 24.1069 56.2216 24.4255C56.0159 24.7441 55.8566 25.129 55.7437 25.5804C55.6375 26.0251 55.5844 26.5262 55.5844 27.0838V27.482C55.5844 27.9533 55.6475 28.3914 55.7736 28.7963C55.9063 29.1945 56.0988 29.543 56.351 29.8417C56.6033 30.1404 56.9086 30.376 57.267 30.5486C57.6254 30.7145 58.0337 30.7975 58.4916 30.7975C59.0691 30.7975 59.5835 30.6813 60.0349 30.449C60.4862 30.2167 60.8778 29.8881 61.2097 29.4633L62.4741 30.688C62.2418 31.0265 61.9398 31.3517 61.5681 31.6637C61.1964 31.969 60.7418 32.2179 60.2041 32.4104C59.6731 32.6029 59.0558 32.6991 58.3523 32.6991ZM68.9358 30.7875C69.3274 30.7875 69.6792 30.7112 69.9911 30.5585C70.3097 30.3992 70.5653 30.1802 70.7578 29.9014C70.9569 29.6226 71.0664 29.3007 71.0863 28.9357H73.3464C73.3331 29.6326 73.1274 30.2665 72.7291 30.8373C72.3309 31.4081 71.8032 31.8628 71.1461 32.2013C70.4889 32.5332 69.7621 32.6991 68.9656 32.6991C68.1426 32.6991 67.4257 32.5597 66.8151 32.281C66.2044 31.9955 65.6967 31.6039 65.2918 31.1061C64.8869 30.6083 64.5816 30.0342 64.3758 29.3837C64.1767 28.7332 64.0771 28.0363 64.0771 27.2929V26.9444C64.0771 26.201 64.1767 25.5041 64.3758 24.8536C64.5816 24.1965 64.8869 23.619 65.2918 23.1212C65.6967 22.6234 66.2044 22.2351 66.8151 21.9563C67.4257 21.6709 68.1393 21.5282 68.9557 21.5282C69.8186 21.5282 70.5752 21.7008 71.2257 22.0459C71.8762 22.3844 72.3873 22.859 72.759 23.4697C73.1373 24.0737 73.3331 24.7773 73.3464 25.5804H71.0863C71.0664 25.1821 70.9668 24.8237 70.7876 24.5051C70.6151 24.1799 70.3695 23.921 70.0509 23.7285C69.7389 23.536 69.3639 23.4398 68.9258 23.4398C68.4413 23.4398 68.0397 23.5394 67.7211 23.7385C67.4025 23.931 67.1536 24.1965 66.9744 24.535C66.7952 24.8669 66.6657 25.2419 66.5861 25.66C66.5131 26.0716 66.4766 26.4997 66.4766 26.9444V27.2929C66.4766 27.7376 66.5131 28.169 66.5861 28.5872C66.6591 29.0054 66.7852 29.3804 66.9644 29.7122C67.1503 30.0375 67.4025 30.2997 67.7211 30.4988C68.0397 30.6913 68.4446 30.7875 68.9358 30.7875ZM80.1266 21.7273V23.4796H74.0533V21.7273H80.1266ZM75.8056 19.0889H78.205V29.5231C78.205 29.855 78.2515 30.1105 78.3444 30.2897C78.444 30.4623 78.5801 30.5784 78.7526 30.6382C78.9252 30.6979 79.1277 30.7278 79.36 30.7278C79.5259 30.7278 79.6852 30.7178 79.8379 30.6979C79.9905 30.678 80.1133 30.6581 80.2063 30.6382L80.2162 32.4701C80.0171 32.5299 79.7848 32.583 79.5193 32.6294C79.2604 32.6759 78.9617 32.6991 78.6232 32.6991C78.0723 32.6991 77.5844 32.6029 77.1596 32.4104C76.7348 32.2113 76.403 31.8893 76.164 31.4446C75.9251 30.9999 75.8056 30.4092 75.8056 29.6724V19.0889ZM94.9216 28.7664C94.9216 28.4677 94.8752 28.2022 94.7822 27.9699C94.6959 27.7376 94.54 27.5252 94.3143 27.3327C94.0886 27.1402 93.77 26.9544 93.3585 26.7751C92.9536 26.5893 92.4359 26.4001 91.8053 26.2076C91.115 25.9952 90.4778 25.7596 89.8937 25.5007C89.3162 25.2352 88.8118 24.9299 88.3804 24.5848C87.9489 24.233 87.6137 23.8314 87.3748 23.3801C87.1358 22.9221 87.0163 22.3944 87.0163 21.797C87.0163 21.2063 87.1391 20.6686 87.3847 20.1841C87.637 19.6996 87.9921 19.2814 88.45 18.9296C88.9147 18.5712 89.4623 18.2957 90.0928 18.1032C90.7234 17.9041 91.4203 17.8046 92.1836 17.8046C93.2589 17.8046 94.1849 18.0037 94.9614 18.4019C95.7447 18.8002 96.3454 19.3345 96.7635 20.0049C97.1883 20.6753 97.4007 21.4154 97.4007 22.2251H94.9216C94.9216 21.7472 94.8187 21.3258 94.613 20.9607C94.4139 20.589 94.1085 20.2969 93.697 20.0845C93.2921 19.8721 92.7777 19.7659 92.1538 19.7659C91.563 19.7659 91.0719 19.8555 90.6803 20.0348C90.2886 20.214 89.9966 20.4562 89.8041 20.7616C89.6116 21.0669 89.5154 21.412 89.5154 21.797C89.5154 22.0692 89.5784 22.3181 89.7045 22.5437C89.8307 22.7628 90.0231 22.9685 90.282 23.161C90.5409 23.3469 90.8661 23.5228 91.2577 23.6887C91.6493 23.8546 92.1106 24.0139 92.6416 24.1666C93.4448 24.4056 94.145 24.6711 94.7424 24.9631C95.3398 25.2485 95.8376 25.5738 96.2358 25.9388C96.6341 26.3039 96.9328 26.7187 97.1319 27.1834C97.331 27.6413 97.4306 28.1624 97.4306 28.7465C97.4306 29.3571 97.3078 29.9081 97.0622 30.3992C96.8166 30.8838 96.4648 31.2986 96.0069 31.6438C95.5555 31.9823 95.0112 32.2445 94.374 32.4303C93.7435 32.6095 93.0399 32.6991 92.2633 32.6991C91.5664 32.6991 90.8794 32.6062 90.2024 32.4203C89.532 32.2345 88.9213 31.9524 88.3704 31.5741C87.8195 31.1891 87.3814 30.7112 87.0562 30.1404C86.7309 29.5629 86.5683 28.8892 86.5683 28.1192H89.0673C89.0673 28.5905 89.147 28.9921 89.3063 29.324C89.4722 29.6558 89.7012 29.928 89.9933 30.1404C90.2853 30.3461 90.6238 30.4988 91.0088 30.5984C91.4004 30.6979 91.8186 30.7477 92.2633 30.7477C92.8474 30.7477 93.3353 30.6647 93.7269 30.4988C94.1251 30.3329 94.4238 30.1005 94.6229 29.8019C94.8221 29.5032 94.9216 29.158 94.9216 28.7664ZM103.803 30.7875C104.194 30.7875 104.546 30.7112 104.858 30.5585C105.177 30.3992 105.432 30.1802 105.625 29.9014C105.824 29.6226 105.933 29.3007 105.953 28.9357H108.213C108.2 29.6326 107.994 30.2665 107.596 30.8373C107.198 31.4081 106.67 31.8628 106.013 32.2013C105.356 32.5332 104.629 32.6991 103.832 32.6991C103.009 32.6991 102.293 32.5597 101.682 32.281C101.071 31.9955 100.563 31.6039 100.159 31.1061C99.7537 30.6083 99.4484 30.0342 99.2426 29.3837C99.0435 28.7332 98.9439 28.0363 98.9439 27.2929V26.9444C98.9439 26.201 99.0435 25.5041 99.2426 24.8536C99.4484 24.1965 99.7537 23.619 100.159 23.1212C100.563 22.6234 101.071 22.2351 101.682 21.9563C102.293 21.6709 103.006 21.5282 103.823 21.5282C104.685 21.5282 105.442 21.7008 106.093 22.0459C106.743 22.3844 107.254 22.859 107.626 23.4697C108.004 24.0737 108.2 24.7773 108.213 25.5804H105.953C105.933 25.1821 105.834 24.8237 105.654 24.5051C105.482 24.1799 105.236 23.921 104.918 23.7285C104.606 23.536 104.231 23.4398 103.793 23.4398C103.308 23.4398 102.907 23.5394 102.588 23.7385C102.269 23.931 102.02 24.1965 101.841 24.535C101.662 24.8669 101.533 25.2419 101.453 25.66C101.38 26.0716 101.343 26.4997 101.343 26.9444V27.2929C101.343 27.7376 101.38 28.169 101.453 28.5872C101.526 29.0054 101.652 29.3804 101.831 29.7122C102.017 30.0375 102.269 30.2997 102.588 30.4988C102.907 30.6913 103.311 30.7875 103.803 30.7875ZM112.465 23.7783V32.5H110.065V21.7273H112.355L112.465 23.7783ZM115.76 21.6576L115.74 23.8878C115.594 23.8613 115.435 23.8414 115.262 23.8281C115.096 23.8148 114.93 23.8082 114.764 23.8082C114.353 23.8082 113.991 23.8679 113.679 23.9874C113.367 24.1002 113.105 24.2662 112.893 24.4852C112.687 24.6976 112.528 24.9565 112.415 25.2618C112.302 25.5671 112.236 25.909 112.216 26.2873L111.668 26.3271C111.668 25.6501 111.734 25.0228 111.867 24.4454C112 23.8679 112.199 23.3601 112.465 22.9221C112.737 22.484 113.075 22.1422 113.48 21.8966C113.892 21.651 114.366 21.5282 114.904 21.5282C115.05 21.5282 115.206 21.5415 115.372 21.568C115.544 21.5946 115.674 21.6244 115.76 21.6576ZM121.813 32.6991C121.017 32.6991 120.297 32.5697 119.653 32.3108C119.016 32.0453 118.472 31.6769 118.02 31.2057C117.575 30.7344 117.234 30.1802 116.995 29.543C116.756 28.9058 116.636 28.2188 116.636 27.482V27.0838C116.636 26.2408 116.759 25.4775 117.005 24.7939C117.25 24.1102 117.592 23.5261 118.03 23.0415C118.468 22.5504 118.986 22.1754 119.583 21.9165C120.181 21.6576 120.828 21.5282 121.525 21.5282C122.295 21.5282 122.968 21.6576 123.546 21.9165C124.123 22.1754 124.601 22.5404 124.98 23.0117C125.365 23.4763 125.65 24.0305 125.836 24.6744C126.028 25.3182 126.125 26.0284 126.125 26.805V27.8305H117.801V26.1081H123.755V25.9189C123.742 25.4875 123.655 25.0826 123.496 24.7042C123.343 24.3259 123.108 24.0206 122.789 23.7883C122.471 23.556 122.046 23.4398 121.515 23.4398C121.117 23.4398 120.761 23.5261 120.449 23.6987C120.144 23.8646 119.889 24.1069 119.683 24.4255C119.477 24.7441 119.318 25.129 119.205 25.5804C119.099 26.0251 119.046 26.5262 119.046 27.0838V27.482C119.046 27.9533 119.109 28.3914 119.235 28.7963C119.368 29.1945 119.56 29.543 119.812 29.8417C120.065 30.1404 120.37 30.376 120.728 30.5486C121.087 30.7145 121.495 30.7975 121.953 30.7975C122.53 30.7975 123.045 30.6813 123.496 30.449C123.947 30.2167 124.339 29.8881 124.671 29.4633L125.935 30.688C125.703 31.0265 125.401 31.3517 125.029 31.6637C124.658 31.969 124.203 32.2179 123.665 32.4104C123.134 32.6029 122.517 32.6991 121.813 32.6991ZM132.745 32.6991C131.949 32.6991 131.229 32.5697 130.585 32.3108C129.948 32.0453 129.403 31.6769 128.952 31.2057C128.507 30.7344 128.166 30.1802 127.927 29.543C127.688 28.9058 127.568 28.2188 127.568 27.482V27.0838C127.568 26.2408 127.691 25.4775 127.937 24.7939C128.182 24.1102 128.524 23.5261 128.962 23.0415C129.4 22.5504 129.918 22.1754 130.515 21.9165C131.113 21.6576 131.76 21.5282 132.457 21.5282C133.227 21.5282 133.9 21.6576 134.478 21.9165C135.055 22.1754 135.533 22.5404 135.912 23.0117C136.297 23.4763 136.582 24.0305 136.768 24.6744C136.96 25.3182 137.057 26.0284 137.057 26.805V27.8305H128.733V26.1081H134.687V25.9189C134.674 25.4875 134.587 25.0826 134.428 24.7042C134.275 24.3259 134.04 24.0206 133.721 23.7883C133.403 23.556 132.978 23.4398 132.447 23.4398C132.049 23.4398 131.693 23.5261 131.381 23.6987C131.076 23.8646 130.821 24.1069 130.615 24.4255C130.409 24.7441 130.25 25.129 130.137 25.5804C130.031 26.0251 129.978 26.5262 129.978 27.0838V27.482C129.978 27.9533 130.041 28.3914 130.167 28.7963C130.3 29.1945 130.492 29.543 130.744 29.8417C130.996 30.1404 131.302 30.376 131.66 30.5486C132.019 30.7145 132.427 30.7975 132.885 30.7975C133.462 30.7975 133.977 30.6813 134.428 30.449C134.879 30.2167 135.271 29.8881 135.603 29.4633L136.867 30.688C136.635 31.0265 136.333 31.3517 135.961 31.6637C135.59 31.969 135.135 32.2179 134.597 32.4104C134.066 32.6029 133.449 32.6991 132.745 32.6991ZM141.308 24.0272V32.5H138.908V21.7273H141.168L141.308 24.0272ZM140.88 26.7154L140.103 26.7055C140.11 25.9421 140.216 25.2419 140.422 24.6047C140.634 23.9675 140.926 23.4199 141.298 22.9619C141.676 22.5039 142.128 22.1521 142.652 21.9065C143.176 21.6543 143.76 21.5282 144.404 21.5282C144.922 21.5282 145.39 21.6012 145.808 21.7472C146.233 21.8866 146.595 22.1156 146.893 22.4342C147.199 22.7528 147.431 23.1677 147.59 23.6787C147.75 24.1832 147.829 24.8038 147.829 25.5406V32.5H145.42V25.5306C145.42 25.0129 145.343 24.6047 145.191 24.306C145.045 24.0007 144.829 23.7849 144.544 23.6588C144.265 23.5261 143.916 23.4597 143.498 23.4597C143.087 23.4597 142.718 23.546 142.393 23.7186C142.068 23.8911 141.792 24.1268 141.567 24.4255C141.348 24.7242 141.178 25.0693 141.059 25.4609C140.939 25.8525 140.88 26.2707 140.88 26.7154Z" fill="white"/>
<path d="M183.531 23.2344L179 27.7656L174.469 23.2344" stroke="white" stroke-width="2.2656" stroke-miterlimit="10" stroke-linecap="round" stroke-linejoin="round"/>
</svg>
