<svg width="200" height="57" viewBox="0 0 200 57" fill="none" xmlns="http://www.w3.org/2000/svg">
<g filter="url(#filter0_b_697_1797)">
<rect width="199.214" height="56.0419" rx="28.021" fill="url(#paint0_linear_697_1797)"/>
<rect width="199.214" height="56.0419" rx="28.021" fill="#939392"/>
<rect x="0.517365" y="0.517365" width="198.179" height="55.0072" rx="27.5036" stroke="#FF4233" stroke-width="1.03473"/>
<path d="M68.9192 19.8079V34.5205H66.4031V19.8079H68.9192ZM73.5371 19.8079V21.8289H61.8256V19.8079H73.5371ZM76.9525 25.6687V34.5205H74.5172V23.5871H76.8413L76.9525 25.6687ZM80.2972 23.5164L80.277 25.7799C80.1288 25.7529 79.9671 25.7327 79.7919 25.7192C79.6235 25.7058 79.4551 25.699 79.2867 25.699C78.869 25.699 78.5019 25.7597 78.1853 25.8809C77.8687 25.9954 77.6026 26.1638 77.387 26.3862C77.1782 26.6017 77.0165 26.8644 76.902 27.1743C76.7874 27.4842 76.7201 27.8311 76.6999 28.2151L76.1441 28.2555C76.1441 27.5684 76.2115 26.9318 76.3462 26.3457C76.4809 25.7597 76.683 25.2443 76.9525 24.7997C77.2287 24.3551 77.5722 24.0082 77.9832 23.7589C78.4008 23.5097 78.8825 23.385 79.4282 23.385C79.5764 23.385 79.7347 23.3985 79.9031 23.4254C80.0782 23.4524 80.2096 23.4827 80.2972 23.5164ZM85.1778 33.3281L88.1486 23.5871H90.7556L86.3701 36.1878C86.2691 36.4573 86.1377 36.7503 85.9761 37.0669C85.8144 37.3835 85.6022 37.6833 85.3395 37.9662C85.0835 38.2559 84.7635 38.4883 84.3795 38.6635C83.9955 38.8454 83.5307 38.9363 82.985 38.9363C82.7695 38.9363 82.5606 38.9161 82.3585 38.8757C82.1632 38.842 81.9779 38.8049 81.8028 38.7645L81.7927 36.9052C81.86 36.912 81.9409 36.9187 82.0352 36.9254C82.1362 36.9322 82.2171 36.9356 82.2777 36.9356C82.6819 36.9356 83.0187 36.885 83.2882 36.784C83.5576 36.6897 83.7766 36.5347 83.945 36.3192C84.1201 36.1036 84.2684 35.8139 84.3896 35.4501L85.1778 33.3281ZM83.5004 23.5871L86.0973 31.772L86.5318 34.3386L84.8443 34.7731L80.8731 23.5871H83.5004ZM109.217 19.8079V34.5205H106.681L100.082 23.9812V34.5205H97.546V19.8079H100.082L106.701 30.3674V19.8079H109.217ZM111.531 29.1751V28.9427C111.531 28.1545 111.646 27.4236 111.875 26.7499C112.104 26.0695 112.434 25.4801 112.865 24.9816C113.303 24.4763 113.835 24.0856 114.461 23.8094C115.095 23.5265 115.809 23.385 116.604 23.385C117.405 23.385 118.119 23.5265 118.746 23.8094C119.379 24.0856 119.915 24.4763 120.353 24.9816C120.79 25.4801 121.124 26.0695 121.353 26.7499C121.582 27.4236 121.696 28.1545 121.696 28.9427V29.1751C121.696 29.9632 121.582 30.6942 121.353 31.3678C121.124 32.0415 120.79 32.6309 120.353 33.1362C119.915 33.6347 119.382 34.0254 118.756 34.3083C118.13 34.5845 117.419 34.7226 116.624 34.7226C115.822 34.7226 115.105 34.5845 114.472 34.3083C113.845 34.0254 113.313 33.6347 112.875 33.1362C112.437 32.6309 112.104 32.0415 111.875 31.3678C111.646 30.6942 111.531 29.9632 111.531 29.1751ZM113.966 28.9427V29.1751C113.966 29.6668 114.017 30.1317 114.118 30.5695C114.219 31.0074 114.377 31.3914 114.593 31.7215C114.808 32.0516 115.085 32.3109 115.421 32.4995C115.758 32.6882 116.159 32.7825 116.624 32.7825C117.075 32.7825 117.466 32.6882 117.796 32.4995C118.133 32.3109 118.409 32.0516 118.625 31.7215C118.84 31.3914 118.999 31.0074 119.1 30.5695C119.207 30.1317 119.261 29.6668 119.261 29.1751V28.9427C119.261 28.4576 119.207 27.9996 119.1 27.5684C118.999 27.1305 118.837 26.7432 118.615 26.4064C118.399 26.0695 118.123 25.8068 117.786 25.6182C117.456 25.4228 117.062 25.3251 116.604 25.3251C116.146 25.3251 115.748 25.4228 115.411 25.6182C115.081 25.8068 114.808 26.0695 114.593 26.4064C114.377 26.7432 114.219 27.1305 114.118 27.5684C114.017 27.9996 113.966 28.4576 113.966 28.9427ZM126.708 32.0954L129.235 23.5871H130.791L130.366 26.1335L127.82 34.5205H126.426L126.708 32.0954ZM125.223 23.5871L127.193 32.1358L127.355 34.5205H125.799L122.838 23.5871H125.223ZM133.155 32.0347L135.065 23.5871H137.44L134.489 34.5205H132.933L133.155 32.0347ZM131.054 23.5871L133.549 31.9943L133.863 34.5205H132.468L129.891 26.1234L129.467 23.5871H131.054Z" fill="white"/>
</g>
<defs>
<filter id="filter0_b_697_1797" x="-103.473" y="-103.473" width="406.16" height="262.988" filterUnits="userSpaceOnUse" color-interpolation-filters="sRGB">
<feFlood flood-opacity="0" result="BackgroundImageFix"/>
<feGaussianBlur in="BackgroundImageFix" stdDeviation="51.7365"/>
<feComposite in2="SourceAlpha" operator="in" result="effect1_backgroundBlur_697_1797"/>
<feBlend mode="normal" in="SourceGraphic" in2="effect1_backgroundBlur_697_1797" result="shape"/>
</filter>
<linearGradient id="paint0_linear_697_1797" x1="5.05467" y1="39.284" x2="188.322" y2="3.04989" gradientUnits="userSpaceOnUse">
<stop stop-color="#FB1807"/>
<stop offset="1" stop-color="#FF4031"/>
</linearGradient>
</defs>
</svg>
