<svg width="184" height="107" viewBox="0 0 184 107" fill="none" xmlns="http://www.w3.org/2000/svg">
<path d="M93.9167 53.5416L91.0363 42.8581H92.7737L94.8921 51.6975L97.3306 42.8581H99.1137L101.476 51.6975L103.594 42.8581H105.332L102.406 53.5264H100.516L98.1841 45.1594L95.7761 53.5264L93.9167 53.5416ZM108.51 53.7093C107.87 53.7093 107.341 53.6026 106.925 53.3892C106.508 53.1758 106.198 52.8964 105.995 52.551C105.792 52.1954 105.69 51.8093 105.69 51.3927C105.69 50.6612 105.975 50.082 106.544 49.6553C107.113 49.2286 107.926 49.0152 108.982 49.0152H110.964V48.878C110.964 48.2887 110.801 47.8468 110.476 47.5521C110.161 47.2575 109.749 47.1101 109.241 47.1101C108.794 47.1101 108.403 47.2219 108.068 47.4454C107.743 47.6588 107.545 47.9788 107.473 48.4056H105.858C105.909 47.8569 106.092 47.3895 106.407 47.0035C106.732 46.6072 107.138 46.3075 107.626 46.1043C108.124 45.8909 108.667 45.7842 109.257 45.7842C110.313 45.7842 111.131 46.0636 111.71 46.6224C112.289 47.1711 112.579 47.923 112.579 48.878V53.5264H111.177L111.04 52.2309C110.826 52.6475 110.516 52.998 110.11 53.2825C109.704 53.567 109.17 53.7093 108.51 53.7093ZM108.83 52.3986C109.267 52.3986 109.633 52.297 109.927 52.0938C110.232 51.8804 110.466 51.601 110.628 51.2555C110.801 50.9101 110.908 50.5291 110.948 50.1125H109.15C108.51 50.1125 108.053 50.2243 107.778 50.4478C107.514 50.6713 107.382 50.9507 107.382 51.286C107.382 51.6315 107.509 51.9058 107.763 52.109C108.027 52.3021 108.383 52.3986 108.83 52.3986ZM117.484 53.5264C116.742 53.5264 116.153 53.3486 115.716 52.993C115.279 52.6272 115.061 51.982 115.061 51.0574V47.3235H113.765V45.9671H115.061L115.259 44.0468H116.676V45.9671H118.81V47.3235H116.676V51.0574C116.676 51.474 116.762 51.7636 116.935 51.9261C117.118 52.0785 117.428 52.1547 117.865 52.1547H118.734V53.5264H117.484ZM123.863 53.7093C123.122 53.7093 122.456 53.5416 121.867 53.2063C121.288 52.871 120.831 52.4087 120.495 51.8194C120.17 51.22 120.008 50.5291 120.008 49.7467C120.008 48.9644 120.17 48.2786 120.495 47.6893C120.831 47.0898 121.288 46.6224 121.867 46.2872C122.456 45.9519 123.122 45.7842 123.863 45.7842C124.798 45.7842 125.581 46.0281 126.211 46.5158C126.851 47.0035 127.262 47.6639 127.445 48.497H125.753C125.652 48.0804 125.428 47.7553 125.083 47.5216C124.737 47.2879 124.331 47.1711 123.863 47.1711C123.467 47.1711 123.101 47.2727 122.766 47.4759C122.431 47.669 122.162 47.9585 121.958 48.3446C121.755 48.7205 121.654 49.1879 121.654 49.7467C121.654 50.3056 121.755 50.778 121.958 51.1641C122.162 51.54 122.431 51.8296 122.766 52.0328C123.101 52.236 123.467 52.3376 123.863 52.3376C124.331 52.3376 124.737 52.2208 125.083 51.9871C125.428 51.7534 125.652 51.4232 125.753 50.9965H127.445C127.272 51.8093 126.866 52.4646 126.226 52.9625C125.586 53.4603 124.798 53.7093 123.863 53.7093ZM129.197 53.5264V42.5532H130.813V47.1863C131.067 46.7494 131.417 46.4091 131.864 46.1652C132.321 45.9112 132.824 45.7842 133.373 45.7842C134.277 45.7842 134.988 46.0687 135.507 46.6377C136.025 47.2067 136.284 48.055 136.284 49.1828V53.5264H134.684V49.3505C134.684 47.8874 134.099 47.1559 132.931 47.1559C132.321 47.1559 131.813 47.3692 131.407 47.796C131.011 48.2227 130.813 48.8323 130.813 49.6248V53.5264H129.197ZM145.242 53.5264L141.295 42.8581H143.017L146.218 51.8499L149.433 42.8581H151.14L147.193 53.5264H145.242ZM153.359 44.5345C153.054 44.5345 152.8 44.4431 152.597 44.2602C152.404 44.0671 152.308 43.8284 152.308 43.5439C152.308 43.2594 152.404 43.0257 152.597 42.8428C152.8 42.6498 153.054 42.5532 153.359 42.5532C153.664 42.5532 153.913 42.6498 154.106 42.8428C154.309 43.0257 154.411 43.2594 154.411 43.5439C154.411 43.8284 154.309 44.0671 154.106 44.2602C153.913 44.4431 153.664 44.5345 153.359 44.5345ZM152.551 53.5264V45.9671H154.167V53.5264H152.551ZM159.744 53.7093C159.012 53.7093 158.367 53.5365 157.808 53.1911C157.249 52.8456 156.813 52.3732 156.498 51.7737C156.183 51.1743 156.025 50.4935 156.025 49.7315C156.025 48.9695 156.183 48.2938 156.498 47.7045C156.813 47.1051 157.249 46.6377 157.808 46.3024C158.377 45.9569 159.027 45.7842 159.759 45.7842C160.358 45.7842 160.882 45.9011 161.329 46.1348C161.786 46.3684 162.142 46.6986 162.396 47.1254V42.5532H164.011V53.5264H162.563L162.396 52.3529C162.152 52.7085 161.816 53.0234 161.39 53.2978C160.963 53.5721 160.414 53.7093 159.744 53.7093ZM160.033 52.3071C160.724 52.3071 161.288 52.0684 161.725 51.5908C162.172 51.1133 162.396 50.4986 162.396 49.7467C162.396 48.9847 162.172 48.37 161.725 47.9026C161.288 47.4251 160.724 47.1863 160.033 47.1863C159.342 47.1863 158.773 47.4251 158.326 47.9026C157.879 48.37 157.656 48.9847 157.656 49.7467C157.656 50.2446 157.757 50.6866 157.961 51.0727C158.164 51.4587 158.443 51.7636 158.799 51.9871C159.165 52.2004 159.576 52.3071 160.033 52.3071ZM169.584 53.7093C168.842 53.7093 168.182 53.5467 167.602 53.2216C167.034 52.8863 166.586 52.424 166.261 51.8347C165.936 51.2454 165.774 50.5596 165.774 49.7772C165.774 48.9847 165.931 48.2887 166.246 47.6893C166.571 47.0898 167.018 46.6224 167.587 46.2872C168.166 45.9519 168.837 45.7842 169.599 45.7842C170.341 45.7842 170.986 45.9519 171.535 46.2872C172.083 46.6123 172.51 47.0492 172.815 47.5978C173.12 48.1465 173.272 48.751 173.272 49.4114C173.272 49.5131 173.267 49.6248 173.257 49.7467C173.257 49.8585 173.252 49.9855 173.241 50.1277H167.359C167.409 50.8593 167.648 51.4181 168.075 51.8042C168.512 52.1801 169.015 52.3681 169.584 52.3681C170.041 52.3681 170.422 52.2665 170.727 52.0633C171.042 51.8499 171.275 51.5654 171.428 51.2098H173.043C172.84 51.921 172.434 52.5154 171.824 52.993C171.225 53.4705 170.478 53.7093 169.584 53.7093ZM169.584 47.1101C169.045 47.1101 168.568 47.2727 168.151 47.5978C167.735 47.9128 167.481 48.3903 167.389 49.0304H171.656C171.626 48.4411 171.418 47.9738 171.032 47.6283C170.645 47.2829 170.163 47.1101 169.584 47.1101ZM178.484 53.7093C177.763 53.7093 177.112 53.5467 176.533 53.2216C175.964 52.8863 175.512 52.424 175.177 51.8347C174.841 51.2352 174.674 50.5392 174.674 49.7467C174.674 48.9542 174.841 48.2633 175.177 47.674C175.522 47.0746 175.984 46.6123 176.564 46.2872C177.143 45.9519 177.788 45.7842 178.499 45.7842C179.221 45.7842 179.866 45.9519 180.435 46.2872C181.014 46.6123 181.471 47.0746 181.806 47.674C182.152 48.2633 182.325 48.9542 182.325 49.7467C182.325 50.5392 182.152 51.2352 181.806 51.8347C181.471 52.424 181.014 52.8863 180.435 53.2216C179.856 53.5467 179.205 53.7093 178.484 53.7093ZM178.484 52.3224C178.87 52.3224 179.226 52.2258 179.551 52.0328C179.886 51.8398 180.155 51.5553 180.358 51.1793C180.562 50.7932 180.663 50.3157 180.663 49.7467C180.663 49.1778 180.562 48.7053 180.358 48.3294C180.165 47.9433 179.901 47.6537 179.566 47.4607C179.241 47.2676 178.885 47.1711 178.499 47.1711C178.113 47.1711 177.752 47.2676 177.417 47.4607C177.092 47.6537 176.828 47.9433 176.625 48.3294C176.421 48.7053 176.32 49.1778 176.32 49.7467C176.32 50.3157 176.421 50.7932 176.625 51.1793C176.828 51.5553 177.092 51.8398 177.417 52.0328C177.742 52.2258 178.098 52.3224 178.484 52.3224Z" fill="white"/>
<g filter="url(#filter0_d_514_406)">
<rect x="24.9307" y="25.0962" width="45.7213" height="45.7213" rx="22.8607" fill="white"/>
<path d="M43.5053 42.1823C43.5053 41.449 44.299 40.9908 44.9341 41.3574L54.9356 47.1318C55.5706 47.4984 55.5706 48.415 54.9356 48.7816L44.9341 54.556C44.299 54.9226 43.5053 54.4643 43.5053 53.7311L43.5053 42.1823Z" fill="#FF4233"/>
</g>
<defs>
<filter id="filter0_d_514_406" x="0.164945" y="0.330472" width="106.683" height="106.683" filterUnits="userSpaceOnUse" color-interpolation-filters="sRGB">
<feFlood flood-opacity="0" result="BackgroundImageFix"/>
<feColorMatrix in="SourceAlpha" type="matrix" values="0 0 0 0 0 0 0 0 0 0 0 0 0 0 0 0 0 0 127 0" result="hardAlpha"/>
<feOffset dx="5.71517" dy="5.71517"/>
<feGaussianBlur stdDeviation="15.2404"/>
<feColorMatrix type="matrix" values="0 0 0 0 0.117647 0 0 0 0 0.117647 0 0 0 0 0.117647 0 0 0 0.16 0"/>
<feBlend mode="normal" in2="BackgroundImageFix" result="effect1_dropShadow_514_406"/>
<feBlend mode="normal" in="SourceGraphic" in2="effect1_dropShadow_514_406" result="shape"/>
</filter>
</defs>
</svg>
