<svg width="75" height="54" viewBox="0 0 75 54" fill="none" xmlns="http://www.w3.org/2000/svg">
<path fill-rule="evenodd" clip-rule="evenodd" d="M58.9333 2.33003H14.3597V42.1465H58.9333V2.33003ZM12.6465 0.789551L12.6467 44.1099H60.7393V0.789605L12.6465 0.789551Z" fill="white"/>
<path d="M13.1465 11.3757L20.5563 1.58252" stroke="#FF4233" stroke-width="1.37383"/>
<path d="M61.7705 11.3757L54.3607 1.58252" stroke="#FF4233" stroke-width="1.37383"/>
<path d="M25.2054 12.4305L29.7943 1.58247" stroke="#FF4233" stroke-width="1.37383"/>
<path d="M49.7096 12.4305L45.1208 1.58247" stroke="#FF4233" stroke-width="1.37383"/>
<path d="M37.488 12.6665L37.4743 1.58205" stroke="#FF4233" stroke-width="1.37383"/>
<path d="M60.6009 1.58252L12.944 1.58259L1.88281 11.5285H72.947L60.6009 1.58252Z" stroke="white" stroke-width="1.09907"/>
<mask id="path-8-inside-1_514_412" fill="white">
<path d="M12.9399 12.0053C12.9399 12.9933 12.7805 13.9717 12.4708 14.8845C12.1612 15.7974 11.7072 16.6268 11.135 17.3255C10.5628 18.0241 9.88346 18.5783 9.13581 18.9564C8.38816 19.3345 7.58683 19.5291 6.77758 19.5291C5.96833 19.5291 5.167 19.3345 4.41935 18.9564C3.6717 18.5783 2.99237 18.0241 2.42014 17.3255C1.84792 16.6268 1.394 15.7974 1.08432 14.8845C0.774628 13.9717 0.615234 12.9933 0.615234 12.0053L6.77758 12.0053H12.9399Z"/>
</mask>
<path d="M12.9399 12.0053C12.9399 12.9933 12.7805 13.9717 12.4708 14.8845C12.1612 15.7974 11.7072 16.6268 11.135 17.3255C10.5628 18.0241 9.88346 18.5783 9.13581 18.9564C8.38816 19.3345 7.58683 19.5291 6.77758 19.5291C5.96833 19.5291 5.167 19.3345 4.41935 18.9564C3.6717 18.5783 2.99237 18.0241 2.42014 17.3255C1.84792 16.6268 1.394 15.7974 1.08432 14.8845C0.774628 13.9717 0.615234 12.9933 0.615234 12.0053L6.77758 12.0053H12.9399Z" fill="#FF4233" stroke="white" stroke-width="2.2153" mask="url(#path-8-inside-1_514_412)"/>
<mask id="path-9-inside-2_514_412" fill="white">
<path d="M25.2056 12.0053C25.2056 12.9933 25.0462 13.9717 24.7365 14.8845C24.4268 15.7974 23.9729 16.6268 23.4006 17.3255C22.8284 18.0241 22.1491 18.5783 21.4014 18.9564C20.6538 19.3345 19.8525 19.5291 19.0432 19.5291C18.234 19.5291 17.4326 19.3345 16.685 18.9564C15.9373 18.5783 15.258 18.0241 14.6858 17.3255C14.1135 16.6268 13.6596 15.7974 13.3499 14.8845C13.0403 13.9717 12.8809 12.9933 12.8809 12.0053L19.0432 12.0053H25.2056Z"/>
</mask>
<path d="M25.2056 12.0053C25.2056 12.9933 25.0462 13.9717 24.7365 14.8845C24.4268 15.7974 23.9729 16.6268 23.4006 17.3255C22.8284 18.0241 22.1491 18.5783 21.4014 18.9564C20.6538 19.3345 19.8525 19.5291 19.0432 19.5291C18.234 19.5291 17.4326 19.3345 16.685 18.9564C15.9373 18.5783 15.258 18.0241 14.6858 17.3255C14.1135 16.6268 13.6596 15.7974 13.3499 14.8845C13.0403 13.9717 12.8809 12.9933 12.8809 12.0053L19.0432 12.0053H25.2056Z" fill="#FF4233" stroke="white" stroke-width="2.2153" mask="url(#path-9-inside-2_514_412)"/>
<mask id="path-10-inside-3_514_412" fill="white">
<path d="M37.4761 12.0053C37.4761 12.9933 37.3167 13.9717 37.007 14.8845C36.6973 15.7974 36.2434 16.6268 35.6712 17.3255C35.0989 18.0241 34.4196 18.5783 33.6719 18.9564C32.9243 19.3345 32.123 19.5291 31.3137 19.5291C30.5045 19.5291 29.7031 19.3345 28.9555 18.9564C28.2078 18.5783 27.5285 18.0241 26.9563 17.3255C26.384 16.6268 25.9301 15.7974 25.6204 14.8845C25.3108 13.9717 25.1514 12.9933 25.1514 12.0053L31.3137 12.0053H37.4761Z"/>
</mask>
<path d="M37.4761 12.0053C37.4761 12.9933 37.3167 13.9717 37.007 14.8845C36.6973 15.7974 36.2434 16.6268 35.6712 17.3255C35.0989 18.0241 34.4196 18.5783 33.6719 18.9564C32.9243 19.3345 32.123 19.5291 31.3137 19.5291C30.5045 19.5291 29.7031 19.3345 28.9555 18.9564C28.2078 18.5783 27.5285 18.0241 26.9563 17.3255C26.384 16.6268 25.9301 15.7974 25.6204 14.8845C25.3108 13.9717 25.1514 12.9933 25.1514 12.0053L31.3137 12.0053H37.4761Z" fill="#FF4233" stroke="white" stroke-width="2.2153" mask="url(#path-10-inside-3_514_412)"/>
<mask id="path-11-inside-4_514_412" fill="white">
<path d="M49.7427 12.0053C49.7427 12.9933 49.5833 13.9717 49.2736 14.8845C48.9639 15.7974 48.51 16.6268 47.9378 17.3255C47.3655 18.0241 46.6862 18.5783 45.9385 18.9564C45.1909 19.3345 44.3896 19.5291 43.5803 19.5291C42.7711 19.5291 41.9697 19.3345 41.2221 18.9564C40.4744 18.5783 39.7951 18.0241 39.2229 17.3255C38.6507 16.6268 38.1967 15.7974 37.887 14.8845C37.5774 13.9717 37.418 12.9933 37.418 12.0053L43.5803 12.0053H49.7427Z"/>
</mask>
<path d="M49.7427 12.0053C49.7427 12.9933 49.5833 13.9717 49.2736 14.8845C48.9639 15.7974 48.51 16.6268 47.9378 17.3255C47.3655 18.0241 46.6862 18.5783 45.9385 18.9564C45.1909 19.3345 44.3896 19.5291 43.5803 19.5291C42.7711 19.5291 41.9697 19.3345 41.2221 18.9564C40.4744 18.5783 39.7951 18.0241 39.2229 17.3255C38.6507 16.6268 38.1967 15.7974 37.887 14.8845C37.5774 13.9717 37.418 12.9933 37.418 12.0053L43.5803 12.0053H49.7427Z" fill="#FF4233" stroke="white" stroke-width="2.2153" mask="url(#path-11-inside-4_514_412)"/>
<mask id="path-12-inside-5_514_412" fill="white">
<path d="M62.0073 12.0053C62.0073 12.9933 61.8479 13.9717 61.5382 14.8845C61.2285 15.7974 60.7746 16.6268 60.2024 17.3255C59.6302 18.0241 58.9508 18.5783 58.2032 18.9564C57.4555 19.3345 56.6542 19.5291 55.845 19.5291C55.0357 19.5291 54.2344 19.3345 53.4867 18.9564C52.7391 18.5783 52.0598 18.0241 51.4875 17.3255C50.9153 16.6268 50.4614 15.7974 50.1517 14.8845C49.842 13.9717 49.6826 12.9933 49.6826 12.0053L55.845 12.0053H62.0073Z"/>
</mask>
<path d="M62.0073 12.0053C62.0073 12.9933 61.8479 13.9717 61.5382 14.8845C61.2285 15.7974 60.7746 16.6268 60.2024 17.3255C59.6302 18.0241 58.9508 18.5783 58.2032 18.9564C57.4555 19.3345 56.6542 19.5291 55.845 19.5291C55.0357 19.5291 54.2344 19.3345 53.4867 18.9564C52.7391 18.5783 52.0598 18.0241 51.4875 17.3255C50.9153 16.6268 50.4614 15.7974 50.1517 14.8845C49.842 13.9717 49.6826 12.9933 49.6826 12.0053L55.845 12.0053H62.0073Z" fill="#FF4233" stroke="white" stroke-width="2.2153" mask="url(#path-12-inside-5_514_412)"/>
<mask id="path-13-inside-6_514_412" fill="white">
<path d="M74.2749 12.0053C74.2749 12.9933 74.1155 13.9717 73.8058 14.8845C73.4961 15.7974 73.0422 16.6268 72.47 17.3255C71.8978 18.0241 71.2184 18.5783 70.4708 18.9564C69.7231 19.3345 68.9218 19.5291 68.1125 19.5291C67.3033 19.5291 66.502 19.3345 65.7543 18.9564C65.0067 18.5783 64.3273 18.0241 63.7551 17.3255C63.1829 16.6268 62.729 15.7974 62.4193 14.8845C62.1096 13.9717 61.9502 12.9933 61.9502 12.0053L68.1125 12.0053H74.2749Z"/>
</mask>
<path d="M74.2749 12.0053C74.2749 12.9933 74.1155 13.9717 73.8058 14.8845C73.4961 15.7974 73.0422 16.6268 72.47 17.3255C71.8978 18.0241 71.2184 18.5783 70.4708 18.9564C69.7231 19.3345 68.9218 19.5291 68.1125 19.5291C67.3033 19.5291 66.502 19.3345 65.7543 18.9564C65.0067 18.5783 64.3273 18.0241 63.7551 17.3255C63.1829 16.6268 62.729 15.7974 62.4193 14.8845C62.1096 13.9717 61.9502 12.9933 61.9502 12.0053L68.1125 12.0053H74.2749Z" fill="#FF4233" stroke="white" stroke-width="2.2153" mask="url(#path-13-inside-6_514_412)"/>
<rect x="6.6709" y="46.3926" width="59.9523" height="7.43317" fill="white"/>
</svg>
